<svg width="176" height="341" viewBox="0 0 176 341" fill="none" xmlns="http://www.w3.org/2000/svg">
<path d="M173.713 341H2.28742C1.68076 341 1.09894 340.419 0.669969 339.385C0.240995 338.35 0 336.947 0 335.485V335.485C0.00335195 334.027 0.245826 332.632 0.674437 331.605C1.10305 330.577 1.68295 330 2.28742 330H173.713C174.319 330 174.901 330.581 175.33 331.615C175.759 332.65 176 334.053 176 335.515V335.515C175.997 336.973 175.754 338.368 175.326 339.395C174.897 340.423 174.317 341 173.713 341V341Z" fill="#F1F2F2"/>
<path d="M74.1117 326.62C74.6653 326.278 75.313 326.119 75.9621 326.168L79.7245 325.798L76.2808 320.658L76.8564 298.802H63.1943C63.6878 316.936 63.9859 322.025 64.1195 326.908L68.7866 328.039C69.2041 328.144 69.6383 328.164 70.0638 328.099C70.4893 328.033 70.8974 327.884 71.2641 327.658L74.1117 326.62Z" fill="#FFC8AF"/>
<path d="M64.1299 326.856C64.1916 328.912 64.2224 330.968 64.2224 332.911H82.4283C82.5736 332.911 82.7175 332.882 82.8516 332.826C82.9857 332.77 83.1074 332.688 83.2097 332.585C83.312 332.482 83.3928 332.359 83.4475 332.225C83.5021 332.09 83.5296 331.946 83.5282 331.801C83.532 331.584 83.4672 331.372 83.3432 331.194L79.776 325.766H75.5201C74.871 325.718 74.2233 325.876 73.6697 326.219L71.2745 327.648C70.9077 327.873 70.4996 328.023 70.0742 328.088C69.6487 328.153 69.2145 328.133 68.797 328.028L64.1299 326.856Z" fill="#56548C"/>
<path d="M101.364 325.767L112.785 327.915C113.782 328.1 114.811 327.996 115.751 327.616C116.691 327.235 117.503 326.593 118.09 325.767V325.767L112.713 321.541C113.042 318.046 113.813 300.981 113.813 300.981H100.583L101.364 325.767Z" fill="#FFC8AF"/>
<path d="M101.364 325.767L101.457 331.77V332.911H123.98C124.212 332.912 124.437 332.841 124.626 332.707C124.815 332.573 124.957 332.384 125.033 332.165C125.109 331.947 125.114 331.71 125.049 331.488C124.984 331.266 124.851 331.07 124.669 330.927L118.09 325.787C117.503 326.614 116.691 327.256 115.751 327.636C114.812 328.017 113.782 328.121 112.785 327.936L101.364 325.767Z" fill="#56548C"/>
<path d="M56.3274 143.687L50.0566 148.364C49.6803 148.932 49.4281 149.572 49.3165 150.243C49.2048 150.915 49.2364 151.602 49.4089 152.261C49.9211 154.057 50.8471 155.708 52.1126 157.082C52.1126 157.082 47.3632 157.185 47.466 158.531C47.5688 159.878 53.7985 161.482 58.4965 161.07C59.1093 156.509 60.0367 151.996 61.2721 147.563L56.3274 143.687Z" fill="#FFC8AF"/>
<path d="M152.867 87.2602C152.867 87.2602 138.064 138.167 128.925 137.468C128.77 137.468 128.626 137.468 128.493 137.406C120.886 136.327 114.738 121.801 111.49 112.169C111.744 110.547 112.087 108.941 112.518 107.358C115.735 95.7 117.946 89.275 112.518 78.4193L121.153 73.0635L130.21 116.311C130.21 116.311 145.959 81.5136 147.758 79.4679C150.461 76.3839 154.522 77.71 157.349 76.9904C160.176 76.2708 167.043 73.2896 168.533 75.2326C170.291 77.4942 152.867 87.2602 152.867 87.2602Z" fill="#FFC8AF"/>
<path d="M121.184 73.0532L112.539 78.4194C117.966 89.2751 115.756 95.7001 112.539 107.358C112.108 108.941 111.765 110.547 111.511 112.169C110.473 118.49 110.314 124.924 111.038 131.289H66.8337L56.7182 87.0135L47.4662 93.1815L46.7158 91.8862L46.027 90.7245L37.3918 75.9625L36.7236 74.8008C42.5952 69.0092 49.2244 64.0399 56.4304 60.0284C62.732 56.6155 70.0103 53.8604 77.4324 53.6343C78.0379 55.7278 79.3071 57.5678 81.049 58.8774C82.791 60.1869 84.9112 60.895 87.0905 60.895C89.2697 60.895 91.39 60.1869 93.1319 58.8774C94.8738 57.5678 96.1431 55.7278 96.7485 53.6343C107.029 53.881 113.567 58.0855 117.566 62.3723C120.116 65.0692 122.061 68.2796 123.271 71.7888L121.184 73.0532Z" fill="#FBD15B"/>
<path d="M121.821 184.334C121.821 210.898 116.681 265.207 115.293 303.325H99.6987L93.2532 174.661H86.6328L78.0799 303.325H62.4646C61.0871 265.207 55.9368 210.898 55.9368 184.334C55.9353 178.221 56.344 172.115 57.1601 166.056C58.001 159.952 59.2372 153.908 60.8609 147.964C62.3659 142.255 64.3431 136.681 66.7719 131.3H110.976C110.976 131.3 121.821 153.659 121.821 184.334Z" fill="#56548C"/>
<path d="M117.905 59.2062C117.916 60.2757 117.778 61.3414 117.493 62.3725C113.505 58.0857 106.977 53.8915 96.6764 53.6345C95.6947 52.1933 95.1227 50.5128 95.0213 48.772C101.107 48.8234 104.9 46.0581 104.921 46.3974C113.237 29.2195 104.921 13.6453 104.921 13.6453C104.921 13.6453 104.242 20.2553 95.8745 24.7374C91.2896 27.184 89.8196 32.8175 89.8196 32.8175C89.8196 32.8175 88.5654 27.5541 85.0497 27.8625C81.5339 28.1709 82.7161 35.3566 82.7161 35.3566L85.3375 38.7696C86.7048 50.0776 77.3602 53.6345 77.3602 53.6345C69.9278 53.8915 62.6495 56.6157 56.3582 60.0286C56.5203 57.2304 57.5315 54.548 59.2571 52.3392C61.5187 49.5944 63.3691 49.9131 64.87 47.3534C67.2344 43.2414 60.2748 39.9826 62.0019 35.0174C63.585 30.4633 65.8158 30.3811 68.1699 25.7654C71.0997 20.0703 68.2932 17.3358 70.0923 11.764C72.3847 4.71195 85.7693 0.45603 94.3325 0.69247C104.777 1.03171 114.831 8.74171 115.55 16.1125C115.9 19.7927 113.741 21.4581 114.779 26.2486C115.9 31.5325 119.046 31.8717 119.303 35.9118C119.642 41.4424 113.947 42.6966 114.163 48.402C114.327 52.884 117.863 54.0662 117.905 59.2062Z" fill="#8E59FF"/>
<path d="M27.0397 116.178C26.6572 115.819 26.3497 115.388 26.1351 114.91C25.9206 114.431 25.8031 113.915 25.7898 113.391C25.7764 112.867 25.8673 112.345 26.0571 111.857C26.247 111.368 26.5321 110.922 26.8958 110.544L45.955 90.7244L37.3403 75.9932C30.8331 82.7163 7.32268 107.625 8.93664 114.862C10.8487 123.291 49.738 149.619 49.738 149.619L56.3481 143.718L27.0397 116.178Z" fill="#FFC8AF"/>
<path d="M104.911 46.3971C104.911 46.3971 104.911 46.7878 103.821 47.2812C102.793 47.7952 100.645 48.4326 96.5325 48.8849C96.4428 50.4663 96.4979 52.0526 96.697 53.624C96.0916 55.7174 94.8223 57.5575 93.0804 58.867C91.3385 60.1766 89.2182 60.8847 87.0389 60.8847C84.8597 60.8847 82.7394 60.1766 80.9975 58.867C79.2556 57.5575 77.9863 55.7174 77.3809 53.624C79.6457 52.6269 81.5943 51.0286 83.0151 49.0025C84.4358 46.9765 85.2746 44.6 85.4404 42.1309V42.1309C85.5241 41.0104 85.4966 39.8844 85.3581 38.7694C85.3581 38.7694 83.3947 38.5432 82.747 35.3564C82.3358 33.4238 81.5648 28.1604 85.0806 27.8623C88.5964 27.5642 89.8402 32.8172 89.8402 32.8172C89.8402 32.8172 91.3103 27.1838 95.8952 24.7372C104.263 20.2654 104.931 13.6348 104.931 13.6348C104.931 13.6348 113.238 29.2192 104.911 46.3971Z" fill="#FFC8AF"/>
<path d="M87.8355 38.7798C87.2391 40.0366 86.4207 41.1754 85.4196 42.1414C85.5034 41.0209 85.4758 39.8948 85.3374 38.7798C86.1589 38.9729 87.014 38.9729 87.8355 38.7798Z" fill="#EDB29A"/>
<path d="M96.6762 53.6343C94.3015 53.2436 92.667 48.2578 92.667 48.2578C96.406 48.5664 100.17 48.2397 103.8 47.2915C102.772 47.8055 100.624 48.4429 96.5117 48.8952C96.422 50.4766 96.4771 52.0629 96.6762 53.6343V53.6343Z" fill="#EDB29A"/>
<path d="M45.9547 90.7244L26.8956 110.544C26.5157 110.934 26.2216 111.398 26.0322 111.908C25.8427 112.418 25.7621 112.962 25.7956 113.505C25.5316 113.135 25.365 112.705 25.3111 112.254C25.2572 111.803 25.3178 111.346 25.4872 110.925C26.7311 108.622 43.0455 91.3926 43.1483 90.6833C43.2511 89.974 37.6793 76.8156 37.3401 75.9932L45.9547 90.7244Z" fill="#EDB29A"/>
<path d="M128.493 137.406C120.886 136.327 114.738 121.801 111.49 112.169C111.744 110.547 112.087 108.941 112.518 107.358C115.735 95.7 117.946 89.275 112.518 78.4194L121.153 73.0635C120.773 73.3924 114.903 78.6147 114.625 79.1698C114.348 79.7249 116.157 83.8575 116.733 93.8496C117.308 103.616 118.696 126.622 128.493 137.406Z" fill="#EDB29A"/>
<g style="mix-blend-mode:multiply">
<path d="M73.9575 120.095C74.1489 123.824 74.1489 127.56 73.9575 131.29C73.6254 138.219 72.3208 145.067 70.0819 151.634C65.6204 164.288 63.3177 199.713 65.9185 224.745C67.81 243.074 67.9231 283.146 67.8409 303.325H62.485C61.1075 265.207 55.9572 210.898 55.9572 184.334C55.9489 178.222 56.3507 172.115 57.16 166.057C58.0009 159.952 59.2371 153.908 60.8608 147.964C62.3658 142.255 64.343 136.681 66.7718 131.3L56.6562 87.0239L47.4042 93.1919L46.6538 91.8967L60.8916 79.8999C60.8916 79.8999 65.7438 94.8265 68.0876 98.4656C70.4314 102.105 79.9713 106.124 79.9713 106.124C79.9713 106.124 73.6594 113.752 73.9575 120.095Z" fill="#F1F2F2"/>
</g>
</svg>
