<svg width="175" height="343" viewBox="0 0 175 343" fill="none" xmlns="http://www.w3.org/2000/svg">
<path d="M172.256 342.713H18.363C17.8184 342.713 17.2961 342.132 16.911 341.097C16.5259 340.063 16.3096 338.66 16.3096 337.198C16.3126 335.74 16.5303 334.345 16.915 333.317C17.2998 332.29 17.8204 331.713 18.363 331.713H172.256C172.801 331.713 173.323 332.294 173.708 333.328C174.093 334.363 174.31 335.765 174.31 337.228C174.307 338.686 174.089 340.081 173.704 341.108C173.319 342.136 172.799 342.713 172.256 342.713Z" fill="#F1F2F2"/>
<path d="M116.839 246.165L92.7122 312.666C89.8027 312.841 86.8948 312.299 84.2439 311.087C81.5929 309.875 79.28 308.031 77.5081 305.717L91.2319 242.475L80.0781 182.491H74.6297L71.3093 319.215C66.6524 321.147 58.3873 320.931 53.0931 319.318L44.8691 178.574L44.6841 175.387H108.574L108.985 177.803L118.083 232.575C118.835 237.137 118.407 241.815 116.839 246.165V246.165Z" fill="#EC827D"/>
<path d="M116.788 131.841C116.788 131.841 119.944 141.093 117.487 144.815C116.945 145.593 116.34 146.326 115.678 147.004C114.004 148.633 112.136 150.048 110.116 151.219C108.405 142.77 107.203 134.226 106.518 125.632C108.992 127.223 111.095 129.327 112.686 131.8L116.788 131.841Z" fill="#FFC8AF"/>
<path d="M100.505 331.222C100.33 331.672 100.076 332.086 99.7541 332.445C98.5925 333.802 96.557 333.926 92.9487 332.97C90.6974 332.363 86.5135 329.402 82.7715 325.917C78.5773 321.98 74.8662 317.848 74.8662 317.848L75.5138 314.877L77.4979 305.717C79.2682 308.031 81.5818 309.873 84.2337 311.08C86.8857 312.287 89.7943 312.821 92.702 312.636L96.1767 324.036C96.1767 324.036 101.502 328.745 100.505 331.222Z" fill="#56548C"/>
<path d="M94.0899 41.7168C92.7433 43.2896 86.2257 42.6831 86.2257 42.6831V45.5101C85.9901 48.1466 84.7821 50.6011 82.8366 52.3961C80.8912 54.191 78.3476 55.198 75.7007 55.2211C73.0538 55.2442 70.4929 54.2817 68.5165 52.5209C66.5401 50.7602 65.2894 48.3271 65.0078 45.6951V37.5945C71.1141 37.8103 70.8057 32.8245 70.8057 32.8245C70.8057 32.8245 67.4339 30.8713 67.218 27.5201C67.0021 24.1688 70.8983 21.5679 72.4814 22.195C74.0645 22.8221 73.5094 31.5087 76.4289 30.6658C77.241 30.419 77.4569 26.9135 77.4569 24.9912C77.4811 24.1683 77.8239 23.387 78.4129 22.8118L79.2867 21.9175C79.6701 21.5488 79.9471 21.0836 80.0886 20.5708L81.8053 14.8448C86.6781 14.5913 91.3824 12.9781 95.3852 10.188C100.453 23.0174 95.4469 40.1439 94.0899 41.7168Z" fill="#FFC8AF"/>
<path d="M83.1001 334.624H53.9974L53.8021 331.417L53.0928 319.338C58.3973 320.952 66.6418 321.168 71.3089 319.235L80.8796 328.056L84.4057 331.294C84.4484 331.33 84.4864 331.371 84.5187 331.417C84.762 331.694 84.9209 332.035 84.9767 332.399C85.0325 332.764 84.983 333.137 84.8338 333.474C84.6847 333.811 84.4422 334.099 84.135 334.302C83.8278 334.506 83.4687 334.618 83.1001 334.624V334.624Z" fill="#56548C"/>
<path d="M109.181 52.7673C114.691 56.6017 141.892 88.0483 144.503 103.139C147.761 121.983 133.071 139.479 129.514 141.103C126.679 142.305 123.745 143.261 120.746 143.961C120.228 144.875 119.482 145.639 118.582 146.18C117.681 146.72 116.656 147.018 115.606 147.045C116.268 146.367 116.873 145.634 117.415 144.856C119.872 141.134 116.716 131.882 116.716 131.882H112.604L114.824 128.86V124.398C117.191 122.636 119.216 120.455 120.797 117.963C122.681 115.079 123.556 111.652 123.285 108.218C122.38 98.5236 107.711 93.1266 107.711 93.1266C106.042 103.891 105.621 114.812 106.456 125.673C107.142 134.266 108.343 142.811 110.054 151.26C110.541 153.809 111.069 156.403 111.638 159.042L108.554 162.126V175.377H40.1299V163.719L35.2674 158.888V149.399C13.7617 145.935 -2.1312 131.512 0.233204 112.494C4.04708 82.1578 27.1565 58.6577 31.8031 56.1083C35.9048 53.8467 59.518 47.2572 65.0075 45.7563C65.2891 48.3883 66.5397 50.8214 68.5162 52.5822C70.4926 54.3429 73.0534 55.3054 75.7003 55.2823C78.3472 55.2592 80.8909 54.2522 82.8363 52.4573C84.7817 50.6623 85.9898 48.2078 86.2254 45.5713C89.6487 46.2395 104.328 49.3338 109.181 52.7673Z" fill="#A5B7C6"/>
<g style="mix-blend-mode:multiply">
<path d="M69.0477 127.472V126.229H64.7404C64.7404 126.229 63.2292 125.437 62.2937 125.077C61.3582 124.717 42.7617 125.077 42.7617 125.077C42.7617 125.077 60.69 123.761 63.8768 123.926C66.4322 124.069 68.9088 124.862 71.0728 126.229C71.4188 126.585 71.6882 127.008 71.8644 127.472H69.0477Z" fill="#E6E7E8"/>
</g>
<path d="M95.4157 10.1875C91.4128 12.9777 86.7085 14.5909 81.8358 14.8444L80.119 20.5703C79.9776 21.0831 79.7006 21.5483 79.3172 21.917L78.4434 22.8114C77.8543 23.3865 77.5116 24.1678 77.4874 24.9907C77.4874 26.9131 77.2406 30.4186 76.4594 30.6653C73.4987 31.5083 74.1052 22.8114 72.5118 22.1946C70.9184 21.5778 67.0429 24.1683 67.2485 27.5196C67.4541 30.8709 70.8362 32.8241 70.8362 32.8241C70.8362 32.8241 71.1446 37.8099 65.0383 37.594C64.2878 37.594 62.6122 33.8007 62.3346 33.2559C58.7366 26.0599 57.8012 17.8359 60.9366 10.3315C61.5137 8.86252 62.2884 7.47911 63.2393 6.21947C63.839 5.51873 64.645 5.02574 65.542 4.81111C66.4364 4.51299 67.8344 4.70831 68.626 4.34851C69.4176 3.98871 69.4998 3.01211 70.1269 2.46727C71.1807 1.80662 72.3605 1.37251 73.5912 1.19255C78.7582 -0.0039481 84.0924 -0.302992 89.3608 0.308478C91.9719 0.616877 95.7858 1.33648 97.2661 3.7934C98.7464 6.25031 97.5642 8.62499 95.4157 10.1875Z" fill="#112B46"/>
<path d="M77.1377 117.973L87.6336 113.861C87.5951 113.918 87.5502 113.969 87.5 114.016C85.8297 115.735 84.2902 117.577 82.8945 119.526C85.9168 118.59 91.6222 117.171 94.2745 118.693C94.5762 118.846 94.8444 119.057 95.0633 119.315C95.2822 119.572 95.4474 119.871 95.5492 120.194C95.6726 122.25 93.4007 125.252 93.4007 125.252L92.0026 131.82C92.0013 132.715 91.8236 133.602 91.4799 134.428C91.1361 135.254 90.6329 136.005 89.9991 136.637C89.3652 137.269 88.6131 137.77 87.7857 138.111C86.9583 138.452 86.0717 138.627 85.1767 138.626H69.0474V127.472H72.2856L74.2696 121.047C74.4818 120.35 74.8505 119.711 75.3476 119.178C75.8447 118.645 76.457 118.233 77.1377 117.973V117.973Z" fill="#FFC8AF"/>
<g style="mix-blend-mode:multiply">
<path d="M75.2671 138.616C75.2671 138.616 73.2111 143.756 62.232 148.495C51.253 153.234 35.2676 154.046 35.2676 154.046V149.338C51.4997 149.338 57.2565 146.336 59.4873 144.938C62.0059 143.375 63.3114 140.826 64.1647 140.62C65.0179 140.415 69.0477 140.261 69.0477 140.261V138.616H75.2671Z" fill="#E6E7E8"/>
</g>
<g style="mix-blend-mode:multiply">
<path d="M61.7179 48.5425C61.7179 49.9817 65.1206 54.4843 68.3896 56.2113C68.3896 56.2113 64.7916 55.3992 62.9618 53.333C62.4235 52.6701 62.0339 51.8994 61.8193 51.0729C61.6047 50.2464 61.5701 49.3835 61.7179 48.5425Z" fill="#E6E7E8"/>
</g>
<g style="mix-blend-mode:multiply">
<path d="M24.3399 111.425C24.3399 111.723 24.3399 112.011 24.4221 112.32L24.3296 112.227C24.3296 112.001 24.3296 111.723 24.3399 111.425Z" fill="#E6E7E8"/>
</g>
<g style="mix-blend-mode:multiply">
<path d="M38.9889 84.2344L36.3161 124.45H35.2881V93.0855C35.2881 93.0855 26.4885 98.5441 24.6895 107.477C26.8483 93.0238 38.9889 84.2344 38.9889 84.2344Z" fill="#E6E7E8"/>
</g>
<g style="mix-blend-mode:multiply">
<path d="M120.859 117.922C122.743 115.038 123.618 111.611 123.346 108.177C122.442 98.4828 107.772 93.0858 107.772 93.0858L110.589 81.6133C110.589 81.6133 127.109 93.9493 126.718 105.257C126.644 107.654 126.087 110.011 125.08 112.187C124.073 114.364 122.637 116.314 120.859 117.922V117.922Z" fill="#E6E7E8"/>
</g>
<g style="mix-blend-mode:multiply">
<path d="M108.986 177.793L44.8691 178.564L44.6841 175.377H108.574L108.986 177.793Z" fill="#E6E7E8"/>
</g>
<path d="M70.8057 32.8242C72.0217 33.1965 73.3213 33.1965 74.5373 32.8242C74.5373 32.8242 74.1158 35.1681 72.6664 35.0961C71.2169 35.0241 70.8057 32.8242 70.8057 32.8242Z" fill="#EDB29A"/>
<path d="M94.0896 41.7165C92.7429 43.2894 86.2254 42.6829 86.2254 42.6829V45.0575C83.8747 44.5159 81.7533 43.2502 80.1602 41.439C80.1602 41.439 90.7383 42.1586 94.0896 41.7165Z" fill="#EDB29A"/>
<path d="M83.1002 334.624H53.9976L53.8022 331.417H84.5189C84.7621 331.694 84.921 332.035 84.9768 332.399C85.0327 332.764 84.9831 333.137 84.8339 333.474C84.6848 333.811 84.4423 334.098 84.1352 334.302C83.828 334.506 83.4689 334.618 83.1002 334.624V334.624Z" fill="#A5B7C6"/>
<path d="M99.7541 332.445C98.5925 333.802 96.557 333.925 92.9487 332.969C90.6974 332.363 86.5135 329.402 82.7715 325.917C78.5773 321.98 74.8662 317.847 74.8662 317.847L75.5138 314.876C78.1352 317.96 84.3135 325.156 88.0143 327.942C91.9002 330.923 96.2589 333.679 99.7541 332.445Z" fill="#A5B7C6"/>
<g style="mix-blend-mode:multiply">
<path d="M108.574 162.126C108.574 162.126 96.8242 163.432 85.7218 164.398C79.6267 164.974 73.5033 165.197 67.3823 165.066C76.6435 165.608 85.9285 165.608 95.1897 165.066C107.526 164.12 108.554 163.781 108.554 163.781L108.574 162.126Z" fill="#E6E7E8"/>
</g>
</svg>
