<svg width="149" height="360" viewBox="0 0 149 360" fill="none" xmlns="http://www.w3.org/2000/svg">
<path d="M147.063 360H1.93651C1.42291 360 0.930355 359.419 0.56719 358.385C0.204024 357.35 0 355.947 0 354.485V354.485C0.00283773 353.027 0.208114 351.632 0.570972 350.605C0.93383 349.577 1.42477 349 1.93651 349H147.063C147.577 349 148.07 349.581 148.433 350.615C148.796 351.65 149 353.053 149 354.515V354.515C148.997 355.973 148.792 357.368 148.429 358.395C148.066 359.423 147.575 360 147.063 360V360Z" fill="#F1F2F2"/>
<path d="M136.898 114.442L117.942 108.665C116.739 111.091 114.858 114.751 111.774 114.422C111.644 114.398 111.521 114.345 111.414 114.268C107.785 111.554 100.568 74.7411 98.605 64.3892C101.333 65.4375 104.346 65.4703 107.096 64.4817C109.564 63.7333 111.636 62.0413 112.863 59.7734H126.926C137.988 60.493 143.21 62.1995 145.759 68.0694C149.347 76.4373 146.314 93.7283 136.898 114.442Z" fill="#8E59FF"/>
<path d="M126.906 336.45V351.767H99.7563C99.3252 351.767 98.8985 351.682 98.5005 351.516C98.1026 351.35 97.7412 351.108 97.4374 350.802C97.1336 350.496 96.8932 350.134 96.7302 349.735C96.5671 349.336 96.4845 348.908 96.4872 348.477C96.4821 348.381 96.4821 348.285 96.4872 348.189C96.567 347.401 96.9327 346.67 97.5152 346.133L107.641 336.439L126.906 336.45Z" fill="#8E59FF"/>
<path d="M126.906 189.518V336.45H107.662C107.662 336.45 98.7489 221.314 96.7032 194.904H92.5295V336.45H73.2442L61.854 189.518H126.906Z" fill="#56548C"/>
<path d="M132.58 115.964V189.517H61.8539L64.4651 101.315L51.6356 110.793L49.4151 108.737L49.0348 108.387L33.0905 93.9954L32.3401 93.101L51.3889 71.7186C61.5558 62.6413 72.062 60.5031 85.6007 59.8555C86.1981 61.8576 87.183 63.7228 88.4997 65.345C91.2855 68.4907 91.2239 93.101 92.2724 101.14C94.3284 116.457 100.938 133.717 110.005 134.807C111.754 135 113.519 134.641 115.053 133.779C120.049 131.137 123.935 119.12 132.58 115.964Z" fill="#8E59FF"/>
<g style="mix-blend-mode:multiply">
<path d="M132.58 115.964V189.517H109.964V134.807C111.713 135 113.478 134.641 115.012 133.779C120.049 131.137 123.935 119.12 132.58 115.964Z" fill="#E8EAEB"/>
</g>
<path d="M128.91 18.4685C128.91 25.6645 124.12 39.4088 115.053 47.6842C115.053 44.9703 114.93 42.2255 114.93 39.7275L116.986 37.8565C117.713 37.179 118.253 36.3254 118.554 35.3781C118.854 34.4309 118.906 33.4221 118.702 32.4493C118.373 30.9278 117.674 29.4681 116.184 29.3653C112.976 29.0569 113.254 37.4453 110.735 38.1341C108.217 38.8229 110.735 28.8821 110.735 28.8821L108.402 25.6953C108.443 25.3851 108.463 25.0727 108.464 24.7598C108.459 23.1312 107.882 21.556 106.834 20.31C105.785 19.0639 104.331 18.2265 102.727 17.9442C98.6176 17.2489 94.5531 16.3084 90.5558 15.1275C89.0315 14.6945 87.5488 14.1269 86.1251 13.4313C79.844 10.1417 82.6402 1.37283 86.5363 0.170066C90.4325 -1.03269 96.5079 4.56991 100.702 3.66527C104.896 2.76063 109.07 1.77374 112.01 2.7709C114.95 3.76806 114.693 8.34267 118.394 9.64823C122.095 10.9538 128.91 11.2827 128.91 18.4685Z" fill="#56548C"/>
<path d="M116.914 37.8565L114.858 39.7274C114.858 42.2255 114.981 44.9702 114.981 47.6841C114.981 52.1148 115.31 60.7912 115.31 60.7912C113.245 62.7486 110.674 64.0908 107.888 64.6667C105.773 65.0575 103.617 65.1715 101.473 65.006C100.462 64.9394 99.4657 64.7318 98.5124 64.3892C98.1835 62.6621 98.0087 61.6855 98.0087 61.6855C98.0087 61.6855 99.5918 46.8001 99.5918 46.2655C99.0345 44.9289 98.2193 43.7153 97.1927 42.694C96.1661 41.6727 94.9483 40.8638 93.6089 40.3134C93.6089 40.3134 93.6089 40.3134 93.5266 40.3134C93.0289 40.1032 92.5171 39.928 91.9949 39.7891H91.8613C90.7383 39.5087 89.5852 39.3671 88.4278 39.3676C87.8612 39.3655 87.296 39.4241 86.7418 39.5424C86.1197 31.2383 87.3885 22.9012 90.4529 15.1582C94.4503 16.3391 98.5147 17.2797 102.624 17.9749C104.228 18.2572 105.682 19.0947 106.731 20.3407C107.779 21.5868 108.356 23.162 108.361 24.7906C108.36 25.1034 108.34 25.4159 108.299 25.726L110.746 28.8512C110.746 28.8512 108.217 38.8228 110.746 38.1032C113.274 37.3836 112.987 29.0259 116.194 29.3343C117.664 29.468 118.384 30.9277 118.713 32.4183C118.911 33.403 118.85 34.4224 118.535 35.376C118.219 36.3297 117.66 37.1846 116.914 37.8565V37.8565Z" fill="#FFC8AF"/>
<path d="M92.4987 336.45V351.767H65.38C64.924 351.767 64.4728 351.673 64.0554 351.489C63.638 351.305 63.2636 351.036 62.9559 350.7C62.6483 350.363 62.4142 349.966 62.2687 349.534C62.1232 349.101 62.0695 348.644 62.111 348.189C62.1879 347.401 62.5541 346.668 63.139 346.133L73.2648 336.439L92.4987 336.45Z" fill="#8E59FF"/>
<g style="mix-blend-mode:multiply">
<path d="M126.766 336.866V352.183H99.6166C99.1856 352.183 98.7588 352.098 98.3609 351.932C97.9629 351.766 97.6016 351.524 97.2978 351.218C96.9939 350.912 96.7536 350.55 96.5905 350.151C96.4274 349.752 96.3449 349.324 96.3476 348.893C96.3425 348.797 96.3425 348.701 96.3476 348.605C96.4273 347.817 96.793 347.086 97.3756 346.549L107.501 336.855L126.766 336.866Z" fill="#E8EAEB"/>
</g>
<g style="mix-blend-mode:multiply">
<path d="M92.3588 336.866V352.183H65.2401C64.7841 352.183 64.3329 352.089 63.9155 351.905C63.4981 351.721 63.1237 351.452 62.816 351.116C62.5084 350.779 62.2743 350.382 62.1288 349.95C61.9834 349.517 61.9296 349.06 61.9711 348.605C62.048 347.817 62.4142 347.084 62.9991 346.549L73.1249 336.855L92.3588 336.866Z" fill="#E8EAEB"/>
</g>
<path d="M63.2622 142.013L62.7277 160.024C58.1942 161.227 53.4757 159.777 53.2187 158.729C52.9617 157.68 58.7699 156.323 58.4512 154.987C58.297 154.226 55.655 154.308 53.3112 154.524C52.3064 154.632 51.2915 154.455 50.3826 154.013C49.4737 153.571 48.7074 152.883 48.1712 152.026C48.1095 151.944 48.0787 151.872 48.0273 151.79L46.8656 149.734C46.8656 149.734 45.0872 148.315 42.363 146.033C38.251 142.64 32.083 137.326 26.686 132.073C26.7323 130.365 27.151 128.688 27.9127 127.16C28.6745 125.631 29.7609 124.287 31.0961 123.222C32.7805 121.871 34.8114 121.023 36.9557 120.775C39.2379 123.736 43.8433 132.268 49.1992 137.285C50.2272 138.076 51.2552 138.909 52.458 139.742C53.9927 139.214 55.6213 139.014 57.2382 139.156C59.4852 139.49 61.5821 140.484 63.2622 142.013Z" fill="#FFC8AF"/>
<path d="M46.907 106.506L44.6866 108.634L40.5746 112.613C35.3835 112.062 30.1842 113.576 26.1003 116.827C23.3877 118.994 21.2837 121.828 19.994 125.051C18.4567 123.367 17.1278 121.503 16.0362 119.5C12.8802 113.013 30.4282 96.5141 32.8337 94.2833L33.1113 94.0366L46.907 106.506Z" fill="#FFC8AF"/>
<path d="M46.9274 149.734C46.9274 149.734 45.149 148.315 42.4248 146.033C37.3025 152.98 34.5003 161.365 34.4167 169.995V172.771C34.3521 173.346 34.4096 173.928 34.5855 174.48C34.7614 175.031 35.0516 175.539 35.4373 175.971C35.8231 176.402 36.2955 176.747 36.8237 176.984C37.352 177.22 37.9242 177.342 38.503 177.342C39.0817 177.342 39.6539 177.22 40.1822 176.984C40.7104 176.747 41.1829 176.402 41.5686 175.971C41.9543 175.539 42.2446 175.031 42.4205 174.48C42.5963 173.928 42.6539 173.346 42.5893 172.771V169.995C42.6589 163.58 44.6224 157.329 48.233 152.026C48.1713 151.944 48.1404 151.872 48.089 151.79L46.9274 149.734ZM57.9373 127.806C57.1158 124.276 55.3384 121.039 52.7998 118.452C50.2613 115.864 47.0595 114.026 43.5453 113.137C43.4009 113.088 43.2532 113.05 43.1033 113.024C40.1697 112.317 37.1138 112.285 34.1664 112.932C31.219 113.579 28.4569 114.887 26.0888 116.757C23.7206 118.627 21.8083 121.011 20.496 123.728C19.1837 126.445 18.5058 129.425 18.5135 132.443C18.4489 133.018 18.5064 133.6 18.6823 134.151C18.8582 134.703 19.1485 135.211 19.5342 135.642C19.9199 136.074 20.3923 136.419 20.9206 136.655C21.4488 136.891 22.0211 137.014 22.5998 137.014C23.1785 137.014 23.7507 136.891 24.279 136.655C24.8073 136.419 25.2797 136.074 25.6654 135.642C26.0511 135.211 26.3414 134.703 26.5173 134.151C26.6932 133.6 26.7507 133.018 26.6861 132.443C26.6761 132.319 26.6761 132.196 26.6861 132.072C26.7324 130.365 27.151 128.688 27.9128 127.159C28.6745 125.631 29.761 124.287 31.0962 123.221C32.7806 121.871 34.8115 121.023 36.9558 120.775C38.3957 120.583 39.8583 120.653 41.2734 120.98C43.3741 121.473 45.2955 122.542 46.8211 124.068C48.3468 125.593 49.4161 127.515 49.9086 129.616C50.5161 132.181 50.2669 134.874 49.1993 137.284C50.2273 138.076 51.2553 138.909 52.458 139.741C53.9928 139.213 55.6214 139.014 57.2383 139.155C58.5335 135.513 58.7758 131.58 57.9373 127.806V127.806ZM39.1249 180.769C38.2587 180.767 37.4115 181.022 36.6902 181.501C35.9689 181.981 35.406 182.663 35.0726 183.463C34.7393 184.262 34.6505 185.142 34.8175 185.992C34.9845 186.842 35.3997 187.624 36.0107 188.237C36.6217 188.851 37.4011 189.27 38.2502 189.441C39.0993 189.612 39.98 189.528 40.781 189.198C41.582 188.868 42.2673 188.309 42.7501 187.59C43.233 186.871 43.4918 186.025 43.4939 185.158C43.4939 183.998 43.0343 182.884 42.2155 182.062C41.3967 181.239 40.2855 180.774 39.1249 180.769Z" fill="#EC827D"/>
<g style="mix-blend-mode:multiply">
<g style="mix-blend-mode:multiply">
<path d="M39.1251 180.769C39.0223 180.769 38.9298 180.769 38.8373 180.769C39.5491 181.304 40.0799 182.045 40.358 182.891C40.6362 183.737 40.6484 184.648 40.3931 185.502C40.1377 186.355 39.6271 187.11 38.9299 187.664C38.2327 188.218 37.3823 188.546 36.4934 188.602C37.2533 189.171 38.1758 189.481 39.1251 189.486C40.2485 189.432 41.3079 188.947 42.0837 188.133C42.8596 187.319 43.2923 186.237 43.2923 185.112C43.2923 183.987 42.8596 182.906 42.0837 182.091C41.3079 181.277 40.2485 180.792 39.1251 180.738V180.769Z" fill="#F1F2F2"/>
</g>
<g style="mix-blend-mode:multiply">
<path d="M40.4614 120.826C39.8004 120.524 39.1119 120.287 38.4054 120.117C36.9908 119.786 35.5283 119.713 34.0878 119.901C31.9425 120.153 29.9117 121.005 28.2282 122.358C26.8932 123.424 25.8062 124.768 25.0429 126.296C24.2795 127.825 23.8581 129.501 23.8078 131.209C23.8078 131.332 23.8078 131.456 23.8078 131.579C23.7974 132.593 23.4128 133.567 22.7278 134.315C22.0428 135.062 21.1058 135.531 20.0967 135.629C20.7005 136.094 21.4215 136.382 22.1795 136.461C22.9375 136.54 23.7025 136.407 24.3891 136.077C25.0758 135.746 25.6571 135.231 26.0681 134.59C26.4792 133.948 26.7038 133.205 26.717 132.443C26.707 132.319 26.707 132.196 26.717 132.072C26.7633 130.365 27.1819 128.688 27.9437 127.159C28.7054 125.631 29.7919 124.287 31.1271 123.221C32.4303 122.205 33.9289 121.468 35.5295 121.056C37.1301 120.643 38.7985 120.565 40.4306 120.826H40.4614Z" fill="#F1F2F2"/>
</g>
<g style="mix-blend-mode:multiply">
<path d="M57.9374 127.806C57.1159 124.276 55.3385 121.039 52.7999 118.452C50.2614 115.864 47.0596 114.025 43.5454 113.137C43.4011 113.088 43.2533 113.05 43.1034 113.024L42.7744 112.952C45.7984 114.106 48.4925 115.986 50.6201 118.426C52.7477 120.865 54.2438 123.79 54.9768 126.943C55.8395 130.696 55.6185 134.618 54.3394 138.251C53.1624 138.138 51.9749 138.218 50.8236 138.487L52.4787 139.7C54.0135 139.172 55.6421 138.973 57.2589 139.114C58.5395 135.483 58.7746 131.565 57.9374 127.806V127.806Z" fill="#F1F2F2"/>
</g>
<g style="mix-blend-mode:multiply">
<path d="M46.9275 149.734C46.9275 149.734 45.1491 148.315 42.4249 146.033L41.7464 147.061C43.1547 148.222 44.0182 148.911 44.0182 148.911L45.1799 150.967C45.217 151.052 45.2654 151.132 45.3238 151.204C41.7087 156.504 39.7448 162.757 39.6801 169.173V171.938C39.6697 172.952 39.2851 173.927 38.6001 174.674C37.9151 175.422 36.9781 175.89 35.969 175.989C36.5728 176.454 37.2939 176.742 38.0518 176.821C38.8098 176.9 39.5748 176.766 40.2614 176.436C40.9481 176.105 41.5294 175.591 41.9404 174.949C42.3515 174.307 42.5762 173.564 42.5893 172.802V169.995C42.659 163.58 44.6224 157.329 48.2331 152.026C48.1714 151.944 48.1405 151.872 48.0891 151.79L46.9275 149.734Z" fill="#F1F2F2"/>
</g>
</g>
<path d="M101.545 65.006C100.535 64.9394 99.538 64.7318 98.5847 64.3892C98.2558 62.6622 98.081 61.6856 98.081 61.6856C98.081 61.6856 99.6641 46.8002 99.6641 46.2656C99.1068 44.929 98.2916 43.7154 97.265 42.6941C96.2384 41.6728 95.0206 40.8639 93.6812 40.3135C97.6184 41.8041 100.6 43.6442 101.905 45.6591C103.036 47.3553 102.1 59.0334 101.545 65.006Z" fill="#EDB29A"/>
<path d="M46.9069 106.506L44.6864 108.634L32.813 94.2423L33.0905 93.9956L46.9069 106.506Z" fill="#EDB29A"/>
<path d="M134.585 113.733C134.328 114.299 133.999 114.936 133.557 115.666C131.725 118.979 129.476 122.044 126.865 124.784C123.437 128.416 119.432 131.455 115.012 133.779C103.396 139.947 92.7249 120.57 90.3399 102.539C89.3119 94.4584 91.224 68.4912 88.4381 65.3455C87.1215 63.7233 86.1365 61.8581 85.5392 59.856C84.5934 57.0084 84.2644 53.9347 84.9738 51.9712C85.5597 50.3675 87.3073 47.0368 85.5597 46.3481C83.8121 45.6593 83.2879 50.8507 80.8515 50.2236C79.6487 49.9255 80.2758 40.8174 86.7522 39.4605C87.3063 39.3422 87.8715 39.2836 88.4381 39.2857C96.4976 39.2857 99.6125 45.7415 99.6125 46.2658C99.6125 46.7901 98.0191 61.6858 98.0191 61.6858C98.0191 61.6858 98.1938 62.7138 98.5228 64.3895C100.579 75.0807 111.691 114.422 111.691 114.422C113.432 112.996 115.099 111.483 116.688 109.889C117.109 109.447 117.5 109.005 117.839 108.583V108.665L134.585 113.733Z" fill="#FFC8AF"/>
<g style="mix-blend-mode:multiply">
<path d="M115.886 108.007L117.942 108.645C116.739 111.071 114.858 114.73 111.774 114.401C111.644 114.378 111.521 114.325 111.414 114.247C112.288 108.768 114.19 98.0974 116.554 92.7621C119.638 85.6381 124.151 82.7802 124.439 82.6055L115.886 108.007Z" fill="#E8EAEB"/>
</g>
<path d="M134.585 113.733C134.328 114.299 133.999 114.936 133.557 115.666L116.708 109.889C117.129 109.447 117.52 109.004 117.859 108.583V108.665L134.585 113.733Z" fill="#EDB29A"/>
<g style="mix-blend-mode:multiply">
<path d="M126.906 189.518V336.45H121.159L116.431 192.17L61.854 189.518H126.906Z" fill="#E8EAEB"/>
</g>
<g style="mix-blend-mode:multiply">
<path d="M92.4986 194.904V336.45H86.9988L85.7344 194.904H92.4986Z" fill="#E8EAEB"/>
</g>
<path d="M62.111 348.189H92.4987V351.766H65.38C64.924 351.767 64.4728 351.672 64.0554 351.488C63.638 351.305 63.2636 351.036 62.9559 350.699C62.6483 350.363 62.4142 349.965 62.2687 349.533C62.1232 349.101 62.0695 348.643 62.111 348.189V348.189Z" fill="#BEE1F4"/>
<path d="M126.906 348.189V351.766H99.7563C99.3252 351.766 98.8985 351.681 98.5005 351.516C98.1026 351.35 97.7412 351.107 97.4374 350.802C97.1336 350.496 96.8932 350.133 96.7302 349.734C96.5671 349.335 96.4845 348.908 96.4872 348.477C96.4821 348.381 96.4821 348.285 96.4872 348.189H126.906Z" fill="#BEE1F4"/>
<path d="M114.93 39.7275C114.025 40.4163 111.743 40.3135 111.743 40.3135C112.171 40.828 112.718 41.2302 113.336 41.4854C114.025 41.6191 114.93 39.7275 114.93 39.7275Z" fill="#EDB29A"/>
<g style="mix-blend-mode:multiply">
<path d="M64.465 87.1079V101.315L51.6355 110.803L49.415 108.788L64.465 87.1079Z" fill="#E8EAEB"/>
</g>
</svg>
