<svg width="527" height="420" viewBox="0 0 527 420" fill="none" xmlns="http://www.w3.org/2000/svg">
<path d="M519.485 419.085H6.84049C5.02628 419.085 3.28637 418.542 2.00353 417.575C0.720693 416.608 0 415.297 0 413.929C0.010024 412.567 0.735139 411.263 2.01689 410.302C3.29865 409.341 5.03283 408.802 6.84049 408.802H519.485C521.3 408.802 523.039 409.345 524.322 410.312C525.605 411.279 526.326 412.591 526.326 413.958C526.316 415.321 525.591 416.625 524.309 417.585C523.027 418.546 521.293 419.085 519.485 419.085Z" fill="#F1F2F2"/>
<path d="M462.044 8.28005L397.211 0.479318C394.091 0.132619 391.317 2.21282 390.971 5.33311L387.677 31.8556L386.463 41.9099L384.21 59.7649L405.185 49.8839L456.15 56.1245C459.27 56.4712 462.044 54.391 462.391 51.2707L466.898 14.694C467.418 11.4003 465.164 8.62675 462.044 8.28005Z" fill="#FBD15B"/>
<g style="mix-blend-mode:multiply">
<path d="M390.277 42.2566L391.49 32.2023L394.784 5.67983C395.13 2.55953 397.904 0.479333 401.024 0.826032L397.384 0.305978C394.264 -0.0407208 391.49 2.03948 391.143 5.15977L387.85 31.6823L386.636 41.7365L384.383 59.5915L388.37 57.6847L390.277 42.2566Z" fill="#F1F2F2"/>
</g>
<g style="mix-blend-mode:multiply">
<path d="M456.67 51.9647L411.599 46.4175L384.383 59.4187L405.358 49.5378L456.323 55.7783C459.443 56.125 462.217 54.0448 462.563 50.9246L463.084 47.2842C462.563 50.2312 459.79 52.4847 456.67 51.9647Z" fill="#F1F2F2"/>
</g>
<path d="M176.709 68.6057L139.093 91.3145C137.359 92.3546 136.666 94.7815 137.879 96.515L147.24 111.943L150.707 117.664L156.948 128.065L163.882 114.023L193.524 96.1683C195.258 95.1282 195.951 92.7013 194.738 90.9678L181.91 69.8192C180.87 68.0857 178.616 67.3923 176.709 68.6057Z" fill="#FBD15B"/>
<g style="mix-blend-mode:multiply">
<path d="M152.787 116.45L149.32 110.73L139.959 95.3018C138.919 93.5683 139.439 91.1414 141.173 90.1013L139.093 91.4881C137.359 92.5282 136.666 94.9551 137.879 96.6886L147.24 112.117L150.707 117.837L156.948 128.238L158.334 125.638L152.787 116.45Z" fill="#F1F2F2"/>
</g>
<g style="mix-blend-mode:multiply">
<path d="M192.138 94.0884L165.962 109.863L156.948 128.065L163.882 114.024L193.525 96.1686C195.259 95.1285 195.952 92.7016 194.738 90.9681L193.352 88.8879C194.565 90.6214 193.872 92.875 192.138 94.0884Z" fill="#F1F2F2"/>
</g>
<path d="M304.818 17.1213L259.054 25.0954C256.8 25.4421 255.413 27.5222 255.76 29.7758L259.054 48.4975L260.267 55.6049L262.521 68.2594L274.655 57.165L310.538 50.9244C312.792 50.5777 314.179 48.4975 313.832 46.244L309.325 20.4149C308.978 18.1614 306.898 16.7746 304.818 17.1213Z" fill="#FBD15B"/>
<g style="mix-blend-mode:multiply">
<path d="M262.866 55.085L261.653 47.9776L258.359 29.2559C258.013 27.0023 259.399 25.0955 261.653 24.5754L259.053 25.0955C256.799 25.4422 255.412 27.5224 255.759 29.7759L259.053 48.4977L260.266 55.605L262.52 68.2595L264.773 66.1793L262.866 55.085Z" fill="#F1F2F2"/>
</g>
<g style="mix-blend-mode:multiply">
<path d="M310.192 48.1504L278.469 53.6976L262.521 68.0856L274.655 56.9912L310.538 50.7506C312.792 50.4039 314.179 48.3238 313.832 46.0702L313.312 43.47C313.832 45.7235 312.445 47.6304 310.192 48.1504Z" fill="#F1F2F2"/>
</g>
<path d="M63.6891 191.164C57.6218 202.258 54.5015 214.739 48.6076 226.007C45.4873 231.901 42.5404 234.155 38.5534 240.049C36.8199 242.475 33.5262 246.116 32.8328 249.063C32.1394 252.01 33.3529 257.21 33.5262 260.157C33.6996 262.411 33.8729 264.664 34.0463 266.744C32.8328 267.611 31.9661 265.704 31.6194 264.144C31.2727 262.757 30.5793 261.37 29.3658 260.504C26.939 263.971 25.5521 266.918 26.5922 272.812C25.7255 273.678 24.5121 270.558 24.5121 268.998C24.5121 269.691 24.3387 270.385 24.3387 271.251C23.8186 272.465 22.6052 269.345 21.7385 268.478C20.8717 267.611 20.8717 267.438 20.6984 266.224C20.525 265.358 20.525 262.237 20.6984 261.544C23.6453 252.703 26.7656 245.769 30.926 237.448C32.1394 234.848 33.5262 232.248 34.913 229.474C36.2998 226.527 37.86 223.754 39.5935 220.98C40.8069 219.073 42.0204 217.166 43.2338 215.26C49.3011 204.512 49.8211 191.337 55.3683 180.243" fill="#FFC8AF"/>
<path d="M104.079 185.097C107.893 193.938 113.96 203.818 117.774 212.659C119.507 216.473 121.241 220.46 123.841 223.754C126.268 226.701 129.388 228.954 132.508 231.208C140.309 236.755 150.017 242.302 157.817 247.849C161.805 250.796 162.151 254.61 166.138 258.077C168.738 255.477 172.032 253.743 175.672 253.223C169.779 242.649 166.138 245.769 161.631 241.435C155.044 235.021 150.017 229.994 143.429 223.58C139.789 219.94 134.415 217.166 131.295 213.006C128.521 209.366 123.668 198.271 121.587 194.284C117.947 187.177 117.427 184.057 114.307 176.603" fill="#FFC8AF"/>
<g style="mix-blend-mode:multiply">
<path d="M104.079 185.097C107.893 193.938 113.96 203.818 117.774 212.659C119.507 216.473 121.241 220.46 123.841 223.754C126.268 226.701 129.388 228.954 132.508 231.208C140.309 236.755 150.017 242.302 157.817 247.849C161.805 250.796 162.151 254.61 166.138 258.077C168.738 255.477 172.032 253.743 175.672 253.223C169.779 242.649 166.138 245.769 161.631 241.435C155.044 235.021 150.017 229.994 143.429 223.58C139.789 219.94 134.415 217.166 131.295 213.006C128.521 209.366 123.668 198.271 121.587 194.284C117.947 187.177 117.427 184.057 114.307 176.603" fill="#F1F2F2"/>
</g>
<path d="M81.5442 149.56C82.7576 151.64 83.1043 154.24 82.4109 156.667C81.7175 159.094 80.1574 161.174 78.0772 162.388C77.9038 162.561 77.7305 162.561 77.7305 162.908C77.7305 163.081 77.9038 163.081 77.9038 163.255C79.6373 164.641 81.3708 165.855 83.2776 166.722C85.1845 167.588 87.438 168.108 89.5182 167.935C92.1185 167.762 94.5454 166.375 96.7989 164.988L96.9723 164.815C96.9723 164.641 96.9723 164.641 96.7989 164.468C95.4121 162.215 94.8921 159.788 95.0654 157.187C95.2388 154.934 95.9322 152.68 96.7989 150.6" fill="#FFC8AF"/>
<path d="M104.08 270.211C107.2 299.161 111.187 327.937 116.214 356.713C117.601 365.033 119.508 373.354 122.108 381.502C125.748 392.423 129.215 393.116 140.31 399.53C133.202 397.45 121.935 398.317 114.654 396.063C114.134 395.89 113.787 395.716 113.44 395.37C113.094 394.85 113.094 394.156 113.094 393.463C114.481 374.394 101.479 357.406 97.839 338.511C96.7989 333.484 96.6255 328.283 95.9321 323.256C93.1585 303.148 83.6243 284.773 78.4238 265.184" fill="#FFC8AF"/>
<path d="M113.266 391.036C111.533 393.809 111.533 397.103 112.399 400.223C112.399 400.57 112.573 400.743 112.746 401.09C112.919 401.263 113.266 401.437 113.613 401.437C118.12 402.477 122.8 402.13 127.307 402.997C128.868 403.344 130.601 403.69 132.161 403.864C133.375 404.037 134.588 403.864 135.802 403.864C138.402 403.69 141.175 403.69 143.776 403.517C145.509 403.517 147.589 403.17 148.283 401.61C148.456 401.437 148.456 401.09 148.283 400.743C148.109 400.57 147.936 400.397 147.763 400.223C143.776 397.97 139.269 396.41 134.762 395.543C134.241 395.543 133.895 395.37 133.375 395.37C133.028 395.37 132.681 395.543 132.335 395.716C125.921 398.663 118.293 395.37 113.266 391.036Z" fill="#56548C"/>
<g style="mix-blend-mode:multiply">
<path opacity="0.52" d="M146.725 402.824C144.818 403.171 142.738 402.477 140.831 402.304C138.404 402.131 135.977 402.477 133.377 402.304C131.47 402.131 129.563 401.437 127.483 400.917C124.883 400.224 122.109 400.051 119.509 400.051C117.429 400.051 115.522 400.397 113.441 400.224C112.921 400.224 112.401 400.051 112.055 399.877C112.055 400.051 112.055 400.224 112.228 400.224C112.228 400.571 112.401 400.744 112.575 401.091C112.748 401.264 113.095 401.437 113.441 401.437C117.949 402.477 122.629 402.131 127.136 402.997C128.696 403.344 130.43 403.691 131.99 403.864C133.203 404.038 134.417 403.864 135.63 403.864C138.23 403.691 141.004 403.691 143.604 403.517C144.818 403.517 146.378 403.344 147.245 402.651C147.245 402.651 147.071 402.824 146.725 402.824Z" fill="#F1F2F2"/>
</g>
<path d="M64.2075 266.398C69.7547 280.092 75.3019 293.787 80.8491 307.481C82.0626 310.602 83.4493 314.069 82.9293 317.536C82.2359 321.696 79.1156 324.99 76.1687 328.11C68.0212 337.124 61.954 348.045 54.8467 357.926C49.4728 365.38 46.1792 372.314 37.5117 379.422C39.9386 384.449 40.9787 390.343 55.1934 398.837C42.3655 379.942 59.1804 368.674 69.2347 357.926C79.289 347.179 90.21 337.124 98.5308 324.99C99.7442 323.256 100.958 321.349 101.478 319.269C102.344 316.149 101.651 312.682 100.958 309.388C96.9706 291.013 92.6369 272.812 88.3031 254.437" fill="#FFC8AF"/>
<path d="M37.6853 379.075C34.7383 380.462 32.8315 383.236 31.9647 386.356C31.9647 386.703 31.7914 386.876 31.9647 387.223C31.9647 387.57 32.3114 387.743 32.4848 387.916C35.7784 391.21 39.9388 393.463 43.2325 396.584C44.4459 397.797 45.486 399.011 46.8728 400.051C47.7395 400.744 48.7797 401.438 49.8198 401.958C52.0733 403.344 54.3268 404.731 56.5804 405.945C58.1405 406.811 60.0474 407.678 61.4342 406.811C61.6075 406.638 61.9542 406.465 61.9542 406.118C61.9542 405.945 61.7809 405.598 61.7809 405.425C59.5273 401.438 56.7537 397.624 53.2867 394.504C52.94 394.157 52.5933 393.81 52.2466 393.637C51.8999 393.463 51.5532 393.463 51.2065 393.29C44.2725 392.423 39.5921 385.489 37.6853 379.075Z" fill="#56548C"/>
<g style="mix-blend-mode:multiply">
<path d="M59.3545 407.158C57.621 406.465 56.2342 404.731 54.674 403.518C52.7672 401.957 50.5136 401.091 48.6068 399.357C47.0466 398.144 45.8332 396.41 44.4464 395.023C42.5396 393.117 40.4594 391.383 38.2058 389.996C36.4723 388.956 34.5655 388.089 33.0053 386.876C32.6586 386.529 32.3119 386.183 31.9652 385.836C31.9652 386.009 31.7919 386.183 31.7919 386.183C31.7919 386.529 31.6185 386.703 31.7919 387.049C31.7919 387.396 32.1386 387.569 32.3119 387.743C35.6056 391.036 39.766 393.29 43.0596 396.41C44.2731 397.624 45.3132 398.837 46.7 399.877C47.5667 400.571 48.6068 401.264 49.6469 401.784C51.9004 403.171 54.154 404.558 56.4075 405.771C57.4476 406.465 58.8344 407.158 60.0479 406.985C59.8745 407.331 59.5278 407.331 59.3545 407.158Z" fill="#F1F2F2"/>
</g>
<g style="mix-blend-mode:multiply">
<path d="M81.541 149.733C82.4078 152.16 83.1012 154.76 82.4078 157.013C86.7415 158.747 91.942 157.88 95.409 154.933C93.8488 154.413 92.4621 153.893 90.9019 153.373" fill="#F1F2F2"/>
</g>
<path d="M98.878 127.371C99.9181 129.624 99.5714 132.051 99.7448 134.478C99.9181 136.038 100.438 137.945 100.612 139.505C101.478 144.879 99.3981 149.906 95.7578 154.24C95.2377 154.76 94.891 155.28 94.1976 155.454C93.6776 155.627 93.3309 155.627 92.8108 155.454C89.5172 155.107 85.7035 153.893 82.9299 151.987C81.7164 151.293 80.8497 150.08 80.1563 148.866C79.4629 147.999 79.4629 147.133 78.9428 146.093C77.9027 143.319 76.8627 140.545 76.516 137.598C76.1693 134.652 74.6091 125.291 75.6492 122.517" fill="#FFC8AF"/>
<g style="mix-blend-mode:multiply">
<path d="M98.8799 130.838C96.2797 132.052 86.9188 135.692 84.1452 136.385C82.4117 136.732 80.5049 136.905 78.7714 137.599C78.4247 137.772 78.078 137.945 77.9046 138.119C77.7313 138.465 77.7313 138.812 77.7313 139.332C77.9046 142.106 78.9447 144.706 79.1181 147.48V147.653H78.9447C77.5579 147.133 76.3445 145.92 75.4777 144.706C74.611 143.493 73.9176 142.106 73.2242 140.719C72.7042 139.679 72.1841 138.465 71.664 137.425C71.144 136.212 70.624 134.825 70.9707 133.438C71.144 132.745 71.4907 132.052 71.8374 131.532C72.8775 129.798 79.1181 123.557 80.6782 122.344" fill="#F1F2F2"/>
</g>
<path d="M111.708 144.879C109.975 142.452 107.374 140.372 106.161 137.599C105.641 136.212 105.294 134.652 105.121 133.265C104.774 130.838 104.601 128.411 104.081 125.984C103.561 123.557 102.694 121.304 101.134 119.397C98.5335 116.45 94.7198 114.196 90.7328 113.85C88.4792 113.676 85.359 113.676 83.6255 115.063C79.6384 114.716 75.9981 117.143 73.0511 119.744C71.8377 120.784 70.9709 121.824 69.9308 123.037C68.1973 125.291 66.8106 127.718 65.7705 130.318C64.9037 132.745 64.557 135.172 63.6903 137.425C62.3035 141.239 59.7032 144.706 58.6631 148.693C58.3164 150.253 58.1431 151.987 57.9697 153.72C57.9697 154.067 57.9697 154.414 58.1431 154.587C58.3164 154.76 58.4898 154.934 58.6631 154.934C60.0499 155.627 61.6101 156.147 63.1702 156.32C64.7304 156.494 66.2905 156.147 67.6773 156.147C69.5841 156.147 71.3176 156.667 73.2245 156.84C75.8247 157.014 78.5983 156.494 80.8519 155.107C82.0653 154.414 82.5853 153.547 83.2787 152.333C81.7186 151.813 80.8519 150.253 79.9851 148.866C79.1184 147.48 78.5983 146.093 78.0783 144.533C77.2115 141.759 76.7776 138.812 76.4309 136.038C77.1243 136.038 77.3849 136.038 78.2516 136.038C79.2917 136.038 80.1585 135.865 81.0252 135.692C81.1986 135.692 81.3719 135.518 81.5453 135.345C81.7186 135.172 81.7186 134.998 81.7186 134.825C82.0653 132.051 82.0653 129.278 81.892 126.504C83.1054 129.104 83.7988 131.878 84.1455 134.825C85.1856 134.825 86.2257 134.652 87.4392 134.652C87.6125 134.652 87.6125 134.652 87.7858 134.478C87.9592 134.478 87.9592 134.305 87.9592 134.132C88.1326 132.571 88.1326 129.278 87.9592 125.811C89.1727 128.064 90.2127 130.665 90.9061 133.092C90.9061 133.265 90.9061 133.265 91.0795 133.265C91.0795 133.265 91.2528 133.438 91.4262 133.438C92.4663 133.612 93.333 133.438 94.3731 133.438C96.1066 133.265 97.8401 132.745 99.5736 132.051C99.5736 132.398 99.5736 132.745 99.5736 133.265C99.747 136.559 100.96 139.679 100.787 142.972C100.614 146.786 98.7069 150.08 96.6267 153.2C100.44 153.893 104.601 154.24 107.721 151.987C109.628 150.6 110.841 148.52 112.055 146.439C112.228 146.093 112.401 145.746 112.401 145.226C112.228 145.399 111.881 145.226 111.708 144.879Z" fill="#8E59FF"/>
<path d="M112.056 144.475C110.322 142.048 107.722 139.968 106.509 137.194C105.989 135.807 105.642 134.247 105.468 132.86C105.122 130.433 104.948 128.007 104.428 125.58C103.908 123.153 103.042 120.899 101.481 118.992C98.8812 116.045 95.0675 113.792 91.0804 113.445C88.8269 113.272 85.7066 113.272 83.9731 114.659C79.9861 114.312 76.3457 116.739 73.3988 119.339C72.1853 120.379 71.3186 121.419 70.2785 122.633C68.545 124.886 67.1582 127.313 66.1181 129.913C65.2514 132.34 64.9047 134.767 64.0379 137.021C62.6511 140.834 60.0509 144.301 59.0108 148.288C58.6641 149.849 58.4907 151.582 58.3174 153.316C58.3174 153.662 58.3174 154.009 58.4907 154.182C58.6641 154.356 58.8374 154.529 59.0108 154.529C60.3976 155.222 61.9577 155.742 63.5179 155.916C65.078 156.089 66.6381 155.742 68.0249 155.742C69.9318 155.742 71.6653 156.263 73.5721 156.436C76.1724 156.609 78.946 156.089 81.1995 154.702C82.413 154.009 82.933 153.142 83.6264 151.929C82.0663 151.409 81.1995 149.849 80.3328 148.462C79.466 147.075 78.946 145.688 78.4259 144.128C77.5592 141.354 77.1252 138.408 76.7785 135.634C77.4719 135.634 77.7325 135.634 78.5993 135.634C79.6394 135.634 80.5061 135.461 81.3729 135.287C81.5462 135.287 81.7196 135.114 81.8929 134.941C82.0663 134.767 82.0663 134.594 82.0663 134.42C82.413 131.647 82.413 128.873 82.2396 126.1C83.4531 128.7 84.1465 131.474 84.4932 134.42C85.5332 134.42 86.5734 134.247 87.7868 134.247C87.9602 134.247 87.9602 134.247 88.1335 134.074C88.3069 134.074 88.3069 133.9 88.3069 133.727C88.4802 132.167 88.4802 128.873 88.3069 125.406C89.5203 127.66 90.5604 130.26 91.2538 132.687C91.2538 132.86 91.2538 132.86 91.4271 132.86C91.4271 132.86 91.6005 133.034 91.7739 133.034C92.8139 133.207 93.6807 133.034 94.7208 133.034C96.4543 132.86 98.1878 132.34 99.9213 131.647C99.9213 131.994 99.9213 132.34 99.9213 132.86C100.095 136.154 101.308 139.274 101.135 142.568C100.961 146.382 99.0545 149.675 96.9743 152.796C100.788 153.489 104.948 153.836 108.069 151.582C109.976 150.195 111.189 148.115 112.402 146.035C112.576 145.688 112.749 145.342 112.749 144.821C112.576 144.995 112.229 144.821 112.056 144.475Z" fill="#8E59FF"/>
<path d="M99.5723 136.905C99.5723 136.385 100.092 135.865 100.612 135.518C100.786 135.345 101.132 135.171 101.306 135.171C101.999 134.998 102.693 135.691 102.866 136.385C103.039 137.078 102.866 137.771 102.866 138.465C102.693 139.332 102.519 140.198 102.173 140.892C101.826 141.585 101.132 142.279 100.439 142.625" fill="#FFC8AF"/>
<g style="mix-blend-mode:multiply">
<path d="M100.614 141.239C100.614 140.892 100.44 137.599 100.787 137.425C100.96 137.425 100.96 137.252 101.134 137.252C101.48 137.252 101.827 137.599 102 137.945C102.174 138.292 102 138.639 102 139.159C101.827 139.679 101.827 140.026 101.654 140.546C101.307 140.719 100.96 141.066 100.614 141.239Z" fill="#F1F2F2"/>
</g>
<path d="M77.9046 141.239C77.2112 140.545 76.5178 140.025 75.4777 139.852C74.6109 139.852 73.5708 140.199 73.2242 141.065C73.0508 141.586 73.2241 142.279 73.3975 142.799C73.9175 144.186 75.131 145.399 76.3444 146.266C76.8645 146.786 77.3845 147.133 78.0779 147.306C78.9447 147.653 79.8114 147.479 80.6782 147.306" fill="#FFC8AF"/>
<g style="mix-blend-mode:multiply">
<path d="M78.9444 146.093C77.9043 142.799 76.8642 142.453 76.5175 142.279C75.9975 142.279 75.6508 142.453 75.4774 142.973C75.3041 143.319 75.4774 143.493 75.4774 143.839C75.8241 144.533 76.3442 145.053 76.8642 145.573C77.0376 145.746 77.3843 145.92 77.731 146.093C78.0777 146.093 78.5977 146.093 78.9444 146.093Z" fill="#F1F2F2"/>
</g>
<path d="M70.6216 215.606C63.861 225.314 56.927 235.368 52.7666 246.462C50.3397 252.876 48.9529 259.463 47.5661 266.224C46.3527 272.118 45.1392 277.838 43.9258 283.732C50.8598 284.772 57.6204 287.373 64.2077 289.626C70.9683 291.88 78.0756 293.613 85.0096 292.747C91.4236 291.88 97.6641 288.759 104.078 289.626C105.985 289.973 107.892 290.493 109.799 290.84C116.213 292.226 123.147 290.666 128.347 286.679C121.586 280.612 117.773 271.771 115.346 263.104C113.092 254.263 111.879 245.249 109.452 236.408C107.545 229.301 104.598 222.54 100.958 216.299" fill="#EC827D"/>
<g opacity="0.52">
<g style="mix-blend-mode:multiply">
<path d="M83.2764 247.155C85.0099 254.783 86.2233 262.41 87.0901 270.037C87.2634 272.291 87.6101 274.544 88.8236 276.451C90.037 278.185 91.7705 279.052 93.6773 280.092C95.7575 281.132 97.6644 281.999 99.7446 282.865C101.651 283.732 104.078 284.425 105.812 283.385C102.345 277.491 98.8778 271.598 95.4108 265.877C93.6773 262.93 91.9439 260.156 89.8637 257.556C88.6502 255.996 87.2634 254.609 86.2233 252.876C85.3566 250.969 84.3165 249.409 83.2764 247.155Z" fill="#E8EAEB"/>
</g>
</g>
<g opacity="0.52">
<g style="mix-blend-mode:multiply">
<path d="M54.3268 258.597C56.9271 263.104 60.0474 270.038 62.3009 275.412C62.821 276.452 63.1677 277.665 63.1677 278.879C63.1677 279.399 62.9943 279.919 62.6476 280.265C62.4743 280.612 61.9542 280.785 61.6075 280.959C59.1806 281.999 56.2337 281.479 54.1535 279.745C52.0733 278.012 51.0332 275.412 51.0332 272.811C51.0332 267.784 54.6735 263.45 54.3268 258.597Z" fill="#E8EAEB"/>
</g>
</g>
<path d="M78.4237 161.695C83.1042 165.162 89.6914 166.029 95.0653 164.122C95.7587 163.948 96.2787 163.602 96.9721 163.602C97.6655 163.602 98.3589 163.948 98.879 164.295C101.653 165.682 104.426 167.069 107.026 168.455C107.2 168.629 107.546 168.802 107.72 168.976C108.066 169.322 108.066 169.842 108.066 170.189C108.066 176.603 108.066 183.19 108.066 189.604C108.066 192.031 108.066 194.285 107.72 196.711C107.373 198.965 106.506 201.218 105.466 203.299C103.733 207.632 101.653 212.14 101.653 216.82C91.7716 218.38 81.7174 218.727 71.8364 217.86C71.3164 217.86 70.7963 217.687 70.4496 217.513C69.7562 216.993 69.7562 216.127 69.5829 215.433C68.8895 209.539 67.8494 203.472 65.7692 197.925C65.0758 196.191 64.3824 194.631 63.8623 192.898C62.8222 189.257 62.8223 185.444 62.8223 181.63C62.8223 177.643 62.8223 173.829 62.8223 169.842C62.8223 169.496 62.8222 169.149 62.9956 168.802C63.1689 168.455 63.5156 168.282 63.8623 168.109C68.7161 165.509 73.5699 163.255 78.4237 161.695Z" fill="#A5B7C6"/>
<path d="M64.3831 168.282C63.343 168.455 62.4763 169.149 61.7829 169.842C57.4491 173.829 53.8088 178.336 50.6885 183.363C50.5152 183.71 50.3418 183.883 50.3418 184.23C50.3418 184.577 50.6885 184.75 50.8619 184.924C54.5022 187.87 58.3159 190.297 62.4763 192.378C62.823 192.551 63.343 192.724 63.6897 192.551C64.0364 192.378 64.0364 191.858 64.0364 191.511C64.0364 184.23 64.0364 176.776 64.0364 169.495" fill="#A5B7C6"/>
<path d="M107.198 168.455C108.412 168.628 109.452 169.669 110.319 170.535C113.786 174.002 117.426 177.816 119.506 182.323C118.293 184.057 116.733 185.443 114.999 186.657C113.092 188.044 111.012 189.43 109.105 190.644C108.932 190.817 108.759 190.817 108.412 190.817C108.065 190.644 107.892 190.297 107.892 189.95C107.892 188.217 108.065 186.657 108.065 184.923C108.065 179.723 105.812 174.349 107.545 169.495" fill="#A5B7C6"/>
<g opacity="0.21">
<path opacity="0.21" d="M68.8896 198.445C71.4899 199.832 74.2635 201.392 77.2104 201.565C80.1573 201.739 82.9309 200.525 85.8779 200.179C91.7718 199.485 97.839 201.912 103.386 200.005C101.653 201.739 100.439 204.859 97.839 204.859C96.9723 204.859 96.1055 204.512 95.2388 204.339C91.9451 203.299 88.3048 203.646 85.1845 205.032C83.6244 205.726 82.2376 206.592 80.5041 206.939C78.0772 207.459 75.4769 206.766 73.3967 205.206C71.4899 203.819 69.9297 200.699 68.8896 198.445Z" fill="#E0D8CE"/>
</g>
<g opacity="0.21">
<path opacity="0.21" d="M104.251 205.899C103.904 206.593 103.557 207.286 103.384 207.979C102.691 210.233 101.304 212.14 99.3969 213.527C95.5832 216.473 90.5561 217.167 85.7023 216.473C84.6622 216.3 83.4488 216.127 82.4087 215.953C79.8084 215.607 76.8615 215.953 74.4346 214.567C72.5277 213.353 71.3143 211.273 70.6209 209.019C69.9275 206.766 69.5808 204.512 68.714 202.432C68.0206 200.699 66.8072 199.139 65.5938 197.752C67.6739 203.472 68.714 209.366 69.4074 215.26C69.5808 215.953 69.5808 216.82 70.2742 217.34C70.6209 217.687 71.3143 217.687 71.8343 217.687C81.8886 218.554 91.9429 218.207 101.824 216.647C101.65 212.66 103.211 208.673 104.771 205.032C104.771 205.379 104.424 205.726 104.251 205.899Z" fill="#E0D8CE"/>
</g>
<path d="M255.237 142.8C254.37 147.133 252.81 151.12 250.556 154.934C249.516 156.668 248.129 158.401 246.569 159.614C250.556 163.428 255.584 165.682 260.611 167.762C261.651 168.282 262.691 168.629 263.731 169.149C261.997 163.255 263.038 156.494 266.678 151.64" fill="#FFC8AF"/>
<g style="mix-blend-mode:multiply">
<path d="M264.945 154.241C264.078 154.414 263.211 154.588 262.171 154.414C258.878 154.068 256.277 151.467 254.024 148.867C253.677 148.52 253.504 148.174 253.504 147.654C253.504 147.307 253.677 146.96 253.851 146.787C254.891 144.88 255.931 143.147 256.971 141.24C256.971 141.066 257.144 141.066 257.318 141.066C257.318 141.066 257.318 141.066 257.491 141.24C260.265 145.227 261.998 150.081 265.812 152.854" fill="#F1F2F2"/>
</g>
<path d="M279.333 125.291C279.68 127.718 279.68 130.145 279.16 132.398C278.987 133.265 278.64 133.958 278.64 134.825C278.64 136.905 280.027 138.812 281.76 139.852C281.933 140.026 282.107 140.199 282.28 140.372C282.454 141.066 281.413 141.412 280.893 141.759C279.68 142.279 279.333 143.839 279.16 145.053C278.467 147.826 277.426 150.6 276.386 153.2C276.04 154.067 275.693 154.934 274.826 155.28C274.306 155.454 273.959 155.28 273.439 155.28C270.146 154.76 266.852 154.24 264.079 152.333C260.612 149.907 257.318 145.573 255.931 141.586C254.718 138.292 255.411 134.825 255.238 131.358C255.064 127.891 255.758 124.251 258.011 121.477" fill="#FFC8AF"/>
<path d="M279.493 125.133C279.84 127.56 279.84 129.987 279.32 132.24C279.147 133.107 278.8 133.8 278.8 134.667C278.8 136.747 280.187 138.654 281.92 139.694C282.094 139.867 282.267 140.041 282.44 140.214C282.614 140.908 281.574 141.254 281.054 141.601C279.84 142.121 279.493 143.681 279.32 144.895C278.627 147.668 277.587 150.442 276.546 153.042C276.2 153.909 275.853 154.776 274.986 155.122C274.466 155.296 274.12 155.122 273.6 155.122C270.306 154.602 267.012 154.082 264.239 152.175C260.772 149.748 257.478 145.415 256.091 141.428C254.878 138.134 255.571 134.667 255.398 131.2C255.224 127.733 255.918 124.093 258.171 121.319" fill="#FFC8AF"/>
<g style="mix-blend-mode:multiply">
<path d="M259.225 135.866C261.478 137.426 265.119 136.733 266.679 134.306C267.199 133.439 267.545 132.399 268.585 131.879C269.106 131.706 269.626 131.706 270.146 131.706C272.399 131.706 274.653 131.359 276.56 130.319C277.426 129.799 278.293 129.279 278.64 128.412C278.986 127.372 278.813 126.158 278.12 125.292C277.426 124.425 276.56 123.731 275.693 123.038" fill="#F1F2F2"/>
</g>
<g style="mix-blend-mode:multiply">
<path d="M277.946 131.012C276.213 130.839 274.306 130.665 272.746 131.705C272.399 131.879 272.746 132.225 272.919 132.225C274.479 131.359 276.213 131.532 277.946 131.705C278.12 131.532 278.12 131.185 277.946 131.012Z" fill="#F1F2F2"/>
</g>
<path d="M251.597 148.693C254.371 148.693 256.104 146.787 257.665 144.36C259.398 141.586 258.878 138.466 258.011 135.866C259.571 136.559 261.478 136.212 262.865 135.172C264.252 134.305 265.292 132.745 265.639 131.012C265.812 130.665 265.812 130.318 266.159 130.145C266.505 129.972 266.852 130.145 267.199 130.145C272.226 131.879 277.946 131.185 282.454 128.585C284.36 127.371 286.094 125.985 287.307 124.078C288.348 122.171 288.868 119.744 288.174 117.664C287.654 115.757 286.094 114.024 284.187 113.157C282.28 112.29 280.027 112.463 278.12 113.503C279.16 110.903 278.12 107.956 275.866 106.223C273.613 104.489 270.839 103.796 268.239 103.796C265.119 103.796 261.825 104.489 259.225 106.223C256.625 107.956 254.718 110.903 254.544 114.024C251.077 112.637 247.09 112.983 243.97 114.89C240.85 116.797 238.943 120.611 238.77 124.251C238.77 125.465 238.943 126.851 239.463 127.892C240.676 130.838 243.623 132.572 246.224 134.132C245.53 136.906 244.837 140.026 245.53 142.8C246.224 146.093 248.65 148.693 251.597 148.693Z" fill="#56548C"/>
<path d="M288.174 118.01C288.174 117.664 288 117.49 287.827 117.144C288 119.051 287.48 121.131 286.44 122.691C285.4 124.078 283.84 125.118 282.106 125.984C278.813 127.545 274.999 128.238 271.359 127.891C269.279 127.718 266.852 127.198 265.118 128.411C263.385 129.625 262.691 132.052 260.784 132.745C259.744 133.092 258.358 132.918 257.317 133.439C255.757 134.305 255.584 136.385 254.717 137.772C254.37 138.292 253.677 138.812 252.984 138.812C252.117 138.812 251.597 137.946 251.25 137.079C250.73 134.999 251.424 132.745 250.037 131.012C249.17 129.972 247.783 129.625 246.396 128.931C245.01 128.238 243.623 127.198 242.756 125.984C241.543 123.904 241.369 121.304 242.063 119.051C242.583 117.49 243.449 116.104 244.663 114.89C244.316 115.063 244.143 115.237 243.796 115.41C240.676 117.49 238.769 121.131 238.596 124.771C238.596 125.985 238.769 127.371 239.289 128.411C240.503 131.358 243.449 133.092 246.05 134.652C245.356 137.426 244.663 140.546 245.356 143.319C246.05 146.266 248.303 148.867 251.25 148.867C254.024 148.867 255.757 146.96 257.317 144.533C259.051 141.759 258.531 138.639 257.664 136.039C259.224 136.732 261.131 136.385 262.518 135.345C263.905 134.479 264.945 132.918 265.292 131.185C265.465 130.838 265.465 130.492 265.812 130.318C266.158 130.145 266.505 130.318 266.852 130.318C271.879 132.052 277.599 131.358 282.106 128.758C284.013 127.545 285.747 126.158 286.96 124.251C288.347 122.518 288.694 120.091 288.174 118.01Z" fill="#56548C"/>
<path d="M261.131 137.946C261.304 136.906 260.784 135.866 260.091 134.999C259.398 134.305 258.357 133.785 257.317 133.785C256.971 133.785 256.451 133.785 256.104 134.132C255.237 134.652 254.89 135.866 255.064 137.079C255.411 139.679 257.491 142.106 259.918 142.8" fill="#FFC8AF"/>
<g style="mix-blend-mode:multiply">
<path d="M260.61 136.213C260.263 135.346 259.05 134.826 258.183 134.999C257.316 135.173 256.623 136.039 256.623 136.906C256.623 137.426 256.796 137.946 257.143 138.466C257.49 139.333 258.183 140.2 259.05 140.2C259.917 140.2 260.61 139.506 260.783 138.64C260.957 137.773 260.783 136.906 260.61 136.213Z" fill="#F1F2F2"/>
</g>
<path d="M180.177 246.636C178.617 248.369 176.71 250.276 176.883 252.53C176.883 253.397 177.23 254.263 177.23 255.13C177.403 257.037 176.363 258.77 174.803 259.811C174.283 260.157 173.763 260.331 173.416 259.811C173.243 259.464 173.243 259.117 173.416 258.77C173.589 258.077 173.416 257.21 173.069 256.69C173.069 256.517 172.896 256.344 172.723 256.344C172.376 256.17 171.856 256.344 171.509 256.69C171.163 257.037 171.163 257.384 170.816 257.73C170.469 258.077 170.123 258.25 169.776 258.424C168.736 259.117 168.909 260.157 168.562 261.371C167.696 261.891 166.309 261.024 166.135 260.157C165.615 260.677 164.922 260.851 164.229 260.504C163.535 260.157 163.189 259.464 163.362 258.77C163.015 259.117 162.668 259.291 162.322 259.117C161.975 258.944 161.628 258.424 161.975 258.077C161.282 258.25 160.762 257.21 160.935 256.344C161.108 255.303 161.802 254.437 162.322 253.57C164.749 250.45 167.522 247.676 170.469 245.423C172.029 244.209 173.763 242.996 174.803 241.262" fill="#FFC8AF"/>
<path d="M206.006 386.009C205.139 387.916 203.579 389.476 202.192 391.21C199.592 394.503 197.512 398.317 196.472 402.304C196.298 402.824 196.125 403.344 196.298 404.037C196.645 405.077 197.685 405.424 198.552 405.771C202.539 407.331 206.353 408.891 210.34 410.278C211.033 410.451 211.553 410.798 212.247 410.971C213.98 411.665 215.713 412.358 217.447 413.052C219.18 413.745 220.741 414.265 222.474 414.785C225.594 415.652 228.888 416.172 232.182 415.825C232.355 415.825 232.702 415.825 232.875 415.652C233.048 415.478 233.048 415.132 233.048 414.785C233.048 412.878 232.182 410.971 230.968 409.411C229.755 407.851 228.195 406.638 226.808 405.424C224.381 403.517 222.127 401.61 219.701 399.704C218.487 398.837 217.447 397.797 216.58 396.583C215.713 395.37 215.367 393.81 215.887 392.423" fill="#56548C"/>
<g style="mix-blend-mode:multiply">
<path d="M231.836 410.278C231.836 410.798 231.662 411.318 231.315 411.665C230.795 412.358 230.102 412.705 229.235 413.052C227.502 413.572 225.768 413.745 224.035 413.225C221.955 412.705 220.048 411.318 218.141 410.105C213.287 407.331 207.567 406.465 202.366 404.211C201.326 403.691 200.113 403.171 199.592 402.131C199.246 401.437 199.246 400.571 199.246 399.704C199.419 397.277 200.286 395.023 201.673 393.117C202.366 392.076 203.406 391.21 204.1 390.17C204.793 389.303 205.14 388.089 205.313 387.049C204.446 388.436 203.233 389.65 202.366 390.863C199.766 394.157 197.686 397.97 196.646 401.957C196.472 402.477 196.299 402.997 196.472 403.691C196.819 404.731 197.859 405.078 198.726 405.424C202.713 406.985 206.526 408.545 210.514 409.931C211.207 410.105 211.727 410.452 212.42 410.625C214.154 411.318 215.887 412.012 217.621 412.705C219.354 413.398 220.914 413.919 222.648 414.439C225.768 415.305 229.062 415.825 232.356 415.479C232.529 415.479 232.876 415.479 233.049 415.305C233.222 415.132 233.222 414.785 233.222 414.439C233.222 413.052 232.702 411.665 231.836 410.278Z" fill="#E8EAEB"/>
</g>
<path d="M289.214 388.089C289.387 390.169 288.867 392.25 288.521 394.33C287.827 398.317 288.001 402.477 289.041 406.464C289.214 406.984 289.387 407.504 289.734 407.851C290.427 408.544 291.641 408.371 292.508 408.198C296.495 407.504 300.655 406.984 304.642 406.291C305.335 406.118 305.856 406.118 306.549 405.944C308.282 405.597 310.189 405.424 311.923 405.077C313.656 404.731 315.39 404.557 316.95 404.037C320.07 403.344 323.19 402.13 325.617 400.224C325.791 400.05 325.964 399.877 326.137 399.704C326.137 399.357 326.137 399.184 325.964 398.837C325.097 397.103 323.364 396.063 321.63 395.37C319.897 394.676 317.99 394.33 316.083 393.983C313.136 393.463 310.189 393.116 307.416 392.596C306.029 392.423 304.469 392.076 303.255 391.556C302.042 390.863 300.655 388.263 300.308 386.876" fill="#56548C"/>
<g style="mix-blend-mode:multiply">
<path d="M322.844 396.063C323.018 396.41 323.191 396.93 323.191 397.45C323.018 398.317 322.671 399.01 322.151 399.703C320.937 401.09 319.551 401.957 317.817 402.477C315.737 402.997 313.483 402.824 311.23 402.824C305.683 402.824 300.482 404.904 294.935 405.597C293.722 405.771 292.508 405.771 291.468 405.251C290.775 404.731 290.428 404.037 290.081 403.344C289.041 401.264 288.694 398.837 289.041 396.583C289.214 395.37 289.561 394.156 289.561 392.943C289.734 391.903 289.561 390.689 289.041 389.823C288.868 391.383 288.521 392.943 288.348 394.503C287.654 398.49 287.828 402.65 288.868 406.637C289.041 407.157 289.214 407.678 289.561 408.024C290.255 408.718 291.468 408.544 292.335 408.371C296.322 407.678 300.482 407.157 304.469 406.464C305.163 406.291 305.683 406.291 306.376 406.117C308.11 405.771 310.016 405.597 311.75 405.251C313.483 404.904 315.217 404.731 316.777 404.211C319.897 403.517 323.018 402.304 325.444 400.397C325.618 400.223 325.791 400.05 325.965 399.877C325.965 399.53 325.965 399.357 325.791 399.01C325.271 397.623 324.231 396.757 322.844 396.063Z" fill="#E8EAEB"/>
</g>
<path d="M270.145 247.676C282.279 277.839 287.827 310.429 293.2 342.672C295.801 357.753 298.228 372.835 300.828 387.743C298.054 388.436 295.281 389.303 292.334 389.996C290.6 390.516 288.867 390.863 287.307 389.996C286.267 389.303 285.573 388.263 284.88 387.049C278.986 376.648 273.092 366.247 269.278 354.806C266.678 347.179 265.118 339.032 263.038 331.231C260.611 322.043 257.317 313.029 253.33 304.535" fill="#56548C"/>
<g style="mix-blend-mode:multiply">
<path d="M270.145 247.676C282.279 277.839 287.827 310.429 293.2 342.672C295.801 357.753 298.228 372.835 300.828 387.743C298.054 388.436 295.281 389.303 292.334 389.996C290.6 390.516 288.867 390.863 287.307 389.996C286.267 389.303 285.573 388.263 284.88 387.049C278.986 376.648 273.092 366.247 269.278 354.806C266.678 347.179 265.118 339.032 263.038 331.231C260.611 322.043 257.317 313.029 253.33 304.535" fill="#E8EAEB"/>
</g>
<path d="M234.608 247.156C229.06 265.011 234.088 284.079 234.261 302.628C234.434 319.616 230.447 336.604 222.82 351.686C216.753 363.647 208.258 374.741 204.965 387.742C208.258 389.129 211.379 390.689 214.672 392.076C215.539 392.423 216.406 392.77 217.273 392.943C219.526 393.116 221.606 391.556 223.167 389.996C235.994 378.208 246.395 363.994 253.849 348.392C255.583 344.578 257.143 340.765 258.356 336.778C259.917 331.404 260.783 325.683 261.65 320.136C263.73 305.575 265.984 291.013 268.064 276.452C268.931 270.905 269.798 265.184 270.144 259.464C270.664 252.876 270.491 245.942 267.544 239.875" fill="#56548C"/>
<path d="M168.563 261.024C168.563 260.677 168.216 260.331 167.869 260.157C167.523 259.984 167.176 259.811 166.829 259.464C166.309 258.944 166.136 258.077 166.309 257.384C166.309 257.21 166.482 257.21 166.482 257.037C166.656 257.037 166.829 257.037 167.003 257.037C167.349 257.037 167.869 257.21 168.216 257.384C167.869 256.864 167.696 256.344 168.043 255.824C168.216 255.303 169.083 255.13 169.256 255.65C169.256 255.303 169.083 254.957 169.083 254.783C169.083 254.437 169.429 254.09 169.603 254.09C169.949 254.09 170.296 254.437 170.47 254.783C170.47 254.437 170.47 254.09 170.47 253.57C170.47 253.397 170.47 253.397 170.47 253.223C170.643 253.05 170.816 253.05 170.99 253.223C171.683 253.57 172.203 254.263 172.55 254.957C172.723 255.303 172.896 255.65 172.896 255.997C172.896 256.344 172.55 256.69 172.203 256.864C172.376 257.21 172.376 257.557 172.376 257.904C172.376 258.25 172.03 258.597 171.683 258.597C171.336 258.597 171.163 258.424 170.816 258.597C171.163 258.944 171.336 259.464 171.163 259.811C170.816 260.157 170.296 259.984 169.949 259.984C169.949 260.504 169.949 261.024 169.603 261.197C169.429 261.371 169.256 261.371 169.083 261.371C168.909 261.717 168.736 261.544 168.563 261.024Z" fill="#FFC8AF"/>
<g style="mix-blend-mode:multiply">
<path d="M168.563 261.024C168.563 260.677 168.216 260.331 167.869 260.157C167.523 259.984 167.176 259.811 166.829 259.464C166.309 258.944 166.136 258.077 166.309 257.384C166.309 257.21 166.482 257.21 166.482 257.037C166.656 257.037 166.829 257.037 167.003 257.037C167.349 257.037 167.869 257.21 168.216 257.384C167.869 256.864 167.696 256.344 168.043 255.824C168.216 255.303 169.083 255.13 169.256 255.65C169.256 255.303 169.083 254.957 169.083 254.783C169.083 254.437 169.429 254.09 169.603 254.09C169.949 254.09 170.296 254.437 170.47 254.783C170.47 254.437 170.47 254.09 170.47 253.57C170.47 253.397 170.47 253.397 170.47 253.223C170.643 253.05 170.816 253.05 170.99 253.223C171.683 253.57 172.203 254.263 172.55 254.957C172.723 255.303 172.896 255.65 172.896 255.997C172.896 256.344 172.55 256.69 172.203 256.864C172.376 257.21 172.376 257.557 172.376 257.904C172.376 258.25 172.03 258.597 171.683 258.597C171.336 258.597 171.163 258.424 170.816 258.597C171.163 258.944 171.336 259.464 171.163 259.811C170.816 260.157 170.296 259.984 169.949 259.984C169.949 260.504 169.949 261.024 169.603 261.197C169.429 261.371 169.256 261.371 169.083 261.371C168.909 261.717 168.736 261.544 168.563 261.024Z" fill="#F1F2F2"/>
</g>
<path d="M316.949 247.849C318.509 248.716 319.549 249.93 320.59 251.143C322.843 253.743 325.097 256.344 327.35 258.77C327.524 258.944 327.697 259.29 328.044 259.29C328.217 259.29 328.564 259.29 328.737 259.117C330.991 258.077 333.071 256.864 335.151 255.65C335.324 255.477 335.498 255.477 335.498 255.303C335.498 255.13 335.498 254.957 335.324 254.783C334.284 252.877 332.551 251.663 330.817 250.45C327.003 247.849 323.016 245.249 319.203 242.822" fill="#FFC8AF"/>
<g style="mix-blend-mode:multiply">
<path d="M316.949 247.849C318.509 248.716 319.549 249.93 320.59 251.143C322.843 253.743 325.097 256.344 327.35 258.77C327.524 258.944 327.697 259.29 328.044 259.29C328.217 259.29 328.564 259.29 328.737 259.117C330.991 258.077 333.071 256.864 335.151 255.65C335.324 255.477 335.498 255.477 335.498 255.303C335.498 255.13 335.498 254.957 335.324 254.783C334.284 252.877 332.551 251.663 330.817 250.45C327.003 247.849 323.016 245.249 319.203 242.822" fill="#F1F2F2"/>
</g>
<path d="M266.68 179.55C268.933 185.79 272.054 191.684 275.174 197.578C277.774 202.432 280.548 207.459 284.535 211.273C285.922 212.66 287.482 213.873 289.042 215.26C299.096 223.234 308.804 231.555 318.511 240.049C318.685 240.222 319.031 240.569 319.205 240.916C319.551 241.609 319.031 242.302 318.511 242.996C316.605 245.249 314.351 247.85 311.404 247.676C310.017 247.676 308.804 246.983 307.764 246.289C290.775 237.102 275.867 224.447 264.08 209.193C263.386 208.326 262.693 207.286 261.999 206.419C258.706 201.392 257.839 194.805 259.572 189.084" fill="#8E59FF"/>
<path d="M312.27 247.503C314.176 246.289 315.737 244.729 317.123 242.996C317.643 242.302 318.163 241.436 318.857 240.742C319.03 240.569 319.03 240.569 319.204 240.396C319.377 240.396 319.55 240.569 319.724 240.569C320.417 241.089 321.11 241.782 321.804 242.302C322.15 242.649 322.497 242.822 322.497 243.342C322.67 243.862 322.497 244.383 322.15 244.729C321.63 245.943 320.937 247.156 320.07 248.196C319.55 248.89 318.857 249.756 317.817 249.756C317.123 249.756 316.43 249.583 315.737 249.236C314.35 248.543 313.656 248.543 312.27 247.503Z" fill="#EDC656"/>
<path d="M249.171 156.668C251.945 161.001 256.798 163.602 261.652 165.162C262.172 165.335 262.866 165.509 263.212 165.855C263.386 166.202 263.559 166.549 263.732 166.895C264.946 170.709 265.986 174.349 267.199 178.163C267.893 180.59 268.586 182.844 268.933 185.27C269.28 187.524 269.279 189.604 269.453 191.858C269.626 198.965 269.8 206.072 270.146 213.18C270.493 224.621 270.84 236.062 271.013 247.33C271.013 247.85 271.013 248.196 270.666 248.543C270.32 248.716 269.973 248.89 269.626 248.89C261.132 249.063 252.638 249.41 243.97 249.583C241.197 249.583 238.25 249.756 235.65 248.543C235.13 248.37 234.436 248.023 234.09 247.503C233.396 246.463 233.743 245.076 233.743 243.863C233.916 240.396 232.183 237.102 231.316 233.635C230.449 230.515 230.276 227.048 230.103 223.754C229.929 218.207 229.756 212.66 230.103 207.286C230.796 195.151 231.143 187.351 235.476 175.91C236.516 173.309 241.197 166.029 242.757 163.602C244.491 161.522 247.091 158.748 249.171 156.668Z" fill="#8E59FF"/>
<g style="mix-blend-mode:multiply">
<g style="mix-blend-mode:multiply">
<path d="M266.16 244.73C263.039 245.076 259.919 245.423 256.972 245.77C250.385 246.463 243.624 247.156 237.21 245.423C236.344 245.25 235.65 244.903 234.783 244.903C234.437 244.903 234.09 244.903 233.743 245.076C233.57 246.116 233.57 246.983 234.09 247.85C234.437 248.37 235.13 248.717 235.65 248.89C238.25 249.93 241.197 249.93 243.971 249.93C252.465 249.757 260.959 249.41 269.627 249.237C269.973 249.237 270.493 249.237 270.667 248.89C271.013 248.543 271.013 248.023 271.013 247.676C271.013 246.636 271.013 245.596 271.013 244.73C270.84 244.73 270.667 244.73 270.667 244.556C269.107 244.383 267.546 244.556 266.16 244.73Z" fill="#F1F2F2"/>
</g>
</g>
<g style="mix-blend-mode:multiply">
<g style="mix-blend-mode:multiply">
<path d="M238.075 241.262C239.288 243.169 241.368 242.302 242.408 241.782C243.448 241.089 243.795 239.876 243.795 238.662C243.795 236.062 242.408 233.635 241.368 231.208C238.941 225.314 238.595 218.9 238.421 212.66C238.421 211.446 238.248 210.233 237.208 209.539C236.341 210.926 235.994 212.313 235.648 213.873C233.741 222.887 234.608 232.595 238.075 241.262Z" fill="#F1F2F2"/>
</g>
</g>
<path d="M247.784 166.028C250.557 164.815 254.024 166.895 255.238 169.669C256.451 172.442 255.931 175.736 255.064 178.683C254.198 181.283 252.984 183.537 251.251 185.617C248.477 189.257 244.663 192.204 241.023 195.151C227.328 206.766 216.581 221.154 202.539 232.248C196.992 236.582 191.098 240.395 184.684 243.516C184.338 243.689 183.991 243.862 183.644 243.862C183.298 243.862 182.951 243.516 182.604 243.342C181.391 242.476 180.177 241.435 178.964 240.569C178.271 240.049 177.404 239.355 177.057 238.489C176.19 236.755 177.404 234.675 178.617 233.115C182.084 228.781 185.898 224.794 190.058 221.154C193.525 218.207 197.166 215.606 200.459 212.659C204.1 209.366 207.393 205.899 210.514 202.259C217.621 194.458 224.728 186.484 231.836 178.683C234.609 175.563 237.383 172.442 240.85 170.189C244.143 168.109 244.837 166.895 247.784 166.028Z" fill="#8E59FF"/>
<g style="mix-blend-mode:multiply">
<path d="M247.784 166.028C250.557 164.815 254.024 166.895 255.238 169.669C256.451 172.442 255.931 175.736 255.064 178.683C254.198 181.283 252.984 183.537 251.251 185.617C248.477 189.257 244.663 192.204 241.023 195.151C227.328 206.766 216.581 221.154 202.539 232.248C196.992 236.582 191.098 240.395 184.684 243.516C184.338 243.689 183.991 243.862 183.644 243.862C183.298 243.862 182.951 243.516 182.604 243.342C181.391 242.476 180.177 241.435 178.964 240.569C178.271 240.049 177.404 239.355 177.057 238.489C176.19 236.755 177.404 234.675 178.617 233.115C182.084 228.781 185.898 224.794 190.058 221.154C193.525 218.207 197.166 215.606 200.459 212.659C204.1 209.366 207.393 205.899 210.514 202.259C217.621 194.458 224.728 186.484 231.836 178.683C234.609 175.563 237.383 172.442 240.85 170.189C244.143 168.109 244.837 166.895 247.784 166.028Z" fill="#F1F2F2"/>
</g>
<path d="M176.71 236.582C174.803 237.275 173.937 238.835 173.07 240.569C172.723 241.089 172.55 241.782 172.723 242.476C172.897 243.169 173.417 243.516 173.937 244.036C174.803 244.729 175.844 245.423 176.71 246.116C177.577 246.809 178.617 247.676 179.831 248.023C180.351 248.196 180.871 248.196 181.391 248.023C181.564 247.85 181.737 247.676 181.911 247.503C182.951 246.289 184.164 244.903 183.818 243.342C183.644 242.129 182.431 241.262 181.564 240.395C179.831 239.009 178.444 237.795 176.71 236.582Z" fill="#EDC656"/>
<path d="M428.415 200.525C431.882 202.605 435.349 204.685 438.989 206.765C440.723 207.806 442.283 208.672 444.016 209.539C446.79 210.926 449.737 212.139 452.684 213.179C453.377 210.232 454.417 206.245 455.111 203.298C457.364 193.764 457.884 191.164 456.844 185.617C456.151 182.323 457.538 181.11 460.138 179.03C460.831 180.416 461.698 181.63 462.391 183.017C462.565 183.363 462.911 183.883 462.911 184.23C463.085 184.923 462.565 185.617 462.738 186.31C463.951 200.005 462.045 210.926 460.311 223.234C460.311 223.407 460.138 223.754 459.964 223.927C459.791 224.1 456.497 223.58 456.324 223.58C448.87 221.327 443.67 219.247 436.562 216.126C431.362 213.873 427.028 210.926 422.694 207.112" fill="#FFC8AF"/>
<path d="M407.095 164.988C407.961 171.056 406.401 177.469 402.761 182.67C402.587 182.843 402.414 183.19 402.414 183.363C402.414 183.71 402.587 184.057 402.761 184.403C406.054 189.777 411.775 193.418 417.842 194.284C415.242 188.564 415.415 181.803 418.362 176.256" fill="#FFC8AF"/>
<path d="M366.875 335.564C363.061 345.965 362.021 357.06 359.421 367.807C357.86 374.221 355.607 380.808 350.233 384.622C349.886 384.969 349.366 385.142 349.366 385.662C349.366 386.009 349.54 386.356 349.886 386.702C355.607 393.983 362.887 400.05 370.862 404.731C367.741 398.317 364.621 391.556 364.968 384.449C365.141 380.808 366.181 377.341 367.395 373.874C371.555 361.393 377.275 349.432 384.036 337.991" fill="#FFC8AF"/>
<path d="M353.702 381.156C350.235 382.542 347.634 385.663 346.074 389.303C345.901 389.65 345.728 389.996 345.901 390.343C345.901 390.69 346.248 391.036 346.421 391.21C349.715 395.197 354.048 397.97 357.515 401.784C358.729 403.171 359.769 404.731 361.156 405.945C362.196 406.811 363.236 407.678 364.276 408.371C366.703 410.105 369.13 411.665 371.557 413.399C373.117 414.439 375.197 415.652 376.93 414.785C377.277 414.612 377.451 414.439 377.624 414.092C377.624 413.745 377.624 413.572 377.451 413.225C375.544 408.545 372.77 404.038 369.303 400.224C368.956 399.877 368.61 399.531 368.09 399.184C367.743 399.011 367.223 398.837 366.876 398.837C359.422 396.93 355.088 388.783 353.702 381.156Z" fill="#56548C"/>
<g style="mix-blend-mode:multiply">
<path d="M374.677 414.785C372.771 413.745 371.384 411.838 369.824 410.451C367.917 408.545 365.317 407.331 363.41 405.424C361.85 403.864 360.636 401.957 359.249 400.224C357.516 397.797 355.262 395.89 352.835 394.157C350.929 392.943 349.022 391.73 347.462 390.17C347.115 389.823 346.768 389.303 346.421 388.783C346.421 388.956 346.248 389.129 346.248 389.303C346.075 389.649 345.901 389.996 346.075 390.343C346.075 390.69 346.421 391.036 346.595 391.21C349.888 395.197 354.222 397.97 357.689 401.784C358.903 403.171 359.943 404.731 361.329 405.944C362.37 406.811 363.41 407.678 364.45 408.371C366.877 410.105 369.304 411.665 371.73 413.398C372.944 414.265 374.331 414.959 375.718 415.132C375.197 414.959 374.851 414.785 374.677 414.785Z" fill="#F1F2F2"/>
</g>
<path d="M395.653 228.434C396.346 231.381 396 234.328 394.959 237.275C393.919 240.048 392.532 242.649 390.972 245.249C389.932 247.156 388.719 249.063 387.679 250.796C388.892 251.489 390.279 251.663 391.839 251.836C399.64 252.53 407.614 253.396 415.415 254.09C415.761 254.09 416.108 254.09 416.455 253.916C416.628 253.743 416.628 253.57 416.628 253.396C417.322 248.543 417.668 243.689 417.842 238.835C418.015 234.848 418.188 230.687 418.535 226.7" fill="#FFC8AF"/>
<path d="M416.107 190.991C419.921 191.684 423.041 194.111 425.988 196.538C427.549 197.752 428.935 198.965 430.495 200.178C429.802 201.045 429.109 201.739 428.415 202.605C425.988 205.379 423.735 208.153 421.308 210.926C421.135 211.1 420.961 211.273 420.615 211.273C420.441 211.273 420.268 211.1 420.094 211.1C419.054 210.406 418.188 209.713 417.148 209.019" fill="#56548C"/>
<path d="M403.107 182.323C405.014 185.444 408.307 187.004 411.774 188.564C412.814 189.084 413.681 189.431 414.721 189.778C415.241 189.951 415.935 189.951 416.281 190.298C416.628 190.644 416.975 191.164 417.148 191.511C419.748 197.232 422.522 202.952 425.122 208.673C425.469 209.193 425.642 209.886 425.816 210.406C426.162 212.486 424.949 214.393 423.909 216.3C420.962 221.5 418.882 227.394 418.015 233.462C410.908 234.155 403.627 233.808 396.346 232.768C396.173 232.768 395.999 232.768 395.826 232.595C395.653 232.422 395.479 232.075 395.479 231.901C393.746 224.101 393.052 216.127 393.399 208.326C393.573 205.899 393.746 203.299 394.266 200.872C394.613 199.138 395.306 197.578 395.826 196.018C396.693 193.765 395.999 193.071 396.866 190.818C398.08 188.391 401.2 183.884 403.107 182.323Z" fill="#56548C"/>
<g style="mix-blend-mode:multiply">
<path opacity="0.52" d="M423.561 215.78C422.174 216.473 420.094 216.473 418.36 216.126C416.627 215.78 414.893 215.26 412.986 215.26C411.6 215.086 410.039 215.26 408.653 215.433C407.093 215.606 405.359 215.433 403.799 215.433C406.226 216.473 409.173 216.993 411.6 218.033C412.986 218.553 414.026 219.42 415.413 219.94C416.8 220.46 418.36 220.807 419.747 220.46C421.654 219.94 423.041 217.86 423.561 215.78Z" fill="#F1F2F2"/>
</g>
<g opacity="0.52">
<g style="mix-blend-mode:multiply">
<path d="M407.439 190.817C408.479 192.204 408.479 195.151 408.132 196.884C407.439 199.831 406.399 202.778 404.492 205.032C404.145 205.378 403.625 205.899 403.105 206.072C402.585 206.245 401.892 206.245 401.372 206.245C398.598 206.245 395.478 208.845 393.571 210.752L393.397 207.285L406.052 191.857L407.439 190.817Z" fill="#F1F2F2"/>
</g>
</g>
<path d="M433.442 354.98C438.123 365.034 445.404 373.528 451.297 382.889C454.764 388.436 457.885 394.677 456.845 401.091C456.845 401.611 456.671 402.131 457.018 402.477C457.191 402.824 457.711 402.824 458.058 402.824C467.246 403.691 476.606 402.997 485.621 400.397C478.86 398.144 471.753 395.543 466.899 390.343C464.472 387.743 462.738 384.449 461.005 381.155C455.111 369.368 450.431 357.06 447.137 344.232" fill="#FFC8AF"/>
<path d="M457.018 396.237C455.631 399.704 455.978 403.864 457.364 407.331C457.538 407.678 457.711 408.025 457.884 408.198C458.231 408.372 458.578 408.372 458.924 408.545C463.952 409.065 469.152 407.851 474.179 408.025C476.086 408.198 477.82 408.372 479.726 408.372C481.113 408.372 482.327 408.025 483.713 407.851C486.66 407.331 489.434 406.811 492.381 406.118C494.288 405.771 496.541 405.078 497.061 403.171C497.235 402.824 497.235 402.478 497.061 402.131C496.888 401.958 496.715 401.784 496.368 401.611C491.688 399.704 486.487 398.491 481.46 398.317C480.94 398.317 480.42 398.317 479.9 398.491C479.553 398.664 479.206 398.837 478.86 399.011C472.099 403.344 463.258 400.744 457.018 396.237Z" fill="#56548C"/>
<g style="mix-blend-mode:multiply">
<path d="M495.499 404.905C493.419 405.598 491.165 405.251 489.085 405.251C486.312 405.425 483.711 406.292 480.938 406.292C478.684 406.292 476.604 405.772 474.351 405.598C471.404 405.252 468.457 405.425 465.51 405.945C463.256 406.292 461.176 406.985 458.922 407.158C458.402 407.158 457.882 407.158 457.362 406.985C457.362 407.158 457.536 407.332 457.536 407.505C457.709 407.852 457.882 408.198 458.056 408.372C458.402 408.545 458.749 408.545 459.096 408.718C464.123 409.239 469.323 408.025 474.351 408.198C476.257 408.372 477.991 408.545 479.898 408.545C481.285 408.545 482.498 408.198 483.885 408.025C486.832 407.505 489.605 406.985 492.552 406.292C493.939 405.945 495.499 405.598 496.539 404.731C496.019 404.558 495.846 404.731 495.499 404.905Z" fill="#F1F2F2"/>
</g>
<path d="M391.146 196.191C389.065 199.658 386.465 202.778 383.692 205.725C379.184 210.753 374.504 215.78 369.13 219.767C365.49 222.367 361.676 224.447 358.036 226.874C355.089 228.954 352.142 231.208 349.368 233.461C345.555 236.408 341.741 239.529 337.927 242.475C334.114 245.422 330.3 248.543 327.526 252.356C326.139 254.09 325.099 255.997 324.233 257.904C323.713 258.944 323.366 260.157 323.539 261.197C323.886 262.237 324.926 263.277 326.139 262.931C326.313 263.277 326.66 263.624 326.833 263.971C328.22 264.144 327.873 263.277 328.393 262.757C328.74 263.104 329.086 263.451 329.606 263.797C330.993 263.971 330.993 263.451 331.513 262.411C331.687 259.984 332.207 257.557 333.42 255.477C333.767 254.957 334.287 254.437 334.807 254.437C335.154 254.437 335.327 254.783 335.5 255.13C337.06 257.21 335.847 263.104 337.754 262.584C339.141 257.037 340.007 256.343 339.661 253.05C339.487 251.663 339.141 250.103 339.834 248.889C340.181 248.023 341.048 247.503 341.741 246.983C351.622 240.049 363.756 236.928 373.117 229.301C375.371 227.394 377.451 225.314 379.531 223.234C386.465 216.126 393.399 209.019 400.506 201.912" fill="#FFC8AF"/>
<path d="M390.104 196.885C392.358 194.458 395.305 190.817 398.079 188.91C399.119 188.217 400.159 187.524 401.372 187.524C402.759 187.35 403.799 187.697 405.013 188.217C406.053 188.737 407.266 190.124 407.439 191.337C407.439 191.857 407.439 193.071 407.439 193.418C406.919 195.151 406.746 195.498 405.879 196.885C405.013 198.445 403.972 199.831 402.759 201.218C401.546 202.605 400.332 204.165 399.119 205.552C398.945 205.725 398.945 205.725 398.772 205.899C398.425 206.072 398.252 205.725 397.905 205.552C394.958 203.125 392.185 200.178 390.104 196.885Z" fill="#56548C"/>
<path d="M386.291 262.41C383.517 276.105 379.703 289.453 375.023 302.627C374.156 305.228 373.116 307.654 372.076 310.081C370.863 313.028 369.302 315.802 367.916 318.575L353.181 346.138C352.834 346.831 353.181 347.525 353.874 347.872C366.876 353.072 380.05 358.099 393.225 362.953C393.918 363.126 394.438 362.78 394.611 362.086C397.732 345.791 402.932 330.017 407.439 314.068C411.946 297.774 415.76 280.959 415.413 263.97" fill="#8E59FF"/>
<g style="mix-blend-mode:multiply">
<path d="M385.251 266.224C385.251 266.224 377.623 295 385.771 314.589C393.918 334.177 401.719 331.924 401.719 331.924L409.866 304.708" fill="#F1F2F2"/>
</g>
<path d="M417.493 246.983C409.866 247.849 402.239 245.769 394.958 243.342C394.438 243.169 393.398 242.476 392.704 242.649C392.358 242.649 392.011 243.342 391.664 243.862C386.29 249.236 384.384 257.384 384.904 265.011C385.424 272.465 388.371 279.746 392.011 286.333C394.091 290.147 396.345 293.787 398.425 297.601C399.985 300.548 401.199 303.668 402.412 306.962C409.173 323.95 415.933 340.938 420.094 358.793C420.267 359.833 420.96 361.74 421.134 361.913C421.307 362.087 422.867 361.913 423.561 361.913C436.735 362.087 449.216 357.06 461.524 352.033C462.391 351.686 463.604 350.992 463.604 350.126C463.604 349.606 463.258 348.912 463.084 348.392C454.937 335.218 451.47 319.789 444.883 305.748C440.202 295.867 434.135 286.853 428.934 277.492C423.214 267.785 418.533 257.73 417.493 246.983Z" fill="#8E59FF"/>
<g style="mix-blend-mode:multiply">
<path d="M417.494 246.809C417.494 246.809 406.92 261.717 413.16 276.105C419.401 290.667 418.707 307.828 432.402 311.122C446.097 314.415 444.71 305.575 444.71 305.575C444.71 305.575 435.349 287.893 429.802 279.399C424.255 270.731 417.321 251.663 417.494 246.809Z" fill="#F1F2F2"/>
</g>
<path d="M455.63 167.589C455.977 175.216 456.843 182.843 458.057 190.297C458.23 191.511 458.403 192.724 459.097 193.764C460.137 195.151 461.87 195.845 463.604 195.498C465.337 195.151 466.724 193.764 467.071 192.031C467.591 189.604 466.378 187.35 465.337 185.097C462.217 178.51 461.177 170.882 462.044 163.602" fill="#EC827D"/>
<g style="mix-blend-mode:multiply">
<path d="M455.63 167.589C455.977 175.216 456.843 182.843 458.057 190.297C458.23 191.511 458.403 192.724 459.097 193.764C460.137 195.151 461.87 195.845 463.604 195.498C465.337 195.151 466.724 193.764 467.071 192.031C467.591 189.604 466.378 187.35 465.337 185.097C462.217 178.51 461.177 170.882 462.044 163.602" fill="#F1F2F2"/>
</g>
<path d="M490.3 137.772C480.592 147.653 469.498 153.72 457.537 156.667L457.363 171.402C469.498 169.322 482.152 171.055 493.94 176.429" fill="#FBD15B"/>
<g opacity="0.15">
<path opacity="0.15" d="M457.363 166.722V171.402C469.498 169.322 482.152 171.055 493.94 176.429L492.553 161.521C480.419 161.174 468.458 162.908 457.363 166.722Z" fill="#18127B"/>
</g>
<path d="M494.554 176.668C497.223 176.415 498.552 167.402 497.523 156.537C496.493 145.672 493.496 137.069 490.827 137.322C488.158 137.575 486.829 146.588 487.859 157.453C488.888 168.318 491.886 176.921 494.554 176.668Z" fill="#EC827D"/>
<g style="mix-blend-mode:multiply">
<path d="M492.396 170.982C494.207 170.811 495.111 164.723 494.416 157.384C493.721 150.045 491.689 144.235 489.878 144.407C488.068 144.578 487.163 150.666 487.858 158.005C488.554 165.344 490.585 171.154 492.396 170.982Z" fill="#F1F2F2"/>
</g>
<path d="M458.23 156.321C456.15 156.667 454.243 157.014 452.163 157.361C451.123 157.534 449.909 157.881 449.216 158.748C448.349 159.788 448.176 161.175 448.176 162.561C448.176 165.335 448.349 167.935 448.869 170.709C449.043 171.402 449.043 171.922 449.563 172.442C450.083 173.309 451.296 173.482 452.163 173.482C454.59 173.482 458.057 172.616 459.964 171.056" fill="#EC827D"/>
<path d="M487.527 152.161C487.527 152.161 493.248 149.907 495.501 152.854C497.928 155.628 497.582 164.469 488.394 163.255C488.567 163.255 487.527 155.975 487.527 152.161Z" fill="#D7E1FC"/>
<path opacity="0.15" d="M495.501 152.854C495.328 152.68 495.328 152.68 495.155 152.507C495.155 155.8 493.248 159.441 487.874 159.094C488.047 161.348 488.394 163.255 488.394 163.255C497.582 164.468 497.928 155.627 495.501 152.854Z" fill="#18127B"/>
<path d="M462.045 175.042C462.218 174.696 462.392 174.522 462.738 174.349C463.085 174.176 463.432 174.176 463.605 174.522C463.605 174.696 463.779 174.869 463.779 174.869C463.779 175.562 463.605 176.082 463.432 176.603C463.779 176.429 464.125 176.256 464.472 176.429C464.819 176.603 464.819 177.123 464.645 177.296C464.472 177.469 464.299 177.989 464.472 178.336C464.819 177.989 465.339 178.336 465.339 178.683C465.512 179.029 465.339 179.376 465.165 179.896C465.512 179.896 465.859 179.896 466.032 180.069C466.379 180.243 466.205 180.763 466.205 181.11C465.859 182.15 465.339 183.016 464.472 183.71C464.299 183.883 463.952 184.057 463.605 184.057C463.259 184.057 462.912 183.883 462.912 183.536C462.912 183.363 462.912 183.19 463.085 183.19C463.259 182.843 463.605 182.323 463.779 181.976C463.605 182.323 463.085 182.496 462.738 182.323C462.392 182.15 462.218 181.63 462.218 181.283C462.218 180.936 462.392 180.416 462.738 180.243C462.565 180.07 462.218 180.416 461.872 180.416C461.525 180.416 461.005 180.07 461.178 179.549C461.352 179.029 461.525 178.683 461.872 178.509C461.525 178.856 460.832 178.683 460.658 178.336C460.312 177.989 460.312 177.469 460.485 176.949C460.658 176.429 461.005 176.082 461.525 175.909" fill="#FFC8AF"/>
<g style="mix-blend-mode:multiply">
<path d="M417.666 178.163C416.106 179.03 414.373 178.683 412.639 177.816C410.212 176.603 408.825 175.389 407.959 172.789C407.439 171.576 406.919 169.322 406.919 168.109C406.919 166.202 405.878 164.815 405.705 162.735C405.705 162.562 405.705 162.215 406.052 162.042C406.225 162.042 406.225 162.042 406.398 162.042C407.092 162.388 407.612 162.908 407.959 163.428" fill="#F1F2F2"/>
</g>
<path d="M431.362 146.614C435.002 149.734 437.256 154.761 435.869 159.441C435.696 160.135 435.349 160.828 435.349 161.522C435.002 163.948 436.736 166.029 438.816 167.415C438.989 167.415 438.989 167.589 439.163 167.762C439.163 167.936 439.163 168.109 438.989 168.282C438.469 168.976 437.602 169.149 436.736 169.496C435.696 170.016 435.002 170.882 434.829 171.923C434.829 172.269 434.655 172.789 434.482 172.963C434.135 173.136 433.789 173.136 433.442 173.136C432.055 173.136 430.668 172.789 429.282 172.616C429.975 173.829 431.015 175.043 432.229 175.91C432.575 176.083 432.749 176.43 432.749 176.776C432.749 176.95 432.575 176.95 432.402 177.123C431.015 177.816 429.802 179.203 429.282 180.763C429.108 181.457 428.935 182.15 428.415 182.497C427.722 183.017 426.855 182.844 426.161 182.497C424.428 181.803 422.694 181.11 421.134 180.243C420.094 179.723 419.054 179.03 418.187 178.51C416.974 177.643 415.587 176.95 414.374 176.083C413.68 175.736 412.987 175.216 412.467 174.869C411.427 174.003 409.52 172.269 408.826 171.056C405.706 165.509 406.226 159.095 408.306 153.201" fill="#FFC8AF"/>
<g style="mix-blend-mode:multiply">
<path d="M414.72 159.268C416.107 160.308 416.453 162.388 417.32 163.948C417.493 164.295 417.84 164.642 418.187 164.815C418.707 164.988 419.4 164.815 419.92 164.642C422.347 163.775 424.774 162.908 427.028 161.521C429.281 160.134 431.188 158.401 432.575 156.147" fill="#F1F2F2"/>
</g>
<g style="mix-blend-mode:multiply">
<path d="M416.279 159.961C415.758 159.614 415.238 159.268 414.545 159.441C413.852 159.441 413.332 159.788 412.985 160.308C412.812 160.655 412.812 160.828 412.638 161.175C412.465 162.735 413.332 164.468 414.718 165.162C414.892 165.162 415.065 165.335 415.238 165.335C415.412 165.335 415.585 165.335 415.759 165.162C416.279 164.815 416.799 164.468 417.145 163.948" fill="#F1F2F2"/>
</g>
<path d="M407.611 171.749C410.038 171.229 412.118 169.669 413.332 167.589C413.505 167.415 413.505 167.069 413.505 166.895C413.505 166.549 413.159 166.202 412.985 166.028C411.945 164.988 411.252 163.428 411.252 161.868C411.252 161.348 411.252 160.828 411.598 160.481C411.945 159.788 412.812 159.441 413.679 159.268C415.065 159.094 416.626 159.961 417.319 161.175C417.492 161.348 417.492 161.695 417.839 161.868C418.012 162.041 418.359 162.041 418.706 162.041C423.733 162.388 428.933 160.481 432.747 157.014C433.96 155.974 435.001 154.587 435.347 153.027C435.694 151.467 435.001 149.734 434.134 148.347C432.574 145.573 430.147 143.32 427.373 141.76C424.6 140.199 421.479 139.159 418.359 138.639C416.452 138.293 414.372 138.119 412.292 138.639C410.905 138.986 409.518 139.679 408.305 140.719C403.798 144.186 401.718 150.08 401.891 155.628C402.064 161.001 404.838 166.895 407.611 171.749Z" fill="#112B46"/>
<path d="M432.228 156.494C429.975 158.228 427.374 159.268 424.601 159.961C423.214 160.308 421.827 160.481 420.44 160.308C418.707 159.961 417.32 159.094 415.587 158.921C414.026 158.748 412.466 159.094 411.253 159.961C410.039 161.001 409.346 162.561 409.693 164.121C409.866 164.815 410.213 165.508 410.559 166.375C410.733 166.895 410.906 167.415 410.733 167.762C410.559 167.935 410.386 168.108 410.213 168.108C409.173 168.802 407.613 168.455 406.572 167.762C405.532 167.068 405.012 165.855 404.319 164.988C404.146 164.641 403.625 163.948 403.452 163.601C404.319 166.202 406.052 169.669 407.439 171.922C409.866 171.402 411.946 169.842 413.16 167.762C413.333 167.588 413.333 167.242 413.333 167.068C413.333 166.722 412.986 166.375 412.813 166.202C411.773 165.162 411.08 163.601 411.08 162.041C411.08 161.521 411.08 161.001 411.426 160.654C411.773 159.961 412.64 159.614 413.506 159.441C414.893 159.268 416.453 160.134 417.147 161.348C417.32 161.521 417.32 161.868 417.667 162.041C417.84 162.215 418.187 162.215 418.534 162.215C423.561 162.561 428.761 160.654 432.575 157.187C433.442 156.321 434.308 155.281 434.828 154.067C434.135 154.934 433.268 155.801 432.228 156.494Z" fill="#112B46"/>
<g opacity="0.42">
<g opacity="0.42">
<path opacity="0.42" d="M405.878 156.321C406.225 153.374 407.611 150.774 409.865 148.867C409.865 148.867 409.865 148.694 409.692 148.694C407.611 150.6 406.051 153.374 405.878 156.321C405.704 156.321 405.878 156.321 405.878 156.321Z" fill="#112B46"/>
</g>
<g opacity="0.42">
<path opacity="0.42" d="M410.559 154.067C410.905 152.854 411.945 151.987 412.985 151.294V151.12C411.772 151.987 410.732 152.681 410.559 154.067C410.212 154.067 410.385 154.067 410.559 154.067Z" fill="#112B46"/>
</g>
<g opacity="0.42">
<path opacity="0.42" d="M415.067 152.854C415.587 152.16 416.28 151.814 416.973 151.64C417.147 151.64 416.973 151.467 416.973 151.467C416.107 151.64 415.413 151.987 415.067 152.854C414.893 152.68 414.893 152.854 415.067 152.854Z" fill="#112B46"/>
</g>
<g opacity="0.42">
<path opacity="0.42" d="M418.013 154.587C418.706 154.067 419.573 153.547 420.613 153.374C420.786 153.374 420.613 153.2 420.613 153.2C419.573 153.374 418.706 153.894 418.013 154.587C417.839 154.414 417.839 154.587 418.013 154.587Z" fill="#112B46"/>
</g>
<g opacity="0.42">
<path opacity="0.42" d="M423.04 151.987C424.08 151.64 425.12 151.12 426.16 150.6C426.334 150.6 426.16 150.427 426.16 150.427C425.12 151.12 424.08 151.467 423.04 151.987C422.867 151.987 422.867 151.987 423.04 151.987Z" fill="#112B46"/>
</g>
<g opacity="0.42">
<path opacity="0.42" d="M424.427 155.281C425.294 154.587 426.334 154.067 427.2 153.374V153.2C426.16 153.894 425.294 154.587 424.427 155.281C424.254 155.107 424.254 155.281 424.427 155.281Z" fill="#112B46"/>
</g>
<g opacity="0.42">
<path opacity="0.42" d="M429.455 153.721C429.975 153.027 430.668 152.334 431.535 151.814V151.64C430.668 152.16 429.975 152.854 429.455 153.721C429.282 153.721 429.455 153.721 429.455 153.721Z" fill="#112B46"/>
</g>
<g opacity="0.42">
<path opacity="0.42" d="M424.946 144.36C424.253 144.88 423.56 145.226 422.866 145.746V145.92C423.56 145.4 424.253 144.88 424.946 144.36C425.12 144.36 424.946 144.36 424.946 144.36Z" fill="#112B46"/>
</g>
<g opacity="0.42">
<path opacity="0.42" d="M419.574 142.973C418.881 143.32 418.188 143.667 417.494 144.187V144.36C418.361 143.84 419.054 143.32 419.574 142.973C419.748 142.973 419.748 142.973 419.574 142.973Z" fill="#112B46"/>
</g>
<g opacity="0.42">
<path opacity="0.42" d="M418.706 147.134C418.186 147.307 417.666 147.48 417.319 147.827V148C417.839 147.654 418.186 147.48 418.706 147.134C418.879 147.134 418.879 147.134 418.706 147.134Z" fill="#112B46"/>
</g>
<g opacity="0.42">
<path opacity="0.42" d="M410.211 157.361C409.691 158.055 409.344 158.748 409.171 159.615C409.171 159.788 409.344 159.788 409.344 159.615C409.344 158.921 409.691 158.228 410.211 157.361C410.384 157.361 410.211 157.361 410.211 157.361Z" fill="#112B46"/>
</g>
<g opacity="0.42">
<path opacity="0.42" d="M406.052 160.481C405.706 161.175 405.532 161.695 405.532 162.388C405.532 162.562 405.706 162.562 405.706 162.388C405.706 161.695 405.879 161.175 406.052 160.481C406.226 160.481 406.052 160.481 406.052 160.481Z" fill="#112B46"/>
</g>
<g opacity="0.42">
<path opacity="0.42" d="M403.973 158.054C403.8 158.401 403.8 158.921 403.8 159.268C403.8 159.441 403.973 159.268 403.973 159.268C403.973 158.748 403.973 158.401 403.973 158.054C404.32 157.881 404.147 157.881 403.973 158.054Z" fill="#112B46"/>
</g>
<g opacity="0.42">
<path opacity="0.42" d="M411.253 144.881C410.733 145.227 410.386 145.574 409.866 145.921C409.866 145.921 409.866 146.094 410.04 146.094C410.386 145.574 410.906 145.227 411.253 144.881C411.426 144.881 411.426 144.707 411.253 144.881Z" fill="#112B46"/>
</g>
<g opacity="0.42">
<path opacity="0.42" d="M412.64 156.148C412.293 155.801 414.027 155.281 414.2 155.107C414.374 155.107 414.2 154.934 414.2 154.934C413.507 155.107 412.987 155.454 412.467 155.801C412.467 155.801 412.467 155.801 412.467 155.974C412.467 156.148 412.467 156.148 412.64 156.148C412.64 156.321 412.814 156.321 412.64 156.148Z" fill="#112B46"/>
</g>
<g opacity="0.42">
<path opacity="0.42" d="M418.531 157.187C418.878 156.841 419.225 156.667 419.571 156.667C419.745 156.667 419.745 156.494 419.571 156.494C419.051 156.494 418.705 156.667 418.531 157.187C418.358 157.187 418.358 157.187 418.531 157.187Z" fill="#112B46"/>
</g>
</g>
<path d="M413.333 145.4C415.24 145.053 416.973 143.493 417.84 141.759C418.88 140.026 419.227 137.946 419.4 136.039C419.573 134.305 419.747 132.399 418.707 130.838C417.84 129.278 415.933 128.585 414.199 128.412C412.466 128.238 410.559 128.585 408.826 129.105C409.172 125.291 407.439 121.478 404.665 118.877C402.758 117.144 400.505 115.93 397.905 115.757C395.304 115.584 392.704 116.45 391.144 118.357C389.584 120.264 389.064 123.211 390.451 125.465C387.677 123.904 383.863 124.771 381.61 127.025C379.356 129.278 378.489 132.745 379.01 135.866C379.356 138.639 380.916 141.239 383.517 142.453C384.73 142.973 386.117 143.146 387.33 143.32C385.25 147.653 386.984 153.374 390.797 156.147C392.184 157.014 393.918 157.708 395.478 157.361C397.211 157.014 398.598 155.627 399.811 154.241C400.678 156.147 403.452 156.668 405.359 155.627C407.266 154.587 408.306 152.507 409.346 150.774" fill="#112B46"/>
<path d="M393.224 132.225C394.264 133.439 396.691 134.132 398.424 134.132C401.024 134.132 403.625 132.745 405.358 131.012C404.838 132.572 403.625 133.785 402.238 134.825C401.198 135.519 399.984 136.212 398.597 136.386C397.211 136.559 395.824 136.212 394.784 135.345C393.917 134.479 393.57 133.265 393.224 132.225Z" fill="#112B46"/>
<path d="M406.053 151.467C405.013 151.467 403.972 150.947 402.932 150.947C400.852 150.947 399.465 152.507 397.559 153.2C395.652 153.894 393.572 153.547 391.838 152.507C390.278 151.467 389.238 149.734 389.064 147.827C388.891 146.267 389.238 144.706 388.718 143.32C388.718 143.146 388.544 142.973 388.371 142.8C388.198 142.626 387.851 142.626 387.678 142.626C386.117 142.626 384.557 141.933 383.344 141.239C382.13 140.546 381.264 139.679 380.224 138.812C380.917 140.373 382.13 141.759 383.864 142.626C385.077 143.146 386.464 143.32 387.678 143.493C385.597 147.827 387.331 153.547 391.145 156.321C392.531 157.188 394.265 157.881 395.825 157.534C397.559 157.188 398.945 155.801 400.159 154.414C401.026 156.321 403.799 156.841 405.706 155.801C407.613 154.761 408.653 152.68 409.693 150.947L410.386 150.08C410.213 150.254 410.213 150.254 410.04 150.427C408.653 150.6 407.44 151.467 406.053 151.467Z" fill="#112B46"/>
<path d="M418.707 130.838C417.841 129.278 415.934 128.585 414.2 128.411C412.467 128.238 410.56 128.585 408.827 129.105C409.173 125.291 407.44 121.477 404.666 118.877C402.759 117.144 400.506 115.93 397.905 115.757C395.479 115.583 392.705 116.45 391.145 118.357C389.585 120.091 389.238 122.864 390.278 124.944C390.105 122.864 390.625 121.304 392.012 119.917C393.745 118.01 396.345 117.144 398.772 117.49C401.199 117.837 403.453 119.224 405.013 121.304C406.573 123.211 407.613 125.811 407.96 128.411C407.96 128.758 408.133 129.105 408.306 129.278C408.48 129.451 408.653 129.451 409 129.451C410.213 129.625 411.253 129.625 412.467 129.971C414.72 130.491 416.627 132.225 417.321 134.479C418.187 136.732 417.667 140.026 416.454 141.933C415.934 142.799 415.24 143.839 414.72 144.88C415.934 144.186 416.974 143.146 417.667 141.759C418.707 140.026 419.054 137.946 419.228 136.039C419.574 134.305 419.748 132.225 418.707 130.838Z" fill="#112B46"/>
<g opacity="0.54">
<g opacity="0.54">
<path opacity="0.54" d="M391.318 151.467C392.012 152.16 392.705 152.507 393.572 152.68C393.572 152.68 393.745 152.507 393.572 152.507C392.878 152.333 392.185 151.987 391.318 151.467C391.492 151.293 391.318 151.467 391.318 151.467Z" fill="#112B46"/>
</g>
<g opacity="0.54">
<path opacity="0.54" d="M393.918 149.387C394.265 150.253 395.651 150.427 396.518 150.427V150.253C395.825 150.253 394.265 150.08 393.918 149.387C393.918 149.213 393.918 149.213 393.918 149.387Z" fill="#112B46"/>
</g>
<g opacity="0.54">
<path opacity="0.54" d="M396.345 152.16C397.211 152.507 398.078 152.68 398.945 152.68V152.507C398.078 152.68 397.211 152.507 396.345 152.16C396.345 152.16 396.171 152.16 396.345 152.16Z" fill="#112B46"/>
</g>
<g opacity="0.54">
<path opacity="0.54" d="M399.985 149.387C400.505 150.08 401.199 150.6 402.066 150.773C402.066 150.773 402.239 150.773 402.066 150.6C401.372 150.427 400.679 149.907 399.985 149.387C399.985 149.213 399.985 149.387 399.985 149.387Z" fill="#112B46"/>
</g>
<g opacity="0.54">
<path opacity="0.54" d="M398.772 145.746C399.292 146.44 399.812 146.787 400.332 147.307C400.332 147.307 400.506 147.307 400.332 147.133C399.812 146.787 399.292 146.267 398.772 145.746C398.772 145.573 398.599 145.573 398.772 145.746Z" fill="#112B46"/>
</g>
<g opacity="0.54">
<path opacity="0.54" d="M391.839 144.013C391.665 144.706 392.705 145.4 393.225 145.746C393.225 145.746 393.399 145.746 393.225 145.573C392.879 145.4 391.839 144.706 391.839 144.013C392.012 144.013 391.839 144.013 391.839 144.013Z" fill="#112B46"/>
</g>
<g opacity="0.54">
<path opacity="0.54" d="M389.757 145.919C389.93 146.613 390.277 147.133 390.624 147.48C390.624 147.48 390.797 147.48 390.624 147.48C390.277 146.96 389.93 146.613 389.757 145.919Z" fill="#112B46"/>
</g>
<g opacity="0.54">
<path opacity="0.54" d="M382.477 133.959C382.304 134.132 382.304 134.305 382.304 134.652C382.477 135.172 382.65 135.692 382.824 136.212H382.997C382.65 135.692 382.13 134.479 382.477 133.959C382.477 133.959 382.477 133.785 382.477 133.959Z" fill="#112B46"/>
</g>
<g opacity="0.54">
<path opacity="0.54" d="M384.557 134.478C384.73 135.172 384.903 135.692 385.077 136.385H385.25C385.077 135.692 384.73 134.998 384.557 134.478C384.73 134.305 384.557 134.305 384.557 134.478Z" fill="#112B46"/>
</g>
<g opacity="0.54">
<path opacity="0.54" d="M387.851 134.132C387.851 134.825 388.197 135.519 388.544 136.039H388.717C388.197 135.345 388.024 134.825 387.851 134.132C388.024 134.132 387.851 134.132 387.851 134.132Z" fill="#112B46"/>
</g>
<g opacity="0.54">
<path opacity="0.54" d="M384.73 138.813C385.077 139.333 385.25 139.679 385.77 140.026C385.77 140.026 385.944 140.026 385.77 140.026C385.424 139.679 385.077 139.159 384.73 138.813C384.73 138.639 384.557 138.813 384.73 138.813Z" fill="#112B46"/>
</g>
<g opacity="0.54">
<path opacity="0.54" d="M388.891 139.159C389.064 139.506 389.411 139.852 389.584 140.199C389.584 140.199 389.757 140.199 389.584 140.199C389.411 139.852 389.237 139.506 388.891 139.159Z" fill="#112B46"/>
</g>
<g opacity="0.54">
<path opacity="0.54" d="M385.078 128.238C384.905 128.758 384.905 129.105 385.078 129.625H385.252C385.078 129.278 385.078 128.758 385.078 128.238C385.252 128.238 385.078 128.238 385.078 128.238Z" fill="#112B46"/>
</g>
<g opacity="0.54">
<path opacity="0.54" d="M396.692 122.517C397.212 123.038 397.559 123.384 398.079 123.731C398.079 123.731 398.253 123.731 398.079 123.558C397.732 123.211 397.212 122.864 396.692 122.517C396.692 122.344 396.692 122.344 396.692 122.517Z" fill="#112B46"/>
</g>
<g opacity="0.54">
<path opacity="0.54" d="M399.292 119.05C399.465 119.397 399.812 119.744 400.332 119.917C400.332 119.917 400.505 119.917 400.332 119.744C399.985 119.57 399.639 119.397 399.292 119.05C399.292 118.877 399.292 118.877 399.292 119.05Z" fill="#112B46"/>
</g>
<g opacity="0.54">
<path opacity="0.54" d="M403.453 119.571C403.8 120.091 404.147 120.437 404.32 120.957H404.493C404.147 120.264 403.8 119.917 403.453 119.571C403.453 119.397 403.453 119.397 403.453 119.571Z" fill="#112B46"/>
</g>
<g opacity="0.54">
<path opacity="0.54" d="M400.505 123.384C400.852 123.904 401.372 124.424 401.892 124.944C401.892 124.944 402.065 124.944 401.892 124.944C401.545 124.251 401.025 123.731 400.505 123.384C400.678 123.211 400.505 123.211 400.505 123.384Z" fill="#112B46"/>
</g>
<g opacity="0.54">
<path opacity="0.54" d="M404.491 124.251C404.665 124.771 404.838 125.117 405.011 125.637H405.185C405.011 125.117 404.838 124.597 404.491 124.251C404.665 124.077 404.491 124.077 404.491 124.251Z" fill="#112B46"/>
</g>
<g opacity="0.54">
<path opacity="0.54" d="M408.999 132.572C409.519 133.092 410.039 133.438 410.559 133.958C410.559 133.958 410.732 133.958 410.559 133.958C410.039 133.438 409.519 132.918 408.999 132.572C408.999 132.398 408.826 132.572 408.999 132.572Z" fill="#112B46"/>
</g>
<g opacity="0.54">
<path opacity="0.54" d="M412.468 130.838C412.814 131.532 413.335 132.052 413.855 132.745C413.855 132.745 414.028 132.745 413.855 132.745C413.335 132.052 412.988 131.532 412.468 130.838Z" fill="#112B46"/>
</g>
<g opacity="0.54">
<path opacity="0.54" d="M416.279 131.185C416.453 131.705 416.626 132.398 416.799 132.918H416.973C416.799 132.398 416.626 131.878 416.279 131.185C416.453 131.185 416.279 131.185 416.279 131.185Z" fill="#112B46"/>
</g>
<g opacity="0.54">
<path opacity="0.54" d="M412.292 134.652C412.119 134.999 412.119 135.172 412.292 135.519C412.465 136.039 412.639 136.559 412.986 137.079H413.159C412.986 136.732 412.812 136.385 412.639 136.212C412.465 135.865 411.945 134.999 412.292 134.652Z" fill="#112B46"/>
</g>
<g opacity="0.54">
<path opacity="0.54" d="M416.108 135.865C416.108 136.559 416.108 137.252 415.935 137.945H416.108C416.108 137.252 416.281 136.559 416.108 135.865C416.281 135.865 416.108 135.865 416.108 135.865Z" fill="#112B46"/>
</g>
<g opacity="0.54">
<path opacity="0.54" d="M412.468 139.505C412.641 140.199 412.988 140.892 413.161 141.759H413.335C412.988 140.892 412.814 140.199 412.468 139.505Z" fill="#112B46"/>
</g>
<g opacity="0.54">
<path opacity="0.54" d="M403.278 147.48C403.625 147.827 403.972 148 404.492 148C404.492 148 404.665 147.827 404.492 147.827C403.972 148 403.625 147.827 403.278 147.48C403.278 147.48 403.105 147.48 403.278 147.48Z" fill="#112B46"/>
</g>
<g opacity="0.54">
<path opacity="0.54" d="M393.918 142.626C394.265 143.146 394.611 143.493 395.131 143.666C395.131 143.666 395.305 143.666 395.131 143.493C394.785 143.32 394.438 142.973 393.918 142.626C394.091 142.453 393.918 142.453 393.918 142.626Z" fill="#112B46"/>
</g>
</g>
<path d="M330.992 262.237C329.952 261.544 329.085 260.504 329.085 259.291C329.085 258.944 329.085 258.597 329.432 258.424C329.778 258.25 330.125 258.25 330.298 258.597C329.778 257.73 329.605 256.69 330.125 255.65C330.818 254.61 331.512 256.17 332.032 256.69C331.512 255.824 331.512 254.61 332.032 253.743C332.032 253.57 332.205 253.57 332.379 253.397C332.899 253.223 333.419 253.57 333.765 253.917C334.285 254.437 334.805 254.957 335.326 255.477C335.672 255.824 336.019 256.17 336.019 256.517C336.019 256.864 336.192 257.384 335.846 257.557C335.499 257.904 334.979 257.904 334.632 257.557C334.979 258.077 334.979 258.597 334.805 259.117C334.459 259.637 333.765 259.984 333.245 259.637C333.592 260.504 333.939 261.024 333.072 261.544C332.205 262.064 331.859 262.584 330.992 262.237Z" fill="#FFC8AF"/>
<g style="mix-blend-mode:multiply">
<path d="M330.992 262.237C329.952 261.544 329.085 260.504 329.085 259.291C329.085 258.944 329.085 258.597 329.432 258.424C329.778 258.25 330.125 258.25 330.298 258.597C329.778 257.73 329.605 256.69 330.125 255.65C330.818 254.61 331.512 256.17 332.032 256.69C331.512 255.824 331.512 254.61 332.032 253.743C332.032 253.57 332.205 253.57 332.379 253.397C332.899 253.223 333.419 253.57 333.765 253.917C334.285 254.437 334.805 254.957 335.326 255.477C335.672 255.824 336.019 256.17 336.019 256.517C336.019 256.864 336.192 257.384 335.846 257.557C335.499 257.904 334.979 257.904 334.632 257.557C334.979 258.077 334.979 258.597 334.805 259.117C334.459 259.637 333.765 259.984 333.245 259.637C333.592 260.504 333.939 261.024 333.072 261.544C332.205 262.064 331.859 262.584 330.992 262.237Z" fill="#F1F2F2"/>
</g>
</svg>
