<svg width="1122" height="1024" viewBox="0 0 1122 1024" fill="none" xmlns="http://www.w3.org/2000/svg">
<path d="M561 1073C870.832 1073 1122 821.832 1122 512C1122 202.168 870.832 -49 561 -49C251.168 -49 0 202.168 0 512C0 821.832 251.168 1073 561 1073Z" fill="#FCFBFF"/>
<path d="M561 1002C831.62 1002 1051 782.62 1051 512C1051 241.38 831.62 22 561 22C290.38 22 71 241.38 71 512C71 782.62 290.38 1002 561 1002Z" fill="#F8F6FE"/>
<path d="M561 932C792.96 932 981 743.96 981 512C981 280.04 792.96 92 561 92C329.04 92 141 280.04 141 512C141 743.96 329.04 932 561 932Z" fill="#F6F2FF"/>
<g filter="url(#filter0_d)">
<path d="M561 857C751.538 857 906 702.538 906 512C906 321.462 751.538 167 561 167C370.462 167 216 321.462 216 512C216 702.538 370.462 857 561 857Z" fill="white"/>
</g>
<defs>
<filter id="filter0_d" x="116" y="71" width="890" height="890" filterUnits="userSpaceOnUse" color-interpolation-filters="sRGB">
<feFlood flood-opacity="0" result="BackgroundImageFix"/>
<feColorMatrix in="SourceAlpha" type="matrix" values="0 0 0 0 0 0 0 0 0 0 0 0 0 0 0 0 0 0 127 0"/>
<feOffset dy="4"/>
<feGaussianBlur stdDeviation="50"/>
<feColorMatrix type="matrix" values="0 0 0 0 0.328167 0 0 0 0 0 0 0 0 0 0.745833 0 0 0 0.1 0"/>
<feBlend mode="normal" in2="BackgroundImageFix" result="effect1_dropShadow"/>
<feBlend mode="normal" in="SourceGraphic" in2="effect1_dropShadow" result="shape"/>
</filter>
</defs>
</svg>
