<svg width="1428" height="223" viewBox="0 0 1428 223" fill="none" xmlns="http://www.w3.org/2000/svg">
<path d="M117.32 187H74.7682L32.0002 35.8H79.5202L100.04 118.96L124.448 35.8H157.712L182.12 118.96L202.64 35.8H250.16L207.392 187H164.84L141.08 106.216L117.32 187Z" fill="#FAF7FE"/>
<path d="M336.51 89.368V35.8H379.71V187H336.51V131.272H299.79V187H256.59V35.8H299.79V89.368H336.51Z" fill="#FAF7FE"/>
<path d="M530.893 187H484.453L479.269 167.56H435.637L430.453 187H384.013L432.181 35.8H482.725L530.893 187ZM457.453 86.56L444.925 133H469.981L457.453 86.56Z" fill="#FAF7FE"/>
<path d="M515.849 35.8H630.329V77.704H594.689V187H551.489V77.704H515.849V35.8Z" fill="#FAF7FE"/>
<path d="M669.209 35.8H783.689V77.704H748.049V187H704.849V77.704H669.209V35.8Z" fill="#FAF7FE"/>
<path d="M917.291 167.776C901.883 182.896 882.947 190.456 860.483 190.456C838.019 190.456 819.011 182.896 803.459 167.776C788.051 152.368 780.347 133.576 780.347 111.4C780.347 89.08 788.051 70.36 803.459 55.24C818.867 39.976 837.875 32.344 860.483 32.344C883.091 32.344 902.027 39.976 917.291 55.24C932.843 70.36 940.619 89.08 940.619 111.4C940.619 133.576 932.843 152.368 917.291 167.776ZM833.915 137.752C840.971 144.664 849.827 148.12 860.483 148.12C871.139 148.12 879.923 144.664 886.835 137.752C893.891 130.696 897.419 121.912 897.419 111.4C897.419 100.888 893.891 92.176 886.835 85.264C879.923 78.208 871.139 74.68 860.483 74.68C849.827 74.68 840.971 78.208 833.915 85.264C827.003 92.176 823.547 100.888 823.547 111.4C823.547 121.768 827.003 130.552 833.915 137.752Z" fill="#FAF7FE"/>
<path d="M991.42 35.8H1054.06C1074.8 35.8 1092.22 43.072 1106.33 57.616C1120.44 72.16 1127.5 90.088 1127.5 111.4C1127.5 132.856 1120.44 150.856 1106.33 165.4C1092.36 179.8 1074.94 187 1054.06 187H991.42V35.8ZM1036.78 145.096H1054.06C1062.84 145.096 1070.04 142 1075.66 135.808C1081.42 129.472 1084.3 121.336 1084.3 111.4C1084.3 101.464 1081.42 93.4 1075.66 87.208C1070.04 80.872 1062.84 77.704 1054.06 77.704H1036.78V145.096Z" fill="#FAF7FE"/>
<path d="M1270.94 167.776C1255.53 182.896 1236.6 190.456 1214.13 190.456C1191.67 190.456 1172.66 182.896 1157.11 167.776C1141.7 152.368 1134 133.576 1134 111.4C1134 89.08 1141.7 70.36 1157.11 55.24C1172.52 39.976 1191.52 32.344 1214.13 32.344C1236.74 32.344 1255.68 39.976 1270.94 55.24C1286.49 70.36 1294.27 89.08 1294.27 111.4C1294.27 133.576 1286.49 152.368 1270.94 167.776ZM1187.56 137.752C1194.62 144.664 1203.48 148.12 1214.13 148.12C1224.79 148.12 1233.57 144.664 1240.48 137.752C1247.54 130.696 1251.07 121.912 1251.07 111.4C1251.07 100.888 1247.54 92.176 1240.48 85.264C1233.57 78.208 1224.79 74.68 1214.13 74.68C1203.48 74.68 1194.62 78.208 1187.56 85.264C1180.65 92.176 1177.2 100.888 1177.2 111.4C1177.2 121.768 1180.65 130.552 1187.56 137.752Z" fill="#FAF7FE"/>
<path d="M1361.22 130.84H1322.34C1322.34 125.08 1323.78 119.536 1326.66 114.208C1329.54 108.88 1332.99 104.488 1337.03 101.032C1346.96 93.112 1351.93 86.632 1351.93 81.592C1351.93 79.288 1351.14 77.416 1349.55 75.976C1347.97 74.536 1345.81 73.816 1343.07 73.816C1336.02 73.816 1330.11 79.072 1325.36 89.584L1288.86 68.848C1293.9 56.896 1301.31 47.824 1311.11 41.632C1321.04 35.44 1332.27 32.344 1344.8 32.344C1359.35 32.344 1371.37 36.232 1380.87 44.008C1390.38 51.64 1395.13 61.936 1395.13 74.896C1395.13 86.56 1391.17 96.496 1383.25 104.704C1381.52 106.432 1379 108.736 1375.69 111.616C1372.52 114.496 1370.07 116.8 1368.35 118.528C1366.62 120.112 1364.96 122.056 1363.38 124.36C1361.94 126.664 1361.22 128.824 1361.22 130.84ZM1359.27 183.112C1354.52 187.864 1348.69 190.24 1341.78 190.24C1335.01 190.24 1329.11 187.864 1324.07 183.112C1319.31 178.216 1316.94 172.312 1316.94 165.4C1316.94 158.488 1319.31 152.656 1324.07 147.904C1328.96 143.008 1334.87 140.56 1341.78 140.56C1348.69 140.56 1354.52 143.008 1359.27 147.904C1364.17 152.656 1366.62 158.488 1366.62 165.4C1366.62 172.312 1364.17 178.216 1359.27 183.112Z" fill="#FAF7FE"/>
<path fill-rule="evenodd" clip-rule="evenodd" d="M141.08 208.437C135.15 215.006 126.597 219 117.32 219H74.7683C60.4495 219 47.8736 209.488 43.9764 195.71L1.20838 44.5097C-1.5206 34.8618 0.430172 24.4926 6.47861 16.496C12.5271 8.49939 21.9739 3.79999 32.0003 3.79999H79.5203C88.1612 3.79999 96.1479 7.26037 101.984 13.0094C107.831 7.24967 115.827 3.79999 124.448 3.79999H157.712C166.334 3.79999 174.329 7.24967 180.176 13.0094C186.013 7.26037 193.999 3.79999 202.64 3.79999H250.16C251.236 3.79999 252.305 3.85408 253.364 3.96055C254.425 3.85436 255.501 3.79999 256.59 3.79999H299.79C306.621 3.79999 312.952 5.94061 318.15 9.58768C323.347 5.94061 329.678 3.79999 336.51 3.79999H379.71C390.566 3.79999 400.16 9.20631 405.945 17.4736C411.82 9.06508 421.533 3.79999 432.181 3.79999H482.725C488.712 3.79999 494.403 5.4645 499.282 8.41639C504.115 5.48664 509.785 3.79999 515.849 3.79999H630.329C637.641 3.79999 644.38 6.25245 649.769 10.3797C655.157 6.25245 661.897 3.79999 669.209 3.79999H783.689C792.651 3.79999 800.752 7.48397 806.561 13.4202C822.775 4.69415 840.933 0.343994 860.484 0.343994C891.056 0.343994 918.211 10.9861 939.76 32.4542C947.774 40.2744 954.33 48.8633 959.42 58.1159V35.8C959.42 18.1269 973.747 3.79999 991.42 3.79999H1054.06C1083.22 3.79999 1109 14.4166 1129.3 35.3322C1129.73 35.7728 1130.15 36.2157 1130.57 36.6609C1131.88 35.2316 1133.24 33.8255 1134.65 32.4432C1156.32 11.0108 1183.52 0.343994 1214.13 0.343994C1239.86 0.343994 1263.17 7.88188 1282.76 23.0673C1286.22 19.976 1289.97 17.1396 1294 14.5858C1294.06 14.5483 1294.12 14.511 1294.18 14.474C1309.55 4.89397 1326.73 0.343994 1344.8 0.343994C1365.27 0.343994 1384.82 5.93455 1401.03 19.1508C1418.55 33.2788 1427.13 52.9902 1427.13 74.896C1427.13 94.6402 1420.1 112.602 1406.28 126.924C1406.19 127.018 1406.1 127.112 1406 127.205C1405.96 127.248 1405.92 127.29 1405.88 127.331C1403.43 129.776 1400.36 132.563 1396.96 135.524C1395.1 137.218 1393.64 138.584 1392.52 139.653C1396.55 147.501 1398.62 156.224 1398.62 165.4C1398.62 180.815 1392.79 194.854 1381.9 205.739C1370.96 216.681 1356.91 222.24 1341.78 222.24C1326.64 222.24 1312.94 216.6 1302.11 206.395C1301.77 206.07 1301.43 205.739 1301.1 205.399C1297.24 201.415 1294.04 197.037 1291.55 192.352C1270.2 212.443 1243.76 222.456 1214.13 222.456C1183.67 222.456 1156.56 211.873 1134.8 190.72C1134.69 190.615 1134.59 190.51 1134.48 190.403C1133.14 189.066 1131.85 187.707 1130.59 186.328C1130.17 186.781 1129.74 187.232 1129.3 187.68C1109.04 208.572 1083.2 219 1054.06 219H991.42C973.747 219 959.42 204.673 959.42 187V164.668C954.333 173.961 947.789 182.607 939.813 190.508L939.752 190.569L939.704 190.616C918.049 211.867 890.951 222.456 860.484 222.456C830.019 222.456 802.911 211.873 781.153 190.72C781.045 190.615 780.938 190.51 780.832 190.403C780.537 190.108 780.243 189.811 779.951 189.514C778.669 206.012 764.876 219 748.049 219H704.849C687.176 219 672.849 204.673 672.849 187V109.704H669.209C661.897 109.704 655.157 107.252 649.769 103.124C644.38 107.252 637.641 109.704 630.329 109.704H626.689V187C626.689 204.673 612.362 219 594.689 219H551.489C547.881 219 544.413 218.403 541.178 217.302C537.906 218.413 534.436 219 530.893 219H484.453C473.295 219 463.21 213.227 457.453 204.181C451.695 213.227 441.611 219 430.453 219H384.013C383.295 219 382.58 218.976 381.869 218.928C381.156 218.976 380.435 219 379.71 219H336.51C329.678 219 323.347 216.859 318.15 213.212C312.952 216.859 306.621 219 299.79 219H256.59C246.702 219 237.861 214.515 231.992 207.469C226.047 214.608 217.122 219 207.392 219H164.84C155.563 219 147.011 215.006 141.08 208.437ZM164.84 187H207.392L250.16 35.8H202.64L182.12 118.96L157.712 35.8H124.448L100.04 118.96L79.5203 35.8H32.0003L74.7683 187H117.32L141.08 106.216L164.84 187ZM256.59 187H299.79V131.272H336.51V187H379.71V35.8H336.51V89.368H299.79V35.8H256.59V187ZM430.453 187L435.637 167.56H479.269L484.453 187H530.893L482.725 35.8H432.181L384.013 187H430.453ZM469.981 133H444.925L457.453 86.56L469.981 133ZM551.489 187H594.689V77.704H630.329V35.8H515.849V77.704H551.489V187ZM780.362 109.704C780.353 110.267 780.348 110.832 780.348 111.4C780.348 133.576 788.052 152.368 803.46 167.776C819.012 182.896 838.02 190.456 860.484 190.456C882.948 190.456 901.884 182.896 917.292 167.776C932.844 152.368 940.62 133.576 940.62 111.4C940.62 89.08 932.844 70.36 917.292 55.24C902.028 39.976 883.091 32.344 860.484 32.344C843.527 32.344 828.595 36.6374 815.689 45.2241C811.387 48.0859 807.311 51.4245 803.46 55.24C796.564 62.0069 791.211 69.4949 787.401 77.704C785.935 80.8631 784.698 84.129 783.689 87.5017C781.61 94.4493 780.502 101.85 780.362 109.704ZM886.836 85.264C879.924 78.208 871.14 74.68 860.484 74.68C849.828 74.68 840.971 78.208 833.916 85.264C827.004 92.176 823.547 100.888 823.547 111.4C823.547 121.768 827.004 130.552 833.916 137.752C840.971 144.664 849.828 148.12 860.484 148.12C871.14 148.12 879.924 144.664 886.836 137.752C893.892 130.696 897.419 121.912 897.419 111.4C897.419 100.888 893.892 92.176 886.836 85.264ZM856.666 115.229C855.933 114.391 855.547 113.556 855.547 111.4C855.547 109.695 855.817 108.953 855.885 108.782C855.934 108.657 856.038 108.397 856.543 107.891C857.143 107.292 857.493 107.133 857.692 107.054C857.934 106.958 858.735 106.68 860.484 106.68C862.237 106.68 862.984 106.959 863.137 107.02C863.24 107.062 863.482 107.153 863.976 107.657C864.13 107.814 864.285 107.97 864.443 108.123C864.991 108.661 865.084 108.921 865.113 108.993C865.159 109.107 865.419 109.775 865.419 111.4C865.419 113.021 865.161 113.743 865.079 113.946C865.011 114.115 864.851 114.482 864.208 115.125C863.747 115.586 863.504 115.688 863.348 115.75C863.137 115.833 862.315 116.12 860.484 116.12C858.063 116.12 857.208 115.691 856.666 115.229ZM748.049 77.704H783.689V35.8H669.209V77.704H704.849V187H748.049V77.704ZM1106.33 165.4C1108.42 163.253 1110.34 161.031 1112.12 158.733C1122.37 145.467 1127.5 129.689 1127.5 111.4C1127.5 93.1907 1122.35 77.4518 1112.05 64.1833C1110.29 61.9225 1108.39 59.7334 1106.33 57.616C1092.22 43.072 1074.8 35.8 1054.06 35.8H991.42V187H1054.06C1074.94 187 1092.36 179.8 1106.33 165.4ZM1149.34 158.863C1151.66 161.95 1154.25 164.921 1157.11 167.776C1172.66 182.896 1191.67 190.456 1214.13 190.456C1236.6 190.456 1255.53 182.896 1270.94 167.776C1280.43 158.377 1287.02 147.718 1290.72 135.801C1291.23 134.171 1291.68 132.517 1292.08 130.84C1293.54 124.678 1294.27 118.198 1294.27 111.4C1294.27 110.495 1294.26 109.595 1294.23 108.702C1294.23 108.653 1294.23 108.605 1294.23 108.556C1293.85 96.0769 1290.97 84.7548 1285.6 74.5896C1283.82 71.2246 1281.76 67.9864 1279.44 64.875C1276.92 61.5155 1274.09 58.3038 1270.94 55.24C1268.45 52.7483 1265.86 50.46 1263.17 48.3751C1249.4 37.6877 1233.05 32.344 1214.13 32.344C1191.52 32.344 1172.52 39.976 1157.11 55.24C1154.24 58.053 1151.64 60.9906 1149.31 64.0529C1139.1 77.4502 1134 93.2326 1134 111.4C1134 129.467 1139.11 145.289 1149.34 158.863ZM1240.48 85.264C1233.57 78.208 1224.79 74.68 1214.13 74.68C1203.48 74.68 1194.62 78.208 1187.56 85.264C1180.65 92.176 1177.2 100.888 1177.2 111.4C1177.2 121.768 1180.65 130.552 1187.56 137.752C1194.62 144.664 1203.48 148.12 1214.13 148.12C1224.79 148.12 1233.57 144.664 1240.48 137.752C1247.54 130.696 1251.07 121.912 1251.07 111.4C1251.07 100.888 1247.54 92.176 1240.48 85.264ZM1296.81 54.8566C1293.71 58.9729 1291.06 63.6367 1288.86 68.848L1325.36 89.584C1325.58 89.1073 1325.8 88.6415 1326.02 88.1864C1326.11 87.9847 1326.21 87.7852 1326.31 87.5878C1327.43 85.3356 1328.62 83.3596 1329.86 81.6599C1329.88 81.6372 1329.9 81.6146 1329.91 81.592C1333.73 76.408 1338.12 73.816 1343.07 73.816C1345.81 73.816 1347.97 74.536 1349.55 75.976C1351.14 77.416 1351.93 79.288 1351.93 81.592C1351.93 85.4771 1348.98 90.2178 1343.07 95.8142C1342.66 96.2078 1342.23 96.6057 1341.79 97.0078C1341.12 97.6091 1340.42 98.2198 1339.69 98.84C1338.85 99.558 1337.96 100.289 1337.03 101.032C1336.04 101.879 1335.08 102.783 1334.17 103.742C1332.4 105.588 1330.76 107.641 1329.25 109.902C1328.34 111.262 1327.48 112.698 1326.66 114.208C1326.51 114.489 1326.36 114.77 1326.22 115.052C1325.13 117.18 1324.27 119.342 1323.64 121.538C1322.77 124.573 1322.34 127.674 1322.34 130.84H1361.22C1361.22 128.824 1361.94 126.664 1363.38 124.36C1364.96 122.056 1366.62 120.112 1368.35 118.528C1368.99 117.884 1369.73 117.16 1370.58 116.355C1372 115.002 1373.7 113.422 1375.69 111.616C1379 108.736 1381.52 106.432 1383.25 104.704C1391.17 96.496 1395.13 86.56 1395.13 74.896C1395.13 61.936 1390.38 51.64 1380.87 44.008C1371.37 36.232 1359.35 32.344 1344.8 32.344C1332.27 32.344 1321.04 35.44 1311.11 41.632C1310.27 42.1619 1309.45 42.7129 1308.64 43.285C1307.47 44.1224 1306.33 45.005 1305.23 45.9327C1302.13 48.5482 1299.32 51.5228 1296.81 54.8566ZM1366.46 162.413C1365.95 157.731 1364.2 153.594 1361.22 150.001C1360.62 149.28 1359.97 148.581 1359.27 147.904C1354.52 143.008 1348.69 140.56 1341.78 140.56C1334.87 140.56 1328.96 143.008 1324.07 147.904C1323.45 148.52 1322.87 149.154 1322.34 149.806C1319.35 153.444 1317.6 157.646 1317.09 162.412C1316.99 163.385 1316.94 164.381 1316.94 165.4C1316.94 172.312 1319.31 178.216 1324.07 183.112C1329.11 187.864 1335.01 190.24 1341.78 190.24C1348.69 190.24 1354.52 187.864 1359.27 183.112C1364.17 178.216 1366.62 172.312 1366.62 165.4C1366.62 164.381 1366.57 163.385 1366.46 162.413ZM1393.22 130.84C1393.22 130.859 1393.22 130.878 1393.22 130.897V130.84ZM1036.78 77.704H1054.06C1059.6 77.704 1064.5 78.9622 1068.78 81.4786C1071.29 82.9552 1073.58 84.865 1075.66 87.208C1081.42 93.4 1084.3 101.464 1084.3 111.4C1084.3 121.336 1081.42 129.472 1075.66 135.808C1073.58 138.098 1071.29 139.964 1068.78 141.407C1064.5 143.866 1059.6 145.096 1054.06 145.096H1036.78V77.704ZM1210.32 115.229C1210.86 115.69 1211.71 116.12 1214.13 116.12C1215.96 116.12 1216.79 115.833 1217 115.75C1217.15 115.688 1217.4 115.586 1217.86 115.125C1218.5 114.482 1218.66 114.115 1218.73 113.946C1218.81 113.743 1219.07 113.021 1219.07 111.4C1219.07 109.775 1218.81 109.107 1218.76 108.993C1218.73 108.921 1218.64 108.661 1218.09 108.123C1217.93 107.97 1217.78 107.814 1217.63 107.657C1217.14 107.162 1216.9 107.065 1216.79 107.023L1216.79 107.02C1216.63 106.959 1215.89 106.68 1214.13 106.68C1212.38 106.68 1211.58 106.958 1211.34 107.054C1211.14 107.133 1210.79 107.292 1210.19 107.891C1209.69 108.397 1209.58 108.657 1209.53 108.782C1209.47 108.953 1209.2 109.695 1209.2 111.4C1209.2 113.556 1209.58 114.391 1210.32 115.229Z" fill="#FDFCFF"/>
</svg>
