<svg width="254" height="197" viewBox="0 0 254 197" fill="none" xmlns="http://www.w3.org/2000/svg">
<path d="M218.23 97.6766C218.23 95.8709 217.257 94.2055 215.683 93.3196L130.773 45.5163C129.249 44.6584 127.388 44.659 125.864 45.5179L41.09 93.319C39.5181 94.2054 38.5458 95.8699 38.5458 97.6744V140.792C38.5458 143.554 40.7844 145.792 43.5458 145.792H213.23C215.992 145.792 218.23 143.554 218.23 140.792V97.6766Z" fill="#9D77EF"/>
<path d="M71.3734 94.7861H196.161C198.923 94.7861 201.161 97.0247 201.161 99.7861V193.051H66.3734V99.7861C66.3734 97.0247 68.612 94.7861 71.3734 94.7861Z" fill="#F4F4F4"/>
<path d="M66.0607 89.8857H190.3C193.061 89.8857 195.3 92.1243 195.3 94.8857V192.942H61.0607V94.8857C61.0607 92.1243 63.2992 89.8857 66.0607 89.8857Z" fill="white"/>
<path d="M77.6295 110.72H180.686C181.497 110.72 182.154 111.378 182.154 112.189C182.154 113 181.497 113.657 180.686 113.657H77.6295C76.8186 113.657 76.1613 113 76.1613 112.189C76.1613 111.378 76.8186 110.72 77.6295 110.72Z" fill="#EC827D"/>
<path d="M77.6295 120.229H180.686C181.497 120.229 182.154 120.887 182.154 121.697C182.154 122.508 181.497 123.166 180.686 123.166H77.6295C76.8186 123.166 76.1613 122.508 76.1613 121.697C76.1613 120.887 76.8186 120.229 77.6295 120.229Z" fill="#FDD17A"/>
<path d="M77.6295 129.598H180.686C181.497 129.598 182.154 130.255 182.154 131.066C182.154 131.877 181.497 132.535 180.686 132.535H77.6295C76.8186 132.535 76.1613 131.877 76.1613 131.066C76.1613 130.255 76.8186 129.598 77.6295 129.598Z" fill="#FDD17A"/>
<path d="M38.5468 193.353L127.357 144.581C127.956 144.252 128.682 144.252 129.282 144.581L218.231 193.353H38.5468Z" fill="#E4C9FF"/>
<path d="M218.231 103.341C218.231 99.5085 214.096 97.101 210.763 98.9931L131.383 144.053C130.033 144.82 130.033 146.765 131.383 147.532L210.763 192.592C214.096 194.484 218.231 192.076 218.231 188.244V103.341Z" fill="#E4C9FF"/>
<path d="M46.0171 99.0013C42.6839 97.1063 38.5459 99.5137 38.5459 103.348V188.237C38.5459 192.071 42.6839 194.479 46.0171 192.584L125.26 147.531C126.609 146.764 126.609 144.821 125.26 144.054L46.0171 99.0013Z" fill="#E4C9FF"/>
<g style="mix-blend-mode:multiply">
<path d="M218.231 94.7537L128.319 145.793L218.231 196.831V94.7537Z" fill="#F1F2F2"/>
</g>
<g style="mix-blend-mode:multiply">
<path d="M38.5459 94.7537V196.831L128.318 145.793L38.5459 94.7537Z" fill="#F1F2F2"/>
</g>
<path d="M249.714 8.70615L193.335 1.92265C190.622 1.62116 188.21 3.4301 187.908 6.1435L185.044 29.2074L183.989 37.9506L182.029 53.4773L200.269 44.8848L244.588 50.3116C247.302 50.6131 249.714 48.8042 250.015 46.0908L253.934 14.2837C254.387 11.4195 252.427 9.00764 249.714 8.70615Z" fill="#FBD15B"/>
<g style="mix-blend-mode:multiply">
<path d="M187.305 38.2522L188.36 29.509L191.224 6.4451C191.526 3.7317 193.938 1.92276 196.651 2.22425L193.486 1.77201C190.772 1.47052 188.36 3.27946 188.059 5.99286L185.195 29.0568L184.139 37.8L182.18 53.3266L185.647 51.6685L187.305 38.2522Z" fill="#F1F2F2"/>
</g>
<g style="mix-blend-mode:multiply">
<path d="M245.04 46.6944L205.847 41.8706L182.18 53.1764L200.42 44.584L244.739 50.0108C247.452 50.3123 249.864 48.5034 250.165 45.7899L250.618 42.6243C250.165 45.187 247.754 47.1467 245.04 46.6944Z" fill="#F1F2F2"/>
</g>
<path d="M13.1972 38.2634L51.1769 34.0737C52.9238 33.8762 54.6849 35.1861 54.7627 37.0245L56.4485 52.6264L57.0762 58.4093L58.2612 68.8903L46.0533 62.8556L16.1457 66.1847C14.3989 66.3822 12.6377 65.0723 12.56 63.2339L10.2464 41.8492C10.0489 40.1023 11.2391 38.4328 13.1972 38.2634Z" fill="#FBD15B"/>
<g style="mix-blend-mode:multiply">
<path d="M54.9976 58.6703L54.3698 52.8874L52.684 37.2856C52.4865 35.5388 50.8451 34.1373 49.0983 34.3348L51.2677 34.1936C53.0146 33.9961 54.7757 35.306 54.8535 37.1444L56.5393 52.7462L57.1671 58.5291L58.352 69.0101L56.0203 67.9469L54.9976 58.6703Z" fill="#F1F2F2"/>
</g>
<g style="mix-blend-mode:multiply">
<path d="M16.0037 64.0155L42.4176 61.0814L58.2603 68.8906L46.0525 62.8559L16.1449 66.185C14.398 66.3825 12.6369 65.0726 12.5591 63.2342L12.4179 61.0647C12.4957 62.9031 14.1652 64.0933 16.0037 64.0155Z" fill="#F1F2F2"/>
</g>
<path d="M134.501 3.29138L105.252 5.25942C103.815 5.32749 102.807 6.54092 102.875 7.97815L103.7 19.9456L103.99 24.4864L104.564 32.5773L112.915 26.42L135.848 24.8843C137.286 24.8163 138.294 23.6028 138.226 22.1656L137.111 5.65735C137.043 4.22012 135.829 3.21181 134.501 3.29138Z" fill="#FBD15B"/>
<g style="mix-blend-mode:multiply">
<path d="M105.656 24.3327L105.366 19.7919L104.541 7.82444C104.473 6.38721 105.47 5.28256 106.918 5.10571L105.252 5.25957C103.815 5.32763 102.807 6.54107 102.875 7.97829L103.7 19.9458L103.99 24.4866L104.564 32.5775L106.117 31.4215L105.656 24.3327Z" fill="#F1F2F2"/>
</g>
<g style="mix-blend-mode:multiply">
<path d="M135.816 23.1207L115.54 24.4972L104.577 32.4685L112.928 26.3111L135.861 24.7755C137.298 24.7074 138.306 23.494 138.238 22.0567L138.085 20.3904C138.261 21.8392 137.265 22.9438 135.816 23.1207Z" fill="#F1F2F2"/>
</g>
</svg>
