<svg width="445" height="360" fill="none" xmlns="http://www.w3.org/2000/svg"><g clip-path="url(#clip0)"><path d="M438.396 359.796H21.604a5.562 5.562 0 01-5.561-5.561 5.56 5.56 0 015.561-5.531h416.792a5.563 5.563 0 015.562 5.562 5.56 5.56 0 01-5.562 5.53z" fill="#F1F2F2"/><path d="M317.812 30.528a19.747 19.747 0 00-14.824-14.783 19.996 19.996 0 00-24.569 19.42 4.104 4.104 0 001.02 3.199 4.122 4.122 0 003.066 1.371 4.11 4.11 0 004.086-4.57 11.816 11.816 0 014.528-9.28 11.817 11.817 0 0110.091-2.183 11.537 11.537 0 018.625 8.635 11.807 11.807 0 01-3.013 11.051c-8.08 8.296-12.531 18.71-12.531 29.329v2.765a4.12 4.12 0 001.021 3.2 4.105 4.105 0 003.065 1.371 4.118 4.118 0 003.066-1.371 4.109 4.109 0 001.021-3.2v-2.765c0-8.481 3.629-16.87 10.208-23.644a20.075 20.075 0 005.14-18.545zM298.999 83.48a4.38 4.38 0 00-3.107 7.476 4.385 4.385 0 004.778.947 4.382 4.382 0 002.698-4.054 4.37 4.37 0 00-4.369-4.369z" fill="#EC827D"/><g style="mix-blend-mode:multiply"><path d="M298.383 79.584a4.109 4.109 0 002.59-.956 4.111 4.111 0 01-3.906-4.112V71.75c0-10.619 4.451-21.032 12.531-29.328a11.776 11.776 0 003.023-11.051 11.543 11.543 0 00-8.605-8.543 11.986 11.986 0 00-7.967.853 12.48 12.48 0 015.14.082 11.528 11.528 0 018.625 8.636 11.802 11.802 0 01-2.991 10.989c-8.08 8.296-12.532 18.71-12.532 29.329v2.765a4.116 4.116 0 004.092 4.102zM281.205 34.239a19.947 19.947 0 0112.182-18.38 19.951 19.951 0 00-14.968 19.305 4.116 4.116 0 002.387 3.61 4.11 4.11 0 004.295-.526 4.11 4.11 0 01-3.896-4.01zM297.406 86.945a4.335 4.335 0 011.686-3.424H299a4.378 4.378 0 00-4.189 5.803 4.385 4.385 0 002.917 2.781 4.381 4.381 0 003.955-.781 4.37 4.37 0 01-4.277-4.38z" fill="#F1F2F2"/></g><path d="M216.112 345.62a3.08 3.08 0 011.85-.452l3.763-.37-3.444-5.14.576-21.856h-13.662c.493 18.134.791 23.223.925 28.106l4.667 1.131a3.233 3.233 0 002.477-.381l2.848-1.038z" fill="#FFC8AF"/><path d="M206.13 345.856c.062 2.056.092 4.112.092 6.055h18.206a1.102 1.102 0 00.782-.325 1.099 1.099 0 00.318-.785 1.025 1.025 0 00-.185-.606l-3.567-5.428h-4.256a3.085 3.085 0 00-1.85.452l-2.396 1.429a3.219 3.219 0 01-2.477.38l-4.667-1.172z" fill="#56548C"/><path d="M243.364 344.767l11.421 2.148a5.316 5.316 0 005.305-2.148l-5.377-4.225c.329-3.496 1.1-20.56 1.1-20.56h-13.23l.781 24.785z" fill="#FFC8AF"/><path d="M243.364 344.767l.093 6.003v1.141h22.523a1.109 1.109 0 00.689-1.984l-6.579-5.14a5.315 5.315 0 01-5.305 2.149l-11.421-2.169z" fill="#56548C"/><path d="M198.327 162.688l-6.27 4.677a4.824 4.824 0 00-.648 3.896 11.949 11.949 0 002.704 4.821s-4.75.103-4.647 1.45c.103 1.346 6.332 2.95 11.03 2.539a99.942 99.942 0 012.776-13.508l-4.945-3.875zM294.867 106.261s-14.803 50.906-23.942 50.207c-.154 0-.298 0-.432-.061-7.607-1.08-13.755-15.606-17.003-25.238a44.65 44.65 0 011.028-4.811c3.218-11.657 5.428-18.082 0-28.938l8.635-5.356 9.057 43.248s15.749-34.798 17.548-36.844c2.703-3.084 6.764-1.758 9.591-2.477 2.827-.72 9.694-3.7 11.185-1.758 1.758 2.262-15.667 12.028-15.667 12.028z" fill="#FFC8AF"/><path d="M263.184 92.053l-8.646 5.367c5.428 10.855 3.218 17.28 0 28.938a45.084 45.084 0 00-1.028 4.811 69.596 69.596 0 00-.473 19.121h-44.204l-10.115-44.276-9.252 6.168-.75-1.296-.689-1.161-8.635-14.762-.669-1.162A91.307 91.307 0 01198.43 79.03c6.302-3.413 13.58-6.168 21.002-6.394a10.057 10.057 0 009.658 7.26 10.056 10.056 0 009.658-7.26c10.28.246 16.818 4.45 20.817 8.737a26.068 26.068 0 015.706 9.417l-2.087 1.264z" fill="#FBD15B"/><path d="M263.821 203.335c0 26.563-5.14 80.872-6.528 118.991h-15.594l-6.446-128.665h-6.62l-8.553 128.665h-15.615c-1.378-38.119-6.528-92.428-6.528-118.991-.002-6.114.407-12.22 1.223-18.278a142.366 142.366 0 013.701-18.093 106.467 106.467 0 015.911-16.664h44.204s10.845 22.359 10.845 53.035z" fill="#56548C"/><path d="M259.902 77.79a11.44 11.44 0 01-.411 3.166c-3.988-4.287-10.516-8.481-20.817-8.738a9.634 9.634 0 01-1.655-4.863c6.086.052 9.879-2.714 9.9-2.374 8.316-17.178 0-32.752 0-32.752s-.679 6.61-9.047 11.092c-4.585 2.446-6.055 8.08-6.055 8.08s-1.254-5.264-4.77-4.955c-3.515.308-2.333 7.494-2.333 7.494l2.621 3.413c1.368 11.308-7.977 14.865-7.977 14.865-7.432.257-14.711 2.98-21.002 6.394a13.781 13.781 0 012.899-7.69c2.262-2.744 4.112-2.426 5.613-4.985 2.364-4.112-4.595-7.371-2.868-12.336 1.583-4.554 3.814-4.637 6.168-9.252 2.929-5.695.123-8.43 1.922-14.002 2.292-7.052 15.677-11.308 24.24-11.071 10.445.339 20.499 8.049 21.218 15.42.35 3.68-1.809 5.345-.771 10.136 1.121 5.284 4.266 5.623 4.523 9.663.34 5.53-5.355 6.785-5.14 12.49.165 4.482 3.701 5.665 3.742 10.805z" fill="#8E59FF"/><path d="M169.04 135.178a3.946 3.946 0 01-1.25-2.786 3.945 3.945 0 011.106-2.847l19.059-19.82-8.615-14.731c-6.507 6.723-30.017 31.631-28.403 38.868 1.912 8.43 40.801 34.757 40.801 34.757l6.61-5.901-29.308-27.54zM246.911 65.397s0 .391-1.09.884c-1.028.514-3.176 1.152-7.288 1.604a25.974 25.974 0 00.164 4.74 10.052 10.052 0 01-9.658 7.26 10.056 10.056 0 01-9.658-7.26 13.548 13.548 0 008.059-11.494c.084-1.12.057-2.246-.082-3.361 0 0-1.963-.227-2.611-3.413-.411-1.933-1.182-7.196 2.334-7.495 3.515-.298 4.759 4.956 4.759 4.956s1.47-5.634 6.055-8.08c8.368-4.472 9.036-11.103 9.036-11.103s8.307 15.584-.02 32.762z" fill="#FFC8AF"/><path d="M229.836 57.78a11.57 11.57 0 01-2.416 3.362c.083-1.12.056-2.247-.083-3.362a5.463 5.463 0 002.499 0zM238.676 72.635c-2.374-.39-4.009-5.377-4.009-5.377a33.239 33.239 0 0011.134-.966c-1.028.514-3.177 1.151-7.289 1.604a25.974 25.974 0 00.164 4.739zM187.955 109.725l-19.059 19.82a3.9 3.9 0 00-1.1 2.96 2.7 2.7 0 01-.309-2.58c1.244-2.303 17.559-19.532 17.662-20.241.102-.71-5.469-13.868-5.809-14.69l8.615 14.731zM270.493 156.407c-7.607-1.08-13.755-15.606-17.003-25.238a44.65 44.65 0 011.028-4.811c3.218-11.657 5.428-18.082 0-28.938l8.635-5.356c-.38.329-6.25 5.551-6.528 6.106-.277.555 1.532 4.688 2.108 14.68.575 9.766 1.963 32.773 11.76 43.557z" fill="#EDB29A"/><path d="M215.957 139.095c.192 3.729.192 7.465 0 11.195a74.017 74.017 0 01-3.875 20.344c-4.462 12.654-6.764 48.079-4.163 73.111 1.891 18.329 2.004 58.401 1.922 78.58h-5.356c-1.378-38.118-6.528-92.427-6.528-118.991a136.737 136.737 0 011.203-18.277 142.366 142.366 0 013.701-18.093 106.467 106.467 0 015.911-16.664l-10.116-44.276-9.252 6.168-.75-1.295L202.892 98.9s4.852 14.926 7.196 18.566c2.343 3.639 11.883 7.658 11.883 7.658s-6.312 7.628-6.014 13.971z" fill="#F1F2F2"/><path d="M431.94 114.587l-18.956-5.777c-1.203 2.426-3.084 6.086-6.168 5.757a.883.883 0 01-.36-.155c-3.629-2.713-10.845-39.526-12.809-49.878a12.184 12.184 0 008.492.092 9.788 9.788 0 005.767-4.708h14.063c11.061.72 16.283 2.426 18.833 8.296 3.587 8.368.555 25.66-8.862 46.373zM421.948 336.594v15.317h-27.149a3.28 3.28 0 01-1.256-.25 3.27 3.27 0 01-2.013-3.039 2.767 2.767 0 010-.288 3.234 3.234 0 011.028-2.056l10.126-9.694 19.264.01z" fill="#8E59FF"/><path d="M421.948 189.662v146.932h-19.244l-10.958-141.545h-4.174v141.545h-19.285l-11.391-146.932h65.052z" fill="#56548C"/><path d="M427.623 116.109v73.553h-70.727l2.612-88.202-12.83 9.478-2.22-2.056-.381-.35-15.944-14.392-.75-.894 19.048-21.382c10.167-9.078 20.673-11.216 34.212-11.864a15.95 15.95 0 002.899 5.49c2.786 3.146 2.724 27.756 3.773 35.795 2.056 15.317 8.666 32.577 17.733 33.667a8.415 8.415 0 005.047-1.028c4.996-2.642 8.882-14.659 17.528-17.815z" fill="#8E59FF"/><path d="M427.623 116.109v73.553h-22.616v-54.71a8.422 8.422 0 005.047-1.028c5.038-2.642 8.923-14.659 17.569-17.815z" fill="#E8EAEB"/><path d="M423.953 18.613c0 7.196-4.791 20.94-13.858 29.216 0-2.714-.123-5.459-.123-7.957l2.056-1.87a5.78 5.78 0 001.717-5.408c-.329-1.521-1.028-2.981-2.519-3.084-3.207-.308-2.93 8.08-5.448 8.769-2.519.689 0-9.252 0-9.252l-2.334-3.187a6.947 6.947 0 00-1.568-5.385 6.939 6.939 0 00-4.106-2.366 104.452 104.452 0 01-12.172-2.817c-1.524-.433-3.007-1-4.431-1.696-6.281-3.29-3.485-12.058.412-13.261 3.896-1.203 9.971 4.4 14.165 3.495 4.195-.905 8.368-1.891 11.308-.894 2.94.997 2.683 5.571 6.384 6.877 3.701 1.306 10.517 1.635 10.517 8.82z" fill="#56548C"/><path d="M411.956 38.001l-2.056 1.871c0 2.498.123 5.243.123 7.957 0 4.43.329 13.107.329 13.107a15.283 15.283 0 01-7.422 3.875 24.79 24.79 0 01-6.414.34 10.865 10.865 0 01-2.961-.617c-.329-1.727-.504-2.704-.504-2.704s1.583-14.885 1.583-15.42a11.008 11.008 0 00-5.983-5.952h-.082a11.582 11.582 0 00-1.532-.524h-.133a14.144 14.144 0 00-3.434-.422 7.938 7.938 0 00-1.686.175 55.088 55.088 0 013.711-24.384 104.479 104.479 0 0012.172 2.817 6.94 6.94 0 015.674 7.75l2.447 3.126s-2.529 9.972 0 9.252c2.529-.72 2.241-9.077 5.448-8.769 1.471.134 2.19 1.594 2.519 3.084a5.78 5.78 0 01-1.799 5.438z" fill="#FFC8AF"/><path d="M387.541 336.594v15.317h-27.119a3.262 3.262 0 01-1.324-.278 3.263 3.263 0 01-1.787-1.955 3.277 3.277 0 01-.158-1.344 3.208 3.208 0 011.028-2.056l10.126-9.694 19.234.01z" fill="#8E59FF"/><path d="M421.809 337.01v15.317h-27.15a3.28 3.28 0 01-1.256-.25 3.27 3.27 0 01-2.013-3.039 2.767 2.767 0 010-.288 3.243 3.243 0 011.028-2.056L402.544 337l19.265.01zM387.401 337.01v15.317h-27.118a3.273 3.273 0 01-3.269-3.577 3.203 3.203 0 011.028-2.056L368.167 337l19.234.01z" fill="#E8EAEB"/><path d="M358.305 142.158l-.535 18.011c-4.533 1.203-9.252-.247-9.509-1.296-.257-1.048 5.551-2.405 5.233-3.741-.155-.761-2.796-.679-5.14-.463a5.392 5.392 0 01-5.14-2.498c-.062-.082-.093-.154-.144-.237l-1.162-2.056s-1.778-1.418-4.502-3.7c-4.112-3.393-10.28-8.708-15.677-13.961a11.723 11.723 0 014.41-8.851 11.476 11.476 0 015.859-2.446c2.282 2.96 6.888 11.493 12.244 16.509 1.028.792 2.056 1.625 3.258 2.457a11.6 11.6 0 014.781-.586 11.452 11.452 0 016.024 2.858zM341.949 106.651l-2.22 2.128-4.112 3.978a19.876 19.876 0 00-14.474 4.215 20.07 20.07 0 00-6.107 8.224 28.43 28.43 0 01-3.958-5.551c-3.156-6.487 14.392-22.986 16.798-25.217l.278-.247 13.795 12.47z" fill="#FFC8AF"/><path d="M341.97 149.879s-1.779-1.419-4.503-3.701a41.053 41.053 0 00-8.008 23.962v2.776a4.123 4.123 0 001.021 3.2 4.118 4.118 0 006.131 0 4.118 4.118 0 001.021-3.2v-2.776a32.554 32.554 0 015.643-17.969c-.061-.082-.092-.154-.143-.236l-1.162-2.056zm11.01-21.928a19.748 19.748 0 00-14.392-14.669 2.954 2.954 0 00-.442-.113 19.918 19.918 0 00-22.608 10.704 19.92 19.92 0 00-1.982 8.715 4.1 4.1 0 001.021 3.199 4.119 4.119 0 004.744 1.013 4.098 4.098 0 002.239-2.504 4.116 4.116 0 00.169-1.708 2.298 2.298 0 010-.371 11.738 11.738 0 011.226-4.913 11.74 11.74 0 013.184-3.938 11.476 11.476 0 015.859-2.446 12.086 12.086 0 014.318.205 11.589 11.589 0 018.635 8.636 12.066 12.066 0 01-.709 7.668c1.028.792 2.056 1.625 3.259 2.457a11.594 11.594 0 014.78-.586 20.567 20.567 0 00.699-11.349zm-18.813 52.963a4.38 4.38 0 00-3.114 7.468 4.381 4.381 0 006.74-.647 4.378 4.378 0 00-.535-5.528 4.387 4.387 0 00-3.091-1.293z" fill="#EC827D"/><g style="mix-blend-mode:multiply"><path d="M334.167 180.914h-.288a4.356 4.356 0 011.556 4.733 4.357 4.357 0 01-3.899 3.1c.76.569 1.682.879 2.631.884a4.378 4.378 0 000-8.748v.031zM335.504 120.971a11.331 11.331 0 00-2.056-.709 12.089 12.089 0 00-4.318-.216 11.5 11.5 0 00-5.86 2.457 11.76 11.76 0 00-4.42 8.851v.37a4.111 4.111 0 01-3.711 4.05 4.113 4.113 0 006.62-3.186 2.285 2.285 0 010-.37 11.731 11.731 0 014.41-8.851 12.035 12.035 0 019.304-2.396h.031zM352.98 127.951a19.748 19.748 0 00-14.392-14.669 2.954 2.954 0 00-.442-.113l-.329-.072a19.761 19.761 0 0112.202 13.991 20.333 20.333 0 01-.637 11.308 10.883 10.883 0 00-3.516.236l1.655 1.213a11.596 11.596 0 014.78-.586 20.558 20.558 0 00.679-11.308zM341.97 149.879s-1.779-1.419-4.503-3.701l-.678 1.028a205.724 205.724 0 002.271 1.85l1.162 2.056c.037.085.086.165.144.237a32.473 32.473 0 00-5.644 17.969v2.765a4.111 4.111 0 01-3.711 4.051 4.113 4.113 0 006.621-3.187v-2.807a32.554 32.554 0 015.643-17.969c-.061-.082-.092-.154-.144-.236l-1.161-2.056z" fill="#F1F2F2"/></g><path d="M396.588 65.15a10.865 10.865 0 01-2.961-.616 279.922 279.922 0 01-.504-2.704s1.583-14.885 1.583-15.42a11.008 11.008 0 00-5.983-5.952c3.938 1.49 6.919 3.331 8.224 5.346 1.131 1.696.196 13.374-.359 19.347zM341.949 106.651l-2.22 2.128-11.874-14.392.278-.247 13.816 12.511z" fill="#EDB29A"/><path d="M429.628 113.878a18.506 18.506 0 01-1.028 1.933 44.27 44.27 0 01-6.693 9.118 45.286 45.286 0 01-11.853 8.995c-11.616 6.168-22.287-13.21-24.672-31.241-1.028-8.08.884-34.047-1.901-37.193a15.933 15.933 0 01-2.899-5.49c-.946-2.847-1.275-5.92-.566-7.884.586-1.604 2.334-4.935.586-5.623-1.747-.69-2.272 4.502-4.708 3.875-1.203-.298-.576-9.406 5.901-10.763a7.931 7.931 0 011.686-.175c8.059 0 11.174 6.456 11.174 6.98 0 .525-1.593 15.42-1.593 15.42s.174 1.028.503 2.704c2.056 10.691 13.169 50.033 13.169 50.033a67.231 67.231 0 004.996-4.534c.422-.442.812-.884 1.151-1.305v.082l16.747 5.068z" fill="#FFC8AF"/><path d="M410.928 108.152l2.056.637c-1.203 2.427-3.084 6.086-6.168 5.757a.882.882 0 01-.36-.154c.874-5.479 2.776-16.15 5.14-21.485 3.084-7.124 7.597-9.982 7.885-10.157l-8.553 25.402z" fill="#E8EAEB"/><path d="M429.627 113.878a18.506 18.506 0 01-1.028 1.933l-16.849-5.778a20.89 20.89 0 001.152-1.305v.082l16.725 5.068z" fill="#EDB29A"/><path d="M421.948 189.662v146.932h-5.746l-4.729-144.28-54.577-2.652h65.052z" fill="#E8EAEB"/><path d="M387.541 195.049v141.545h-5.5l-1.264-141.545h6.764z" fill="#E8EAEB"/><path d="M357.153 348.334h30.388v3.577h-27.119a3.262 3.262 0 01-1.324-.278 3.263 3.263 0 01-1.787-1.955 3.277 3.277 0 01-.158-1.344zM421.948 348.334v3.577h-27.149a3.28 3.28 0 01-1.256-.25 3.27 3.27 0 01-2.013-3.039 2.767 2.767 0 010-.288h30.418z" fill="#BEE1F4"/><path d="M409.972 39.872c-.905.69-3.187.586-3.187.586.428.515.975.917 1.594 1.172.688.134 1.593-1.758 1.593-1.758z" fill="#EDB29A"/><path d="M359.507 87.253v14.207l-12.829 9.488-2.22-2.015 15.049-21.68z" fill="#E8EAEB"/><path d="M116.529 263.452l-24.127 66.501a17.797 17.797 0 01-15.204-6.949l13.724-63.243-11.154-59.983H74.32L71 336.502c-4.658 1.932-12.923 1.716-18.217.102L44.56 195.861l-.185-3.187h63.89l.411 2.416 9.098 54.772c.752 4.562.324 9.24-1.244 13.59z" fill="#EC827D"/><path d="M116.478 149.128s3.156 9.252.699 12.973a17.247 17.247 0 01-1.809 2.19 28.429 28.429 0 01-5.562 4.215 215.201 215.201 0 01-3.598-25.587 20.545 20.545 0 016.168 6.168l4.102.041z" fill="#FFC8AF"/><path d="M100.194 348.509a3.995 3.995 0 01-.75 1.223c-1.162 1.357-3.197 1.48-6.805.524-2.252-.606-6.436-3.567-10.177-7.052-4.195-3.937-7.906-8.07-7.906-8.07l.648-2.971 1.984-9.159a17.727 17.727 0 0015.204 6.918l3.475 11.401s5.325 4.708 4.327 7.186z" fill="#56548C"/><path d="M93.78 59.003c-1.347 1.573-7.864.967-7.864.967v2.827a10.66 10.66 0 01-21.218.185v-8.1c6.106.215 5.798-4.77 5.798-4.77s-3.372-1.954-3.588-5.305c-.216-3.352 3.68-5.952 5.263-5.325 1.583.627 1.028 9.313 3.948 8.47.812-.246 1.028-3.752 1.028-5.674a3.176 3.176 0 01.956-2.18l.874-.894a2.96 2.96 0 00.801-1.347l1.717-5.725a26.122 26.122 0 0013.58-4.657c5.068 12.829.062 29.956-1.295 31.528z" fill="#FFC8AF"/><path d="M82.79 351.911H53.688l-.196-3.207-.709-12.079c5.305 1.614 13.55 1.83 18.216-.103l9.571 8.82 3.526 3.239c.043.036.08.077.113.123a1.933 1.933 0 01-1.419 3.207z" fill="#56548C"/><path d="M108.871 70.054c5.51 3.835 32.711 35.281 35.322 50.372 3.259 18.844-11.431 36.34-14.988 37.964a53.821 53.821 0 01-8.769 2.858 6.082 6.082 0 01-5.14 3.084 17.238 17.238 0 001.809-2.189c2.457-3.722-.699-12.974-.699-12.974h-4.112l2.221-3.022v-4.462a24.151 24.151 0 005.972-6.435 15.578 15.578 0 002.488-9.745c-.905-9.694-15.574-15.091-15.574-15.091a141.58 141.58 0 00-1.254 32.546 214.967 214.967 0 003.598 25.587c.486 2.55 1.014 5.144 1.583 7.782l-3.084 3.084v13.251H39.82v-11.658l-4.862-4.831v-9.489c-21.506-3.464-37.399-17.887-35.035-36.905 3.814-30.336 26.924-53.836 31.57-56.386 4.102-2.261 27.715-8.85 33.205-10.352a10.66 10.66 0 0021.218-.185c3.423.669 18.103 3.763 22.955 7.196z" fill="#A5B7C6"/><path d="M68.738 144.759v-1.244H64.43s-1.51-.791-2.446-1.151c-.936-.36-19.532 0-19.532 0s17.928-1.316 21.115-1.152c2.555.144 5.032.937 7.196 2.303.346.356.615.78.791 1.244h-2.816z" fill="#E6E7E8"/><path d="M95.106 27.475a26.122 26.122 0 01-13.58 4.657l-1.717 5.726a2.96 2.96 0 01-.802 1.346l-.873.895a3.177 3.177 0 00-.957 2.179c0 1.922-.246 5.428-1.028 5.674-2.96.843-2.354-7.853-3.947-8.47-1.593-.617-5.469 1.974-5.263 5.325.205 3.351 3.587 5.304 3.587 5.304s.309 4.986-5.797 4.77c-.751 0-2.427-3.793-2.704-4.338-3.598-7.196-4.534-15.42-1.398-22.924a17.364 17.364 0 012.302-4.112c.6-.701 1.406-1.194 2.303-1.409.894-.298 2.293-.103 3.084-.462.792-.36.874-1.337 1.501-1.882a8.962 8.962 0 013.464-1.274 46.26 46.26 0 0115.77-.884c2.611.308 6.425 1.028 7.905 3.485 1.48 2.456.298 4.831-1.85 6.394z" fill="#112B46"/><path d="M98.16 118.432a19.758 19.758 0 00-14.784-14.793 20.053 20.053 0 00-17.075 3.835 19.802 19.802 0 00-7.514 15.594 4.112 4.112 0 108.224 0 11.794 11.794 0 019.314-11.52 11.797 11.797 0 015.294.079 11.528 11.528 0 018.635 8.614 11.76 11.76 0 01-2.9 10.907.905.905 0 01-.133.155 48.057 48.057 0 00-4.605 5.51c3.022-.936 8.728-2.354 11.38-.833a20.038 20.038 0 004.163-17.548zm-19.43 49.056a4.112 4.112 0 004.112-4.112v-2.796a30.08 30.08 0 01.38-4.708h-8.224a34.263 34.263 0 00-.308 4.708v2.776a4.113 4.113 0 004.04 4.122v.01zm.627 3.927a4.383 4.383 0 00-4.054 2.699 4.377 4.377 0 005.724 5.724 4.373 4.373 0 002.699-4.054 4.368 4.368 0 00-4.369-4.379v.01z" fill="#EC827D"/><g style="mix-blend-mode:multiply"><path d="M62.035 122.636a19.945 19.945 0 0115.728-19.532 19.955 19.955 0 00-18.976 19.954 4.114 4.114 0 004.112 4.112c.748 0 1.482-.211 2.117-.607a4.109 4.109 0 01-2.98-3.927zM90.552 130.706a11.759 11.759 0 002.899-10.907 11.536 11.536 0 00-8.635-8.614 11.998 11.998 0 00-5.953.102c.911.01 1.818.12 2.704.329a11.538 11.538 0 018.635 8.615 11.76 11.76 0 01-2.899 10.907.903.903 0 01-.133.154 48.144 48.144 0 00-4.606 5.51 44.885 44.885 0 013.65-.956 47.943 47.943 0 014.204-4.986.863.863 0 00.134-.154zM78.73 167.478a4.111 4.111 0 002.128-.607 4.106 4.106 0 01-2.96-3.916v-2.776c0-1.43.09-2.858.266-4.276h-3.207a34.28 34.28 0 00-.308 4.708v2.775a4.113 4.113 0 004.08 4.092zM78.226 175.342a4.332 4.332 0 012.22-3.783 4.374 4.374 0 00-5.436 3.342 4.383 4.383 0 002.614 4.929 4.377 4.377 0 003.881-.263 4.376 4.376 0 01-3.279-4.225zM89.925 135.322a7.464 7.464 0 014.02.648c.297-.35.575-.71.842-1.028a18.723 18.723 0 00-4.862.38z" fill="#F1F2F2"/></g><path d="M76.828 135.26l10.496-4.112a.869.869 0 01-.134.155 48.057 48.057 0 00-4.605 5.51c3.022-.936 8.728-2.354 11.38-.833a2.54 2.54 0 011.275 1.501c.123 2.056-2.149 5.058-2.149 5.058l-1.398 6.569a6.81 6.81 0 01-4.217 6.29 6.827 6.827 0 01-2.609.515h-16.13v-11.154h3.239l1.984-6.425a4.782 4.782 0 012.868-3.074z" fill="#FFC8AF"/><path d="M74.957 155.903s-2.056 5.14-13.035 9.879c-10.98 4.739-26.964 5.551-26.964 5.551v-4.708c16.232 0 21.988-3.002 24.22-4.4 2.518-1.563 3.823-4.112 4.677-4.318.853-.205 4.883-.36 4.883-.36v-1.644h6.219zM61.408 65.83c0 1.439 3.403 5.941 6.672 7.668 0 0-3.598-.812-5.428-2.878a5.962 5.962 0 01-1.244-4.79zM24.03 128.712c0 .298 0 .586.082.895l-.092-.093c0-.226 0-.504.01-.802zM38.679 101.521l-2.673 40.216h-1.028v-31.364s-8.8 5.458-10.599 14.392c2.16-14.454 14.3-23.244 14.3-23.244zM120.549 135.209a15.579 15.579 0 002.488-9.746c-.905-9.694-15.575-15.091-15.575-15.091l2.817-11.472s16.52 12.336 16.129 23.644a17.808 17.808 0 01-5.859 12.665zM108.675 195.08l-64.116.771-.185-3.187h63.89l.411 2.416z" fill="#E6E7E8"/><path d="M70.496 50.111a6.374 6.374 0 003.731 0s-.421 2.344-1.87 2.272c-1.45-.072-1.861-2.272-1.861-2.272zM93.78 59.003c-1.347 1.573-7.865.967-7.865.967v2.374a11.524 11.524 0 01-6.065-3.618s10.579.72 13.93.277z" fill="#EDB29A"/><path d="M82.79 351.911H53.688l-.196-3.207H84.21a1.933 1.933 0 01-1.419 3.207zM99.444 349.732c-1.162 1.357-3.197 1.48-6.805.524-2.252-.606-6.436-3.567-10.177-7.052-4.195-3.937-7.906-8.07-7.906-8.07l.648-2.97c2.621 3.084 8.8 10.28 12.5 13.065 3.886 2.982 8.245 5.737 11.74 4.503z" fill="#A5B7C6"/><path d="M108.264 179.413s-11.75 1.306-22.852 2.272c-6.095.576-12.219.799-18.34.668a237.98 237.98 0 0027.808 0c12.336-.946 13.364-1.285 13.364-1.285l.02-1.655z" fill="#E6E7E8"/></g><defs><clipPath id="clip0"><path fill="#fff" d="M0 0h445v360H0z"/></clipPath></defs></svg>
