<svg width="445" height="360" viewBox="0 0 445 360" fill="none" xmlns="http://www.w3.org/2000/svg">
<g clip-path="url(#clip0)">
<path d="M438.396 359.796H21.604C20.129 359.796 18.7144 359.21 17.6714 358.167C16.6284 357.124 16.0425 355.71 16.0425 354.235V354.235C16.0506 352.765 16.6402 351.358 17.6823 350.322C18.7244 349.286 20.1343 348.704 21.604 348.704H438.396C439.871 348.704 441.286 349.29 442.329 350.333C443.372 351.376 443.958 352.791 443.958 354.266V354.266C443.95 355.735 443.36 357.142 442.318 358.178C441.276 359.215 439.866 359.796 438.396 359.796V359.796Z" fill="#F1F2F2"/>
<path d="M317.812 30.5278C316.975 26.9222 315.141 23.6243 312.52 21.0106C309.899 18.3968 306.596 16.5723 302.988 15.7452C300.057 15.0563 297.008 15.0383 294.069 15.6924C291.13 16.3465 288.377 17.656 286.015 19.5229C283.653 21.3899 281.743 23.7662 280.428 26.4745C279.112 29.1829 278.426 32.1533 278.419 35.1641C278.354 35.7392 278.412 36.3215 278.588 36.8729C278.763 37.4242 279.054 37.9322 279.439 38.3637C279.825 38.7951 280.298 39.1403 280.826 39.3767C281.354 39.613 281.926 39.7351 282.505 39.7351C283.084 39.7351 283.656 39.613 284.184 39.3767C284.713 39.1403 285.185 38.7951 285.571 38.3637C285.956 37.9322 286.247 37.4242 286.423 36.8729C286.598 36.3215 286.656 35.7392 286.591 35.1641C286.595 33.3758 287.004 31.6116 287.789 30.0044C288.573 28.3972 289.711 26.9888 291.119 25.8854C292.526 24.7819 294.165 24.0121 295.913 23.6339C297.661 23.2557 299.472 23.2789 301.21 23.7019C303.311 24.1906 305.233 25.2588 306.758 26.7853C308.282 28.3117 309.348 30.2352 309.835 32.3371C310.312 34.2834 310.286 36.3191 309.759 38.2526C309.232 40.186 308.221 41.9534 306.822 43.3881C298.742 51.6841 294.291 62.0977 294.291 72.717V75.4823C294.227 76.0574 294.284 76.6397 294.46 77.191C294.636 77.7424 294.926 78.2504 295.312 78.6818C295.697 79.1133 296.17 79.4585 296.698 79.6948C297.226 79.9311 297.799 80.0533 298.377 80.0533C298.956 80.0533 299.528 79.9311 300.057 79.6948C300.585 79.4585 301.057 79.1133 301.443 78.6818C301.829 78.2504 302.119 77.7424 302.295 77.191C302.471 76.6397 302.528 76.0574 302.464 75.4823V72.717C302.464 64.236 306.093 55.8475 312.672 49.073C315.013 46.6595 316.71 43.6967 317.609 40.4564C318.507 37.2161 318.577 33.8022 317.812 30.5278V30.5278ZM298.999 83.4801C298.132 83.4781 297.284 83.7335 296.562 84.2139C295.841 84.6943 295.278 85.3781 294.945 86.1788C294.612 86.9794 294.525 87.8608 294.693 88.7112C294.862 89.5617 295.279 90.3429 295.892 90.956C296.506 91.5691 297.287 91.9864 298.137 92.155C298.988 92.3237 299.869 92.2361 300.67 91.9034C301.47 91.5706 302.154 91.0077 302.635 90.286C303.115 89.5642 303.37 88.7161 303.368 87.8491C303.368 86.6904 302.908 85.5791 302.089 84.7598C301.269 83.9404 300.158 83.4801 298.999 83.4801V83.4801Z" fill="#EC827D"/>
<g style="mix-blend-mode:multiply">
<g style="mix-blend-mode:multiply">
<path d="M298.383 79.5838C299.331 79.5733 300.246 79.2356 300.973 78.6278C299.919 78.575 298.925 78.1186 298.198 77.3531C297.47 76.5876 297.066 75.5717 297.067 74.5158V71.7505C297.067 61.1312 301.518 50.7176 309.598 42.4216C311.001 40.989 312.014 39.2221 312.543 37.2883C313.072 35.3544 313.099 33.3176 312.621 31.3706C312.12 29.2888 311.05 27.3874 309.53 25.8787C308.011 24.3701 306.102 23.3138 304.016 22.8279C301.341 22.19 298.528 22.4913 296.049 23.6812C297.75 23.3516 299.5 23.3796 301.189 23.7634C303.291 24.2521 305.213 25.3203 306.737 26.8468C308.262 28.3732 309.328 30.2967 309.814 32.3986C310.283 34.334 310.255 36.3566 309.732 38.278C309.209 40.1995 308.208 41.9574 306.823 43.3879C298.743 51.6839 294.291 62.0975 294.291 72.7168V75.4821C294.294 76.5673 294.726 77.6075 295.492 78.3759C296.258 79.1442 297.297 79.5784 298.383 79.5838Z" fill="#F1F2F2"/>
</g>
<g style="mix-blend-mode:multiply">
<path d="M281.205 34.2388C281.204 30.317 282.359 26.4819 284.526 23.2128C286.693 19.9438 289.774 17.3857 293.387 15.8582C289.105 16.963 285.312 19.4585 282.603 22.9529C279.894 26.4472 278.422 30.7425 278.419 35.164C278.442 35.928 278.678 36.6704 279.099 37.3079C279.521 37.9454 280.112 38.4528 280.806 38.7731C281.5 39.0934 282.269 39.214 283.028 39.1212C283.787 39.0284 284.505 38.7261 285.101 38.248C284.066 38.1939 283.089 37.7508 282.367 37.0074C281.644 36.264 281.229 35.2751 281.205 34.2388Z" fill="#F1F2F2"/>
</g>
<g style="mix-blend-mode:multiply">
<path d="M297.406 86.9445C297.407 86.283 297.559 85.6305 297.851 85.037C298.144 84.4436 298.568 83.9251 299.092 83.5213H299C298.298 83.5136 297.605 83.6745 296.979 83.9905C296.353 84.3065 295.812 84.7683 295.401 85.3371C294.99 85.9058 294.723 86.5649 294.62 87.2587C294.517 87.9526 294.582 88.661 294.811 89.3244C295.039 89.9877 295.423 90.5865 295.93 91.0705C296.438 91.5544 297.055 91.9093 297.728 92.1052C298.402 92.3012 299.113 92.3325 299.801 92.1965C300.489 92.0605 301.134 91.7612 301.683 91.3238C300.538 91.2996 299.449 90.8272 298.649 90.0082C297.85 89.1893 297.403 88.0892 297.406 86.9445Z" fill="#F1F2F2"/>
</g>
</g>
<path d="M216.112 345.62C216.666 345.278 217.313 345.119 217.962 345.168L221.725 344.798L218.281 339.658L218.857 317.802H205.195C205.688 335.936 205.986 341.025 206.12 345.908L210.787 347.039C211.204 347.144 211.639 347.164 212.064 347.099C212.49 347.033 212.898 346.884 213.264 346.658L216.112 345.62Z" fill="#FFC8AF"/>
<path d="M206.13 345.856C206.192 347.912 206.222 349.968 206.222 351.911H224.428C224.574 351.911 224.717 351.883 224.852 351.827C224.986 351.771 225.107 351.689 225.21 351.586C225.312 351.482 225.393 351.36 225.447 351.225C225.502 351.091 225.53 350.946 225.528 350.801C225.532 350.585 225.467 350.372 225.343 350.195L221.776 344.767H217.52C216.871 344.719 216.223 344.877 215.67 345.219L213.274 346.648C212.908 346.873 212.5 347.023 212.074 347.088C211.649 347.154 211.214 347.133 210.797 347.028L206.13 345.856Z" fill="#56548C"/>
<path d="M243.364 344.767L254.785 346.915C255.782 347.101 256.811 346.997 257.751 346.616C258.691 346.235 259.503 345.594 260.09 344.767V344.767L254.713 340.542C255.042 337.046 255.813 319.982 255.813 319.982H242.583L243.364 344.767Z" fill="#FFC8AF"/>
<path d="M243.364 344.767L243.457 350.77V351.911H265.98C266.211 351.912 266.437 351.841 266.626 351.707C266.815 351.573 266.957 351.384 267.033 351.165C267.109 350.947 267.114 350.71 267.049 350.488C266.984 350.266 266.851 350.07 266.669 349.927L260.09 344.787C259.502 345.614 258.691 346.256 257.751 346.636C256.811 347.017 255.782 347.121 254.785 346.936L243.364 344.767Z" fill="#56548C"/>
<path d="M198.327 162.688L192.057 167.365C191.68 167.932 191.428 168.572 191.316 169.244C191.205 169.915 191.236 170.603 191.409 171.261C191.921 173.057 192.847 174.708 194.113 176.082C194.113 176.082 189.363 176.185 189.466 177.532C189.569 178.878 195.798 180.482 200.496 180.071C201.109 175.51 202.037 170.996 203.272 166.563L198.327 162.688Z" fill="#FFC8AF"/>
<path d="M294.867 106.261C294.867 106.261 280.064 157.167 270.925 156.468C270.771 156.468 270.627 156.468 270.493 156.407C262.886 155.327 256.738 140.801 253.49 131.169C253.744 129.548 254.087 127.942 254.518 126.358C257.736 114.701 259.946 108.276 254.518 97.4198L263.153 92.064L272.21 135.312C272.21 135.312 287.959 100.514 289.758 98.4684C292.461 95.3844 296.522 96.7105 299.349 95.9909C302.176 95.2713 309.043 92.2901 310.534 94.233C312.292 96.4946 294.867 106.261 294.867 106.261Z" fill="#FFC8AF"/>
<path d="M263.184 92.0535L254.538 97.4196C259.966 108.275 257.756 114.7 254.538 126.358C254.108 127.941 253.765 129.548 253.51 131.169C252.473 137.49 252.314 143.925 253.037 150.29H208.833L198.718 106.014L189.466 112.182L188.716 110.886L188.027 109.725L179.392 94.9627L178.723 93.8011C184.595 88.0094 191.224 83.0401 198.43 79.0287C204.732 75.6157 212.01 72.8607 219.432 72.6345C220.038 74.728 221.307 76.5681 223.049 77.8776C224.791 79.1872 226.911 79.8952 229.09 79.8952C231.269 79.8952 233.39 79.1872 235.132 77.8776C236.874 76.5681 238.143 74.728 238.748 72.6345C249.028 72.8812 255.566 77.0858 259.565 81.3725C262.116 84.0694 264.061 87.2798 265.271 90.789L263.184 92.0535Z" fill="#FBD15B"/>
<path d="M263.821 203.335C263.821 229.898 258.681 284.207 257.293 322.326H241.699L235.253 193.661H228.633L220.08 322.326H204.465C203.087 284.207 197.937 229.898 197.937 203.335C197.935 197.221 198.344 191.115 199.16 185.057C200.001 178.952 201.237 172.908 202.861 166.964C204.366 161.255 206.343 155.681 208.772 150.3H252.976C252.976 150.3 263.821 172.659 263.821 203.335Z" fill="#56548C"/>
<path d="M259.902 77.7895C259.914 78.8589 259.775 79.9247 259.491 80.9557C255.503 76.669 248.975 72.4747 238.674 72.2177C237.693 70.7766 237.12 69.096 237.019 67.3553C243.105 67.4067 246.898 64.6414 246.919 64.9806C255.235 47.8027 246.919 32.2285 246.919 32.2285C246.919 32.2285 246.24 38.8386 237.872 43.3206C233.287 45.7673 231.817 51.4007 231.817 51.4007C231.817 51.4007 230.563 46.1374 227.047 46.4458C223.532 46.7542 224.714 53.9399 224.714 53.9399L227.335 57.3529C228.703 68.6609 219.358 72.2177 219.358 72.2177C211.926 72.4747 204.647 75.1989 198.356 78.6119C198.518 75.8136 199.529 73.1313 201.255 70.9224C203.517 68.1777 205.367 68.4964 206.868 65.9366C209.232 61.8246 202.273 58.5659 204 53.6006C205.583 49.0466 207.814 48.9644 210.168 44.3486C213.097 38.6535 210.291 35.919 212.09 30.3473C214.382 23.2952 227.767 19.0393 236.33 19.2757C246.775 19.615 256.829 27.325 257.548 34.6957C257.898 38.376 255.739 40.0413 256.777 44.8318C257.898 50.1157 261.043 50.455 261.3 54.495C261.64 60.0257 255.945 61.2798 256.16 66.9852C256.325 71.4673 259.861 72.6495 259.902 77.7895Z" fill="#8E59FF"/>
<path d="M169.04 135.178C168.657 134.82 168.35 134.389 168.135 133.91C167.921 133.432 167.803 132.916 167.79 132.392C167.776 131.867 167.867 131.346 168.057 130.857C168.247 130.368 168.532 129.922 168.896 129.545L187.955 109.725L179.34 94.9937C172.833 101.717 149.323 126.625 150.937 133.862C152.849 142.292 191.738 168.619 191.738 168.619L198.348 162.718L169.04 135.178Z" fill="#FFC8AF"/>
<path d="M246.911 65.3974C246.911 65.3974 246.911 65.788 245.821 66.2814C244.793 66.7954 242.645 67.4328 238.533 67.8851C238.443 69.4665 238.498 71.0528 238.697 72.6242C238.092 74.7177 236.822 76.5577 235.08 77.8673C233.338 79.1768 231.218 79.8849 229.039 79.8849C226.86 79.8849 224.739 79.1768 222.997 77.8673C221.256 76.5577 219.986 74.7177 219.381 72.6242C221.646 71.6272 223.594 70.0289 225.015 68.0028C226.436 65.9767 227.275 63.6002 227.44 61.1312V61.1312C227.524 60.0107 227.497 58.8847 227.358 57.7696C227.358 57.7696 225.395 57.5434 224.747 54.3566C224.336 52.424 223.565 47.1606 227.081 46.8625C230.596 46.5644 231.84 51.8175 231.84 51.8175C231.84 51.8175 233.31 46.184 237.895 43.7374C246.263 39.2656 246.931 32.635 246.931 32.635C246.931 32.635 255.238 48.2195 246.911 65.3974Z" fill="#FFC8AF"/>
<path d="M229.836 57.78C229.239 59.0368 228.421 60.1756 227.42 61.1416C227.503 60.0211 227.476 58.8951 227.337 57.78C228.159 57.9731 229.014 57.9731 229.836 57.78Z" fill="#EDB29A"/>
<path d="M238.676 72.6348C236.302 72.2441 234.667 67.2583 234.667 67.2583C238.406 67.5669 242.171 67.2402 245.801 66.292C244.773 66.806 242.624 67.4433 238.512 67.8957C238.422 69.4771 238.477 71.0634 238.676 72.6348V72.6348Z" fill="#EDB29A"/>
<path d="M187.955 109.725L168.896 129.545C168.516 129.934 168.222 130.399 168.032 130.909C167.843 131.419 167.762 131.962 167.796 132.505C167.532 132.136 167.365 131.706 167.311 131.255C167.257 130.804 167.318 130.347 167.487 129.925C168.731 127.622 185.046 110.393 185.149 109.684C185.251 108.974 179.68 95.8161 179.34 94.9937L187.955 109.725Z" fill="#EDB29A"/>
<path d="M270.493 156.407C262.886 155.327 256.738 140.801 253.49 131.169C253.744 129.548 254.087 127.942 254.518 126.358C257.736 114.701 259.946 108.276 254.518 97.4198L263.153 92.064C262.773 92.3929 256.903 97.6152 256.625 98.1703C256.348 98.7254 258.157 102.858 258.733 112.85C259.308 122.616 260.696 145.623 270.493 156.407Z" fill="#EDB29A"/>
<g style="mix-blend-mode:multiply">
<path d="M215.957 139.095C216.149 142.824 216.149 146.56 215.957 150.29C215.625 157.219 214.321 164.067 212.082 170.634C207.62 183.288 205.318 218.713 207.919 243.745C209.81 262.074 209.923 302.146 209.841 322.325H204.485C203.107 284.207 197.957 229.898 197.957 203.334C197.949 197.222 198.351 191.115 199.16 185.057C200.001 178.952 201.237 172.908 202.861 166.964C204.366 161.255 206.343 155.681 208.772 150.3L198.656 106.024L189.404 112.192L188.654 110.897L202.892 98.8999C202.892 98.8999 207.744 113.826 210.088 117.466C212.431 121.105 221.971 125.124 221.971 125.124C221.971 125.124 215.659 132.752 215.957 139.095Z" fill="#F1F2F2"/>
</g>
<path d="M431.94 114.587L412.984 108.81C411.781 111.236 409.9 114.896 406.816 114.567C406.686 114.543 406.563 114.49 406.456 114.412C402.827 111.699 395.611 74.8859 393.647 64.5339C396.375 65.5822 399.389 65.6151 402.139 64.6265C404.606 63.8781 406.679 62.1861 407.906 59.9182H421.969C433.03 60.6378 438.252 62.3443 440.802 68.2142C444.389 76.5821 441.357 93.873 431.94 114.587Z" fill="#8E59FF"/>
<path d="M421.948 336.594V351.911H394.799C394.368 351.911 393.941 351.826 393.543 351.661C393.145 351.495 392.784 351.252 392.48 350.947C392.176 350.641 391.936 350.278 391.773 349.879C391.61 349.48 391.527 349.053 391.53 348.622C391.525 348.526 391.525 348.43 391.53 348.334C391.609 347.546 391.975 346.815 392.558 346.278L402.684 336.584L421.948 336.594Z" fill="#8E59FF"/>
<path d="M421.948 189.662V336.594H402.704C402.704 336.594 393.791 221.458 391.746 195.049H387.572V336.594H368.287L356.896 189.662H421.948Z" fill="#56548C"/>
<path d="M427.623 116.109V189.662H356.896L359.508 101.46L346.678 110.938L344.458 108.882L344.077 108.532L328.133 94.1404L327.383 93.246L346.431 71.8636C356.598 62.7864 367.104 60.6481 380.643 60.0005C381.241 62.0026 382.225 63.8678 383.542 65.49C386.328 68.6357 386.266 93.246 387.315 101.285C389.371 116.602 395.981 133.862 405.048 134.952C406.796 135.145 408.562 134.786 410.095 133.924C415.091 131.282 418.977 119.265 427.623 116.109Z" fill="#8E59FF"/>
<g style="mix-blend-mode:multiply">
<path d="M427.623 116.109V189.662H405.007V134.952C406.755 135.145 408.521 134.785 410.054 133.924C415.092 131.282 418.977 119.265 427.623 116.109Z" fill="#E8EAEB"/>
</g>
<path d="M423.953 18.6132C423.953 25.8092 419.162 39.5536 410.095 47.829C410.095 45.1151 409.972 42.3703 409.972 39.8723L412.028 38.0013C412.755 37.3238 413.295 36.4701 413.596 35.5229C413.896 34.5757 413.948 33.5669 413.745 32.594C413.416 31.0726 412.717 29.6128 411.226 29.51C408.019 29.2016 408.296 37.5901 405.778 38.2789C403.259 38.9676 405.778 29.0269 405.778 29.0269L403.444 25.8401C403.485 25.5299 403.506 25.2174 403.506 24.9046C403.501 23.276 402.925 21.7008 401.876 20.4547C400.827 19.2087 399.374 18.3712 397.77 18.089C393.66 17.3937 389.595 16.4531 385.598 15.2722C384.074 14.8393 382.591 14.2717 381.167 13.576C374.886 10.2864 377.682 1.5176 381.579 0.314842C385.475 -0.887918 391.55 4.71468 395.744 3.81004C399.939 2.9054 404.112 1.91852 407.052 2.91568C409.992 3.91284 409.735 8.48744 413.436 9.793C417.137 11.0986 423.953 11.4275 423.953 18.6132Z" fill="#56548C"/>
<path d="M411.956 38.0012L409.9 39.8722C409.9 42.3702 410.023 45.115 410.023 47.8289C410.023 52.2596 410.352 60.9359 410.352 60.9359C408.287 62.8934 405.717 64.2356 402.93 64.8115C400.816 65.2022 398.659 65.3163 396.516 65.1507C395.505 65.0841 394.508 64.8765 393.555 64.5339C393.226 62.8069 393.051 61.8303 393.051 61.8303C393.051 61.8303 394.634 46.9448 394.634 46.4103C394.077 45.0737 393.262 43.8601 392.235 42.8388C391.209 41.8175 389.991 41.0085 388.651 40.4582C388.651 40.4582 388.651 40.4582 388.569 40.4582C388.071 40.248 387.56 40.0728 387.037 39.9339H386.904C385.781 39.6534 384.628 39.5119 383.47 39.5124C382.904 39.5103 382.338 39.5689 381.784 39.6872C381.162 31.3831 382.431 23.046 385.495 15.303C389.493 16.4839 393.557 17.4245 397.667 18.1197C399.271 18.402 400.724 19.2395 401.773 20.4855C402.822 21.7315 403.399 23.3067 403.403 24.9353C403.403 25.2482 403.382 25.5607 403.341 25.8708L405.788 28.9959C405.788 28.9959 403.259 38.9676 405.788 38.248C408.317 37.5284 408.029 29.1707 411.236 29.4791C412.707 29.6127 413.426 31.0725 413.755 32.5631C413.954 33.5477 413.892 34.5672 413.577 35.5208C413.262 36.4745 412.703 37.3294 411.956 38.0012V38.0012Z" fill="#FFC8AF"/>
<path d="M387.541 336.594V351.911H360.422C359.966 351.912 359.515 351.817 359.098 351.633C358.68 351.45 358.306 351.181 357.998 350.844C357.69 350.508 357.456 350.11 357.311 349.678C357.165 349.246 357.112 348.788 357.153 348.334C357.23 347.545 357.596 346.813 358.181 346.278L368.307 336.584L387.541 336.594Z" fill="#8E59FF"/>
<g style="mix-blend-mode:multiply">
<path d="M421.809 337.01V352.327H394.659C394.228 352.327 393.801 352.242 393.403 352.077C393.005 351.911 392.644 351.668 392.34 351.363C392.036 351.057 391.796 350.694 391.633 350.295C391.47 349.896 391.387 349.469 391.39 349.038C391.385 348.942 391.385 348.846 391.39 348.75C391.47 347.962 391.836 347.231 392.418 346.694L402.544 337L421.809 337.01Z" fill="#E8EAEB"/>
</g>
<g style="mix-blend-mode:multiply">
<path d="M387.401 337.01V352.327H360.283C359.827 352.328 359.375 352.233 358.958 352.049C358.541 351.866 358.166 351.597 357.858 351.26C357.551 350.924 357.317 350.526 357.171 350.094C357.026 349.662 356.972 349.204 357.014 348.75C357.09 347.961 357.457 347.229 358.042 346.694L368.167 337L387.401 337.01Z" fill="#E8EAEB"/>
</g>
<path d="M358.305 142.158L357.77 160.169C353.237 161.372 348.518 159.922 348.261 158.873C348.004 157.825 353.812 156.468 353.494 155.132C353.339 154.371 350.698 154.453 348.354 154.669C347.349 154.777 346.334 154.599 345.425 154.158C344.516 153.716 343.75 153.028 343.214 152.171C343.152 152.089 343.121 152.017 343.07 151.934L341.908 149.878C341.908 149.878 340.13 148.46 337.406 146.178C333.294 142.785 327.126 137.47 321.729 132.217C321.775 130.51 322.193 128.833 322.955 127.304C323.717 125.776 324.803 124.432 326.139 123.366C327.823 122.016 329.854 121.168 331.998 120.92C334.28 123.88 338.886 132.413 344.242 137.429C345.27 138.221 346.298 139.054 347.5 139.886C349.035 139.358 350.664 139.159 352.281 139.3C354.528 139.634 356.625 140.629 358.305 142.158Z" fill="#FFC8AF"/>
<path d="M341.949 106.651L339.729 108.779L335.617 112.757C330.426 112.207 325.226 113.721 321.143 116.972C318.43 119.139 316.326 121.973 315.036 125.196C313.499 123.511 312.17 121.648 311.078 119.645C307.922 113.158 325.47 96.6589 327.876 94.4281L328.154 94.1814L341.949 106.651Z" fill="#FFC8AF"/>
<path d="M341.97 149.879C341.97 149.879 340.191 148.46 337.467 146.178C332.345 153.125 329.543 161.51 329.459 170.14V172.916C329.395 173.491 329.452 174.073 329.628 174.625C329.804 175.176 330.094 175.684 330.48 176.116C330.866 176.547 331.338 176.892 331.866 177.129C332.394 177.365 332.967 177.487 333.545 177.487C334.124 177.487 334.696 177.365 335.225 177.129C335.753 176.892 336.225 176.547 336.611 176.116C336.997 175.684 337.287 175.176 337.463 174.625C337.639 174.073 337.696 173.491 337.632 172.916V170.14C337.701 163.725 339.665 157.474 343.275 152.171C343.214 152.089 343.183 152.017 343.132 151.935L341.97 149.879ZM352.98 127.951C352.158 124.421 350.381 121.184 347.842 118.597C345.304 116.009 342.102 114.171 338.588 113.282C338.443 113.233 338.296 113.195 338.146 113.169C335.212 112.462 332.156 112.43 329.209 113.077C326.261 113.724 323.499 115.032 321.131 116.902C318.763 118.772 316.851 121.156 315.538 123.873C314.226 126.59 313.548 129.57 313.556 132.588C313.491 133.163 313.549 133.745 313.725 134.296C313.901 134.848 314.191 135.356 314.577 135.787C314.962 136.219 315.435 136.564 315.963 136.8C316.491 137.036 317.064 137.159 317.642 137.159C318.221 137.159 318.793 137.036 319.321 136.8C319.85 136.564 320.322 136.219 320.708 135.787C321.094 135.356 321.384 134.848 321.56 134.296C321.736 133.745 321.793 133.163 321.729 132.588C321.719 132.464 321.719 132.341 321.729 132.217C321.775 130.51 322.194 128.833 322.955 127.304C323.717 125.776 324.803 124.432 326.139 123.366C327.823 122.016 329.854 121.168 331.998 120.92C333.438 120.728 334.901 120.798 336.316 121.125C338.417 121.618 340.338 122.687 341.864 124.213C343.389 125.739 344.459 127.66 344.951 129.761C345.559 132.326 345.309 135.019 344.242 137.429C345.27 138.221 346.298 139.054 347.501 139.886C349.035 139.358 350.664 139.159 352.281 139.3C353.576 135.658 353.818 131.725 352.98 127.951V127.951ZM334.167 180.914C333.301 180.912 332.454 181.167 331.733 181.646C331.011 182.126 330.448 182.808 330.115 183.608C329.782 184.407 329.693 185.288 329.86 186.137C330.027 186.987 330.442 187.769 331.053 188.382C331.664 188.996 332.444 189.415 333.293 189.586C334.142 189.757 335.023 189.673 335.823 189.343C336.624 189.013 337.31 188.454 337.793 187.735C338.276 187.016 338.534 186.17 338.536 185.303C338.536 184.143 338.077 183.029 337.258 182.207C336.439 181.384 335.328 180.919 334.167 180.914Z" fill="#EC827D"/>
<g style="mix-blend-mode:multiply">
<g style="mix-blend-mode:multiply">
<path d="M334.167 180.914C334.065 180.914 333.972 180.914 333.879 180.914C334.591 181.449 335.122 182.19 335.4 183.036C335.678 183.882 335.691 184.793 335.435 185.647C335.18 186.5 334.669 187.255 333.972 187.809C333.275 188.363 332.425 188.691 331.536 188.747C332.296 189.316 333.218 189.626 334.167 189.631C335.291 189.577 336.35 189.092 337.126 188.278C337.902 187.464 338.335 186.382 338.335 185.257C338.335 184.132 337.902 183.051 337.126 182.237C336.35 181.422 335.291 180.938 334.167 180.883V180.914Z" fill="#F1F2F2"/>
</g>
<g style="mix-blend-mode:multiply">
<path d="M335.504 120.971C334.843 120.669 334.154 120.432 333.448 120.262C332.033 119.931 330.57 119.858 329.13 120.046C326.985 120.298 324.954 121.15 323.27 122.503C321.935 123.569 320.848 124.913 320.085 126.442C319.322 127.97 318.9 129.646 318.85 131.354C318.85 131.477 318.85 131.601 318.85 131.724C318.84 132.738 318.455 133.712 317.77 134.46C317.085 135.208 316.148 135.676 315.139 135.774C315.743 136.239 316.464 136.528 317.222 136.606C317.98 136.685 318.745 136.552 319.431 136.222C320.118 135.891 320.699 135.376 321.11 134.735C321.521 134.093 321.746 133.35 321.759 132.588C321.749 132.465 321.749 132.341 321.759 132.218C321.806 130.51 322.224 128.833 322.986 127.305C323.748 125.776 324.834 124.432 326.169 123.367C327.473 122.35 328.971 121.613 330.572 121.201C332.172 120.789 333.841 120.711 335.473 120.971H335.504Z" fill="#F1F2F2"/>
</g>
<g style="mix-blend-mode:multiply">
<path d="M352.98 127.951C352.158 124.421 350.381 121.184 347.842 118.597C345.304 116.009 342.102 114.171 338.588 113.282C338.443 113.233 338.296 113.195 338.146 113.169L337.817 113.097C340.841 114.251 343.535 116.131 345.662 118.571C347.79 121.01 349.286 123.935 350.019 127.088C350.882 130.841 350.661 134.763 349.382 138.396C348.205 138.283 347.017 138.363 345.866 138.632L347.521 139.845C349.056 139.317 350.684 139.118 352.301 139.259C353.582 135.628 353.817 131.71 352.98 127.951V127.951Z" fill="#F1F2F2"/>
</g>
<g style="mix-blend-mode:multiply">
<path d="M341.97 149.879C341.97 149.879 340.191 148.46 337.467 146.178L336.789 147.206C338.197 148.367 339.06 149.056 339.06 149.056L340.222 151.112C340.259 151.197 340.308 151.277 340.366 151.349C336.751 156.649 334.787 162.902 334.722 169.318V172.083C334.712 173.097 334.327 174.071 333.642 174.819C332.957 175.567 332.02 176.035 331.011 176.134C331.615 176.599 332.336 176.887 333.094 176.966C333.852 177.045 334.617 176.911 335.304 176.581C335.99 176.25 336.572 175.735 336.983 175.094C337.394 174.452 337.618 173.709 337.632 172.947V170.14C337.701 163.725 339.665 157.474 343.275 152.171C343.214 152.089 343.183 152.017 343.131 151.935L341.97 149.879Z" fill="#F1F2F2"/>
</g>
</g>
<path d="M396.588 65.1508C395.577 65.0842 394.58 64.8766 393.627 64.534C393.298 62.807 393.123 61.8304 393.123 61.8304C393.123 61.8304 394.706 46.9449 394.706 46.4104C394.149 45.0738 393.334 43.8602 392.307 42.8389C391.281 41.8176 390.063 41.0086 388.723 40.4583C392.661 41.9489 395.642 43.789 396.947 45.8038C398.078 47.5 397.143 59.1781 396.588 65.1508Z" fill="#EDB29A"/>
<path d="M341.949 106.651L339.729 108.779L327.855 94.3871L328.133 94.1404L341.949 106.651Z" fill="#EDB29A"/>
<path d="M429.628 113.878C429.371 114.443 429.042 115.081 428.6 115.811C426.768 119.124 424.519 122.188 421.907 124.929C418.479 128.56 414.474 131.6 410.054 133.924C398.438 140.092 387.767 120.714 385.382 102.683C384.354 94.603 386.266 68.6357 383.481 65.49C382.164 63.8678 381.179 62.0026 380.582 60.0005C379.636 57.1529 379.307 54.0792 380.016 52.1157C380.602 50.5121 382.35 47.1813 380.602 46.4926C378.855 45.8038 378.33 50.9952 375.894 50.3681C374.691 50.07 375.318 40.9619 381.795 39.605C382.349 39.4867 382.914 39.4281 383.481 39.4302C391.54 39.4302 394.655 45.8861 394.655 46.4103C394.655 46.9346 393.062 61.8303 393.062 61.8303C393.062 61.8303 393.236 62.8583 393.565 64.534C395.621 75.2252 406.734 114.567 406.734 114.567C408.474 113.14 410.142 111.627 411.73 110.033C412.152 109.591 412.542 109.149 412.881 108.728V108.81L429.628 113.878Z" fill="#FFC8AF"/>
<g style="mix-blend-mode:multiply">
<path d="M410.928 108.152L412.984 108.789C411.781 111.216 409.9 114.875 406.816 114.546C406.686 114.522 406.563 114.47 406.456 114.392C407.33 108.913 409.232 98.2422 411.596 92.9069C414.68 85.7828 419.193 82.925 419.481 82.7502L410.928 108.152Z" fill="#E8EAEB"/>
</g>
<path d="M429.627 113.878C429.37 114.443 429.041 115.081 428.599 115.811L411.75 110.033C412.172 109.591 412.563 109.149 412.902 108.728V108.81L429.627 113.878Z" fill="#EDB29A"/>
<g style="mix-blend-mode:multiply">
<path d="M421.948 189.662V336.594H416.202L411.473 192.314L356.896 189.662H421.948Z" fill="#E8EAEB"/>
</g>
<g style="mix-blend-mode:multiply">
<path d="M387.541 195.049V336.594H382.041L380.777 195.049H387.541Z" fill="#E8EAEB"/>
</g>
<path d="M357.153 348.334H387.541V351.911H360.422C359.966 351.912 359.515 351.817 359.098 351.633C358.68 351.45 358.306 351.181 357.998 350.844C357.69 350.508 357.456 350.11 357.311 349.678C357.165 349.246 357.112 348.788 357.153 348.334V348.334Z" fill="#BEE1F4"/>
<path d="M421.948 348.334V351.911H394.799C394.368 351.911 393.941 351.826 393.543 351.661C393.145 351.495 392.784 351.252 392.48 350.947C392.176 350.641 391.936 350.278 391.773 349.879C391.61 349.48 391.527 349.053 391.53 348.622C391.525 348.526 391.525 348.43 391.53 348.334H421.948Z" fill="#BEE1F4"/>
<path d="M409.972 39.8723C409.067 40.5611 406.785 40.4583 406.785 40.4583C407.213 40.9727 407.76 41.375 408.379 41.6302C409.067 41.7638 409.972 39.8723 409.972 39.8723Z" fill="#EDB29A"/>
<g style="mix-blend-mode:multiply">
<path d="M359.507 87.2527V101.46L346.678 110.948L344.458 108.933L359.507 87.2527Z" fill="#E8EAEB"/>
</g>
<path d="M116.529 263.452L92.4022 329.953C89.4927 330.128 86.5848 329.586 83.9338 328.374C81.2829 327.162 78.9699 325.318 77.1981 323.004L90.9218 259.761L79.7681 199.778H74.3197L70.9992 336.502C66.3424 338.434 58.0773 338.218 52.7831 336.604L44.5591 195.861L44.374 192.674H108.264L108.675 195.09L117.773 249.862C118.525 254.424 118.097 259.102 116.529 263.452V263.452Z" fill="#EC827D"/>
<path d="M116.478 149.128C116.478 149.128 119.634 158.38 117.177 162.101C116.635 162.88 116.03 163.612 115.368 164.291C113.694 165.919 111.826 167.335 109.806 168.506C108.095 160.057 106.894 151.512 106.208 142.919C108.682 144.51 110.785 146.613 112.376 149.087L116.478 149.128Z" fill="#FFC8AF"/>
<path d="M100.194 348.509C100.02 348.958 99.7659 349.373 99.444 349.732C98.2824 351.089 96.247 351.212 92.6387 350.256C90.3874 349.65 86.2034 346.689 82.4615 343.204C78.2672 339.267 74.5562 335.134 74.5562 335.134L75.2038 332.163L77.1878 323.004C78.9582 325.318 81.2717 327.16 83.9237 328.367C86.5757 329.573 89.4842 330.108 92.392 329.922L95.8666 341.323C95.8666 341.323 101.192 346.031 100.194 348.509Z" fill="#56548C"/>
<path d="M93.7799 59.0034C92.4332 60.5762 85.9157 59.9697 85.9157 59.9697V62.7967C85.6801 65.4332 84.472 67.8877 82.5266 69.6827C80.5811 71.4776 78.0375 72.4846 75.3906 72.5077C72.7437 72.5308 70.1829 71.5683 68.2064 69.8076C66.23 68.0468 64.9793 65.6137 64.6978 62.9817V54.8811C70.8041 55.097 70.4957 50.1112 70.4957 50.1112C70.4957 50.1112 67.1238 48.158 66.908 44.8067C66.6921 41.4554 70.5882 38.8546 72.1713 39.4816C73.7544 40.1087 73.1993 48.7953 76.1188 47.9524C76.931 47.7057 77.1468 44.2002 77.1468 42.2778C77.1711 41.4549 77.5138 40.6736 78.1029 40.0985L78.9767 39.2041C79.3601 38.8354 79.6371 38.3702 79.7785 37.8574L81.4953 32.1315C86.368 31.878 91.0723 30.2647 95.0752 27.4746C100.143 40.304 95.1368 57.4305 93.7799 59.0034Z" fill="#FFC8AF"/>
<path d="M82.7905 351.911H53.6878L53.4925 348.704L52.7832 336.625C58.0877 338.239 66.3322 338.455 70.9994 336.522L80.57 345.342L84.0961 348.581C84.1388 348.617 84.1768 348.658 84.2092 348.704C84.4524 348.981 84.6113 349.322 84.6671 349.686C84.723 350.051 84.6734 350.424 84.5242 350.761C84.3751 351.098 84.1326 351.385 83.8254 351.589C83.5183 351.793 83.1592 351.905 82.7905 351.911V351.911Z" fill="#56548C"/>
<path d="M108.871 70.0544C114.381 73.8888 141.582 105.335 144.193 120.426C147.452 139.27 132.762 156.766 129.205 158.39C126.369 159.592 123.435 160.548 120.436 161.248C119.918 162.162 119.173 162.927 118.272 163.467C117.371 164.007 116.346 164.306 115.296 164.332C115.958 163.654 116.563 162.921 117.105 162.143C119.562 158.421 116.406 149.169 116.406 149.169H112.294L114.515 146.147V141.685C116.882 139.923 118.906 137.742 120.487 135.25C122.371 132.366 123.246 128.939 122.975 125.505C122.07 115.811 107.401 110.414 107.401 110.414C105.732 121.178 105.312 132.099 106.147 142.96C106.832 151.554 108.034 160.098 109.745 168.547C110.231 171.097 110.759 173.691 111.328 176.329L108.244 179.413V192.664H39.8201V181.006L34.9576 176.175V166.686C13.4519 163.222 -2.44101 148.799 -0.0766103 129.781C3.73727 99.4449 26.8467 75.9448 31.4933 73.3954C35.595 71.1338 59.2081 64.5443 64.6977 63.0434C64.9792 65.6754 66.2299 68.1085 68.2064 69.8693C70.1828 71.63 72.7436 72.5925 75.3905 72.5694C78.0374 72.5464 80.5811 71.5393 82.5265 69.7444C84.4719 67.9494 85.68 65.4949 85.9156 62.8584C89.3388 63.5266 104.019 66.6209 108.871 70.0544Z" fill="#A5B7C6"/>
<g style="mix-blend-mode:multiply">
<path d="M68.7376 144.759V143.515H64.4303C64.4303 143.515 62.9191 142.724 61.9837 142.364C61.0482 142.004 42.4517 142.364 42.4517 142.364C42.4517 142.364 60.38 141.048 63.5668 141.212C66.1221 141.356 68.5987 142.149 70.7628 143.515C71.1087 143.871 71.3781 144.295 71.5543 144.759H68.7376Z" fill="#E6E7E8"/>
</g>
<path d="M95.1059 27.4747C91.103 30.2648 86.3987 31.878 81.526 32.1315L79.8092 37.8575C79.6678 38.3702 79.3908 38.8354 79.0074 39.2041L78.1336 40.0985C77.5445 40.6736 77.2018 41.455 77.1775 42.2778C77.1775 44.2002 76.9308 47.7057 76.1495 47.9524C73.1889 48.7954 73.7954 40.0985 72.202 39.4817C70.6086 38.8649 66.7331 41.4554 66.9387 44.8067C67.1443 48.158 70.5264 50.1112 70.5264 50.1112C70.5264 50.1112 70.8348 55.097 64.7285 54.8811C63.978 54.8811 62.3024 51.0878 62.0248 50.543C58.4268 43.347 57.4913 35.123 60.6267 27.6186C61.2039 26.1496 61.9786 24.7662 62.9295 23.5066C63.5291 22.8058 64.3352 22.3129 65.2322 22.0982C66.1265 21.8001 67.5246 21.9954 68.3162 21.6356C69.1077 21.2758 69.19 20.2992 69.8171 19.7544C70.8709 19.0937 72.0507 18.6596 73.2814 18.4797C78.4484 17.2832 83.7826 16.9841 89.0509 17.5956C91.6621 17.904 95.476 18.6236 96.9563 21.0805C98.4366 23.5374 97.2544 25.9121 95.1059 27.4747Z" fill="#112B46"/>
<path d="M98.1591 118.432C97.3258 114.83 95.4987 111.534 92.8854 108.919C90.2722 106.304 86.9777 104.475 83.3765 103.639C80.4256 102.946 77.3561 102.932 74.3987 103.596C71.4412 104.26 68.6728 105.586 66.3014 107.474C63.9502 109.335 62.0522 111.705 60.7505 114.407C59.4487 117.108 58.7773 120.07 58.7867 123.068C58.7867 124.159 59.22 125.205 59.9911 125.976C60.7623 126.747 61.8081 127.18 62.8987 127.18C63.9893 127.18 65.0352 126.747 65.8063 125.976C66.5775 125.205 67.0107 124.159 67.0107 123.068C67.012 121.281 67.4195 119.517 68.2027 117.91C68.9858 116.304 70.124 114.896 71.5312 113.794C72.9384 112.692 74.5777 111.924 76.3253 111.548C78.0729 111.173 79.8829 111.2 81.6186 111.627C83.7192 112.112 85.6418 113.176 87.1681 114.699C88.6944 116.222 89.7634 118.142 90.2538 120.241C90.7239 122.157 90.7047 124.159 90.1982 126.065C89.6916 127.971 88.7138 129.719 87.3548 131.148C87.3163 131.205 87.2715 131.256 87.2212 131.303C85.5509 133.022 84.0115 134.864 82.6158 136.813C85.6381 135.877 91.3435 134.459 93.9957 135.98C96.013 133.584 97.4405 130.748 98.1635 127.701C98.8866 124.653 98.8851 121.479 98.1591 118.432V118.432ZM78.7299 167.488C79.8205 167.488 80.8664 167.055 81.6375 166.284C82.4087 165.513 82.8419 164.467 82.8419 163.376V160.58C82.8451 159.003 82.9723 157.429 83.2223 155.872H74.9983C74.7875 157.432 74.6844 159.005 74.6899 160.58V163.356C74.687 164.436 75.1092 165.473 75.8651 166.245C76.621 167.016 77.6501 167.459 78.7299 167.478V167.488ZM79.357 171.415C78.49 171.413 77.6419 171.669 76.9201 172.149C76.1984 172.629 75.6355 173.313 75.3028 174.114C74.97 174.914 74.8825 175.796 75.0511 176.646C75.2197 177.497 75.637 178.278 76.2501 178.891C76.8632 179.504 77.6444 179.921 78.4949 180.09C79.3454 180.259 80.2267 180.171 81.0274 179.838C81.828 179.506 82.5118 178.943 82.9923 178.221C83.4727 177.499 83.728 176.651 83.726 175.784C83.7274 175.21 83.6154 174.64 83.3964 174.109C83.1774 173.578 82.8558 173.095 82.45 172.688C82.0442 172.281 81.5621 171.959 81.0313 171.738C80.5006 171.518 79.9316 171.405 79.357 171.405V171.415Z" fill="#EC827D"/>
<g style="mix-blend-mode:multiply">
<g style="mix-blend-mode:multiply">
<path d="M62.0351 122.636C62.0261 118.073 63.5828 113.644 66.4452 110.089C69.3077 106.534 73.3027 104.069 77.7635 103.104C72.6426 103.355 67.8148 105.568 64.2815 109.283C60.7481 112.998 58.7805 117.931 58.7866 123.058C58.7866 124.149 59.2199 125.194 59.991 125.966C60.7622 126.737 61.8081 127.17 62.8986 127.17C63.6473 127.17 64.3809 126.959 65.0163 126.563C64.1617 126.319 63.4093 125.804 62.8719 125.096C62.3344 124.388 62.0409 123.525 62.0351 122.636Z" fill="#F1F2F2"/>
</g>
<g style="mix-blend-mode:multiply">
<path d="M90.5519 130.706C91.9109 129.277 92.8886 127.529 93.3952 125.623C93.9018 123.717 93.9209 121.715 93.4508 119.799C92.9605 117.7 91.8915 115.78 90.3651 114.257C88.8388 112.734 86.9163 111.67 84.8156 111.185C82.8545 110.718 80.8074 110.754 78.8635 111.287C79.7741 111.297 80.6809 111.407 81.5672 111.616C83.6678 112.102 85.5903 113.166 87.1167 114.689C88.643 116.212 89.712 118.132 90.2024 120.231C90.6724 122.146 90.6533 124.149 90.1467 126.055C89.6401 127.961 88.6624 129.709 87.3034 131.138C87.2649 131.194 87.22 131.246 87.1698 131.292C85.4995 133.012 83.96 134.853 82.5643 136.802C83.5923 136.494 84.8465 136.134 86.2137 135.846C87.5 134.091 88.9048 132.425 90.4182 130.86C90.4685 130.814 90.5134 130.763 90.5519 130.706V130.706Z" fill="#F1F2F2"/>
</g>
<g style="mix-blend-mode:multiply">
<path d="M78.7298 167.478C79.4812 167.474 80.2172 167.264 80.8578 166.871C80.0087 166.624 79.2621 166.109 78.7287 165.403C78.1954 164.698 77.9038 163.839 77.8971 162.955V160.179C77.8984 158.749 77.9877 157.321 78.1644 155.903H74.957C74.7462 157.463 74.6432 159.036 74.6486 160.611V163.386C74.654 164.468 75.0854 165.504 75.8493 166.27C76.6132 167.036 77.6481 167.47 78.7298 167.478Z" fill="#F1F2F2"/>
</g>
<g style="mix-blend-mode:multiply">
<path d="M78.226 175.342C78.2255 174.571 78.4311 173.814 78.8215 173.148C79.2119 172.483 79.7729 171.935 80.4465 171.559C80.0916 171.46 79.7252 171.409 79.3568 171.405C78.682 171.396 78.0143 171.543 77.4058 171.835C76.7973 172.127 76.2645 172.556 75.849 173.088C75.4335 173.62 75.1465 174.24 75.0105 174.901C74.8745 175.562 74.8931 176.246 75.0649 176.899C75.2367 177.551 75.557 178.155 76.0009 178.664C76.4447 179.172 77.0001 179.571 77.6236 179.83C78.2471 180.088 78.9218 180.199 79.5952 180.153C80.2686 180.108 80.9223 179.907 81.5054 179.567C80.5688 179.324 79.7391 178.778 79.1458 178.013C78.5525 177.249 78.2291 176.31 78.226 175.342Z" fill="#F1F2F2"/>
</g>
<g style="mix-blend-mode:multiply">
<path d="M89.9248 135.322C91.2988 135.161 92.6904 135.386 93.9443 135.97C94.2424 135.62 94.52 135.26 94.7872 134.942C93.1568 134.856 91.522 134.984 89.9248 135.322V135.322Z" fill="#F1F2F2"/>
</g>
</g>
<path d="M76.8282 135.26L87.324 131.148C87.2855 131.205 87.2407 131.257 87.1904 131.303C85.5201 133.022 83.9807 134.864 82.585 136.813C85.6073 135.877 91.3127 134.459 93.9649 135.98C94.2666 136.133 94.5348 136.344 94.7537 136.602C94.9726 136.86 95.1378 137.158 95.2396 137.481C95.363 139.537 93.0911 142.539 93.0911 142.539L91.693 149.108C91.6917 150.003 91.5141 150.889 91.1703 151.715C90.8265 152.541 90.3234 153.292 89.6895 153.924C89.0557 154.556 88.3036 155.057 87.4761 155.398C86.6487 155.739 85.7622 155.914 84.8671 155.913H68.7378V144.759H71.976L73.96 138.334C74.1722 137.637 74.541 136.998 75.0381 136.465C75.5351 135.932 76.1474 135.52 76.8282 135.26V135.26Z" fill="#FFC8AF"/>
<g style="mix-blend-mode:multiply">
<path d="M74.957 155.903C74.957 155.903 72.901 161.043 61.922 165.782C50.9429 170.521 34.9575 171.333 34.9575 171.333V166.625C51.1896 166.625 56.9464 163.623 59.1772 162.225C61.6958 160.662 63.0014 158.113 63.8546 157.907C64.7078 157.702 68.7376 157.547 68.7376 157.547V155.903H74.957Z" fill="#E6E7E8"/>
</g>
<g style="mix-blend-mode:multiply">
<path d="M61.4081 65.8293C61.4081 67.2685 64.8108 71.7712 68.0798 73.4982C68.0798 73.4982 64.4818 72.6861 62.652 70.6198C62.1137 69.957 61.7241 69.1862 61.5095 68.3598C61.2949 67.5333 61.2603 66.6703 61.4081 65.8293Z" fill="#E6E7E8"/>
</g>
<g style="mix-blend-mode:multiply">
<path d="M24.0301 128.712C24.0301 129.01 24.0301 129.298 24.1123 129.607L24.0198 129.514C24.0198 129.288 24.0198 129.01 24.0301 128.712Z" fill="#E6E7E8"/>
</g>
<g style="mix-blend-mode:multiply">
<path d="M38.6789 101.521L36.0061 141.737H34.9781V110.373C34.9781 110.373 26.1784 115.831 24.3794 124.765C26.5382 110.311 38.6789 101.521 38.6789 101.521Z" fill="#E6E7E8"/>
</g>
<g style="mix-blend-mode:multiply">
<path d="M120.549 135.209C122.433 132.325 123.308 128.898 123.037 125.463C122.132 115.769 107.462 110.372 107.462 110.372L110.279 98.8999C110.279 98.8999 126.799 111.236 126.408 122.544C126.334 124.941 125.777 127.298 124.77 129.474C123.763 131.65 122.328 133.601 120.549 135.209V135.209Z" fill="#E6E7E8"/>
</g>
<g style="mix-blend-mode:multiply">
<path d="M108.675 195.08L44.5591 195.851L44.374 192.664H108.264L108.675 195.08Z" fill="#E6E7E8"/>
</g>
<path d="M70.4956 50.1111C71.7116 50.4834 73.0112 50.4834 74.2273 50.1111C74.2273 50.1111 73.8058 52.4549 72.3563 52.383C70.9068 52.311 70.4956 50.1111 70.4956 50.1111Z" fill="#EDB29A"/>
<path d="M93.7797 59.0034C92.4331 60.5762 85.9155 59.9697 85.9155 59.9697V62.3444C83.5649 61.8027 81.4435 60.5371 79.8503 58.7258C79.8503 58.7258 90.4285 59.4454 93.7797 59.0034Z" fill="#EDB29A"/>
<path d="M82.7904 351.911H53.6877L53.4924 348.704H84.2091C84.4523 348.981 84.6112 349.322 84.667 349.686C84.7228 350.051 84.6733 350.424 84.5241 350.761C84.375 351.098 84.1325 351.386 83.8253 351.589C83.5181 351.793 83.1591 351.905 82.7904 351.911V351.911Z" fill="#A5B7C6"/>
<path d="M99.444 349.732C98.2824 351.089 96.247 351.212 92.6387 350.256C90.3874 349.65 86.2034 346.689 82.4615 343.204C78.2672 339.267 74.5562 335.134 74.5562 335.134L75.2038 332.164C77.8252 335.248 84.0035 342.444 87.7043 345.229C91.5901 348.211 95.9488 350.966 99.444 349.732Z" fill="#A5B7C6"/>
<g style="mix-blend-mode:multiply">
<path d="M108.264 179.413C108.264 179.413 96.5142 180.719 85.4118 181.685C79.3166 182.261 73.1932 182.484 67.0723 182.353C76.3335 182.895 85.6184 182.895 94.8797 182.353C107.216 181.407 108.244 181.068 108.244 181.068L108.264 179.413Z" fill="#E6E7E8"/>
</g>
</g>
<defs>
<clipPath id="clip0">
<rect width="445" height="360" fill="white"/>
</clipPath>
</defs>
</svg>
