<svg width="158" height="22" fill="none" xmlns="http://www.w3.org/2000/svg"><path d="M11.06 21H5.544L0 1.4h6.16l2.66 10.78L11.984 1.4h4.312l3.164 10.78L22.12 1.4h6.16L22.736 21H17.22l-3.08-10.472L11.06 21zM40.033 8.344V1.4h5.6V21h-5.6v-7.224h-4.76V21h-5.6V1.4h5.6v6.944h4.76zM65.791 21h-6.02l-.672-2.52h-5.656L52.771 21h-6.02l6.244-19.6h6.552L65.791 21zm-9.52-13.02L54.647 14h3.248l-1.624-6.02zM65.796 1.4h14.84v5.432h-4.62V21h-5.6V6.832h-4.62V1.4z" fill="#56548C"/><path d="M79.65 1.4h14.84v5.432h-4.62V21h-5.6V6.832h-4.62V1.4zM112.369 18.508c-1.997 1.96-4.452 2.94-7.364 2.94s-5.376-.98-7.392-2.94c-1.997-1.997-2.996-4.433-2.996-7.308 0-2.893.999-5.32 2.996-7.28C99.61 1.94 102.074.952 105.005.952s5.385.99 7.364 2.968c2.016 1.96 3.024 4.387 3.024 7.28 0 2.875-1.008 5.31-3.024 7.308zm-10.808-3.892c.915.896 2.063 1.344 3.444 1.344 1.381 0 2.52-.448 3.416-1.344.915-.915 1.372-2.053 1.372-3.416s-.457-2.492-1.372-3.388c-.896-.915-2.035-1.372-3.416-1.372-1.381 0-2.529.457-3.444 1.372-.896.896-1.344 2.025-1.344 3.388 0 1.344.448 2.483 1.344 3.416zM117.493 1.4h8.12c2.688 0 4.946.943 6.776 2.828 1.829 1.885 2.744 4.21 2.744 6.972 0 2.781-.915 5.115-2.744 7-1.811 1.867-4.07 2.8-6.776 2.8h-8.12V1.4zm5.88 14.168h2.24c1.138 0 2.072-.401 2.8-1.204.746-.821 1.12-1.876 1.12-3.164 0-1.288-.374-2.333-1.12-3.136-.728-.821-1.662-1.232-2.8-1.232h-2.24v8.736zM154.287 18.508c-1.997 1.96-4.452 2.94-7.364 2.94s-5.376-.98-7.392-2.94c-1.997-1.997-2.996-4.433-2.996-7.308 0-2.893.999-5.32 2.996-7.28 1.997-1.979 4.461-2.968 7.392-2.968s5.385.99 7.364 2.968c2.016 1.96 3.024 4.387 3.024 7.28 0 2.875-1.008 5.31-3.024 7.308zm-10.808-3.892c.915.896 2.063 1.344 3.444 1.344 1.381 0 2.52-.448 3.416-1.344.915-.915 1.372-2.053 1.372-3.416s-.457-2.492-1.372-3.388c-.896-.915-2.035-1.372-3.416-1.372-1.381 0-2.529.457-3.444 1.372-.896.896-1.344 2.025-1.344 3.388 0 1.344.448 2.483 1.344 3.416z" fill="#56548C"/></svg>
