<svg width="20" height="20" viewBox="0 0 20 20" fill="none" xmlns="http://www.w3.org/2000/svg">
<path d="M8.92682 0.75C4.41802 0.75 0.75 4.41802 0.75 8.92682C0.75 13.4359 4.41802 17.1036 8.92682 17.1036C13.4359 17.1036 17.1036 13.4359 17.1036 8.92682C17.1036 4.41802 13.4359 0.75 8.92682 0.75ZM8.92682 15.1403C5.501 15.1403 2.71341 12.3527 2.71341 8.92686C2.71341 5.50103 5.501 2.71341 8.92682 2.71341C12.3526 2.71341 15.1402 5.501 15.1402 8.92682C15.1402 12.3526 12.3526 15.1403 8.92682 15.1403Z" fill="#C7BED3" stroke="#C7BED3" stroke-width="0.5"/>
<path d="M14.7676 13.3789L18.9627 17.574C18.9627 17.574 18.9627 17.574 18.9628 17.5741C19.3462 17.9573 19.3462 18.579 18.9627 18.9623L14.7676 13.3789ZM14.7676 13.3789C14.3842 12.9955 13.763 12.9954 13.3795 13.3788L14.7676 13.3789ZM13.3794 13.3789C12.9959 13.7622 12.9959 14.3839 13.3794 14.7671C13.3794 14.7672 13.3795 14.7672 13.3795 14.7672L17.5745 18.9623C17.7662 19.1539 18.0177 19.2499 18.2687 19.2499C18.5194 19.2499 18.771 19.1539 18.9627 18.9623L13.3794 13.3789Z" fill="#C7BED3" stroke="#C7BED3" stroke-width="0.5"/>
</svg>
