<svg width="1200" height="1704" viewBox="0 0 1200 1704" fill="none" xmlns="http://www.w3.org/2000/svg">
<path d="M4.97483 1158.6C4.97483 1219.25 33.4077 1267.21 60.8941 1313.65C88.1792 1359.68 116.411 1407.3 116.411 1467.1C116.411 1526.9 88.2194 1574.52 60.8941 1620.58C46.2749 1645.2 31.1524 1670.71 20.48 1697.88L23.2991 1698.96C33.8708 1672.04 48.933 1646.61 63.5723 1622.07C91.0789 1575.75 119.512 1527.71 119.512 1467.02C119.512 1406.33 91.0789 1358.41 63.5723 1311.97C36.2872 1265.94 8.07588 1218.34 8.07588 1158.52C8.07588 1098.7 36.2671 1051.1 63.5723 1005.05C91.0789 958.733 119.512 910.689 119.512 850H116.491C116.491 909.823 88.3 957.424 60.9747 1003.47C33.4077 1049.99 4.97483 1097.95 4.97483 1158.6Z" fill="#FBF9FF"/>
<path d="M25.2317 1158.6C25.2317 1219.25 53.6645 1267.21 81.151 1313.65C108.456 1359.68 136.668 1407.3 136.668 1467.1C136.668 1526.9 108.476 1574.52 81.151 1620.58C66.5318 1645.2 51.4093 1670.71 40.7369 1697.88L43.556 1698.96C54.1277 1672.04 69.1899 1646.61 83.8291 1622.07C111.336 1575.75 139.769 1527.71 139.769 1467.02C139.769 1406.33 111.336 1358.41 83.8291 1311.97C56.5441 1265.94 28.3328 1218.34 28.3328 1158.52C28.3328 1098.7 56.524 1051.1 83.8291 1005.05C111.336 958.733 139.769 910.689 139.769 850H136.748C136.748 909.823 108.557 957.424 81.2315 1003.47C53.7451 1049.99 25.2317 1097.95 25.2317 1158.6Z" fill="#FBF9FF"/>
<path d="M45.4891 1158.6C45.4891 1219.25 73.922 1267.21 101.408 1313.65C128.714 1359.68 156.925 1407.3 156.925 1467.1C156.925 1526.9 128.734 1574.52 101.429 1620.58C86.7892 1645.2 71.6667 1670.71 60.9943 1697.88L63.8134 1698.96C74.4053 1672.04 89.4473 1646.61 104.087 1622.07C131.573 1575.75 160.006 1527.71 160.006 1467.02C160.006 1406.33 131.573 1358.41 104.087 1311.97C76.7814 1265.94 48.57 1218.34 48.57 1158.52C48.57 1098.7 76.7612 1051.1 104.087 1005.05C131.573 958.733 160.006 910.689 160.006 850H156.985C156.985 909.823 128.794 957.424 101.469 1003.47C73.8817 1049.99 45.4891 1097.95 45.4891 1158.6Z" fill="#FBF9FF"/>
<path d="M65.8272 1158.6C65.8272 1219.25 94.2601 1267.21 121.767 1313.65C149.052 1359.68 177.263 1407.3 177.263 1467.1C177.263 1526.9 149.072 1574.52 121.767 1620.58C107.067 1645.2 92.0048 1670.71 81.272 1697.88L84.071 1698.96C94.6628 1672.04 109.725 1646.61 124.344 1622.07C151.831 1575.75 180.263 1527.71 180.263 1467.02C180.263 1406.33 151.831 1358.41 124.344 1311.97C97.0591 1265.94 68.8276 1218.34 68.8276 1158.52C68.8276 1098.7 97.0188 1051.1 124.344 1005.05C151.831 958.733 180.263 910.689 180.263 850H177.243C177.243 909.823 149.052 957.424 121.747 1003.47C94.1795 1049.99 65.8272 1097.95 65.8272 1158.6Z" fill="#FBF9FF"/>
<path d="M85.964 1158.6C85.964 1219.25 114.397 1267.21 141.903 1313.65C169.188 1359.68 197.4 1407.3 197.4 1467.1C197.4 1526.9 169.209 1574.52 141.903 1620.58C127.325 1645.2 112.142 1670.71 101.53 1697.88L104.329 1698.96C114.92 1672.04 129.983 1646.61 144.602 1622.07C172.088 1575.75 200.521 1527.71 200.521 1467.02C200.521 1406.33 172.088 1358.41 144.602 1311.97C117.317 1265.94 89.0852 1218.34 89.0852 1158.52C89.0852 1098.7 117.276 1051.1 144.602 1005.05C172.088 958.733 200.521 910.689 200.521 850H197.501C197.501 909.823 169.309 957.424 142.004 1003.47C114.437 1049.99 85.964 1097.95 85.964 1158.6Z" fill="#FBF9FF"/>
<path d="M106.282 1158.6C106.282 1219.25 134.715 1267.21 162.201 1313.65C189.486 1359.68 217.718 1407.3 217.718 1467.1C217.718 1526.9 189.527 1574.52 162.201 1620.58C147.582 1645.2 132.46 1670.71 121.787 1697.88L124.586 1698.96C135.178 1672.04 150.24 1646.61 164.859 1622.07C192.366 1575.75 220.799 1527.71 220.799 1467.02C220.799 1406.33 192.366 1358.41 164.859 1311.97C137.574 1265.94 109.363 1218.34 109.363 1158.52C109.363 1098.7 137.554 1051.1 164.859 1005.05C192.366 958.733 220.799 910.689 220.799 850H217.778C217.778 909.823 189.587 957.424 162.262 1003.47C134.715 1049.99 106.282 1097.95 106.282 1158.6Z" fill="#FBF9FF"/>
<path d="M126.539 1158.6C126.539 1219.25 154.972 1267.21 182.458 1313.65C209.743 1359.68 237.975 1407.3 237.975 1467.1C237.975 1526.9 209.783 1574.52 182.458 1620.58C167.839 1645.2 152.716 1670.71 142.044 1697.88L144.863 1698.96C155.435 1672.04 170.497 1646.61 185.136 1622.07C212.643 1575.75 241.076 1527.71 241.076 1467.02C241.076 1406.33 212.643 1358.41 185.136 1311.97C157.851 1265.94 129.64 1218.34 129.64 1158.52C129.64 1098.7 157.831 1051.1 185.136 1005.05C212.643 958.733 241.076 910.689 241.076 850H238.055C238.055 909.823 209.864 957.424 182.539 1003.47C154.972 1049.99 126.539 1097.95 126.539 1158.6Z" fill="#FBF9FF"/>
<path d="M146.796 1158.6C146.796 1219.25 175.229 1267.21 202.715 1313.65C230.021 1359.68 258.232 1407.3 258.232 1467.1C258.232 1526.9 230.041 1574.52 202.715 1620.58C188.096 1645.2 172.974 1670.71 162.301 1697.88L165.12 1698.96C175.712 1672.04 190.754 1646.61 205.394 1622.07C232.88 1575.75 261.313 1527.71 261.313 1467.02C261.313 1406.33 232.88 1358.41 205.394 1311.97C178.088 1265.94 149.877 1218.34 149.877 1158.52C149.877 1098.7 178.068 1051.1 205.394 1005.05C232.88 958.733 261.313 910.689 261.313 850H258.292C258.292 909.823 230.101 957.424 202.776 1003.47C175.229 1049.99 146.796 1097.95 146.796 1158.6Z" fill="#FBF9FF"/>
<path d="M167.054 1158.6C167.054 1219.25 195.487 1267.21 222.993 1313.65C250.278 1359.68 278.49 1407.3 278.49 1467.1C278.49 1526.9 250.278 1574.48 222.892 1620.54C208.354 1645.2 193.231 1670.71 182.619 1697.88L185.438 1698.96C196.03 1672.04 211.092 1646.61 225.712 1622.07C253.198 1575.75 281.631 1527.71 281.631 1467.02C281.631 1406.33 253.198 1358.41 225.712 1311.97C198.406 1265.94 170.195 1218.34 170.195 1158.52C170.195 1098.7 198.386 1051.1 225.712 1005.05C253.198 958.733 281.631 910.689 281.631 850H278.61C278.61 909.823 250.419 957.424 223.114 1003.47C195.487 1049.99 167.054 1097.95 167.054 1158.6Z" fill="#FBF9FF"/>
<path d="M187.311 1158.6C187.311 1219.25 215.744 1267.21 243.25 1313.65C270.535 1359.68 298.747 1407.3 298.747 1467.1C298.747 1526.9 270.555 1574.52 243.25 1620.58C228.631 1645.2 213.509 1670.71 202.756 1697.88L205.555 1698.96C216.146 1672.04 231.209 1646.61 245.828 1622.07C273.314 1575.75 301.747 1527.71 301.747 1467.02C301.747 1406.33 273.314 1358.41 245.828 1311.97C218.543 1265.94 190.311 1218.34 190.311 1158.52C190.311 1098.7 218.502 1051.1 245.828 1005.05C273.314 958.733 301.747 910.689 301.747 850H298.727C298.727 909.823 270.535 957.424 243.23 1003.47C215.744 1049.99 187.311 1097.95 187.311 1158.6Z" fill="#FBF9FF"/>
<path d="M207.568 1158.6C207.568 1219.25 236.001 1267.21 263.508 1313.65C290.793 1359.68 319.004 1407.3 319.004 1467.1C319.004 1526.9 290.813 1574.52 263.508 1620.58C248.889 1645.2 233.766 1670.71 223.094 1697.88L225.893 1698.96C236.484 1672.04 251.547 1646.61 266.166 1622.07C293.672 1575.75 322.085 1527.71 322.085 1467.02C322.085 1406.33 293.652 1358.41 266.166 1311.97C238.881 1265.94 210.649 1218.34 210.649 1158.52C210.649 1098.7 238.84 1051.1 266.166 1005.05C293.652 958.733 322.085 910.689 322.085 850H319.064C319.064 909.823 290.873 957.424 263.568 1003.47C236.001 1049.99 207.568 1097.95 207.568 1158.6Z" fill="#FBF9FF"/>
<path d="M227.846 1158.6C227.846 1219.25 256.279 1267.21 283.766 1313.65C311.051 1359.68 339.282 1407.3 339.282 1467.1C339.282 1526.9 311.091 1574.52 283.766 1620.58C269.207 1645.2 254.024 1670.71 243.352 1697.88L246.171 1698.96C256.742 1672.04 271.805 1646.61 286.444 1622.07C313.95 1575.75 342.383 1527.71 342.383 1467.02C342.383 1406.33 313.95 1358.41 286.444 1311.97C259.139 1266.02 230.947 1218.42 230.947 1158.6C230.947 1098.78 259.139 1051.18 286.444 1005.13C313.95 958.813 342.383 910.77 342.383 850.08H339.363C339.363 909.904 311.172 957.505 283.846 1003.56C256.279 1049.99 227.846 1097.95 227.846 1158.6Z" fill="#FBF9FF"/>
<path d="M248.103 1158.6C248.103 1219.25 276.536 1267.21 304.023 1313.65C331.308 1359.68 359.539 1407.3 359.539 1467.1C359.539 1526.9 331.348 1574.52 304.023 1620.58C289.343 1645.2 274.281 1670.71 263.608 1697.88L266.428 1698.96C276.999 1672.04 292.061 1646.61 306.701 1622.07C334.207 1575.75 362.64 1527.71 362.64 1467.02C362.64 1406.33 334.207 1358.41 306.701 1311.97C279.275 1266.02 251.083 1218.42 251.083 1158.6C251.083 1098.78 279.275 1051.18 306.58 1005.13C334.086 958.813 362.519 910.77 362.519 850.08H359.499C359.499 909.904 331.308 957.505 303.982 1003.56C276.536 1049.99 248.103 1097.95 248.103 1158.6Z" fill="#FBF9FF"/>
<path d="M268.361 1158.6C268.361 1219.25 296.794 1267.21 324.3 1313.65C351.585 1359.68 379.797 1407.3 379.797 1467.1C379.797 1526.9 351.605 1574.52 324.3 1620.58C309.661 1645.2 294.538 1670.71 283.866 1697.88L286.685 1698.96C297.277 1672.04 312.319 1646.61 326.958 1622.07C354.445 1575.75 382.877 1527.71 382.877 1467.02C382.877 1406.33 354.445 1358.41 326.958 1311.97C299.653 1265.94 271.442 1218.34 271.442 1158.52C271.442 1098.7 299.633 1051.1 326.958 1005.05C354.445 958.733 382.877 910.689 382.877 850H379.857C379.857 909.823 351.666 957.424 324.361 1003.47C296.794 1049.99 268.361 1097.95 268.361 1158.6Z" fill="#FBF9FF"/>
<path d="M288.619 1158.6C288.619 1219.25 317.051 1267.21 344.558 1313.65C371.903 1359.64 400.095 1407.26 400.095 1467.06C400.095 1526.86 371.903 1574.48 344.598 1620.54C329.919 1645.2 314.816 1670.71 304.124 1697.88L306.943 1698.96C317.535 1672.04 332.597 1646.61 347.216 1622.07C374.702 1575.75 403.135 1527.71 403.135 1467.02C403.135 1406.33 374.702 1358.41 347.216 1311.97C319.931 1265.94 291.699 1218.34 291.699 1158.52C291.699 1098.7 319.891 1051.1 347.216 1005.05C374.702 958.733 403.135 910.689 403.135 850H400.095C400.095 909.823 371.903 957.424 344.598 1003.47C317.051 1049.99 288.619 1097.95 288.619 1158.6Z" fill="#FBF9FF"/>
<path d="M308.876 1158.6C308.876 1219.25 337.309 1267.21 364.815 1313.65C392.04 1359.64 420.231 1407.26 420.231 1467.06C420.231 1526.86 392.04 1574.48 364.735 1620.54C350.196 1645.2 335.074 1670.71 324.401 1697.88L327.2 1698.96C337.792 1672.04 352.854 1646.61 367.473 1622.07C394.96 1575.75 423.393 1527.71 423.393 1467.02C423.393 1406.33 394.96 1358.41 367.473 1311.97C340.188 1265.94 311.957 1218.34 311.957 1158.52C311.957 1098.7 340.148 1051.1 367.473 1005.05C394.96 958.733 423.393 910.689 423.393 850H420.231C420.231 909.823 392.04 957.424 364.735 1003.47C337.309 1049.99 308.876 1097.95 308.876 1158.6Z" fill="#FBF9FF"/>
<path d="M329.153 1158.6C329.153 1219.25 357.566 1267.21 385.072 1313.65C412.358 1359.68 440.589 1407.3 440.589 1467.1C440.589 1526.9 412.398 1574.52 385.072 1620.58C370.453 1645.2 355.331 1670.71 344.658 1697.88L347.457 1698.96C358.049 1672.04 373.111 1646.61 387.73 1622.07C415.237 1575.75 443.67 1527.71 443.67 1467.02C443.67 1406.33 415.237 1358.41 387.73 1311.97C360.445 1265.94 332.234 1218.34 332.234 1158.52C332.234 1098.7 360.425 1051.1 387.73 1005.05C415.237 958.733 443.67 910.689 443.67 850H440.649C440.649 909.823 412.458 957.424 385.133 1003.47C357.566 1049.99 329.153 1097.95 329.153 1158.6Z" fill="#FBF9FF"/>
<path d="M349.411 1158.6C349.411 1219.25 377.844 1267.21 405.33 1313.65C432.615 1359.68 460.847 1407.3 460.847 1467.1C460.847 1526.9 432.656 1574.52 405.33 1620.58C390.711 1645.2 375.588 1670.71 364.916 1697.88L367.735 1698.96C378.307 1672.04 393.369 1646.61 408.008 1622.07C435.515 1575.75 463.948 1527.71 463.948 1467.02C463.948 1406.33 435.515 1358.41 408.008 1311.97C380.723 1265.94 352.512 1218.34 352.512 1158.52C352.512 1098.7 380.703 1051.1 408.008 1005.05C435.515 958.733 463.948 910.689 463.948 850H460.927C460.927 909.823 432.736 957.424 405.411 1003.47C377.844 1049.99 349.411 1097.95 349.411 1158.6Z" fill="#FBF9FF"/>
<path d="M369.668 1158.6C369.668 1219.25 398.101 1267.21 425.588 1313.65C452.893 1359.68 481.104 1407.3 481.104 1467.1C481.104 1526.9 452.913 1574.52 425.588 1620.58C410.968 1645.2 395.846 1670.71 385.173 1697.88L388.013 1698.96C398.584 1672.04 413.647 1646.61 428.286 1622.07C455.772 1575.75 484.205 1527.71 484.205 1467.02C484.205 1406.33 455.772 1358.41 428.266 1311.97C400.981 1265.94 372.769 1218.34 372.769 1158.52C372.769 1098.7 400.96 1051.1 428.266 1005.05C455.772 958.733 484.205 910.689 484.205 850H481.185C481.185 909.823 452.993 957.424 425.668 1003.47C398.081 1049.99 369.668 1097.95 369.668 1158.6Z" fill="#FBF9FF"/>
<path d="M389.925 1158.6C389.925 1219.25 418.358 1267.21 445.865 1313.65C473.15 1359.68 501.361 1407.3 501.361 1467.1C501.361 1526.9 473.17 1574.52 445.865 1620.58C431.225 1645.2 416.103 1670.71 405.43 1697.88L408.149 1698.96C418.741 1672.04 433.783 1646.61 448.422 1622.07C475.908 1575.75 504.341 1527.71 504.341 1467.02C504.341 1406.33 475.908 1358.41 448.422 1311.97C421.117 1265.94 392.905 1218.34 392.905 1158.52C392.905 1098.7 421.097 1051.1 448.422 1005.05C475.908 958.733 504.341 910.689 504.341 850H501.321C501.321 909.823 473.13 957.424 445.824 1003.47C418.358 1049.99 389.925 1097.95 389.925 1158.6Z" fill="#FBF9FF"/>
<path d="M410.163 1158.6C410.163 1219.25 438.596 1267.21 466.102 1313.65C493.387 1359.68 521.599 1407.3 521.599 1467.1C521.599 1526.9 493.407 1574.52 466.102 1620.58C451.503 1645.2 436.34 1670.71 425.708 1697.88L428.507 1698.96C439.099 1672.04 454.161 1646.61 468.78 1622.07C496.267 1575.75 524.7 1527.71 524.7 1467.02C524.7 1406.33 496.267 1358.41 468.78 1311.97C441.495 1265.94 413.264 1218.34 413.264 1158.52C413.264 1098.7 441.455 1051.1 468.78 1005.05C496.267 958.733 524.7 910.689 524.7 850H521.679C521.679 909.823 493.488 957.424 466.183 1003.47C438.616 1049.99 410.163 1097.95 410.163 1158.6Z" fill="#FBF9FF"/>
<path d="M430.44 1158.6C430.44 1219.25 458.873 1267.21 486.38 1313.65C513.665 1359.68 541.876 1407.3 541.876 1467.1C541.876 1526.9 513.685 1574.52 486.38 1620.58C471.761 1645.2 456.638 1670.71 445.966 1697.88L448.765 1698.96C459.356 1672.04 474.419 1646.61 489.038 1622.07C516.524 1575.75 544.957 1527.71 544.957 1467.02C544.957 1406.33 516.524 1358.41 489.038 1311.97C461.753 1265.94 433.521 1218.34 433.521 1158.52C433.521 1098.7 461.712 1051.1 489.038 1005.05C516.524 958.733 544.957 910.689 544.957 850H541.937C541.937 909.823 513.745 957.424 486.44 1003.47C458.873 1049.99 430.44 1097.95 430.44 1158.6Z" fill="#FBF9FF"/>
<path d="M450.718 1158.6C450.718 1219.25 479.151 1267.21 506.637 1313.65C533.922 1359.68 562.154 1407.3 562.154 1467.1C562.154 1526.9 533.963 1574.52 506.637 1620.58C492.018 1645.2 476.896 1670.71 466.223 1697.88L469.022 1698.96C479.614 1672.04 494.676 1646.61 509.295 1622.07C536.802 1575.75 565.235 1527.71 565.235 1467.02C565.235 1406.33 536.802 1358.41 509.295 1311.97C482.01 1265.94 453.799 1218.34 453.799 1158.52C453.799 1098.7 481.99 1051.1 509.295 1005.05C536.802 958.733 565.235 910.689 565.235 850H562.214C562.214 909.823 534.023 957.424 506.698 1003.47C479.151 1049.99 450.718 1097.95 450.718 1158.6Z" fill="#FBF9FF"/>
<path d="M470.975 1158.6C470.975 1219.25 499.408 1267.21 526.895 1313.65C554.18 1359.68 582.411 1407.3 582.411 1467.1C582.411 1526.9 554.18 1574.48 526.955 1620.54C512.275 1645.2 497.153 1670.71 486.481 1697.88L489.3 1698.96C499.871 1672.04 514.933 1646.61 529.573 1622.07C557.079 1575.75 585.512 1527.71 585.512 1467.02C585.512 1406.33 557.079 1358.41 529.573 1311.97C502.288 1265.94 474.076 1218.34 474.076 1158.52C474.076 1098.7 502.268 1051.1 529.573 1005.05C557.079 958.733 585.512 910.689 585.512 850H582.492C582.492 909.823 554.301 957.424 526.975 1003.47C499.408 1049.99 470.975 1097.95 470.975 1158.6Z" fill="#FBF9FF"/>
<path d="M491.233 1158.6C491.233 1219.25 519.665 1267.21 547.152 1313.65C574.457 1359.64 602.668 1407.26 602.668 1467.06C602.668 1526.86 574.457 1574.48 547.092 1620.54C532.533 1645.2 517.41 1670.71 506.818 1697.88L509.637 1698.96C520.209 1672.04 535.271 1646.61 549.911 1622.07C577.296 1575.67 605.689 1527.71 605.689 1467.06C605.689 1406.41 577.256 1358.45 549.75 1312.01C522.464 1265.98 494.253 1218.38 494.253 1158.56C494.253 1098.74 522.444 1051.14 549.75 1005.09C577.256 958.773 605.689 910.729 605.689 850.04H602.668C602.668 909.863 574.477 957.464 547.152 1003.51C519.665 1049.99 491.233 1097.95 491.233 1158.6Z" fill="#FBF9FF"/>
<path d="M511.49 1158.6C511.49 1219.25 539.923 1267.21 567.429 1313.65C594.714 1359.64 622.926 1407.26 622.926 1467.06C622.926 1526.86 594.734 1574.48 567.429 1620.54C552.79 1645.2 537.667 1670.71 526.955 1697.88L529.774 1698.96C540.366 1672.04 555.408 1646.61 570.047 1622.07C597.533 1575.75 625.966 1527.71 625.966 1467.02C625.966 1406.33 597.533 1358.41 570.047 1311.97C542.742 1265.94 514.53 1218.34 514.53 1158.52C514.53 1098.7 542.722 1051.1 570.047 1005.05C597.533 958.733 625.966 910.689 625.966 850H622.946C622.946 909.823 594.755 957.424 567.449 1003.47C539.923 1049.99 511.49 1097.95 511.49 1158.6Z" fill="#FBF9FF"/>
<path d="M531.747 1158.6C531.747 1219.25 560.18 1267.21 587.687 1313.65C614.972 1359.64 643.183 1407.26 643.183 1467.06C643.183 1526.86 614.972 1574.48 587.687 1620.54C573.068 1645.2 557.945 1670.71 547.273 1697.88L550.072 1698.96C560.664 1672.04 575.726 1646.61 590.345 1622.07C617.831 1575.75 646.264 1527.71 646.264 1467.02C646.264 1406.33 617.831 1358.41 590.345 1311.97C563.06 1265.94 534.828 1218.34 534.828 1158.52C534.828 1098.7 563.02 1051.1 590.345 1005.05C617.831 958.733 646.264 910.689 646.264 850H643.244C643.244 909.823 615.052 957.424 587.747 1003.47C560.18 1049.99 531.747 1097.95 531.747 1158.6Z" fill="#FBF9FF"/>
<path d="M587.787 1697.88L590.606 1698.96C601.178 1672.04 616.24 1646.61 630.88 1622.09C637.666 1610.63 644.693 1598.79 651.177 1586.93L648.519 1585.48C642.055 1597.3 635.048 1609.12 628.383 1620.53C613.542 1645.2 598.46 1670.71 587.787 1697.88Z" fill="#FBF9FF"/>
<path d="M608.045 1697.88L610.864 1698.96C621.436 1672.06 636.478 1646.61 651.137 1622.11L648.56 1620.54C633.82 1645.22 618.717 1670.73 608.045 1697.88Z" fill="#FBF9FF"/>
<path d="M628.303 1697.88L631.122 1698.96C636.884 1684.61 643.556 1670.63 651.097 1657.12L648.439 1655.67C640.837 1669.3 634.111 1683.39 628.303 1697.88V1697.88Z" fill="#FBF9FF"/>
<path d="M552.974 1163.6C552.974 1224.25 581.407 1272.21 608.894 1318.65C636.179 1364.68 664.41 1412.3 664.41 1472.1C664.41 1531.9 636.219 1579.52 608.894 1625.58C594.274 1650.2 579.152 1675.71 568.48 1702.88L571.299 1703.96C581.87 1677.04 596.933 1651.61 611.572 1627.07C639.078 1580.75 667.511 1532.71 667.511 1472.02C667.511 1411.33 639.078 1363.41 611.572 1316.97C584.287 1270.94 556.075 1223.34 556.075 1163.52C556.075 1103.7 584.267 1056.1 611.572 1010.05C639.078 963.733 667.511 915.689 667.511 855H664.491C664.491 914.823 636.3 962.424 608.974 1008.47C581.407 1054.99 552.974 1102.95 552.974 1163.6Z" fill="#FBF9FF"/>
<path d="M573.231 1163.6C573.231 1224.25 601.664 1272.21 629.15 1318.65C656.456 1364.68 684.667 1412.3 684.667 1472.1C684.667 1531.9 656.476 1579.52 629.15 1625.58C614.531 1650.2 599.409 1675.71 588.736 1702.88L591.556 1703.96C602.127 1677.04 617.189 1651.61 631.829 1627.07C659.335 1580.75 687.768 1532.71 687.768 1472.02C687.768 1411.33 659.335 1363.41 631.829 1316.97C604.544 1270.94 576.332 1223.34 576.332 1163.52C576.332 1103.7 604.523 1056.1 631.829 1010.05C659.335 963.733 687.768 915.689 687.768 855H684.748C684.748 914.823 656.556 962.424 629.231 1008.47C601.745 1054.99 573.231 1102.95 573.231 1163.6Z" fill="#FBF9FF"/>
<path d="M593.489 1163.6C593.489 1224.25 621.921 1272.21 649.408 1318.65C676.713 1364.68 704.924 1412.3 704.924 1472.1C704.924 1531.9 676.733 1579.52 649.428 1625.58C634.789 1650.2 619.666 1675.71 608.994 1702.88L611.813 1703.96C622.405 1677.04 637.447 1651.61 652.086 1627.07C679.573 1580.75 708.005 1532.71 708.005 1472.02C708.005 1411.33 679.573 1363.41 652.086 1316.97C624.781 1270.94 596.57 1223.34 596.57 1163.52C596.57 1103.7 624.761 1056.1 652.086 1010.05C679.573 963.733 708.005 915.689 708.005 855H704.985C704.985 914.823 676.794 962.424 649.468 1008.47C621.881 1054.99 593.489 1102.95 593.489 1163.6Z" fill="#FBF9FF"/>
<path d="M613.827 1163.6C613.827 1224.25 642.26 1272.21 669.766 1318.65C697.051 1364.68 725.263 1412.3 725.263 1472.1C725.263 1531.9 697.072 1579.52 669.766 1625.58C655.067 1650.2 640.005 1675.71 629.272 1702.88L632.071 1703.96C642.663 1677.04 657.725 1651.61 672.344 1627.07C699.83 1580.75 728.263 1532.71 728.263 1472.02C728.263 1411.33 699.83 1363.41 672.344 1316.97C645.059 1270.94 616.827 1223.34 616.827 1163.52C616.827 1103.7 645.019 1056.1 672.344 1010.05C699.83 963.733 728.263 915.689 728.263 855H725.243C725.243 914.823 697.051 962.424 669.746 1008.47C642.179 1054.99 613.827 1102.95 613.827 1163.6Z" fill="#FBF9FF"/>
<path d="M633.964 1163.6C633.964 1224.25 662.396 1272.21 689.903 1318.65C717.188 1364.68 745.399 1412.3 745.399 1472.1C745.399 1531.9 717.208 1579.52 689.903 1625.58C675.324 1650.2 660.141 1675.71 649.529 1702.88L652.328 1703.96C662.92 1677.04 677.982 1651.61 692.601 1627.07C720.088 1580.75 748.521 1532.71 748.521 1472.02C748.521 1411.33 720.088 1363.41 692.601 1316.97C665.316 1270.94 637.085 1223.34 637.085 1163.52C637.085 1103.7 665.276 1056.1 692.601 1010.05C720.088 963.733 748.521 915.689 748.521 855H745.5C745.5 914.823 717.309 962.424 690.004 1008.47C662.437 1054.99 633.964 1102.95 633.964 1163.6Z" fill="#FBF9FF"/>
<path d="M654.281 1163.6C654.281 1224.25 682.714 1272.21 710.2 1318.65C737.485 1364.68 765.717 1412.3 765.717 1472.1C765.717 1531.9 737.526 1579.52 710.2 1625.58C695.581 1650.2 680.459 1675.71 669.786 1702.88L672.585 1703.96C683.177 1677.04 698.239 1651.61 712.858 1627.07C740.365 1580.75 768.798 1532.71 768.798 1472.02C768.798 1411.33 740.365 1363.41 712.858 1316.97C685.573 1270.94 657.362 1223.34 657.362 1163.52C657.362 1103.7 685.553 1056.1 712.858 1010.05C740.365 963.733 768.798 915.689 768.798 855H765.777C765.777 914.823 737.586 962.424 710.261 1008.47C682.714 1054.99 654.281 1102.95 654.281 1163.6Z" fill="#FBF9FF"/>
<path d="M674.538 1163.6C674.538 1224.25 702.971 1272.21 730.458 1318.65C757.743 1364.68 785.974 1412.3 785.974 1472.1C785.974 1531.9 757.783 1579.52 730.458 1625.58C715.838 1650.2 700.716 1675.71 690.043 1702.88L692.863 1703.96C703.434 1677.04 718.496 1651.61 733.136 1627.07C760.642 1580.75 789.075 1532.71 789.075 1472.02C789.075 1411.33 760.642 1363.41 733.136 1316.97C705.851 1270.94 677.639 1223.34 677.639 1163.52C677.639 1103.7 705.831 1056.1 733.136 1010.05C760.642 963.733 789.075 915.689 789.075 855H786.055C786.055 914.823 757.864 962.424 730.538 1008.47C702.971 1054.99 674.538 1102.95 674.538 1163.6Z" fill="#FBF9FF"/>
<path d="M694.796 1163.6C694.796 1224.25 723.229 1272.21 750.715 1318.65C778.02 1364.68 806.232 1412.3 806.232 1472.1C806.232 1531.9 778.04 1579.52 750.715 1625.58C736.096 1650.2 720.973 1675.71 710.301 1702.88L713.12 1703.96C723.712 1677.04 738.754 1651.61 753.393 1627.07C780.88 1580.75 809.312 1532.71 809.312 1472.02C809.312 1411.33 780.88 1363.41 753.393 1316.97C726.088 1270.94 697.877 1223.34 697.877 1163.52C697.877 1103.7 726.068 1056.1 753.393 1010.05C780.88 963.733 809.312 915.689 809.312 855H806.292C806.292 914.823 778.101 962.424 750.775 1008.47C723.229 1054.99 694.796 1102.95 694.796 1163.6Z" fill="#FBF9FF"/>
<path d="M715.053 1163.6C715.053 1224.25 743.486 1272.21 770.992 1318.65C798.277 1364.68 826.489 1412.3 826.489 1472.1C826.489 1531.9 798.277 1579.48 770.891 1625.54C756.353 1650.2 741.23 1675.71 730.618 1702.88L733.437 1703.96C744.029 1677.04 759.091 1651.61 773.711 1627.07C801.197 1580.75 829.63 1532.71 829.63 1472.02C829.63 1411.33 801.197 1363.41 773.711 1316.97C746.405 1270.94 718.194 1223.34 718.194 1163.52C718.194 1103.7 746.385 1056.1 773.711 1010.05C801.197 963.733 829.63 915.689 829.63 855H826.609C826.609 914.823 798.418 962.424 771.113 1008.47C743.486 1054.99 715.053 1102.95 715.053 1163.6Z" fill="#FBF9FF"/>
<path d="M735.31 1163.6C735.31 1224.25 763.743 1272.21 791.25 1318.65C818.535 1364.68 846.746 1412.3 846.746 1472.1C846.746 1531.9 818.555 1579.52 791.25 1625.58C776.631 1650.2 761.508 1675.71 750.755 1702.88L753.554 1703.96C764.146 1677.04 779.208 1651.61 793.827 1627.07C821.314 1580.75 849.747 1532.71 849.747 1472.02C849.747 1411.33 821.314 1363.41 793.827 1316.97C766.542 1270.94 738.311 1223.34 738.311 1163.52C738.311 1103.7 766.502 1056.1 793.827 1010.05C821.314 963.733 849.747 915.689 849.747 855H846.726C846.726 914.823 818.535 962.424 791.23 1008.47C763.743 1054.99 735.31 1102.95 735.31 1163.6Z" fill="#FBF9FF"/>
<path d="M755.568 1163.6C755.568 1224.25 784.001 1272.21 811.507 1318.65C838.792 1364.68 867.004 1412.3 867.004 1472.1C867.004 1531.9 838.812 1579.52 811.507 1625.58C796.888 1650.2 781.765 1675.71 771.093 1702.88L773.892 1703.96C784.484 1677.04 799.546 1651.61 814.165 1627.07C841.672 1580.75 870.084 1532.71 870.084 1472.02C870.084 1411.33 841.652 1363.41 814.165 1316.97C786.88 1270.94 758.649 1223.34 758.649 1163.52C758.649 1103.7 786.84 1056.1 814.165 1010.05C841.652 963.733 870.084 915.689 870.084 855H867.064C867.064 914.823 838.873 962.424 811.568 1008.47C784.001 1054.99 755.568 1102.95 755.568 1163.6Z" fill="#FBF9FF"/>
<path d="M775.846 1163.6C775.846 1224.25 804.279 1272.21 831.765 1318.65C859.05 1364.68 887.282 1412.3 887.282 1472.1C887.282 1531.9 859.091 1579.52 831.765 1625.58C817.206 1650.2 802.023 1675.71 791.351 1702.88L794.17 1703.96C804.742 1677.04 819.804 1651.61 834.443 1627.07C861.95 1580.75 890.383 1532.71 890.383 1472.02C890.383 1411.33 861.95 1363.41 834.443 1316.97C807.138 1271.02 778.947 1223.42 778.947 1163.6C778.947 1103.78 807.138 1056.18 834.443 1010.13C861.95 963.813 890.383 915.77 890.383 855.08H887.362C887.362 914.904 859.171 962.505 831.846 1008.56C804.279 1054.99 775.846 1102.95 775.846 1163.6Z" fill="#FBF9FF"/>
<path d="M796.103 1163.6C796.103 1224.25 824.536 1272.21 852.022 1318.65C879.307 1364.68 907.539 1412.3 907.539 1472.1C907.539 1531.9 879.347 1579.52 852.022 1625.58C837.342 1650.2 822.28 1675.71 811.608 1702.88L814.427 1703.96C824.999 1677.04 840.061 1651.61 854.7 1627.07C882.207 1580.75 910.64 1532.71 910.64 1472.02C910.64 1411.33 882.207 1363.41 854.7 1316.97C827.274 1271.02 799.083 1223.42 799.083 1163.6C799.083 1103.78 827.274 1056.18 854.579 1010.13C882.086 963.813 910.519 915.77 910.519 855.08H907.498C907.498 914.904 879.307 962.505 851.982 1008.56C824.536 1054.99 796.103 1102.95 796.103 1163.6Z" fill="#FBF9FF"/>
<path d="M816.36 1163.6C816.36 1224.25 844.793 1272.21 872.3 1318.65C899.585 1364.68 927.796 1412.3 927.796 1472.1C927.796 1531.9 899.605 1579.52 872.3 1625.58C857.66 1650.2 842.538 1675.71 831.865 1702.88L834.685 1703.96C845.276 1677.04 860.318 1651.61 874.958 1627.07C902.444 1580.75 930.877 1532.71 930.877 1472.02C930.877 1411.33 902.444 1363.41 874.958 1316.97C847.652 1270.94 819.441 1223.34 819.441 1163.52C819.441 1103.7 847.632 1056.1 874.958 1010.05C902.444 963.733 930.877 915.689 930.877 855H927.856C927.856 914.823 899.665 962.424 872.36 1008.47C844.793 1054.99 816.36 1102.95 816.36 1163.6Z" fill="#FBF9FF"/>
<path d="M836.618 1163.6C836.618 1224.25 865.051 1272.21 892.557 1318.65C919.903 1364.64 948.094 1412.26 948.094 1472.06C948.094 1531.86 919.903 1579.48 892.598 1625.54C877.918 1650.2 862.816 1675.71 852.123 1702.88L854.942 1703.96C865.534 1677.04 880.596 1651.61 895.215 1627.07C922.702 1580.75 951.135 1532.71 951.135 1472.02C951.135 1411.33 922.702 1363.41 895.215 1316.97C867.93 1270.94 839.699 1223.34 839.699 1163.52C839.699 1103.7 867.89 1056.1 895.215 1010.05C922.702 963.733 951.135 915.689 951.135 855H948.094C948.094 914.823 919.903 962.424 892.598 1008.47C865.051 1054.99 836.618 1102.95 836.618 1163.6Z" fill="#FBF9FF"/>
<path d="M856.875 1163.6C856.875 1224.25 885.308 1272.21 912.815 1318.65C940.039 1364.64 968.231 1412.26 968.231 1472.06C968.231 1531.86 940.039 1579.48 912.734 1625.54C898.196 1650.2 883.073 1675.71 872.401 1702.88L875.2 1703.96C885.792 1677.04 900.854 1651.61 915.473 1627.07C942.959 1580.75 971.392 1532.71 971.392 1472.02C971.392 1411.33 942.959 1363.41 915.473 1316.97C888.188 1270.94 859.956 1223.34 859.956 1163.52C859.956 1103.7 888.147 1056.1 915.473 1010.05C942.959 963.733 971.392 915.689 971.392 855H968.231C968.231 914.823 940.039 962.424 912.734 1008.47C885.308 1054.99 856.875 1102.95 856.875 1163.6Z" fill="#FBF9FF"/>
<path d="M877.153 1163.6C877.153 1224.25 905.565 1272.21 933.072 1318.65C960.357 1364.68 988.589 1412.3 988.589 1472.1C988.589 1531.9 960.397 1579.52 933.072 1625.58C918.453 1650.2 903.33 1675.71 892.658 1702.88L895.457 1703.96C906.049 1677.04 921.111 1651.61 935.73 1627.07C963.237 1580.75 991.669 1532.71 991.669 1472.02C991.669 1411.33 963.237 1363.41 935.73 1316.97C908.445 1270.94 880.234 1223.34 880.234 1163.52C880.234 1103.7 908.425 1056.1 935.73 1010.05C963.237 963.733 991.669 915.689 991.669 855H988.649C988.649 914.823 960.458 962.424 933.132 1008.47C905.565 1054.99 877.153 1102.95 877.153 1163.6Z" fill="#FBF9FF"/>
<path d="M897.41 1163.6C897.41 1224.25 925.843 1272.21 953.33 1318.65C980.615 1364.68 1008.85 1412.3 1008.85 1472.1C1008.85 1531.9 980.655 1579.52 953.33 1625.58C938.711 1650.2 923.588 1675.71 912.916 1702.88L915.735 1703.96C926.306 1677.04 941.369 1651.61 956.008 1627.07C983.514 1580.75 1011.95 1532.71 1011.95 1472.02C1011.95 1411.33 983.514 1363.41 956.008 1316.97C928.723 1270.94 900.511 1223.34 900.511 1163.52C900.511 1103.7 928.703 1056.1 956.008 1010.05C983.514 963.733 1011.95 915.689 1011.95 855H1008.93C1008.93 914.823 980.736 962.424 953.41 1008.47C925.843 1054.99 897.41 1102.95 897.41 1163.6Z" fill="#FBF9FF"/>
<path d="M917.668 1163.6C917.668 1224.25 946.101 1272.21 973.587 1318.65C1000.89 1364.68 1029.1 1412.3 1029.1 1472.1C1029.1 1531.9 1000.91 1579.52 973.587 1625.58C958.968 1650.2 943.845 1675.71 933.173 1702.88L936.012 1703.96C946.584 1677.04 961.646 1651.61 976.285 1627.07C1003.77 1580.75 1032.2 1532.71 1032.2 1472.02C1032.2 1411.33 1003.77 1363.41 976.265 1316.97C948.98 1270.94 920.769 1223.34 920.769 1163.52C920.769 1103.7 948.96 1056.1 976.265 1010.05C1003.77 963.733 1032.2 915.689 1032.2 855H1029.18C1029.18 914.823 1000.99 962.424 973.668 1008.47C946.08 1054.99 917.668 1102.95 917.668 1163.6Z" fill="#FBF9FF"/>
<path d="M937.925 1163.6C937.925 1224.25 966.358 1272.21 993.864 1318.65C1021.15 1364.68 1049.36 1412.3 1049.36 1472.1C1049.36 1531.9 1021.17 1579.52 993.864 1625.58C979.225 1650.2 964.102 1675.71 953.43 1702.88L956.148 1703.96C966.74 1677.04 981.782 1651.61 996.422 1627.07C1023.91 1580.75 1052.34 1532.71 1052.34 1472.02C1052.34 1411.33 1023.91 1363.41 996.422 1316.97C969.116 1270.94 940.905 1223.34 940.905 1163.52C940.905 1103.7 969.096 1056.1 996.422 1010.05C1023.91 963.733 1052.34 915.689 1052.34 855H1049.32C1049.32 914.823 1021.13 962.424 993.824 1008.47C966.358 1054.99 937.925 1102.95 937.925 1163.6Z" fill="#FBF9FF"/>
<path d="M958.162 1163.6C958.162 1224.25 986.595 1272.21 1014.1 1318.65C1041.39 1364.68 1069.6 1412.3 1069.6 1472.1C1069.6 1531.9 1041.41 1579.52 1014.1 1625.58C999.503 1650.2 984.34 1675.71 973.708 1702.88L976.507 1703.96C987.099 1677.04 1002.16 1651.61 1016.78 1627.07C1044.27 1580.75 1072.7 1532.71 1072.7 1472.02C1072.7 1411.33 1044.27 1363.41 1016.78 1316.97C989.495 1270.94 961.263 1223.34 961.263 1163.52C961.263 1103.7 989.455 1056.1 1016.78 1010.05C1044.27 963.733 1072.7 915.689 1072.7 855H1069.68C1069.68 914.823 1041.49 962.424 1014.18 1008.47C986.615 1054.99 958.162 1102.95 958.162 1163.6Z" fill="#FBF9FF"/>
<path d="M978.44 1163.6C978.44 1224.25 1006.87 1272.21 1034.38 1318.65C1061.66 1364.68 1089.88 1412.3 1089.88 1472.1C1089.88 1531.9 1061.68 1579.52 1034.38 1625.58C1019.76 1650.2 1004.64 1675.71 993.965 1702.88L996.764 1703.96C1007.36 1677.04 1022.42 1651.61 1037.04 1627.07C1064.52 1580.75 1092.96 1532.71 1092.96 1472.02C1092.96 1411.33 1064.52 1363.41 1037.04 1316.97C1009.75 1270.94 981.521 1223.34 981.521 1163.52C981.521 1103.7 1009.71 1056.1 1037.04 1010.05C1064.52 963.733 1092.96 915.689 1092.96 855H1089.94C1089.94 914.823 1061.74 962.424 1034.44 1008.47C1006.87 1054.99 978.44 1102.95 978.44 1163.6Z" fill="#FBF9FF"/>
<path d="M998.718 1163.6C998.718 1224.25 1027.15 1272.21 1054.64 1318.65C1081.92 1364.68 1110.15 1412.3 1110.15 1472.1C1110.15 1531.9 1081.96 1579.52 1054.64 1625.58C1040.02 1650.2 1024.9 1675.71 1014.22 1702.88L1017.02 1703.96C1027.61 1677.04 1042.68 1651.61 1057.29 1627.07C1084.8 1580.75 1113.23 1532.71 1113.23 1472.02C1113.23 1411.33 1084.8 1363.41 1057.29 1316.97C1030.01 1270.94 1001.8 1223.34 1001.8 1163.52C1001.8 1103.7 1029.99 1056.1 1057.29 1010.05C1084.8 963.733 1113.23 915.689 1113.23 855H1110.21C1110.21 914.823 1082.02 962.424 1054.7 1008.47C1027.15 1054.99 998.718 1102.95 998.718 1163.6Z" fill="#FBF9FF"/>
<path d="M1018.97 1163.6C1018.97 1224.25 1047.41 1272.21 1074.89 1318.65C1102.18 1364.68 1130.41 1412.3 1130.41 1472.1C1130.41 1531.9 1102.18 1579.48 1074.95 1625.54C1060.27 1650.2 1045.15 1675.71 1034.48 1702.88L1037.3 1703.96C1047.87 1677.04 1062.93 1651.61 1077.57 1627.07C1105.08 1580.75 1133.51 1532.71 1133.51 1472.02C1133.51 1411.33 1105.08 1363.41 1077.57 1316.97C1050.29 1270.94 1022.08 1223.34 1022.08 1163.52C1022.08 1103.7 1050.27 1056.1 1077.57 1010.05C1105.08 963.733 1133.51 915.689 1133.51 855H1130.49C1130.49 914.823 1102.3 962.424 1074.97 1008.47C1047.41 1054.99 1018.97 1102.95 1018.97 1163.6Z" fill="#FBF9FF"/>
<path d="M1039.23 1163.6C1039.23 1224.25 1067.66 1272.21 1095.15 1318.65C1122.46 1364.64 1150.67 1412.26 1150.67 1472.06C1150.67 1531.86 1122.46 1579.48 1095.09 1625.54C1080.53 1650.2 1065.41 1675.71 1054.82 1702.88L1057.64 1703.96C1068.21 1677.04 1083.27 1651.61 1097.91 1627.07C1125.3 1580.67 1153.69 1532.71 1153.69 1472.06C1153.69 1411.41 1125.26 1363.45 1097.75 1317.01C1070.46 1270.98 1042.25 1223.38 1042.25 1163.56C1042.25 1103.74 1070.44 1056.14 1097.75 1010.09C1125.26 963.773 1153.69 915.729 1153.69 855.04H1150.67C1150.67 914.863 1122.48 962.464 1095.15 1008.51C1067.66 1054.99 1039.23 1102.95 1039.23 1163.6Z" fill="#FBF9FF"/>
<path d="M1059.49 1163.6C1059.49 1224.25 1087.92 1272.21 1115.43 1318.65C1142.71 1364.64 1170.93 1412.26 1170.93 1472.06C1170.93 1531.86 1142.73 1579.48 1115.43 1625.54C1100.79 1650.2 1085.67 1675.71 1074.95 1702.88L1077.77 1703.96C1088.37 1677.04 1103.41 1651.61 1118.05 1627.07C1145.53 1580.75 1173.97 1532.71 1173.97 1472.02C1173.97 1411.33 1145.53 1363.41 1118.05 1316.97C1090.74 1270.94 1062.53 1223.34 1062.53 1163.52C1062.53 1103.7 1090.72 1056.1 1118.05 1010.05C1145.53 963.733 1173.97 915.689 1173.97 855H1170.95C1170.95 914.823 1142.75 962.424 1115.45 1008.47C1087.92 1054.99 1059.49 1102.95 1059.49 1163.6Z" fill="#FBF9FF"/>
<path d="M1079.75 1163.6C1079.75 1224.25 1108.18 1272.21 1135.69 1318.65C1162.97 1364.64 1191.18 1412.26 1191.18 1472.06C1191.18 1531.86 1162.97 1579.48 1135.69 1625.54C1121.07 1650.2 1105.94 1675.71 1095.27 1702.88L1098.07 1703.96C1108.66 1677.04 1123.73 1651.61 1138.34 1627.07C1165.83 1580.75 1194.26 1532.71 1194.26 1472.02C1194.26 1411.33 1165.83 1363.41 1138.34 1316.97C1111.06 1270.94 1082.83 1223.34 1082.83 1163.52C1082.83 1103.7 1111.02 1056.1 1138.34 1010.05C1165.83 963.733 1194.26 915.689 1194.26 855H1191.24C1191.24 914.823 1163.05 962.424 1135.75 1008.47C1108.18 1054.99 1079.75 1102.95 1079.75 1163.6Z" fill="#FBF9FF"/>
<path d="M1135.79 1702.88L1138.61 1703.96C1149.18 1677.04 1164.24 1651.61 1178.88 1627.09C1185.67 1615.63 1192.69 1603.79 1199.18 1591.93L1196.52 1590.48C1190.05 1602.3 1183.05 1614.12 1176.38 1625.53C1161.54 1650.2 1146.46 1675.71 1135.79 1702.88Z" fill="#FBF9FF"/>
<path d="M1156.04 1702.88L1158.86 1703.96C1169.44 1677.06 1184.48 1651.61 1199.14 1627.11L1196.56 1625.54C1181.82 1650.22 1166.72 1675.73 1156.04 1702.88Z" fill="#FBF9FF"/>
<path d="M1176.3 1702.88L1179.12 1703.96C1184.88 1689.61 1191.56 1675.63 1199.1 1662.12L1196.44 1660.67C1188.84 1674.3 1182.11 1688.39 1176.3 1702.88V1702.88Z" fill="#FBF9FF"/>
<path d="M4.97483 545.363C4.97483 484.714 33.4077 436.751 60.8941 390.318C88.1792 344.288 116.411 296.667 116.411 236.863C116.411 177.06 88.2194 129.439 60.8941 83.3885C46.2749 58.7625 31.1524 33.2505 20.48 6.08733L23.2991 5C33.8708 31.9215 48.933 57.353 63.5723 81.8985C91.0789 128.211 119.512 176.255 119.512 236.944C119.512 297.633 91.0789 345.556 63.5723 391.989C36.2872 438.02 8.07588 485.621 8.07588 545.444C8.07588 605.267 36.2671 652.868 63.5723 698.919C91.0789 745.231 119.512 793.275 119.512 853.964H116.491C116.491 794.141 88.3 746.54 60.9747 700.489C33.4077 653.976 4.97483 606.012 4.97483 545.363Z" fill="#FBF9FF"/>
<path d="M25.2317 545.363C25.2317 484.714 53.6645 436.751 81.151 390.318C108.456 344.288 136.668 296.667 136.668 236.863C136.668 177.06 108.476 129.439 81.151 83.3885C66.5318 58.7625 51.4093 33.2505 40.7369 6.08733L43.556 5C54.1277 31.9215 69.1899 57.353 83.8291 81.8985C111.336 128.211 139.769 176.255 139.769 236.944C139.769 297.633 111.336 345.556 83.8291 391.989C56.5441 438.02 28.3328 485.621 28.3328 545.444C28.3328 605.267 56.524 652.868 83.8291 698.919C111.336 745.231 139.769 793.275 139.769 853.964H136.748C136.748 794.141 108.557 746.54 81.2315 700.489C53.7451 653.976 25.2317 606.012 25.2317 545.363Z" fill="#FBF9FF"/>
<path d="M45.4891 545.363C45.4891 484.714 73.922 436.751 101.408 390.318C128.714 344.288 156.925 296.667 156.925 236.863C156.925 177.06 128.734 129.439 101.429 83.3885C86.7892 58.7625 71.6667 33.2505 60.9943 6.08733L63.8134 5C74.4053 31.9215 89.4473 57.353 104.087 81.8985C131.573 128.211 160.006 176.255 160.006 236.944C160.006 297.633 131.573 345.556 104.087 391.989C76.7814 438.02 48.57 485.621 48.57 545.444C48.57 605.267 76.7612 652.868 104.087 698.919C131.573 745.231 160.006 793.275 160.006 853.964H156.985C156.985 794.141 128.794 746.54 101.469 700.489C73.8817 653.976 45.4891 606.012 45.4891 545.363Z" fill="#FBF9FF"/>
<path d="M65.8272 545.363C65.8272 484.714 94.2601 436.751 121.767 390.318C149.052 344.288 177.263 296.667 177.263 236.863C177.263 177.06 149.072 129.439 121.767 83.3885C107.067 58.7625 92.0048 33.2505 81.272 6.08733L84.071 5C94.6628 31.9215 109.725 57.353 124.344 81.8985C151.831 128.211 180.263 176.255 180.263 236.944C180.263 297.633 151.831 345.556 124.344 391.989C97.0591 438.02 68.8276 485.621 68.8276 545.444C68.8276 605.267 97.0188 652.868 124.344 698.919C151.831 745.231 180.263 793.275 180.263 853.964H177.243C177.243 794.141 149.052 746.54 121.747 700.489C94.1795 653.976 65.8272 606.012 65.8272 545.363Z" fill="#FBF9FF"/>
<path d="M85.964 545.363C85.964 484.714 114.397 436.751 141.903 390.318C169.188 344.288 197.4 296.667 197.4 236.863C197.4 177.06 169.209 129.439 141.903 83.3885C127.325 58.7625 112.142 33.2505 101.53 6.08733L104.329 5C114.92 31.9215 129.983 57.353 144.602 81.8985C172.088 128.211 200.521 176.255 200.521 236.944C200.521 297.633 172.088 345.556 144.602 391.989C117.317 438.02 89.0852 485.621 89.0852 545.444C89.0852 605.267 117.276 652.868 144.602 698.919C172.088 745.231 200.521 793.275 200.521 853.964H197.501C197.501 794.141 169.309 746.54 142.004 700.489C114.437 653.976 85.964 606.012 85.964 545.363Z" fill="#FBF9FF"/>
<path d="M106.282 545.363C106.282 484.714 134.715 436.751 162.201 390.318C189.486 344.288 217.718 296.667 217.718 236.863C217.718 177.06 189.527 129.439 162.201 83.3885C147.582 58.7625 132.46 33.2505 121.787 6.08733L124.586 5C135.178 31.9215 150.24 57.353 164.859 81.8985C192.366 128.211 220.799 176.255 220.799 236.944C220.799 297.633 192.366 345.556 164.859 391.989C137.574 438.02 109.363 485.621 109.363 545.444C109.363 605.267 137.554 652.868 164.859 698.919C192.366 745.231 220.799 793.275 220.799 853.964H217.778C217.778 794.141 189.587 746.54 162.262 700.489C134.715 653.976 106.282 606.012 106.282 545.363Z" fill="#FBF9FF"/>
<path d="M126.539 545.363C126.539 484.714 154.972 436.751 182.458 390.318C209.743 344.288 237.975 296.667 237.975 236.863C237.975 177.06 209.783 129.439 182.458 83.3885C167.839 58.7625 152.716 33.2505 142.044 6.08733L144.863 5C155.435 31.9215 170.497 57.353 185.136 81.8985C212.643 128.211 241.076 176.255 241.076 236.944C241.076 297.633 212.643 345.556 185.136 391.989C157.851 438.02 129.64 485.621 129.64 545.444C129.64 605.267 157.831 652.868 185.136 698.919C212.643 745.231 241.076 793.275 241.076 853.964H238.055C238.055 794.141 209.864 746.54 182.539 700.489C154.972 653.976 126.539 606.012 126.539 545.363Z" fill="#FBF9FF"/>
<path d="M146.796 545.363C146.796 484.714 175.229 436.751 202.715 390.318C230.021 344.288 258.232 296.667 258.232 236.863C258.232 177.06 230.041 129.439 202.715 83.3885C188.096 58.7625 172.974 33.2505 162.301 6.08733L165.12 5C175.712 31.9215 190.754 57.353 205.394 81.8985C232.88 128.211 261.313 176.255 261.313 236.944C261.313 297.633 232.88 345.556 205.394 391.989C178.088 438.02 149.877 485.621 149.877 545.444C149.877 605.267 178.068 652.868 205.394 698.919C232.88 745.231 261.313 793.275 261.313 853.964H258.292C258.292 794.141 230.101 746.54 202.776 700.489C175.229 653.976 146.796 606.012 146.796 545.363Z" fill="#FBF9FF"/>
<path d="M167.054 545.363C167.054 484.714 195.487 436.751 222.993 390.318C250.278 344.288 278.49 296.667 278.49 236.863C278.49 177.06 250.278 129.479 222.892 83.4288C208.354 58.7625 193.231 33.2505 182.619 6.08733L185.438 5C196.03 31.9215 211.092 57.353 225.712 81.8985C253.198 128.211 281.631 176.255 281.631 236.944C281.631 297.633 253.198 345.556 225.712 391.989C198.406 438.02 170.195 485.621 170.195 545.444C170.195 605.267 198.386 652.868 225.712 698.919C253.198 745.231 281.631 793.275 281.631 853.964H278.61C278.61 794.141 250.419 746.54 223.114 700.489C195.487 653.976 167.054 606.012 167.054 545.363Z" fill="#FBF9FF"/>
<path d="M187.311 545.363C187.311 484.714 215.744 436.751 243.25 390.318C270.535 344.288 298.747 296.667 298.747 236.863C298.747 177.06 270.555 129.439 243.25 83.3885C228.631 58.7625 213.509 33.2505 202.756 6.08733L205.555 5C216.146 31.9215 231.209 57.353 245.828 81.8985C273.314 128.211 301.747 176.255 301.747 236.944C301.747 297.633 273.314 345.556 245.828 391.989C218.543 438.02 190.311 485.621 190.311 545.444C190.311 605.267 218.502 652.868 245.828 698.919C273.314 745.231 301.747 793.275 301.747 853.964H298.727C298.727 794.141 270.535 746.54 243.23 700.489C215.744 653.976 187.311 606.012 187.311 545.363Z" fill="#FBF9FF"/>
<path d="M207.568 545.363C207.568 484.714 236.001 436.751 263.508 390.318C290.793 344.288 319.004 296.667 319.004 236.863C319.004 177.06 290.813 129.439 263.508 83.3885C248.889 58.7625 233.766 33.2505 223.094 6.08733L225.893 5C236.484 31.9215 251.547 57.353 266.166 81.8985C293.672 128.211 322.085 176.255 322.085 236.944C322.085 297.633 293.652 345.556 266.166 391.989C238.881 438.02 210.649 485.621 210.649 545.444C210.649 605.267 238.84 652.868 266.166 698.919C293.652 745.231 322.085 793.275 322.085 853.964H319.064C319.064 794.141 290.873 746.54 263.568 700.489C236.001 653.976 207.568 606.012 207.568 545.363Z" fill="#FBF9FF"/>
<path d="M227.846 545.363C227.846 484.714 256.279 436.751 283.766 390.318C311.051 344.288 339.282 296.667 339.282 236.863C339.282 177.06 311.091 129.439 283.766 83.3885C269.207 58.7625 254.024 33.2505 243.352 6.08733L246.171 5C256.742 31.9215 271.805 57.353 286.444 81.8985C313.95 128.211 342.383 176.255 342.383 236.944C342.383 297.633 313.95 345.556 286.444 391.989C259.139 437.939 230.947 485.54 230.947 545.363C230.947 605.187 259.139 652.788 286.444 698.838C313.95 745.15 342.383 793.194 342.383 853.884H339.363C339.363 794.06 311.172 746.459 283.846 700.409C256.279 653.976 227.846 606.012 227.846 545.363Z" fill="#FBF9FF"/>
<path d="M248.103 545.363C248.103 484.714 276.536 436.751 304.023 390.318C331.308 344.288 359.539 296.667 359.539 236.863C359.539 177.06 331.348 129.439 304.023 83.3885C289.343 58.7625 274.281 33.2505 263.608 6.08733L266.428 5C276.999 31.9215 292.061 57.353 306.701 81.8985C334.207 128.211 362.64 176.255 362.64 236.944C362.64 297.633 334.207 345.556 306.701 391.989C279.275 437.939 251.083 485.54 251.083 545.363C251.083 605.187 279.275 652.788 306.58 698.838C334.086 745.15 362.519 793.194 362.519 853.884H359.499C359.499 794.06 331.308 746.459 303.982 700.409C276.536 653.976 248.103 606.012 248.103 545.363Z" fill="#FBF9FF"/>
<path d="M268.361 545.363C268.361 484.714 296.794 436.751 324.3 390.318C351.585 344.288 379.797 296.667 379.797 236.863C379.797 177.06 351.605 129.439 324.3 83.3885C309.661 58.7625 294.538 33.2505 283.866 6.08733L286.685 5C297.277 31.9215 312.319 57.353 326.958 81.8985C354.445 128.211 382.877 176.255 382.877 236.944C382.877 297.633 354.445 345.556 326.958 391.989C299.653 438.02 271.442 485.621 271.442 545.444C271.442 605.267 299.633 652.868 326.958 698.919C354.445 745.231 382.877 793.275 382.877 853.964H379.857C379.857 794.141 351.666 746.54 324.361 700.489C296.794 653.976 268.361 606.012 268.361 545.363Z" fill="#FBF9FF"/>
<path d="M288.619 545.363C288.619 484.714 317.051 436.751 344.558 390.318C371.903 344.328 400.095 296.707 400.095 236.904C400.095 177.1 371.903 129.479 344.598 83.4288C329.919 58.7625 314.816 33.2505 304.124 6.08733L306.943 5C317.535 31.9215 332.597 57.353 347.216 81.8985C374.702 128.211 403.135 176.255 403.135 236.944C403.135 297.633 374.702 345.556 347.216 391.989C319.931 438.02 291.699 485.621 291.699 545.444C291.699 605.267 319.891 652.868 347.216 698.919C374.702 745.231 403.135 793.275 403.135 853.964H400.095C400.095 794.141 371.903 746.54 344.598 700.489C317.051 653.976 288.619 606.012 288.619 545.363Z" fill="#FBF9FF"/>
<path d="M308.876 545.363C308.876 484.714 337.309 436.751 364.815 390.318C392.04 344.328 420.231 296.707 420.231 236.904C420.231 177.1 392.04 129.479 364.735 83.4288C350.196 58.7625 335.074 33.2505 324.401 6.08733L327.2 5C337.792 31.9215 352.854 57.353 367.473 81.8985C394.96 128.211 423.393 176.255 423.393 236.944C423.393 297.633 394.96 345.556 367.473 391.989C340.188 438.02 311.957 485.621 311.957 545.444C311.957 605.267 340.148 652.868 367.473 698.919C394.96 745.231 423.393 793.275 423.393 853.964H420.231C420.231 794.141 392.04 746.54 364.735 700.489C337.309 653.976 308.876 606.012 308.876 545.363Z" fill="#FBF9FF"/>
<path d="M329.153 545.363C329.153 484.714 357.566 436.751 385.072 390.318C412.358 344.288 440.589 296.667 440.589 236.863C440.589 177.06 412.398 129.439 385.072 83.3885C370.453 58.7625 355.331 33.2505 344.658 6.08733L347.457 5C358.049 31.9215 373.111 57.353 387.73 81.8985C415.237 128.211 443.67 176.255 443.67 236.944C443.67 297.633 415.237 345.556 387.73 391.989C360.445 438.02 332.234 485.621 332.234 545.444C332.234 605.267 360.425 652.868 387.73 698.919C415.237 745.231 443.67 793.275 443.67 853.964H440.649C440.649 794.141 412.458 746.54 385.133 700.489C357.566 653.976 329.153 606.012 329.153 545.363Z" fill="#FBF9FF"/>
<path d="M349.411 545.363C349.411 484.714 377.844 436.751 405.33 390.318C432.615 344.288 460.847 296.667 460.847 236.863C460.847 177.06 432.656 129.439 405.33 83.3885C390.711 58.7625 375.588 33.2505 364.916 6.08733L367.735 5C378.307 31.9215 393.369 57.353 408.008 81.8985C435.515 128.211 463.948 176.255 463.948 236.944C463.948 297.633 435.515 345.556 408.008 391.989C380.723 438.02 352.512 485.621 352.512 545.444C352.512 605.267 380.703 652.868 408.008 698.919C435.515 745.231 463.948 793.275 463.948 853.964H460.927C460.927 794.141 432.736 746.54 405.411 700.489C377.844 653.976 349.411 606.012 349.411 545.363Z" fill="#FBF9FF"/>
<path d="M369.668 545.363C369.668 484.714 398.101 436.751 425.588 390.318C452.893 344.288 481.104 296.667 481.104 236.863C481.104 177.06 452.913 129.439 425.588 83.3885C410.968 58.7625 395.846 33.2505 385.173 6.08733L388.013 5C398.584 31.9215 413.647 57.353 428.286 81.8985C455.772 128.211 484.205 176.255 484.205 236.944C484.205 297.633 455.772 345.556 428.266 391.989C400.981 438.02 372.769 485.621 372.769 545.444C372.769 605.267 400.96 652.868 428.266 698.919C455.772 745.231 484.205 793.275 484.205 853.964H481.185C481.185 794.141 452.993 746.54 425.668 700.489C398.081 653.976 369.668 606.012 369.668 545.363Z" fill="#FBF9FF"/>
<path d="M389.925 545.363C389.925 484.714 418.358 436.751 445.865 390.318C473.15 344.288 501.361 296.667 501.361 236.863C501.361 177.06 473.17 129.439 445.865 83.3885C431.225 58.7625 416.103 33.2505 405.43 6.08733L408.149 5C418.741 31.9215 433.783 57.353 448.422 81.8985C475.908 128.211 504.341 176.255 504.341 236.944C504.341 297.633 475.908 345.556 448.422 391.989C421.117 438.02 392.905 485.621 392.905 545.444C392.905 605.267 421.097 652.868 448.422 698.919C475.908 745.231 504.341 793.275 504.341 853.964H501.321C501.321 794.141 473.13 746.54 445.824 700.489C418.358 653.976 389.925 606.012 389.925 545.363Z" fill="#FBF9FF"/>
<path d="M410.163 545.363C410.163 484.714 438.596 436.751 466.102 390.318C493.387 344.288 521.599 296.667 521.599 236.863C521.599 177.06 493.407 129.439 466.102 83.3885C451.503 58.7625 436.34 33.2505 425.708 6.08733L428.507 5C439.099 31.9215 454.161 57.353 468.78 81.8985C496.267 128.211 524.7 176.255 524.7 236.944C524.7 297.633 496.267 345.556 468.78 391.989C441.495 438.02 413.264 485.621 413.264 545.444C413.264 605.267 441.455 652.868 468.78 698.919C496.267 745.231 524.7 793.275 524.7 853.964H521.679C521.679 794.141 493.488 746.54 466.183 700.489C438.616 653.976 410.163 606.012 410.163 545.363Z" fill="#FBF9FF"/>
<path d="M430.44 545.363C430.44 484.714 458.873 436.751 486.38 390.318C513.665 344.288 541.876 296.667 541.876 236.863C541.876 177.06 513.685 129.439 486.38 83.3885C471.761 58.7625 456.638 33.2505 445.966 6.08733L448.765 5C459.356 31.9215 474.419 57.353 489.038 81.8985C516.524 128.211 544.957 176.255 544.957 236.944C544.957 297.633 516.524 345.556 489.038 391.989C461.753 438.02 433.521 485.621 433.521 545.444C433.521 605.267 461.712 652.868 489.038 698.919C516.524 745.231 544.957 793.275 544.957 853.964H541.937C541.937 794.141 513.745 746.54 486.44 700.489C458.873 653.976 430.44 606.012 430.44 545.363Z" fill="#FBF9FF"/>
<path d="M450.718 545.363C450.718 484.714 479.151 436.751 506.637 390.318C533.922 344.288 562.154 296.667 562.154 236.863C562.154 177.06 533.963 129.439 506.637 83.3885C492.018 58.7625 476.896 33.2505 466.223 6.08733L469.022 5C479.614 31.9215 494.676 57.353 509.295 81.8985C536.802 128.211 565.235 176.255 565.235 236.944C565.235 297.633 536.802 345.556 509.295 391.989C482.01 438.02 453.799 485.621 453.799 545.444C453.799 605.267 481.99 652.868 509.295 698.919C536.802 745.231 565.235 793.275 565.235 853.964H562.214C562.214 794.141 534.023 746.54 506.698 700.489C479.151 653.976 450.718 606.012 450.718 545.363Z" fill="#FBF9FF"/>
<path d="M470.975 545.363C470.975 484.714 499.408 436.751 526.895 390.318C554.18 344.288 582.411 296.667 582.411 236.863C582.411 177.06 554.18 129.479 526.955 83.4288C512.275 58.7625 497.153 33.2505 486.481 6.08733L489.3 5C499.871 31.9215 514.933 57.353 529.573 81.8985C557.079 128.211 585.512 176.255 585.512 236.944C585.512 297.633 557.079 345.556 529.573 391.989C502.288 438.02 474.076 485.621 474.076 545.444C474.076 605.267 502.268 652.868 529.573 698.919C557.079 745.231 585.512 793.275 585.512 853.964H582.492C582.492 794.141 554.301 746.54 526.975 700.489C499.408 653.976 470.975 606.012 470.975 545.363Z" fill="#FBF9FF"/>
<path d="M491.233 545.363C491.233 484.714 519.665 436.751 547.152 390.318C574.457 344.328 602.668 296.707 602.668 236.904C602.668 177.1 574.457 129.479 547.092 83.4288C532.533 58.7625 517.41 33.2505 506.818 6.08733L509.637 5C520.209 31.9215 535.271 57.353 549.911 81.8985C577.296 128.291 605.689 176.255 605.689 236.904C605.689 297.553 577.256 345.516 549.75 391.949C522.464 437.979 494.253 485.58 494.253 545.404C494.253 605.227 522.444 652.828 549.75 698.878C577.256 745.191 605.689 793.235 605.689 853.924H602.668C602.668 794.1 574.477 746.499 547.152 700.449C519.665 653.976 491.233 606.012 491.233 545.363Z" fill="#FBF9FF"/>
<path d="M511.49 545.363C511.49 484.714 539.923 436.751 567.429 390.318C594.714 344.328 622.926 296.707 622.926 236.904C622.926 177.1 594.734 129.479 567.429 83.4288C552.79 58.7625 537.667 33.2505 526.955 6.08733L529.774 5C540.366 31.9215 555.408 57.353 570.047 81.8985C597.533 128.211 625.966 176.255 625.966 236.944C625.966 297.633 597.533 345.556 570.047 391.989C542.742 438.02 514.53 485.621 514.53 545.444C514.53 605.267 542.722 652.868 570.047 698.919C597.533 745.231 625.966 793.275 625.966 853.964H622.946C622.946 794.141 594.755 746.54 567.449 700.489C539.923 653.976 511.49 606.012 511.49 545.363Z" fill="#FBF9FF"/>
<path d="M531.747 545.363C531.747 484.714 560.18 436.751 587.687 390.318C614.972 344.328 643.183 296.707 643.183 236.904C643.183 177.1 614.972 129.479 587.687 83.4288C573.068 58.7625 557.945 33.2505 547.273 6.08733L550.072 5C560.664 31.9215 575.726 57.353 590.345 81.8985C617.831 128.211 646.264 176.255 646.264 236.944C646.264 297.633 617.831 345.556 590.345 391.989C563.06 438.02 534.828 485.621 534.828 545.444C534.828 605.267 563.02 652.868 590.345 698.919C617.831 745.231 646.264 793.275 646.264 853.964H643.244C643.244 794.141 615.052 746.54 587.747 700.489C560.18 653.976 531.747 606.012 531.747 545.363Z" fill="#FBF9FF"/>
<path d="M587.787 6.08758L590.606 5.00024C601.178 31.9218 616.24 57.3532 630.88 81.8786C637.666 93.3358 644.693 105.176 651.177 117.036L648.519 118.485C642.055 106.666 635.048 94.846 628.383 83.429C613.542 58.7627 598.46 33.2507 587.787 6.08758Z" fill="#FBF9FF"/>
<path d="M608.045 6.08733L610.864 5C621.436 31.9014 636.478 57.353 651.137 81.8582L648.56 83.4288C633.82 58.7424 618.717 33.2303 608.045 6.08733Z" fill="#FBF9FF"/>
<path d="M628.303 6.08758L631.122 5.00024C636.884 19.3578 643.556 33.3335 651.097 46.8424L648.439 48.2921C640.837 34.6663 634.111 20.5695 628.303 6.08758V6.08758Z" fill="#FBF9FF"/>
<path d="M552.974 540.363C552.974 479.714 581.407 431.751 608.894 385.318C636.179 339.288 664.41 291.667 664.41 231.863C664.41 172.06 636.219 124.439 608.894 78.3885C594.274 53.7625 579.152 28.2505 568.48 1.08733L571.299 0C581.87 26.9215 596.933 52.353 611.572 76.8985C639.078 123.211 667.511 171.255 667.511 231.944C667.511 292.633 639.078 340.556 611.572 386.989C584.287 433.02 556.075 480.621 556.075 540.444C556.075 600.267 584.267 647.868 611.572 693.919C639.078 740.231 667.511 788.275 667.511 848.964H664.491C664.491 789.141 636.3 741.54 608.974 695.489C581.407 648.976 552.974 601.012 552.974 540.363Z" fill="#FBF9FF"/>
<path d="M573.231 540.363C573.231 479.714 601.664 431.751 629.15 385.318C656.456 339.288 684.667 291.667 684.667 231.863C684.667 172.06 656.476 124.439 629.15 78.3885C614.531 53.7625 599.409 28.2505 588.736 1.08733L591.556 0C602.127 26.9215 617.189 52.353 631.829 76.8985C659.335 123.211 687.768 171.255 687.768 231.944C687.768 292.633 659.335 340.556 631.829 386.989C604.544 433.02 576.332 480.621 576.332 540.444C576.332 600.267 604.523 647.868 631.829 693.919C659.335 740.231 687.768 788.275 687.768 848.964H684.748C684.748 789.141 656.556 741.54 629.231 695.489C601.745 648.976 573.231 601.012 573.231 540.363Z" fill="#FBF9FF"/>
<path d="M593.489 540.363C593.489 479.714 621.921 431.751 649.408 385.318C676.713 339.288 704.924 291.667 704.924 231.863C704.924 172.06 676.733 124.439 649.428 78.3885C634.789 53.7625 619.666 28.2505 608.994 1.08733L611.813 0C622.405 26.9215 637.447 52.353 652.086 76.8985C679.573 123.211 708.005 171.255 708.005 231.944C708.005 292.633 679.573 340.556 652.086 386.989C624.781 433.02 596.57 480.621 596.57 540.444C596.57 600.267 624.761 647.868 652.086 693.919C679.573 740.231 708.005 788.275 708.005 848.964H704.985C704.985 789.141 676.794 741.54 649.468 695.489C621.881 648.976 593.489 601.012 593.489 540.363Z" fill="#FBF9FF"/>
<path d="M613.827 540.363C613.827 479.714 642.26 431.751 669.766 385.318C697.051 339.288 725.263 291.667 725.263 231.863C725.263 172.06 697.072 124.439 669.766 78.3885C655.067 53.7625 640.005 28.2505 629.272 1.08733L632.071 0C642.663 26.9215 657.725 52.353 672.344 76.8985C699.83 123.211 728.263 171.255 728.263 231.944C728.263 292.633 699.83 340.556 672.344 386.989C645.059 433.02 616.827 480.621 616.827 540.444C616.827 600.267 645.019 647.868 672.344 693.919C699.83 740.231 728.263 788.275 728.263 848.964H725.243C725.243 789.141 697.051 741.54 669.746 695.489C642.179 648.976 613.827 601.012 613.827 540.363Z" fill="#FBF9FF"/>
<path d="M633.964 540.363C633.964 479.714 662.396 431.751 689.903 385.318C717.188 339.288 745.399 291.667 745.399 231.863C745.399 172.06 717.208 124.439 689.903 78.3885C675.324 53.7625 660.141 28.2505 649.529 1.08733L652.328 0C662.92 26.9215 677.982 52.353 692.601 76.8985C720.088 123.211 748.521 171.255 748.521 231.944C748.521 292.633 720.088 340.556 692.601 386.989C665.316 433.02 637.085 480.621 637.085 540.444C637.085 600.267 665.276 647.868 692.601 693.919C720.088 740.231 748.521 788.275 748.521 848.964H745.5C745.5 789.141 717.309 741.54 690.004 695.489C662.437 648.976 633.964 601.012 633.964 540.363Z" fill="#FBF9FF"/>
<path d="M654.281 540.363C654.281 479.714 682.714 431.751 710.2 385.318C737.485 339.288 765.717 291.667 765.717 231.863C765.717 172.06 737.526 124.439 710.2 78.3885C695.581 53.7625 680.459 28.2505 669.786 1.08733L672.585 0C683.177 26.9215 698.239 52.353 712.858 76.8985C740.365 123.211 768.798 171.255 768.798 231.944C768.798 292.633 740.365 340.556 712.858 386.989C685.573 433.02 657.362 480.621 657.362 540.444C657.362 600.267 685.553 647.868 712.858 693.919C740.365 740.231 768.798 788.275 768.798 848.964H765.777C765.777 789.141 737.586 741.54 710.261 695.489C682.714 648.976 654.281 601.012 654.281 540.363Z" fill="#FBF9FF"/>
<path d="M674.538 540.363C674.538 479.714 702.971 431.751 730.458 385.318C757.743 339.288 785.974 291.667 785.974 231.863C785.974 172.06 757.783 124.439 730.458 78.3885C715.838 53.7625 700.716 28.2505 690.043 1.08733L692.863 0C703.434 26.9215 718.496 52.353 733.136 76.8985C760.642 123.211 789.075 171.255 789.075 231.944C789.075 292.633 760.642 340.556 733.136 386.989C705.851 433.02 677.639 480.621 677.639 540.444C677.639 600.267 705.831 647.868 733.136 693.919C760.642 740.231 789.075 788.275 789.075 848.964H786.055C786.055 789.141 757.864 741.54 730.538 695.489C702.971 648.976 674.538 601.012 674.538 540.363Z" fill="#FBF9FF"/>
<path d="M694.796 540.363C694.796 479.714 723.229 431.751 750.715 385.318C778.02 339.288 806.232 291.667 806.232 231.863C806.232 172.06 778.04 124.439 750.715 78.3885C736.096 53.7625 720.973 28.2505 710.301 1.08733L713.12 0C723.712 26.9215 738.754 52.353 753.393 76.8985C780.88 123.211 809.312 171.255 809.312 231.944C809.312 292.633 780.88 340.556 753.393 386.989C726.088 433.02 697.877 480.621 697.877 540.444C697.877 600.267 726.068 647.868 753.393 693.919C780.88 740.231 809.312 788.275 809.312 848.964H806.292C806.292 789.141 778.101 741.54 750.775 695.489C723.229 648.976 694.796 601.012 694.796 540.363Z" fill="#FBF9FF"/>
<path d="M715.053 540.363C715.053 479.714 743.486 431.751 770.992 385.318C798.277 339.288 826.489 291.667 826.489 231.863C826.489 172.06 798.277 124.479 770.891 78.4288C756.353 53.7625 741.23 28.2505 730.618 1.08733L733.437 0C744.029 26.9215 759.091 52.353 773.711 76.8985C801.197 123.211 829.63 171.255 829.63 231.944C829.63 292.633 801.197 340.556 773.711 386.989C746.405 433.02 718.194 480.621 718.194 540.444C718.194 600.267 746.385 647.868 773.711 693.919C801.197 740.231 829.63 788.275 829.63 848.964H826.609C826.609 789.141 798.418 741.54 771.113 695.489C743.486 648.976 715.053 601.012 715.053 540.363Z" fill="#FBF9FF"/>
<path d="M735.31 540.363C735.31 479.714 763.743 431.751 791.25 385.318C818.535 339.288 846.746 291.667 846.746 231.863C846.746 172.06 818.555 124.439 791.25 78.3885C776.631 53.7625 761.508 28.2505 750.755 1.08733L753.554 0C764.146 26.9215 779.208 52.353 793.827 76.8985C821.314 123.211 849.747 171.255 849.747 231.944C849.747 292.633 821.314 340.556 793.827 386.989C766.542 433.02 738.311 480.621 738.311 540.444C738.311 600.267 766.502 647.868 793.827 693.919C821.314 740.231 849.747 788.275 849.747 848.964H846.726C846.726 789.141 818.535 741.54 791.23 695.489C763.743 648.976 735.31 601.012 735.31 540.363Z" fill="#FBF9FF"/>
<path d="M755.568 540.363C755.568 479.714 784.001 431.751 811.507 385.318C838.792 339.288 867.004 291.667 867.004 231.863C867.004 172.06 838.812 124.439 811.507 78.3885C796.888 53.7625 781.765 28.2505 771.093 1.08733L773.892 0C784.484 26.9215 799.546 52.353 814.165 76.8985C841.672 123.211 870.084 171.255 870.084 231.944C870.084 292.633 841.652 340.556 814.165 386.989C786.88 433.02 758.649 480.621 758.649 540.444C758.649 600.267 786.84 647.868 814.165 693.919C841.652 740.231 870.084 788.275 870.084 848.964H867.064C867.064 789.141 838.873 741.54 811.568 695.489C784.001 648.976 755.568 601.012 755.568 540.363Z" fill="#FBF9FF"/>
<path d="M775.846 540.363C775.846 479.714 804.279 431.751 831.765 385.318C859.05 339.288 887.282 291.667 887.282 231.863C887.282 172.06 859.091 124.439 831.765 78.3885C817.206 53.7625 802.023 28.2505 791.351 1.08733L794.17 0C804.742 26.9215 819.804 52.353 834.443 76.8985C861.95 123.211 890.383 171.255 890.383 231.944C890.383 292.633 861.95 340.556 834.443 386.989C807.138 432.939 778.947 480.54 778.947 540.363C778.947 600.187 807.138 647.788 834.443 693.838C861.95 740.15 890.383 788.194 890.383 848.884H887.362C887.362 789.06 859.171 741.459 831.846 695.409C804.279 648.976 775.846 601.012 775.846 540.363Z" fill="#FBF9FF"/>
<path d="M796.103 540.363C796.103 479.714 824.536 431.751 852.022 385.318C879.307 339.288 907.539 291.667 907.539 231.863C907.539 172.06 879.347 124.439 852.022 78.3885C837.342 53.7625 822.28 28.2505 811.608 1.08733L814.427 0C824.999 26.9215 840.061 52.353 854.7 76.8985C882.207 123.211 910.64 171.255 910.64 231.944C910.64 292.633 882.207 340.556 854.7 386.989C827.274 432.939 799.083 480.54 799.083 540.363C799.083 600.187 827.274 647.788 854.579 693.838C882.086 740.15 910.519 788.194 910.519 848.884H907.498C907.498 789.06 879.307 741.459 851.982 695.409C824.536 648.976 796.103 601.012 796.103 540.363Z" fill="#FBF9FF"/>
<path d="M816.36 540.363C816.36 479.714 844.793 431.751 872.3 385.318C899.585 339.288 927.796 291.667 927.796 231.863C927.796 172.06 899.605 124.439 872.3 78.3885C857.66 53.7625 842.538 28.2505 831.865 1.08733L834.685 0C845.276 26.9215 860.318 52.353 874.958 76.8985C902.444 123.211 930.877 171.255 930.877 231.944C930.877 292.633 902.444 340.556 874.958 386.989C847.652 433.02 819.441 480.621 819.441 540.444C819.441 600.267 847.632 647.868 874.958 693.919C902.444 740.231 930.877 788.275 930.877 848.964H927.856C927.856 789.141 899.665 741.54 872.36 695.489C844.793 648.976 816.36 601.012 816.36 540.363Z" fill="#FBF9FF"/>
<path d="M836.618 540.363C836.618 479.714 865.051 431.751 892.557 385.318C919.903 339.328 948.094 291.707 948.094 231.904C948.094 172.1 919.903 124.479 892.598 78.4288C877.918 53.7625 862.816 28.2505 852.123 1.08733L854.942 0C865.534 26.9215 880.596 52.353 895.215 76.8985C922.702 123.211 951.135 171.255 951.135 231.944C951.135 292.633 922.702 340.556 895.215 386.989C867.93 433.02 839.699 480.621 839.699 540.444C839.699 600.267 867.89 647.868 895.215 693.919C922.702 740.231 951.135 788.275 951.135 848.964H948.094C948.094 789.141 919.903 741.54 892.598 695.489C865.051 648.976 836.618 601.012 836.618 540.363Z" fill="#FBF9FF"/>
<path d="M856.875 540.363C856.875 479.714 885.308 431.751 912.815 385.318C940.039 339.328 968.231 291.707 968.231 231.904C968.231 172.1 940.039 124.479 912.734 78.4288C898.196 53.7625 883.073 28.2505 872.401 1.08733L875.2 0C885.792 26.9215 900.854 52.353 915.473 76.8985C942.959 123.211 971.392 171.255 971.392 231.944C971.392 292.633 942.959 340.556 915.473 386.989C888.188 433.02 859.956 480.621 859.956 540.444C859.956 600.267 888.147 647.868 915.473 693.919C942.959 740.231 971.392 788.275 971.392 848.964H968.231C968.231 789.141 940.039 741.54 912.734 695.489C885.308 648.976 856.875 601.012 856.875 540.363Z" fill="#FBF9FF"/>
<path d="M877.153 540.363C877.153 479.714 905.565 431.751 933.072 385.318C960.357 339.288 988.589 291.667 988.589 231.863C988.589 172.06 960.397 124.439 933.072 78.3885C918.453 53.7625 903.33 28.2505 892.658 1.08733L895.457 0C906.049 26.9215 921.111 52.353 935.73 76.8985C963.237 123.211 991.669 171.255 991.669 231.944C991.669 292.633 963.237 340.556 935.73 386.989C908.445 433.02 880.234 480.621 880.234 540.444C880.234 600.267 908.425 647.868 935.73 693.919C963.237 740.231 991.669 788.275 991.669 848.964H988.649C988.649 789.141 960.458 741.54 933.132 695.489C905.565 648.976 877.153 601.012 877.153 540.363Z" fill="#FBF9FF"/>
<path d="M897.41 540.363C897.41 479.714 925.843 431.751 953.33 385.318C980.615 339.288 1008.85 291.667 1008.85 231.863C1008.85 172.06 980.655 124.439 953.33 78.3885C938.711 53.7625 923.588 28.2505 912.916 1.08733L915.735 0C926.306 26.9215 941.369 52.353 956.008 76.8985C983.514 123.211 1011.95 171.255 1011.95 231.944C1011.95 292.633 983.514 340.556 956.008 386.989C928.723 433.02 900.511 480.621 900.511 540.444C900.511 600.267 928.703 647.868 956.008 693.919C983.514 740.231 1011.95 788.275 1011.95 848.964H1008.93C1008.93 789.141 980.736 741.54 953.41 695.489C925.843 648.976 897.41 601.012 897.41 540.363Z" fill="#FBF9FF"/>
<path d="M917.668 540.363C917.668 479.714 946.101 431.751 973.587 385.318C1000.89 339.288 1029.1 291.667 1029.1 231.863C1029.1 172.06 1000.91 124.439 973.587 78.3885C958.968 53.7625 943.845 28.2505 933.173 1.08733L936.012 0C946.584 26.9215 961.646 52.353 976.285 76.8985C1003.77 123.211 1032.2 171.255 1032.2 231.944C1032.2 292.633 1003.77 340.556 976.265 386.989C948.98 433.02 920.769 480.621 920.769 540.444C920.769 600.267 948.96 647.868 976.265 693.919C1003.77 740.231 1032.2 788.275 1032.2 848.964H1029.18C1029.18 789.141 1000.99 741.54 973.668 695.489C946.08 648.976 917.668 601.012 917.668 540.363Z" fill="#FBF9FF"/>
<path d="M937.925 540.363C937.925 479.714 966.358 431.751 993.864 385.318C1021.15 339.288 1049.36 291.667 1049.36 231.863C1049.36 172.06 1021.17 124.439 993.864 78.3885C979.225 53.7625 964.102 28.2505 953.43 1.08733L956.148 0C966.74 26.9215 981.782 52.353 996.422 76.8985C1023.91 123.211 1052.34 171.255 1052.34 231.944C1052.34 292.633 1023.91 340.556 996.422 386.989C969.116 433.02 940.905 480.621 940.905 540.444C940.905 600.267 969.096 647.868 996.422 693.919C1023.91 740.231 1052.34 788.275 1052.34 848.964H1049.32C1049.32 789.141 1021.13 741.54 993.824 695.489C966.358 648.976 937.925 601.012 937.925 540.363Z" fill="#FBF9FF"/>
<path d="M958.162 540.363C958.162 479.714 986.595 431.751 1014.1 385.318C1041.39 339.288 1069.6 291.667 1069.6 231.863C1069.6 172.06 1041.41 124.439 1014.1 78.3885C999.503 53.7625 984.34 28.2505 973.708 1.08733L976.507 0C987.099 26.9215 1002.16 52.353 1016.78 76.8985C1044.27 123.211 1072.7 171.255 1072.7 231.944C1072.7 292.633 1044.27 340.556 1016.78 386.989C989.495 433.02 961.263 480.621 961.263 540.444C961.263 600.267 989.455 647.868 1016.78 693.919C1044.27 740.231 1072.7 788.275 1072.7 848.964H1069.68C1069.68 789.141 1041.49 741.54 1014.18 695.489C986.615 648.976 958.162 601.012 958.162 540.363Z" fill="#FBF9FF"/>
<path d="M978.44 540.363C978.44 479.714 1006.87 431.751 1034.38 385.318C1061.66 339.288 1089.88 291.667 1089.88 231.863C1089.88 172.06 1061.68 124.439 1034.38 78.3885C1019.76 53.7625 1004.64 28.2505 993.965 1.08733L996.764 0C1007.36 26.9215 1022.42 52.353 1037.04 76.8985C1064.52 123.211 1092.96 171.255 1092.96 231.944C1092.96 292.633 1064.52 340.556 1037.04 386.989C1009.75 433.02 981.521 480.621 981.521 540.444C981.521 600.267 1009.71 647.868 1037.04 693.919C1064.52 740.231 1092.96 788.275 1092.96 848.964H1089.94C1089.94 789.141 1061.74 741.54 1034.44 695.489C1006.87 648.976 978.44 601.012 978.44 540.363Z" fill="#FBF9FF"/>
<path d="M998.718 540.363C998.718 479.714 1027.15 431.751 1054.64 385.318C1081.92 339.288 1110.15 291.667 1110.15 231.863C1110.15 172.06 1081.96 124.439 1054.64 78.3885C1040.02 53.7625 1024.9 28.2505 1014.22 1.08733L1017.02 0C1027.61 26.9215 1042.68 52.353 1057.29 76.8985C1084.8 123.211 1113.23 171.255 1113.23 231.944C1113.23 292.633 1084.8 340.556 1057.29 386.989C1030.01 433.02 1001.8 480.621 1001.8 540.444C1001.8 600.267 1029.99 647.868 1057.29 693.919C1084.8 740.231 1113.23 788.275 1113.23 848.964H1110.21C1110.21 789.141 1082.02 741.54 1054.7 695.489C1027.15 648.976 998.718 601.012 998.718 540.363Z" fill="#FBF9FF"/>
<path d="M1018.97 540.363C1018.97 479.714 1047.41 431.751 1074.89 385.318C1102.18 339.288 1130.41 291.667 1130.41 231.863C1130.41 172.06 1102.18 124.479 1074.95 78.4288C1060.27 53.7625 1045.15 28.2505 1034.48 1.08733L1037.3 0C1047.87 26.9215 1062.93 52.353 1077.57 76.8985C1105.08 123.211 1133.51 171.255 1133.51 231.944C1133.51 292.633 1105.08 340.556 1077.57 386.989C1050.29 433.02 1022.08 480.621 1022.08 540.444C1022.08 600.267 1050.27 647.868 1077.57 693.919C1105.08 740.231 1133.51 788.275 1133.51 848.964H1130.49C1130.49 789.141 1102.3 741.54 1074.97 695.489C1047.41 648.976 1018.97 601.012 1018.97 540.363Z" fill="#FBF9FF"/>
<path d="M1039.23 540.363C1039.23 479.714 1067.66 431.751 1095.15 385.318C1122.46 339.328 1150.67 291.707 1150.67 231.904C1150.67 172.1 1122.46 124.479 1095.09 78.4288C1080.53 53.7625 1065.41 28.2505 1054.82 1.08733L1057.64 0C1068.21 26.9215 1083.27 52.353 1097.91 76.8985C1125.3 123.291 1153.69 171.255 1153.69 231.904C1153.69 292.553 1125.26 340.516 1097.75 386.949C1070.46 432.979 1042.25 480.58 1042.25 540.404C1042.25 600.227 1070.44 647.828 1097.75 693.878C1125.26 740.191 1153.69 788.235 1153.69 848.924H1150.67C1150.67 789.1 1122.48 741.499 1095.15 695.449C1067.66 648.976 1039.23 601.012 1039.23 540.363Z" fill="#FBF9FF"/>
<path d="M1059.49 540.363C1059.49 479.714 1087.92 431.751 1115.43 385.318C1142.71 339.328 1170.93 291.707 1170.93 231.904C1170.93 172.1 1142.73 124.479 1115.43 78.4288C1100.79 53.7625 1085.67 28.2505 1074.95 1.08733L1077.77 0C1088.37 26.9215 1103.41 52.353 1118.05 76.8985C1145.53 123.211 1173.97 171.255 1173.97 231.944C1173.97 292.633 1145.53 340.556 1118.05 386.989C1090.74 433.02 1062.53 480.621 1062.53 540.444C1062.53 600.267 1090.72 647.868 1118.05 693.919C1145.53 740.231 1173.97 788.275 1173.97 848.964H1170.95C1170.95 789.141 1142.75 741.54 1115.45 695.489C1087.92 648.976 1059.49 601.012 1059.49 540.363Z" fill="#FBF9FF"/>
<path d="M1079.75 540.363C1079.75 479.714 1108.18 431.751 1135.69 385.318C1162.97 339.328 1191.18 291.707 1191.18 231.904C1191.18 172.1 1162.97 124.479 1135.69 78.4288C1121.07 53.7625 1105.94 28.2505 1095.27 1.08733L1098.07 0C1108.66 26.9215 1123.73 52.353 1138.34 76.8985C1165.83 123.211 1194.26 171.255 1194.26 231.944C1194.26 292.633 1165.83 340.556 1138.34 386.989C1111.06 433.02 1082.83 480.621 1082.83 540.444C1082.83 600.267 1111.02 647.868 1138.34 693.919C1165.83 740.231 1194.26 788.275 1194.26 848.964H1191.24C1191.24 789.141 1163.05 741.54 1135.75 695.489C1108.18 648.976 1079.75 601.012 1079.75 540.363Z" fill="#FBF9FF"/>
<path d="M1135.79 1.08758L1138.61 0.000244141C1149.18 26.9218 1164.24 52.3532 1178.88 76.8786C1185.67 88.3358 1192.69 100.176 1199.18 112.036L1196.52 113.485C1190.05 101.666 1183.05 89.846 1176.38 78.429C1161.54 53.7627 1146.46 28.2507 1135.79 1.08758Z" fill="#FBF9FF"/>
<path d="M1156.04 1.08733L1158.86 0C1169.44 26.9014 1184.48 52.353 1199.14 76.8582L1196.56 78.4288C1181.82 53.7424 1166.72 28.2303 1156.04 1.08733Z" fill="#FBF9FF"/>
<path d="M1176.3 1.08758L1179.12 0.000244141C1184.88 14.3578 1191.56 28.3335 1199.1 41.8424L1196.44 43.2921C1188.84 29.6663 1182.11 15.5695 1176.3 1.08758V1.08758Z" fill="#FBF9FF"/>
</svg>
