<svg width="723" height="750" viewBox="0 0 723 750" fill="none" xmlns="http://www.w3.org/2000/svg">
<path d="M4.97483 642.601C4.97483 703.25 33.4077 751.213 60.8941 797.646C88.1792 843.677 116.411 891.298 116.411 951.101C116.411 1010.9 88.2194 1058.53 60.8941 1104.58C46.2749 1129.2 31.1524 1154.71 20.48 1181.88L23.2991 1182.96C33.8708 1156.04 48.933 1130.61 63.5723 1106.07C91.0789 1059.75 119.512 1011.71 119.512 951.02C119.512 890.331 91.0789 842.408 63.5723 795.975C36.2872 749.945 8.07588 702.344 8.07588 642.52C8.07588 582.697 36.2671 535.096 63.5723 489.045C91.0789 442.733 119.512 394.689 119.512 334H116.491C116.491 393.823 88.3 441.424 60.9747 487.475C33.4077 533.988 4.97483 581.952 4.97483 642.601Z" fill="#FBF9FF"/>
<path d="M25.2317 642.601C25.2317 703.25 53.6645 751.213 81.151 797.646C108.456 843.677 136.668 891.298 136.668 951.101C136.668 1010.9 108.476 1058.53 81.151 1104.58C66.5318 1129.2 51.4093 1154.71 40.7369 1181.88L43.556 1182.96C54.1277 1156.04 69.1899 1130.61 83.8291 1106.07C111.336 1059.75 139.769 1011.71 139.769 951.02C139.769 890.331 111.336 842.408 83.8291 795.975C56.5441 749.945 28.3328 702.344 28.3328 642.52C28.3328 582.697 56.524 535.096 83.8291 489.045C111.336 442.733 139.769 394.689 139.769 334H136.748C136.748 393.823 108.557 441.424 81.2315 487.475C53.7451 533.988 25.2317 581.952 25.2317 642.601Z" fill="#FBF9FF"/>
<path d="M45.4891 642.601C45.4891 703.25 73.922 751.213 101.408 797.646C128.714 843.677 156.925 891.298 156.925 951.101C156.925 1010.9 128.734 1058.53 101.429 1104.58C86.7892 1129.2 71.6667 1154.71 60.9943 1181.88L63.8134 1182.96C74.4053 1156.04 89.4473 1130.61 104.087 1106.07C131.573 1059.75 160.006 1011.71 160.006 951.02C160.006 890.331 131.573 842.408 104.087 795.975C76.7814 749.945 48.57 702.344 48.57 642.52C48.57 582.697 76.7612 535.096 104.087 489.045C131.573 442.733 160.006 394.689 160.006 334H156.985C156.985 393.823 128.794 441.424 101.469 487.475C73.8817 533.988 45.4891 581.952 45.4891 642.601Z" fill="#FBF9FF"/>
<path d="M65.8272 642.601C65.8272 703.25 94.2601 751.213 121.767 797.646C149.052 843.677 177.263 891.298 177.263 951.101C177.263 1010.9 149.072 1058.53 121.767 1104.58C107.067 1129.2 92.0048 1154.71 81.272 1181.88L84.071 1182.96C94.6628 1156.04 109.725 1130.61 124.344 1106.07C151.831 1059.75 180.263 1011.71 180.263 951.02C180.263 890.331 151.831 842.408 124.344 795.975C97.0591 749.945 68.8276 702.344 68.8276 642.52C68.8276 582.697 97.0188 535.096 124.344 489.045C151.831 442.733 180.263 394.689 180.263 334H177.243C177.243 393.823 149.052 441.424 121.747 487.475C94.1795 533.988 65.8272 581.952 65.8272 642.601Z" fill="#FBF9FF"/>
<path d="M85.964 642.601C85.964 703.25 114.397 751.213 141.903 797.646C169.188 843.677 197.4 891.298 197.4 951.101C197.4 1010.9 169.209 1058.53 141.903 1104.58C127.325 1129.2 112.142 1154.71 101.53 1181.88L104.329 1182.96C114.92 1156.04 129.983 1130.61 144.602 1106.07C172.088 1059.75 200.521 1011.71 200.521 951.02C200.521 890.331 172.088 842.408 144.602 795.975C117.317 749.945 89.0852 702.344 89.0852 642.52C89.0852 582.697 117.276 535.096 144.602 489.045C172.088 442.733 200.521 394.689 200.521 334H197.501C197.501 393.823 169.309 441.424 142.004 487.475C114.437 533.988 85.964 581.952 85.964 642.601Z" fill="#FBF9FF"/>
<path d="M106.282 642.601C106.282 703.25 134.715 751.213 162.201 797.646C189.486 843.677 217.718 891.298 217.718 951.101C217.718 1010.9 189.526 1058.53 162.201 1104.58C147.582 1129.2 132.459 1154.71 121.787 1181.88L124.586 1182.96C135.178 1156.04 150.24 1130.61 164.859 1106.07C192.366 1059.75 220.799 1011.71 220.799 951.02C220.799 890.331 192.366 842.408 164.859 795.975C137.574 749.945 109.363 702.344 109.363 642.52C109.363 582.697 137.554 535.096 164.859 489.045C192.366 442.733 220.799 394.689 220.799 334H217.778C217.778 393.823 189.587 441.424 162.262 487.475C134.715 533.988 106.282 581.952 106.282 642.601Z" fill="#FBF9FF"/>
<path d="M126.539 642.601C126.539 703.25 154.971 751.213 182.458 797.646C209.743 843.677 237.974 891.298 237.974 951.101C237.974 1010.9 209.783 1058.53 182.458 1104.58C167.839 1129.2 152.716 1154.71 142.044 1181.88L144.863 1182.96C155.435 1156.04 170.497 1130.61 185.136 1106.07C212.643 1059.75 241.075 1011.71 241.075 951.02C241.075 890.331 212.643 842.408 185.136 795.975C157.851 749.945 129.64 702.344 129.64 642.52C129.64 582.697 157.831 535.096 185.136 489.045C212.643 442.733 241.075 394.689 241.075 334H238.055C238.055 393.823 209.864 441.424 182.538 487.475C154.971 533.988 126.539 581.952 126.539 642.601Z" fill="#FBF9FF"/>
<path d="M146.796 642.601C146.796 703.25 175.229 751.213 202.715 797.646C230.021 843.677 258.232 891.298 258.232 951.101C258.232 1010.9 230.041 1058.53 202.715 1104.58C188.096 1129.2 172.974 1154.71 162.301 1181.88L165.12 1182.96C175.712 1156.04 190.754 1130.61 205.394 1106.07C232.88 1059.75 261.313 1011.71 261.313 951.02C261.313 890.331 232.88 842.408 205.394 795.975C178.088 749.945 149.877 702.344 149.877 642.52C149.877 582.697 178.068 535.096 205.394 489.045C232.88 442.733 261.313 394.689 261.313 334H258.292C258.292 393.823 230.101 441.424 202.776 487.475C175.229 533.988 146.796 581.952 146.796 642.601Z" fill="#FBF9FF"/>
<path d="M167.053 642.601C167.053 703.25 195.486 751.213 222.993 797.646C250.278 843.677 278.489 891.298 278.489 951.101C278.489 1010.9 250.278 1058.48 222.892 1104.54C208.354 1129.2 193.231 1154.71 182.619 1181.88L185.438 1182.96C196.03 1156.04 211.092 1130.61 225.711 1106.07C253.198 1059.75 281.631 1011.71 281.631 951.02C281.631 890.331 253.198 842.408 225.711 795.975C198.406 749.945 170.195 702.344 170.195 642.52C170.195 582.697 198.386 535.096 225.711 489.045C253.198 442.733 281.631 394.689 281.631 334H278.61C278.61 393.823 250.419 441.424 223.114 487.475C195.486 533.988 167.053 581.952 167.053 642.601Z" fill="#FBF9FF"/>
<path d="M187.311 642.601C187.311 703.25 215.744 751.213 243.251 797.646C270.536 843.677 298.747 891.298 298.747 951.101C298.747 1010.9 270.556 1058.53 243.251 1104.58C228.631 1129.2 213.509 1154.71 202.756 1181.88L205.555 1182.96C216.147 1156.04 231.209 1130.61 245.828 1106.07C273.314 1059.75 301.747 1011.71 301.747 951.02C301.747 890.331 273.314 842.408 245.828 795.975C218.543 749.945 190.311 702.344 190.311 642.52C190.311 582.697 218.503 535.096 245.828 489.045C273.314 442.733 301.747 394.689 301.747 334H298.727C298.727 393.823 270.536 441.424 243.23 487.475C215.744 533.988 187.311 581.952 187.311 642.601Z" fill="#FBF9FF"/>
<path d="M207.568 642.601C207.568 703.25 236.001 751.213 263.508 797.646C290.793 843.677 319.004 891.298 319.004 951.101C319.004 1010.9 290.813 1058.53 263.508 1104.58C248.889 1129.2 233.766 1154.71 223.094 1181.88L225.893 1182.96C236.484 1156.04 251.547 1130.61 266.166 1106.07C293.672 1059.75 322.085 1011.71 322.085 951.02C322.085 890.331 293.652 842.408 266.166 795.975C238.881 749.945 210.649 702.344 210.649 642.52C210.649 582.697 238.84 535.096 266.166 489.045C293.652 442.733 322.085 394.689 322.085 334H319.064C319.064 393.823 290.873 441.424 263.568 487.475C236.001 533.988 207.568 581.952 207.568 642.601Z" fill="#FBF9FF"/>
<path d="M227.846 642.601C227.846 703.25 256.279 751.213 283.765 797.646C311.051 843.676 339.282 891.298 339.282 951.101C339.282 1010.9 311.091 1058.53 283.765 1104.58C269.207 1129.2 254.024 1154.71 243.351 1181.88L246.17 1182.96C256.742 1156.04 271.804 1130.61 286.444 1106.07C313.95 1059.75 342.383 1011.71 342.383 951.02C342.383 890.331 313.95 842.408 286.444 795.975C259.138 750.025 230.947 702.424 230.947 642.601C230.947 582.777 259.138 535.176 286.444 489.126C313.95 442.814 342.383 394.77 342.383 334.081H339.363C339.363 393.904 311.171 441.505 283.846 487.555C256.279 533.988 227.846 581.952 227.846 642.601Z" fill="#FBF9FF"/>
<path d="M248.103 642.601C248.103 703.25 276.536 751.213 304.023 797.646C331.308 843.676 359.539 891.298 359.539 951.101C359.539 1010.9 331.348 1058.53 304.023 1104.58C289.343 1129.2 274.281 1154.71 263.608 1181.88L266.428 1182.96C276.999 1156.04 292.061 1130.61 306.701 1106.07C334.207 1059.75 362.64 1011.71 362.64 951.02C362.64 890.331 334.207 842.408 306.701 795.975C279.275 750.025 251.083 702.424 251.083 642.601C251.083 582.777 279.275 535.176 306.58 489.126C334.086 442.814 362.519 394.77 362.519 334.081H359.499C359.499 393.904 331.308 441.505 303.982 487.555C276.536 533.988 248.103 581.952 248.103 642.601Z" fill="#FBF9FF"/>
<path d="M268.361 642.601C268.361 703.25 296.794 751.213 324.3 797.646C351.585 843.677 379.797 891.298 379.797 951.101C379.797 1010.9 351.605 1058.53 324.3 1104.58C309.661 1129.2 294.538 1154.71 283.866 1181.88L286.685 1182.96C297.277 1156.04 312.319 1130.61 326.958 1106.07C354.445 1059.75 382.877 1011.71 382.877 951.02C382.877 890.331 354.445 842.408 326.958 795.975C299.653 749.945 271.442 702.344 271.442 642.52C271.442 582.697 299.633 535.096 326.958 489.045C354.445 442.733 382.877 394.689 382.877 334H379.857C379.857 393.823 351.666 441.424 324.361 487.475C296.794 533.988 268.361 581.952 268.361 642.601Z" fill="#FBF9FF"/>
<path d="M288.618 642.601C288.618 703.25 317.051 751.213 344.558 797.646C371.903 843.636 400.094 891.257 400.094 951.061C400.094 1010.86 371.903 1058.48 344.598 1104.54C329.918 1129.2 314.816 1154.71 304.123 1181.88L306.943 1182.96C317.534 1156.04 332.597 1130.61 347.216 1106.07C374.702 1059.75 403.135 1011.71 403.135 951.02C403.135 890.331 374.702 842.408 347.216 795.975C319.931 749.945 291.699 702.344 291.699 642.52C291.699 582.697 319.89 535.096 347.216 489.045C374.702 442.733 403.135 394.689 403.135 334H400.094C400.094 393.823 371.903 441.424 344.598 487.475C317.051 533.988 288.618 581.952 288.618 642.601Z" fill="#FBF9FF"/>
<path d="M308.876 642.601C308.876 703.25 337.309 751.213 364.815 797.646C392.04 843.636 420.231 891.257 420.231 951.061C420.231 1010.86 392.04 1058.48 364.735 1104.54C350.196 1129.2 335.074 1154.71 324.401 1181.88L327.2 1182.96C337.792 1156.04 352.854 1130.61 367.473 1106.07C394.96 1059.75 423.393 1011.71 423.393 951.02C423.393 890.331 394.96 842.408 367.473 795.975C340.188 749.945 311.957 702.344 311.957 642.52C311.957 582.697 340.148 535.096 367.473 489.045C394.96 442.733 423.393 394.689 423.393 334H420.231C420.231 393.823 392.04 441.424 364.735 487.475C337.309 533.988 308.876 581.952 308.876 642.601Z" fill="#FBF9FF"/>
<path d="M329.153 642.601C329.153 703.25 357.566 751.213 385.073 797.646C412.358 843.677 440.589 891.298 440.589 951.101C440.589 1010.9 412.398 1058.53 385.073 1104.58C370.454 1129.2 355.331 1154.71 344.659 1181.88L347.458 1182.96C358.049 1156.04 373.112 1130.61 387.731 1106.07C415.237 1059.75 443.67 1011.71 443.67 951.02C443.67 890.331 415.237 842.408 387.731 795.975C360.446 749.945 332.234 702.344 332.234 642.52C332.234 582.697 360.426 535.096 387.731 489.045C415.237 442.733 443.67 394.689 443.67 334H440.65C440.65 393.823 412.458 441.424 385.133 487.475C357.566 533.988 329.153 581.952 329.153 642.601Z" fill="#FBF9FF"/>
<path d="M349.411 642.601C349.411 703.25 377.844 751.213 405.33 797.646C432.615 843.677 460.847 891.298 460.847 951.101C460.847 1010.9 432.656 1058.53 405.33 1104.58C390.711 1129.2 375.588 1154.71 364.916 1181.88L367.735 1182.96C378.307 1156.04 393.369 1130.61 408.008 1106.07C435.515 1059.75 463.948 1011.71 463.948 951.02C463.948 890.331 435.515 842.408 408.008 795.975C380.723 749.945 352.512 702.344 352.512 642.52C352.512 582.697 380.703 535.096 408.008 489.045C435.515 442.733 463.948 394.689 463.948 334H460.927C460.927 393.823 432.736 441.424 405.411 487.475C377.844 533.988 349.411 581.952 349.411 642.601Z" fill="#FBF9FF"/>
<path d="M369.668 642.601C369.668 703.25 398.101 751.213 425.588 797.646C452.893 843.677 481.104 891.298 481.104 951.101C481.104 1010.9 452.913 1058.53 425.588 1104.58C410.969 1129.2 395.846 1154.71 385.174 1181.88L388.013 1182.96C398.585 1156.04 413.647 1130.61 428.286 1106.07C455.772 1059.75 484.205 1011.71 484.205 951.02C484.205 890.331 455.772 842.408 428.266 795.975C400.981 749.945 372.769 702.344 372.769 642.52C372.769 582.697 400.961 535.096 428.266 489.045C455.772 442.733 484.205 394.689 484.205 334H481.185C481.185 393.823 452.994 441.424 425.668 487.475C398.081 533.988 369.668 581.952 369.668 642.601Z" fill="#FBF9FF"/>
<path d="M389.925 642.601C389.925 703.25 418.358 751.213 445.865 797.646C473.15 843.677 501.361 891.298 501.361 951.101C501.361 1010.9 473.17 1058.53 445.865 1104.58C431.225 1129.2 416.103 1154.71 405.43 1181.88L408.149 1182.96C418.741 1156.04 433.783 1130.61 448.422 1106.07C475.908 1059.75 504.341 1011.71 504.341 951.02C504.341 890.331 475.908 842.408 448.422 795.975C421.117 749.945 392.905 702.344 392.905 642.52C392.905 582.697 421.097 535.096 448.422 489.045C475.908 442.733 504.341 394.689 504.341 334H501.321C501.321 393.823 473.13 441.424 445.824 487.475C418.358 533.988 389.925 581.952 389.925 642.601Z" fill="#FBF9FF"/>
<path d="M410.163 642.601C410.163 703.25 438.596 751.213 466.102 797.646C493.387 843.677 521.599 891.298 521.599 951.101C521.599 1010.9 493.407 1058.53 466.102 1104.58C451.503 1129.2 436.34 1154.71 425.708 1181.88L428.507 1182.96C439.099 1156.04 454.161 1130.61 468.78 1106.07C496.267 1059.75 524.7 1011.71 524.7 951.02C524.7 890.331 496.267 842.408 468.78 795.975C441.495 749.945 413.264 702.344 413.264 642.52C413.264 582.697 441.455 535.096 468.78 489.045C496.267 442.733 524.7 394.689 524.7 334H521.679C521.679 393.823 493.488 441.424 466.183 487.475C438.616 533.988 410.163 581.952 410.163 642.601Z" fill="#FBF9FF"/>
<path d="M430.44 642.601C430.44 703.25 458.873 751.213 486.38 797.646C513.665 843.677 541.876 891.298 541.876 951.101C541.876 1010.9 513.685 1058.53 486.38 1104.58C471.761 1129.2 456.638 1154.71 445.966 1181.88L448.765 1182.96C459.356 1156.04 474.419 1130.61 489.038 1106.07C516.524 1059.75 544.957 1011.71 544.957 951.02C544.957 890.331 516.524 842.408 489.038 795.975C461.753 749.945 433.521 702.344 433.521 642.52C433.521 582.697 461.712 535.096 489.038 489.045C516.524 442.733 544.957 394.689 544.957 334H541.937C541.937 393.823 513.745 441.424 486.44 487.475C458.873 533.988 430.44 581.952 430.44 642.601Z" fill="#FBF9FF"/>
<path d="M450.718 642.601C450.718 703.25 479.151 751.213 506.637 797.646C533.922 843.677 562.154 891.298 562.154 951.101C562.154 1010.9 533.963 1058.53 506.637 1104.58C492.018 1129.2 476.895 1154.71 466.223 1181.88L469.022 1182.96C479.614 1156.04 494.676 1130.61 509.295 1106.07C536.802 1059.75 565.235 1011.71 565.235 951.02C565.235 890.331 536.802 842.408 509.295 795.975C482.01 749.945 453.799 702.344 453.799 642.52C453.799 582.697 481.99 535.096 509.295 489.045C536.802 442.733 565.235 394.689 565.235 334H562.214C562.214 393.823 534.023 441.424 506.698 487.475C479.151 533.988 450.718 581.952 450.718 642.601Z" fill="#FBF9FF"/>
<path d="M470.975 642.601C470.975 703.25 499.408 751.213 526.895 797.646C554.18 843.677 582.411 891.298 582.411 951.101C582.411 1010.9 554.18 1058.48 526.955 1104.54C512.275 1129.2 497.153 1154.71 486.481 1181.88L489.3 1182.96C499.871 1156.04 514.933 1130.61 529.573 1106.07C557.079 1059.75 585.512 1011.71 585.512 951.02C585.512 890.331 557.079 842.408 529.573 795.975C502.288 749.945 474.076 702.344 474.076 642.52C474.076 582.697 502.268 535.096 529.573 489.045C557.079 442.733 585.512 394.689 585.512 334H582.492C582.492 393.823 554.301 441.424 526.975 487.475C499.408 533.988 470.975 581.952 470.975 642.601Z" fill="#FBF9FF"/>
<path d="M491.233 642.601C491.233 703.25 519.665 751.213 547.152 797.646C574.457 843.636 602.668 891.257 602.668 951.06C602.668 1010.86 574.457 1058.48 547.092 1104.54C532.533 1129.2 517.41 1154.71 506.818 1181.88L509.637 1182.96C520.209 1156.04 535.271 1130.61 549.911 1106.07C577.296 1059.67 605.689 1011.71 605.689 951.06C605.689 890.412 577.256 842.448 549.75 796.015C522.464 749.985 494.253 702.384 494.253 642.56C494.253 582.737 522.444 535.136 549.75 489.086C577.256 442.773 605.689 394.729 605.689 334.04H602.668C602.668 393.864 574.477 441.465 547.152 487.515C519.665 533.988 491.233 581.952 491.233 642.601Z" fill="#FBF9FF"/>
<path d="M511.49 642.601C511.49 703.25 539.923 751.213 567.43 797.646C594.715 843.636 622.926 891.257 622.926 951.061C622.926 1010.86 594.735 1058.48 567.43 1104.54C552.79 1129.2 537.668 1154.71 526.955 1181.88L529.774 1182.96C540.366 1156.04 555.408 1130.61 570.047 1106.07C597.534 1059.75 625.967 1011.71 625.967 951.02C625.967 890.331 597.534 842.408 570.047 795.975C542.742 749.945 514.531 702.344 514.531 642.52C514.531 582.697 542.722 535.096 570.047 489.045C597.534 442.733 625.967 394.689 625.967 334H622.946C622.946 393.823 594.755 441.424 567.45 487.475C539.923 533.988 511.49 581.952 511.49 642.601Z" fill="#FBF9FF"/>
<path d="M531.747 642.601C531.747 703.25 560.18 751.213 587.687 797.646C614.972 843.636 643.183 891.257 643.183 951.061C643.183 1010.86 614.972 1058.48 587.687 1104.54C573.068 1129.2 557.945 1154.71 547.273 1181.88L550.072 1182.96C560.664 1156.04 575.726 1130.61 590.345 1106.07C617.831 1059.75 646.264 1011.71 646.264 951.02C646.264 890.331 617.831 842.408 590.345 795.975C563.06 749.945 534.828 702.344 534.828 642.52C534.828 582.697 563.02 535.096 590.345 489.045C617.831 442.733 646.264 394.689 646.264 334H643.244C643.244 393.823 615.052 441.424 587.747 487.475C560.18 533.988 531.747 581.952 531.747 642.601Z" fill="#FBF9FF"/>
<path d="M552.974 647.601C552.974 708.25 581.407 756.213 608.894 802.646C636.179 848.677 664.41 896.298 664.41 956.101C664.41 1015.9 636.219 1063.53 608.894 1109.58C594.274 1134.2 579.152 1159.71 568.48 1186.88L571.299 1187.96C581.87 1161.04 596.933 1135.61 611.572 1111.07C639.078 1064.75 667.511 1016.71 667.511 956.02C667.511 895.331 639.078 847.408 611.572 800.975C584.287 754.945 556.075 707.344 556.075 647.52C556.075 587.697 584.267 540.096 611.572 494.045C639.078 447.733 667.511 399.689 667.511 339H664.491C664.491 398.823 636.3 446.424 608.974 492.475C581.407 538.988 552.974 586.952 552.974 647.601Z" fill="#FBF9FF"/>
<path d="M573.231 647.601C573.231 708.25 601.664 756.213 629.15 802.646C656.456 848.677 684.667 896.298 684.667 956.101C684.667 1015.9 656.476 1063.53 629.15 1109.58C614.531 1134.2 599.409 1159.71 588.736 1186.88L591.556 1187.96C602.127 1161.04 617.189 1135.61 631.829 1111.07C659.335 1064.75 687.768 1016.71 687.768 956.02C687.768 895.331 659.335 847.408 631.829 800.975C604.544 754.945 576.332 707.344 576.332 647.52C576.332 587.697 604.523 540.096 631.829 494.045C659.335 447.733 687.768 399.689 687.768 339H684.748C684.748 398.823 656.556 446.424 629.231 492.475C601.745 538.988 573.231 586.952 573.231 647.601Z" fill="#FBF9FF"/>
<path d="M593.489 647.601C593.489 708.25 621.921 756.213 649.408 802.646C676.713 848.677 704.924 896.298 704.924 956.101C704.924 1015.9 676.733 1063.53 649.428 1109.58C634.789 1134.2 619.666 1159.71 608.994 1186.88L611.813 1187.96C622.405 1161.04 637.447 1135.61 652.086 1111.07C679.573 1064.75 708.005 1016.71 708.005 956.02C708.005 895.331 679.573 847.408 652.086 800.975C624.781 754.945 596.57 707.344 596.57 647.52C596.57 587.697 624.761 540.096 652.086 494.045C679.573 447.733 708.005 399.689 708.005 339H704.985C704.985 398.823 676.794 446.424 649.468 492.475C621.881 538.988 593.489 586.952 593.489 647.601Z" fill="#FBF9FF"/>
<path d="M613.827 647.601C613.827 708.25 642.26 756.213 669.766 802.646C697.051 848.677 725.263 896.298 725.263 956.101C725.263 1015.9 697.071 1063.53 669.766 1109.58C655.066 1134.2 640.004 1159.71 629.272 1186.88L632.07 1187.96C642.662 1161.04 657.724 1135.61 672.344 1111.07C699.83 1064.75 728.263 1016.71 728.263 956.02C728.263 895.331 699.83 847.408 672.344 800.975C645.059 754.945 616.827 707.344 616.827 647.52C616.827 587.697 645.018 540.096 672.344 494.045C699.83 447.733 728.263 399.689 728.263 339H725.242C725.242 398.823 697.051 446.424 669.746 492.475C642.179 538.988 613.827 586.952 613.827 647.601Z" fill="#FBF9FF"/>
<path d="M633.964 647.601C633.964 708.25 662.396 756.213 689.903 802.646C717.188 848.677 745.399 896.298 745.399 956.101C745.399 1015.9 717.208 1063.53 689.903 1109.58C675.324 1134.2 660.141 1159.71 649.529 1186.88L652.328 1187.96C662.92 1161.04 677.982 1135.61 692.601 1111.07C720.088 1064.75 748.521 1016.71 748.521 956.02C748.521 895.331 720.088 847.408 692.601 800.975C665.316 754.945 637.085 707.344 637.085 647.52C637.085 587.697 665.276 540.096 692.601 494.045C720.088 447.733 748.521 399.689 748.521 339H745.5C745.5 398.823 717.309 446.424 690.004 492.475C662.437 538.988 633.964 586.952 633.964 647.601Z" fill="#FBF9FF"/>
<path d="M654.281 647.601C654.281 708.25 682.714 756.213 710.201 802.646C737.486 848.677 765.717 896.298 765.717 956.101C765.717 1015.9 737.526 1063.53 710.201 1109.58C695.581 1134.2 680.459 1159.71 669.786 1186.88L672.585 1187.96C683.177 1161.04 698.239 1135.61 712.859 1111.07C740.365 1064.75 768.798 1016.71 768.798 956.02C768.798 895.331 740.365 847.408 712.859 800.975C685.574 754.945 657.362 707.344 657.362 647.52C657.362 587.697 685.553 540.096 712.859 494.045C740.365 447.733 768.798 399.689 768.798 339H765.778C765.778 398.823 737.586 446.424 710.261 492.475C682.714 538.988 654.281 586.952 654.281 647.601Z" fill="#FBF9FF"/>
<path d="M674.538 647.601C674.538 708.25 702.971 756.213 730.457 802.646C757.742 848.677 785.974 896.298 785.974 956.101C785.974 1015.9 757.783 1063.53 730.457 1109.58C715.838 1134.2 700.716 1159.71 690.043 1186.88L692.862 1187.96C703.434 1161.04 718.496 1135.61 733.136 1111.07C760.642 1064.75 789.075 1016.71 789.075 956.02C789.075 895.331 760.642 847.408 733.136 800.975C705.85 754.945 677.639 707.344 677.639 647.52C677.639 587.697 705.83 540.096 733.136 494.045C760.642 447.733 789.075 399.689 789.075 339H786.054C786.054 398.823 757.863 446.424 730.538 492.475C702.971 538.988 674.538 586.952 674.538 647.601Z" fill="#FBF9FF"/>
<path d="M694.796 647.601C694.796 708.25 723.229 756.213 750.715 802.646C778.02 848.677 806.232 896.298 806.232 956.101C806.232 1015.9 778.04 1063.53 750.715 1109.58C736.096 1134.2 720.973 1159.71 710.301 1186.88L713.12 1187.96C723.712 1161.04 738.754 1135.61 753.393 1111.07C780.88 1064.75 809.312 1016.71 809.312 956.02C809.312 895.331 780.88 847.408 753.393 800.975C726.088 754.945 697.877 707.344 697.877 647.52C697.877 587.697 726.068 540.096 753.393 494.045C780.88 447.733 809.312 399.689 809.312 339H806.292C806.292 398.823 778.101 446.424 750.775 492.475C723.229 538.988 694.796 586.952 694.796 647.601Z" fill="#FBF9FF"/>
<path d="M715.053 647.601C715.053 708.25 743.486 756.213 770.992 802.646C798.277 848.677 826.489 896.298 826.489 956.101C826.489 1015.9 798.277 1063.48 770.892 1109.54C756.353 1134.2 741.231 1159.71 730.619 1186.88L733.438 1187.96C744.03 1161.04 759.092 1135.61 773.711 1111.07C801.197 1064.75 829.63 1016.71 829.63 956.02C829.63 895.331 801.197 847.408 773.711 800.975C746.406 754.945 718.194 707.344 718.194 647.52C718.194 587.697 746.386 540.096 773.711 494.045C801.197 447.733 829.63 399.689 829.63 339H826.61C826.61 398.823 798.418 446.424 771.113 492.475C743.486 538.988 715.053 586.952 715.053 647.601Z" fill="#FBF9FF"/>
<path d="M4.97483 29.3633C4.97483 -31.2856 33.4077 -79.249 60.8941 -125.682C88.1792 -171.712 116.411 -219.333 116.411 -279.137C116.411 -338.94 88.2194 -386.561 60.8941 -432.611C46.2749 -457.238 31.1524 -482.75 20.48 -509.913L23.2991 -511C33.8708 -484.078 48.933 -458.647 63.5723 -434.102C91.0789 -387.789 119.512 -339.745 119.512 -279.056C119.512 -218.367 91.0789 -170.444 63.5723 -124.011C36.2872 -77.9804 8.07588 -30.3795 8.07588 29.4439C8.07588 89.2672 36.2671 136.868 63.5723 182.919C91.0789 229.231 119.512 277.275 119.512 337.964H116.491C116.491 278.141 88.3 230.54 60.9747 184.489C33.4077 137.976 4.97483 90.0122 4.97483 29.3633Z" fill="#FBF9FF"/>
<path d="M25.2317 29.3633C25.2317 -31.2856 53.6645 -79.249 81.151 -125.682C108.456 -171.712 136.668 -219.333 136.668 -279.137C136.668 -338.94 108.476 -386.561 81.151 -432.611C66.5318 -457.238 51.4093 -482.75 40.7369 -509.913L43.556 -511C54.1277 -484.078 69.1899 -458.647 83.8291 -434.102C111.336 -387.789 139.769 -339.745 139.769 -279.056C139.769 -218.367 111.336 -170.444 83.8291 -124.011C56.5441 -77.9804 28.3328 -30.3795 28.3328 29.4439C28.3328 89.2672 56.524 136.868 83.8291 182.919C111.336 229.231 139.769 277.275 139.769 337.964H136.748C136.748 278.141 108.557 230.54 81.2315 184.489C53.7451 137.976 25.2317 90.0122 25.2317 29.3633Z" fill="#FBF9FF"/>
<path d="M45.4891 29.3633C45.4891 -31.2856 73.922 -79.249 101.408 -125.682C128.714 -171.712 156.925 -219.333 156.925 -279.137C156.925 -338.94 128.734 -386.561 101.429 -432.611C86.7892 -457.238 71.6667 -482.75 60.9943 -509.913L63.8134 -511C74.4053 -484.078 89.4473 -458.647 104.087 -434.102C131.573 -387.789 160.006 -339.745 160.006 -279.056C160.006 -218.367 131.573 -170.444 104.087 -124.011C76.7814 -77.9804 48.57 -30.3795 48.57 29.4439C48.57 89.2672 76.7612 136.868 104.087 182.919C131.573 229.231 160.006 277.275 160.006 337.964H156.985C156.985 278.141 128.794 230.54 101.469 184.489C73.8817 137.976 45.4891 90.0122 45.4891 29.3633Z" fill="#FBF9FF"/>
<path d="M65.8272 29.3633C65.8272 -31.2856 94.2601 -79.249 121.767 -125.682C149.052 -171.712 177.263 -219.333 177.263 -279.137C177.263 -338.94 149.072 -386.561 121.767 -432.611C107.067 -457.238 92.0048 -482.75 81.272 -509.913L84.071 -511C94.6628 -484.078 109.725 -458.647 124.344 -434.102C151.831 -387.789 180.263 -339.745 180.263 -279.056C180.263 -218.367 151.831 -170.444 124.344 -124.011C97.0591 -77.9804 68.8276 -30.3795 68.8276 29.4439C68.8276 89.2672 97.0188 136.868 124.344 182.919C151.831 229.231 180.263 277.275 180.263 337.964H177.243C177.243 278.141 149.052 230.54 121.747 184.489C94.1795 137.976 65.8272 90.0122 65.8272 29.3633Z" fill="#FBF9FF"/>
<path d="M85.964 29.3633C85.964 -31.2856 114.397 -79.249 141.903 -125.682C169.188 -171.712 197.4 -219.333 197.4 -279.137C197.4 -338.94 169.209 -386.561 141.903 -432.611C127.325 -457.238 112.142 -482.75 101.53 -509.913L104.329 -511C114.92 -484.078 129.983 -458.647 144.602 -434.102C172.088 -387.789 200.521 -339.745 200.521 -279.056C200.521 -218.367 172.088 -170.444 144.602 -124.011C117.317 -77.9804 89.0852 -30.3795 89.0852 29.4439C89.0852 89.2672 117.276 136.868 144.602 182.919C172.088 229.231 200.521 277.275 200.521 337.964H197.501C197.501 278.141 169.309 230.54 142.004 184.489C114.437 137.976 85.964 90.0122 85.964 29.3633Z" fill="#FBF9FF"/>
<path d="M106.282 29.3633C106.282 -31.2856 134.715 -79.249 162.201 -125.682C189.486 -171.712 217.718 -219.333 217.718 -279.137C217.718 -338.94 189.526 -386.561 162.201 -432.611C147.582 -457.238 132.459 -482.75 121.787 -509.913L124.586 -511C135.178 -484.078 150.24 -458.647 164.859 -434.102C192.366 -387.789 220.799 -339.745 220.799 -279.056C220.799 -218.367 192.366 -170.444 164.859 -124.011C137.574 -77.9804 109.363 -30.3795 109.363 29.4439C109.363 89.2672 137.554 136.868 164.859 182.919C192.366 229.231 220.799 277.275 220.799 337.964H217.778C217.778 278.141 189.587 230.54 162.262 184.489C134.715 137.976 106.282 90.0122 106.282 29.3633Z" fill="#FBF9FF"/>
<path d="M126.539 29.3633C126.539 -31.2856 154.971 -79.249 182.458 -125.682C209.743 -171.712 237.974 -219.333 237.974 -279.137C237.974 -338.94 209.783 -386.561 182.458 -432.611C167.839 -457.238 152.716 -482.75 142.044 -509.913L144.863 -511C155.435 -484.078 170.497 -458.647 185.136 -434.102C212.643 -387.789 241.075 -339.745 241.075 -279.056C241.075 -218.367 212.643 -170.444 185.136 -124.011C157.851 -77.9804 129.64 -30.3795 129.64 29.4439C129.64 89.2672 157.831 136.868 185.136 182.919C212.643 229.231 241.075 277.275 241.075 337.964H238.055C238.055 278.141 209.864 230.54 182.538 184.489C154.971 137.976 126.539 90.0122 126.539 29.3633Z" fill="#FBF9FF"/>
<path d="M146.796 29.3633C146.796 -31.2856 175.229 -79.249 202.715 -125.682C230.021 -171.712 258.232 -219.333 258.232 -279.137C258.232 -338.94 230.041 -386.561 202.715 -432.611C188.096 -457.238 172.974 -482.75 162.301 -509.913L165.12 -511C175.712 -484.078 190.754 -458.647 205.394 -434.102C232.88 -387.789 261.313 -339.745 261.313 -279.056C261.313 -218.367 232.88 -170.444 205.394 -124.011C178.088 -77.9804 149.877 -30.3795 149.877 29.4439C149.877 89.2672 178.068 136.868 205.394 182.919C232.88 229.231 261.313 277.275 261.313 337.964H258.292C258.292 278.141 230.101 230.54 202.776 184.489C175.229 137.976 146.796 90.0122 146.796 29.3633Z" fill="#FBF9FF"/>
<path d="M167.053 29.3633C167.053 -31.2856 195.486 -79.249 222.993 -125.682C250.278 -171.712 278.489 -219.333 278.489 -279.137C278.489 -338.94 250.278 -386.521 222.892 -432.571C208.354 -457.238 193.231 -482.75 182.619 -509.913L185.438 -511C196.03 -484.078 211.092 -458.647 225.711 -434.102C253.198 -387.789 281.631 -339.745 281.631 -279.056C281.631 -218.367 253.198 -170.444 225.711 -124.011C198.406 -77.9804 170.195 -30.3795 170.195 29.4439C170.195 89.2672 198.386 136.868 225.711 182.919C253.198 229.231 281.631 277.275 281.631 337.964H278.61C278.61 278.141 250.419 230.54 223.114 184.489C195.486 137.976 167.053 90.0122 167.053 29.3633Z" fill="#FBF9FF"/>
<path d="M187.311 29.3633C187.311 -31.2856 215.744 -79.249 243.251 -125.682C270.536 -171.712 298.747 -219.333 298.747 -279.137C298.747 -338.94 270.556 -386.561 243.251 -432.611C228.631 -457.238 213.509 -482.75 202.756 -509.913L205.555 -511C216.147 -484.078 231.209 -458.647 245.828 -434.102C273.314 -387.789 301.747 -339.745 301.747 -279.056C301.747 -218.367 273.314 -170.444 245.828 -124.011C218.543 -77.9804 190.311 -30.3795 190.311 29.4439C190.311 89.2672 218.503 136.868 245.828 182.919C273.314 229.231 301.747 277.275 301.747 337.964H298.727C298.727 278.141 270.536 230.54 243.23 184.489C215.744 137.976 187.311 90.0122 187.311 29.3633Z" fill="#FBF9FF"/>
<path d="M207.568 29.3633C207.568 -31.2856 236.001 -79.249 263.508 -125.682C290.793 -171.712 319.004 -219.333 319.004 -279.137C319.004 -338.94 290.813 -386.561 263.508 -432.611C248.889 -457.238 233.766 -482.75 223.094 -509.913L225.893 -511C236.484 -484.078 251.547 -458.647 266.166 -434.102C293.672 -387.789 322.085 -339.745 322.085 -279.056C322.085 -218.367 293.652 -170.444 266.166 -124.011C238.881 -77.9804 210.649 -30.3795 210.649 29.4439C210.649 89.2672 238.84 136.868 266.166 182.919C293.652 229.231 322.085 277.275 322.085 337.964H319.064C319.064 278.141 290.873 230.54 263.568 184.489C236.001 137.976 207.568 90.0122 207.568 29.3633Z" fill="#FBF9FF"/>
<path d="M227.846 29.3634C227.846 -31.2856 256.279 -79.2489 283.765 -125.682C311.051 -171.712 339.282 -219.333 339.282 -279.137C339.282 -338.94 311.091 -386.561 283.765 -432.611C269.207 -457.238 254.024 -482.75 243.351 -509.913L246.17 -511C256.742 -484.078 271.804 -458.647 286.444 -434.102C313.95 -387.789 342.383 -339.745 342.383 -279.056C342.383 -218.367 313.95 -170.444 286.444 -124.011C259.138 -78.0609 230.947 -30.46 230.947 29.3634C230.947 89.1867 259.138 136.788 286.444 182.838C313.95 229.15 342.383 277.194 342.383 337.884H339.363C339.363 278.06 311.171 230.459 283.846 184.409C256.279 137.976 227.846 90.0123 227.846 29.3634Z" fill="#FBF9FF"/>
<path d="M248.103 29.3634C248.103 -31.2856 276.536 -79.2489 304.023 -125.682C331.308 -171.712 359.539 -219.333 359.539 -279.137C359.539 -338.94 331.348 -386.561 304.023 -432.611C289.343 -457.238 274.281 -482.75 263.608 -509.913L266.428 -511C276.999 -484.078 292.061 -458.647 306.701 -434.102C334.207 -387.789 362.64 -339.745 362.64 -279.056C362.64 -218.367 334.207 -170.444 306.701 -124.011C279.275 -78.0609 251.083 -30.46 251.083 29.3634C251.083 89.1867 279.275 136.788 306.58 182.838C334.086 229.15 362.519 277.194 362.519 337.884H359.499C359.499 278.06 331.308 230.459 303.982 184.409C276.536 137.976 248.103 90.0123 248.103 29.3634Z" fill="#FBF9FF"/>
<path d="M268.361 29.3633C268.361 -31.2856 296.794 -79.249 324.3 -125.682C351.585 -171.712 379.797 -219.333 379.797 -279.137C379.797 -338.94 351.605 -386.561 324.3 -432.611C309.661 -457.238 294.538 -482.75 283.866 -509.913L286.685 -511C297.277 -484.078 312.319 -458.647 326.958 -434.102C354.445 -387.789 382.877 -339.745 382.877 -279.056C382.877 -218.367 354.445 -170.444 326.958 -124.011C299.653 -77.9804 271.442 -30.3795 271.442 29.4439C271.442 89.2672 299.633 136.868 326.958 182.919C354.445 229.231 382.877 277.275 382.877 337.964H379.857C379.857 278.141 351.666 230.54 324.361 184.489C296.794 137.976 268.361 90.0122 268.361 29.3633Z" fill="#FBF9FF"/>
<path d="M288.618 29.3633C288.618 -31.2856 317.051 -79.249 344.558 -125.682C371.903 -171.672 400.094 -219.293 400.094 -279.096C400.094 -338.9 371.903 -386.521 344.598 -432.571C329.918 -457.238 314.816 -482.75 304.123 -509.913L306.943 -511C317.534 -484.078 332.597 -458.647 347.216 -434.102C374.702 -387.789 403.135 -339.745 403.135 -279.056C403.135 -218.367 374.702 -170.444 347.216 -124.011C319.931 -77.9804 291.699 -30.3795 291.699 29.4439C291.699 89.2672 319.89 136.868 347.216 182.919C374.702 229.231 403.135 277.275 403.135 337.964H400.094C400.094 278.141 371.903 230.54 344.598 184.489C317.051 137.976 288.618 90.0122 288.618 29.3633Z" fill="#FBF9FF"/>
<path d="M308.876 29.3633C308.876 -31.2856 337.309 -79.249 364.815 -125.682C392.04 -171.672 420.231 -219.293 420.231 -279.096C420.231 -338.9 392.04 -386.521 364.735 -432.571C350.196 -457.238 335.074 -482.75 324.401 -509.913L327.2 -511C337.792 -484.078 352.854 -458.647 367.473 -434.102C394.96 -387.789 423.393 -339.745 423.393 -279.056C423.393 -218.367 394.96 -170.444 367.473 -124.011C340.188 -77.9804 311.957 -30.3795 311.957 29.4439C311.957 89.2672 340.148 136.868 367.473 182.919C394.96 229.231 423.393 277.275 423.393 337.964H420.231C420.231 278.141 392.04 230.54 364.735 184.489C337.309 137.976 308.876 90.0122 308.876 29.3633Z" fill="#FBF9FF"/>
<path d="M329.153 29.3633C329.153 -31.2856 357.566 -79.249 385.073 -125.682C412.358 -171.712 440.589 -219.333 440.589 -279.137C440.589 -338.94 412.398 -386.561 385.073 -432.611C370.454 -457.238 355.331 -482.75 344.659 -509.913L347.458 -511C358.049 -484.078 373.112 -458.647 387.731 -434.102C415.237 -387.789 443.67 -339.745 443.67 -279.056C443.67 -218.367 415.237 -170.444 387.731 -124.011C360.446 -77.9804 332.234 -30.3795 332.234 29.4439C332.234 89.2672 360.426 136.868 387.731 182.919C415.237 229.231 443.67 277.275 443.67 337.964H440.65C440.65 278.141 412.458 230.54 385.133 184.489C357.566 137.976 329.153 90.0122 329.153 29.3633Z" fill="#FBF9FF"/>
<path d="M349.411 29.3633C349.411 -31.2856 377.844 -79.249 405.33 -125.682C432.615 -171.712 460.847 -219.333 460.847 -279.137C460.847 -338.94 432.656 -386.561 405.33 -432.611C390.711 -457.238 375.588 -482.75 364.916 -509.913L367.735 -511C378.307 -484.078 393.369 -458.647 408.008 -434.102C435.515 -387.789 463.948 -339.745 463.948 -279.056C463.948 -218.367 435.515 -170.444 408.008 -124.011C380.723 -77.9804 352.512 -30.3795 352.512 29.4439C352.512 89.2672 380.703 136.868 408.008 182.919C435.515 229.231 463.948 277.275 463.948 337.964H460.927C460.927 278.141 432.736 230.54 405.411 184.489C377.844 137.976 349.411 90.0122 349.411 29.3633Z" fill="#FBF9FF"/>
<path d="M369.668 29.3633C369.668 -31.2856 398.101 -79.249 425.588 -125.682C452.893 -171.712 481.104 -219.333 481.104 -279.137C481.104 -338.94 452.913 -386.561 425.588 -432.611C410.969 -457.238 395.846 -482.75 385.174 -509.913L388.013 -511C398.585 -484.078 413.647 -458.647 428.286 -434.102C455.772 -387.789 484.205 -339.745 484.205 -279.056C484.205 -218.367 455.772 -170.444 428.266 -124.011C400.981 -77.9804 372.769 -30.3795 372.769 29.4439C372.769 89.2672 400.961 136.868 428.266 182.919C455.772 229.231 484.205 277.275 484.205 337.964H481.185C481.185 278.141 452.994 230.54 425.668 184.489C398.081 137.976 369.668 90.0122 369.668 29.3633Z" fill="#FBF9FF"/>
<path d="M389.925 29.3633C389.925 -31.2856 418.358 -79.249 445.865 -125.682C473.15 -171.712 501.361 -219.333 501.361 -279.137C501.361 -338.94 473.17 -386.561 445.865 -432.611C431.225 -457.238 416.103 -482.75 405.43 -509.913L408.149 -511C418.741 -484.078 433.783 -458.647 448.422 -434.102C475.908 -387.789 504.341 -339.745 504.341 -279.056C504.341 -218.367 475.908 -170.444 448.422 -124.011C421.117 -77.9804 392.905 -30.3795 392.905 29.4439C392.905 89.2672 421.097 136.868 448.422 182.919C475.908 229.231 504.341 277.275 504.341 337.964H501.321C501.321 278.141 473.13 230.54 445.824 184.489C418.358 137.976 389.925 90.0122 389.925 29.3633Z" fill="#FBF9FF"/>
<path d="M410.163 29.3633C410.163 -31.2856 438.596 -79.249 466.102 -125.682C493.387 -171.712 521.599 -219.333 521.599 -279.137C521.599 -338.94 493.407 -386.561 466.102 -432.611C451.503 -457.238 436.34 -482.75 425.708 -509.913L428.507 -511C439.099 -484.078 454.161 -458.647 468.78 -434.102C496.267 -387.789 524.7 -339.745 524.7 -279.056C524.7 -218.367 496.267 -170.444 468.78 -124.011C441.495 -77.9804 413.264 -30.3795 413.264 29.4439C413.264 89.2672 441.455 136.868 468.78 182.919C496.267 229.231 524.7 277.275 524.7 337.964H521.679C521.679 278.141 493.488 230.54 466.183 184.489C438.616 137.976 410.163 90.0122 410.163 29.3633Z" fill="#FBF9FF"/>
<path d="M430.44 29.3633C430.44 -31.2856 458.873 -79.249 486.38 -125.682C513.665 -171.712 541.876 -219.333 541.876 -279.137C541.876 -338.94 513.685 -386.561 486.38 -432.611C471.761 -457.238 456.638 -482.75 445.966 -509.913L448.765 -511C459.356 -484.078 474.419 -458.647 489.038 -434.102C516.524 -387.789 544.957 -339.745 544.957 -279.056C544.957 -218.367 516.524 -170.444 489.038 -124.011C461.753 -77.9804 433.521 -30.3795 433.521 29.4439C433.521 89.2672 461.712 136.868 489.038 182.919C516.524 229.231 544.957 277.275 544.957 337.964H541.937C541.937 278.141 513.745 230.54 486.44 184.489C458.873 137.976 430.44 90.0122 430.44 29.3633Z" fill="#FBF9FF"/>
<path d="M450.718 29.3633C450.718 -31.2856 479.151 -79.249 506.637 -125.682C533.922 -171.712 562.154 -219.333 562.154 -279.137C562.154 -338.94 533.963 -386.561 506.637 -432.611C492.018 -457.238 476.895 -482.75 466.223 -509.913L469.022 -511C479.614 -484.078 494.676 -458.647 509.295 -434.102C536.802 -387.789 565.235 -339.745 565.235 -279.056C565.235 -218.367 536.802 -170.444 509.295 -124.011C482.01 -77.9804 453.799 -30.3795 453.799 29.4439C453.799 89.2672 481.99 136.868 509.295 182.919C536.802 229.231 565.235 277.275 565.235 337.964H562.214C562.214 278.141 534.023 230.54 506.698 184.489C479.151 137.976 450.718 90.0122 450.718 29.3633Z" fill="#FBF9FF"/>
<path d="M470.975 29.3633C470.975 -31.2856 499.408 -79.249 526.895 -125.682C554.18 -171.712 582.411 -219.333 582.411 -279.137C582.411 -338.94 554.18 -386.521 526.955 -432.571C512.275 -457.238 497.153 -482.75 486.481 -509.913L489.3 -511C499.871 -484.078 514.933 -458.647 529.573 -434.102C557.079 -387.789 585.512 -339.745 585.512 -279.056C585.512 -218.367 557.079 -170.444 529.573 -124.011C502.288 -77.9804 474.076 -30.3795 474.076 29.4439C474.076 89.2672 502.268 136.868 529.573 182.919C557.079 229.231 585.512 277.275 585.512 337.964H582.492C582.492 278.141 554.301 230.54 526.975 184.489C499.408 137.976 470.975 90.0122 470.975 29.3633Z" fill="#FBF9FF"/>
<path d="M491.233 29.3634C491.233 -31.2856 519.665 -79.2489 547.152 -125.682C574.457 -171.672 602.668 -219.293 602.668 -279.096C602.668 -338.9 574.457 -386.521 547.092 -432.571C532.533 -457.238 517.41 -482.75 506.818 -509.913L509.637 -511C520.209 -484.078 535.271 -458.647 549.911 -434.102C577.296 -387.709 605.689 -339.745 605.689 -279.096C605.689 -218.447 577.256 -170.484 549.75 -124.051C522.464 -78.0206 494.253 -30.4197 494.253 29.4036C494.253 89.227 522.444 136.828 549.75 182.878C577.256 229.191 605.689 277.235 605.689 337.924H602.668C602.668 278.1 574.477 230.499 547.152 184.449C519.665 137.976 491.233 90.0123 491.233 29.3634Z" fill="#FBF9FF"/>
<path d="M511.49 29.3633C511.49 -31.2856 539.923 -79.249 567.43 -125.682C594.715 -171.672 622.926 -219.293 622.926 -279.096C622.926 -338.9 594.735 -386.521 567.43 -432.571C552.79 -457.238 537.668 -482.75 526.955 -509.913L529.774 -511C540.366 -484.078 555.408 -458.647 570.047 -434.102C597.534 -387.789 625.967 -339.745 625.967 -279.056C625.967 -218.367 597.534 -170.444 570.047 -124.011C542.742 -77.9804 514.531 -30.3795 514.531 29.4439C514.531 89.2672 542.722 136.868 570.047 182.919C597.534 229.231 625.967 277.275 625.967 337.964H622.946C622.946 278.141 594.755 230.54 567.45 184.489C539.923 137.976 511.49 90.0122 511.49 29.3633Z" fill="#FBF9FF"/>
<path d="M531.747 29.3633C531.747 -31.2856 560.18 -79.249 587.687 -125.682C614.972 -171.672 643.183 -219.293 643.183 -279.096C643.183 -338.9 614.972 -386.521 587.687 -432.571C573.068 -457.238 557.945 -482.75 547.273 -509.913L550.072 -511C560.664 -484.078 575.726 -458.647 590.345 -434.102C617.831 -387.789 646.264 -339.745 646.264 -279.056C646.264 -218.367 617.831 -170.444 590.345 -124.011C563.06 -77.9804 534.828 -30.3795 534.828 29.4439C534.828 89.2672 563.02 136.868 590.345 182.919C617.831 229.231 646.264 277.275 646.264 337.964H643.244C643.244 278.141 615.052 230.54 587.747 184.489C560.18 137.976 531.747 90.0122 531.747 29.3633Z" fill="#FBF9FF"/>
<path d="M552.974 24.3633C552.974 -36.2856 581.407 -84.249 608.894 -130.682C636.179 -176.712 664.41 -224.333 664.41 -284.137C664.41 -343.94 636.219 -391.561 608.894 -437.611C594.274 -462.238 579.152 -487.75 568.48 -514.913L571.299 -516C581.87 -489.078 596.933 -463.647 611.572 -439.102C639.078 -392.789 667.511 -344.745 667.511 -284.056C667.511 -223.367 639.078 -175.444 611.572 -129.011C584.287 -82.9804 556.075 -35.3795 556.075 24.4439C556.075 84.2672 584.267 131.868 611.572 177.919C639.078 224.231 667.511 272.275 667.511 332.964H664.491C664.491 273.141 636.3 225.54 608.974 179.489C581.407 132.976 552.974 85.0122 552.974 24.3633Z" fill="#FBF9FF"/>
<path d="M573.231 24.3633C573.231 -36.2856 601.664 -84.249 629.15 -130.682C656.456 -176.712 684.667 -224.333 684.667 -284.137C684.667 -343.94 656.476 -391.561 629.15 -437.611C614.531 -462.238 599.409 -487.75 588.736 -514.913L591.556 -516C602.127 -489.078 617.189 -463.647 631.829 -439.102C659.335 -392.789 687.768 -344.745 687.768 -284.056C687.768 -223.367 659.335 -175.444 631.829 -129.011C604.544 -82.9804 576.332 -35.3795 576.332 24.4439C576.332 84.2672 604.523 131.868 631.829 177.919C659.335 224.231 687.768 272.275 687.768 332.964H684.748C684.748 273.141 656.556 225.54 629.231 179.489C601.745 132.976 573.231 85.0122 573.231 24.3633Z" fill="#FBF9FF"/>
<path d="M593.489 24.3633C593.489 -36.2856 621.921 -84.249 649.408 -130.682C676.713 -176.712 704.924 -224.333 704.924 -284.137C704.924 -343.94 676.733 -391.561 649.428 -437.611C634.789 -462.238 619.666 -487.75 608.994 -514.913L611.813 -516C622.405 -489.078 637.447 -463.647 652.086 -439.102C679.573 -392.789 708.005 -344.745 708.005 -284.056C708.005 -223.367 679.573 -175.444 652.086 -129.011C624.781 -82.9804 596.57 -35.3795 596.57 24.4439C596.57 84.2672 624.761 131.868 652.086 177.919C679.573 224.231 708.005 272.275 708.005 332.964H704.985C704.985 273.141 676.794 225.54 649.468 179.489C621.881 132.976 593.489 85.0122 593.489 24.3633Z" fill="#FBF9FF"/>
<path d="M613.827 24.3633C613.827 -36.2856 642.26 -84.249 669.766 -130.682C697.051 -176.712 725.263 -224.333 725.263 -284.137C725.263 -343.94 697.071 -391.561 669.766 -437.611C655.066 -462.238 640.004 -487.75 629.272 -514.913L632.07 -516C642.662 -489.078 657.724 -463.647 672.344 -439.102C699.83 -392.789 728.263 -344.745 728.263 -284.056C728.263 -223.367 699.83 -175.444 672.344 -129.011C645.059 -82.9804 616.827 -35.3795 616.827 24.4439C616.827 84.2672 645.018 131.868 672.344 177.919C699.83 224.231 728.263 272.275 728.263 332.964H725.242C725.242 273.141 697.051 225.54 669.746 179.489C642.179 132.976 613.827 85.0122 613.827 24.3633Z" fill="#FBF9FF"/>
<path d="M633.964 24.3633C633.964 -36.2856 662.396 -84.249 689.903 -130.682C717.188 -176.712 745.399 -224.333 745.399 -284.137C745.399 -343.94 717.208 -391.561 689.903 -437.611C675.324 -462.238 660.141 -487.75 649.529 -514.913L652.328 -516C662.92 -489.078 677.982 -463.647 692.601 -439.102C720.088 -392.789 748.521 -344.745 748.521 -284.056C748.521 -223.367 720.088 -175.444 692.601 -129.011C665.316 -82.9804 637.085 -35.3795 637.085 24.4439C637.085 84.2672 665.276 131.868 692.601 177.919C720.088 224.231 748.521 272.275 748.521 332.964H745.5C745.5 273.141 717.309 225.54 690.004 179.489C662.437 132.976 633.964 85.0122 633.964 24.3633Z" fill="#FBF9FF"/>
<path d="M654.281 24.3633C654.281 -36.2856 682.714 -84.249 710.201 -130.682C737.486 -176.712 765.717 -224.333 765.717 -284.137C765.717 -343.94 737.526 -391.561 710.201 -437.611C695.581 -462.238 680.459 -487.75 669.786 -514.913L672.585 -516C683.177 -489.078 698.239 -463.647 712.859 -439.102C740.365 -392.789 768.798 -344.745 768.798 -284.056C768.798 -223.367 740.365 -175.444 712.859 -129.011C685.574 -82.9804 657.362 -35.3795 657.362 24.4439C657.362 84.2672 685.553 131.868 712.859 177.919C740.365 224.231 768.798 272.275 768.798 332.964H765.778C765.778 273.141 737.586 225.54 710.261 179.489C682.714 132.976 654.281 85.0122 654.281 24.3633Z" fill="#FBF9FF"/>
<path d="M674.538 24.3633C674.538 -36.2856 702.971 -84.249 730.457 -130.682C757.742 -176.712 785.974 -224.333 785.974 -284.137C785.974 -343.94 757.783 -391.561 730.457 -437.611C715.838 -462.238 700.716 -487.75 690.043 -514.913L692.862 -516C703.434 -489.078 718.496 -463.647 733.136 -439.102C760.642 -392.789 789.075 -344.745 789.075 -284.056C789.075 -223.367 760.642 -175.444 733.136 -129.011C705.85 -82.9804 677.639 -35.3795 677.639 24.4439C677.639 84.2672 705.83 131.868 733.136 177.919C760.642 224.231 789.075 272.275 789.075 332.964H786.054C786.054 273.141 757.863 225.54 730.538 179.489C702.971 132.976 674.538 85.0122 674.538 24.3633Z" fill="#FBF9FF"/>
<path d="M694.796 24.3633C694.796 -36.2856 723.229 -84.249 750.715 -130.682C778.02 -176.712 806.232 -224.333 806.232 -284.137C806.232 -343.94 778.04 -391.561 750.715 -437.611C736.096 -462.238 720.973 -487.75 710.301 -514.913L713.12 -516C723.712 -489.078 738.754 -463.647 753.393 -439.102C780.88 -392.789 809.312 -344.745 809.312 -284.056C809.312 -223.367 780.88 -175.444 753.393 -129.011C726.088 -82.9804 697.877 -35.3795 697.877 24.4439C697.877 84.2672 726.068 131.868 753.393 177.919C780.88 224.231 809.312 272.275 809.312 332.964H806.292C806.292 273.141 778.101 225.54 750.775 179.489C723.229 132.976 694.796 85.0122 694.796 24.3633Z" fill="#FBF9FF"/>
<path d="M715.053 24.3633C715.053 -36.2856 743.486 -84.249 770.992 -130.682C798.277 -176.712 826.489 -224.333 826.489 -284.137C826.489 -343.94 798.277 -391.521 770.892 -437.571C756.353 -462.238 741.231 -487.75 730.619 -514.913L733.438 -516C744.03 -489.078 759.092 -463.647 773.711 -439.102C801.197 -392.789 829.63 -344.745 829.63 -284.056C829.63 -223.367 801.197 -175.444 773.711 -129.011C746.406 -82.9804 718.194 -35.3795 718.194 24.4439C718.194 84.2672 746.386 131.868 773.711 177.919C801.197 224.231 829.63 272.275 829.63 332.964H826.61C826.61 273.141 798.418 225.54 771.113 179.489C743.486 132.976 715.053 85.0122 715.053 24.3633Z" fill="#FBF9FF"/>
</svg>
