<svg width="723" height="2297" viewBox="0 0 723 2297" fill="none" xmlns="http://www.w3.org/2000/svg">
<mask id="mask0" mask-type="alpha" maskUnits="userSpaceOnUse" x="0" y="0" width="723" height="2297">
<rect width="723" height="2297" fill="#C4C4C4"/>
</mask>
<g mask="url(#mask0)">
<path d="M4.97434 1759.6C4.97434 1820.25 33.4072 1868.21 60.8936 1914.65C88.1787 1960.68 116.41 2008.3 116.41 2068.1C116.41 2127.9 88.2189 2175.52 60.8936 2221.58C46.2744 2246.2 31.1519 2271.71 20.4795 2298.88L23.2986 2299.96C33.8703 2273.04 48.9325 2247.61 63.5718 2223.07C91.0784 2176.75 119.511 2128.71 119.511 2068.02C119.511 2007.33 91.0784 1959.41 63.5718 1912.97C36.2867 1866.94 8.07539 1819.34 8.07539 1759.52C8.07539 1699.7 36.2666 1652.1 63.5718 1606.05C91.0784 1559.73 119.511 1511.69 119.511 1451H116.491C116.491 1510.82 88.2995 1558.42 60.9742 1604.47C33.4072 1650.99 4.97434 1698.95 4.97434 1759.6Z" fill="#FBF9FF"/>
<path d="M25.2312 1759.6C25.2312 1820.25 53.664 1868.21 81.1505 1914.65C108.456 1960.68 136.667 2008.3 136.667 2068.1C136.667 2127.9 108.476 2175.52 81.1505 2221.58C66.5313 2246.2 51.4088 2271.71 40.7364 2298.88L43.5555 2299.96C54.1272 2273.04 69.1894 2247.61 83.8287 2223.07C111.335 2176.75 139.768 2128.71 139.768 2068.02C139.768 2007.33 111.335 1959.41 83.8287 1912.97C56.5436 1866.94 28.3323 1819.34 28.3323 1759.52C28.3323 1699.7 56.5235 1652.1 83.8287 1606.05C111.335 1559.73 139.768 1511.69 139.768 1451H136.748C136.748 1510.82 108.556 1558.42 81.231 1604.47C53.7446 1650.99 25.2312 1698.95 25.2312 1759.6Z" fill="#FBF9FF"/>
<path d="M45.4889 1759.6C45.4889 1820.25 73.9217 1868.21 101.408 1914.65C128.713 1960.68 156.925 2008.3 156.925 2068.1C156.925 2127.9 128.733 2175.52 101.428 2221.58C86.789 2246.2 71.6665 2271.71 60.9941 2298.88L63.8132 2299.96C74.405 2273.04 89.447 2247.61 104.086 2223.07C131.573 2176.75 160.006 2128.71 160.006 2068.02C160.006 2007.33 131.573 1959.41 104.086 1912.97C76.7811 1866.94 48.5698 1819.34 48.5698 1759.52C48.5698 1699.7 76.761 1652.1 104.086 1606.05C131.573 1559.73 160.006 1511.69 160.006 1451H156.985C156.985 1510.82 128.794 1558.42 101.469 1604.47C73.8815 1650.99 45.4889 1698.95 45.4889 1759.6Z" fill="#FBF9FF"/>
<path d="M65.827 1759.6C65.827 1820.25 94.2598 1868.21 121.766 1914.65C149.051 1960.68 177.263 2008.3 177.263 2068.1C177.263 2127.9 149.072 2175.52 121.766 2221.58C107.067 2246.2 92.0046 2271.71 81.2718 2298.88L84.0707 2299.96C94.6626 2273.04 109.725 2247.61 124.344 2223.07C151.83 2176.75 180.263 2128.71 180.263 2068.02C180.263 2007.33 151.83 1959.41 124.344 1912.97C97.0588 1866.94 68.8273 1819.34 68.8273 1759.52C68.8273 1699.7 97.0185 1652.1 124.344 1606.05C151.83 1559.73 180.263 1511.69 180.263 1451H177.243C177.243 1510.82 149.051 1558.42 121.746 1604.47C94.1793 1650.99 65.827 1698.95 65.827 1759.6Z" fill="#FBF9FF"/>
<path d="M85.9635 1759.6C85.9635 1820.25 114.396 1868.21 141.903 1914.65C169.188 1960.68 197.399 2008.3 197.399 2068.1C197.399 2127.9 169.208 2175.52 141.903 2221.58C127.324 2246.2 112.141 2271.71 101.529 2298.88L104.328 2299.96C114.92 2273.04 129.982 2247.61 144.601 2223.07C172.088 2176.75 200.521 2128.71 200.521 2068.02C200.521 2007.33 172.088 1959.41 144.601 1912.97C117.316 1866.94 89.0847 1819.34 89.0847 1759.52C89.0847 1699.7 117.276 1652.1 144.601 1606.05C172.088 1559.73 200.521 1511.69 200.521 1451H197.5C197.5 1510.82 169.309 1558.42 142.004 1604.47C114.437 1650.99 85.9635 1698.95 85.9635 1759.6Z" fill="#FBF9FF"/>
<path d="M106.281 1759.6C106.281 1820.25 134.714 1868.21 162.201 1914.65C189.486 1960.68 217.717 2008.3 217.717 2068.1C217.717 2127.9 189.526 2175.52 162.201 2221.58C147.581 2246.2 132.459 2271.71 121.786 2298.88L124.585 2299.96C135.177 2273.04 150.239 2247.61 164.859 2223.07C192.365 2176.75 220.798 2128.71 220.798 2068.02C220.798 2007.33 192.365 1959.41 164.859 1912.97C137.574 1866.94 109.362 1819.34 109.362 1759.52C109.362 1699.7 137.553 1652.1 164.859 1606.05C192.365 1559.73 220.798 1511.69 220.798 1451H217.778C217.778 1510.82 189.586 1558.42 162.261 1604.47C134.714 1650.99 106.281 1698.95 106.281 1759.6Z" fill="#FBF9FF"/>
<path d="M126.538 1759.6C126.538 1820.25 154.971 1868.21 182.457 1914.65C209.742 1960.68 237.974 2008.3 237.974 2068.1C237.974 2127.9 209.783 2175.52 182.457 2221.58C167.838 2246.2 152.716 2271.71 142.043 2298.88L144.862 2299.96C155.434 2273.04 170.496 2247.61 185.136 2223.07C212.642 2176.75 241.075 2128.71 241.075 2068.02C241.075 2007.33 212.642 1959.41 185.136 1912.97C157.85 1866.94 129.639 1819.34 129.639 1759.52C129.639 1699.7 157.83 1652.1 185.136 1606.05C212.642 1559.73 241.075 1511.69 241.075 1451H238.054C238.054 1510.82 209.863 1558.42 182.538 1604.47C154.971 1650.99 126.538 1698.95 126.538 1759.6Z" fill="#FBF9FF"/>
<path d="M146.796 1759.6C146.796 1820.25 175.229 1868.21 202.715 1914.65C230.02 1960.68 258.232 2008.3 258.232 2068.1C258.232 2127.9 230.04 2175.52 202.715 2221.58C188.096 2246.2 172.973 2271.71 162.301 2298.88L165.12 2299.96C175.712 2273.04 190.754 2247.61 205.393 2223.07C232.88 2176.75 261.312 2128.71 261.312 2068.02C261.312 2007.33 232.88 1959.41 205.393 1912.97C178.088 1866.94 149.877 1819.34 149.877 1759.52C149.877 1699.7 178.068 1652.1 205.393 1606.05C232.88 1559.73 261.313 1511.69 261.313 1451H258.292C258.292 1510.82 230.101 1558.42 202.775 1604.47C175.229 1650.99 146.796 1698.95 146.796 1759.6Z" fill="#FBF9FF"/>
<path d="M167.053 1759.6C167.053 1820.25 195.486 1868.21 222.992 1914.65C250.277 1960.68 278.489 2008.3 278.489 2068.1C278.489 2127.9 250.277 2175.48 222.892 2221.54C208.353 2246.2 193.231 2271.71 182.619 2298.88L185.438 2299.96C196.03 2273.04 211.092 2247.61 225.711 2223.07C253.197 2176.75 281.63 2128.71 281.63 2068.02C281.63 2007.33 253.197 1959.41 225.711 1912.97C198.406 1866.94 170.194 1819.34 170.194 1759.52C170.194 1699.7 198.386 1652.1 225.711 1606.05C253.197 1559.73 281.63 1511.69 281.63 1451H278.61C278.61 1510.82 250.418 1558.42 223.113 1604.47C195.486 1650.99 167.053 1698.95 167.053 1759.6Z" fill="#FBF9FF"/>
<path d="M187.311 1759.6C187.311 1820.25 215.743 1868.21 243.25 1914.65C270.535 1960.68 298.746 2008.3 298.746 2068.1C298.746 2127.9 270.555 2175.52 243.25 2221.58C228.631 2246.2 213.508 2271.71 202.755 2298.88L205.554 2299.96C216.146 2273.04 231.208 2247.61 245.828 2223.07C273.314 2176.75 301.747 2128.71 301.747 2068.02C301.747 2007.33 273.314 1959.41 245.828 1912.97C218.542 1866.94 190.311 1819.34 190.311 1759.52C190.311 1699.7 218.502 1652.1 245.828 1606.05C273.314 1559.73 301.747 1511.69 301.747 1451H298.726C298.726 1510.82 270.535 1558.42 243.23 1604.47C215.743 1650.99 187.311 1698.95 187.311 1759.6Z" fill="#FBF9FF"/>
<path d="M207.568 1759.6C207.568 1820.25 236.001 1868.21 263.507 1914.65C290.792 1960.68 319.004 2008.3 319.004 2068.1C319.004 2127.9 290.812 2175.52 263.507 2221.58C248.888 2246.2 233.765 2271.71 223.093 2298.88L225.892 2299.96C236.484 2273.04 251.546 2247.61 266.165 2223.07C293.672 2176.75 322.084 2128.71 322.084 2068.02C322.084 2007.33 293.652 1959.41 266.165 1912.97C238.88 1866.94 210.649 1819.34 210.649 1759.52C210.649 1699.7 238.84 1652.1 266.165 1606.05C293.652 1559.73 322.084 1511.69 322.084 1451H319.064C319.064 1510.82 290.873 1558.42 263.568 1604.47C236.001 1650.99 207.568 1698.95 207.568 1759.6Z" fill="#FBF9FF"/>
<path d="M227.846 1759.6C227.846 1820.25 256.279 1868.21 283.765 1914.65C311.05 1960.68 339.282 2008.3 339.282 2068.1C339.282 2127.9 311.091 2175.52 283.765 2221.58C269.206 2246.2 254.023 2271.71 243.351 2298.88L246.17 2299.96C256.742 2273.04 271.804 2247.61 286.443 2223.07C313.95 2176.75 342.383 2128.71 342.383 2068.02C342.383 2007.33 313.95 1959.41 286.443 1912.97C259.138 1867.02 230.947 1819.42 230.947 1759.6C230.947 1699.78 259.138 1652.18 286.443 1606.13C313.95 1559.81 342.383 1511.77 342.383 1451.08H339.362C339.362 1510.9 311.171 1558.5 283.846 1604.56C256.279 1650.99 227.846 1698.95 227.846 1759.6Z" fill="#FBF9FF"/>
<path d="M248.103 1759.6C248.103 1820.25 276.536 1868.21 304.022 1914.65C331.307 1960.68 359.539 2008.3 359.539 2068.1C359.539 2127.9 331.347 2175.52 304.022 2221.58C289.342 2246.2 274.28 2271.71 263.608 2298.88L266.427 2299.96C276.999 2273.04 292.061 2247.61 306.7 2223.07C334.207 2176.75 362.64 2128.71 362.64 2068.02C362.64 2007.33 334.207 1959.41 306.7 1912.97C279.274 1867.02 251.083 1819.42 251.083 1759.6C251.083 1699.78 279.274 1652.18 306.579 1606.13C334.086 1559.81 362.519 1511.77 362.519 1451.08H359.498C359.498 1510.9 331.307 1558.5 303.982 1604.56C276.536 1650.99 248.103 1698.95 248.103 1759.6Z" fill="#FBF9FF"/>
<path d="M268.36 1759.6C268.36 1820.25 296.793 1868.21 324.3 1914.65C351.585 1960.68 379.796 2008.3 379.796 2068.1C379.796 2127.9 351.605 2175.52 324.3 2221.58C309.66 2246.2 294.538 2271.71 283.865 2298.88L286.685 2299.96C297.276 2273.04 312.318 2247.61 326.958 2223.07C354.444 2176.75 382.877 2128.71 382.877 2068.02C382.877 2007.33 354.444 1959.41 326.958 1912.97C299.652 1866.94 271.441 1819.34 271.441 1759.52C271.441 1699.7 299.632 1652.1 326.958 1606.05C354.444 1559.73 382.877 1511.69 382.877 1451H379.856C379.856 1510.82 351.665 1558.42 324.36 1604.47C296.793 1650.99 268.36 1698.95 268.36 1759.6Z" fill="#FBF9FF"/>
<path d="M288.618 1759.6C288.618 1820.25 317.051 1868.21 344.557 1914.65C371.903 1960.64 400.094 2008.26 400.094 2068.06C400.094 2127.86 371.903 2175.48 344.597 2221.54C329.918 2246.2 314.815 2271.71 304.123 2298.88L306.942 2299.96C317.534 2273.04 332.596 2247.61 347.215 2223.07C374.702 2176.75 403.135 2128.71 403.135 2068.02C403.135 2007.33 374.702 1959.41 347.215 1912.97C319.93 1866.94 291.699 1819.34 291.699 1759.52C291.699 1699.7 319.89 1652.1 347.215 1606.05C374.702 1559.73 403.135 1511.69 403.135 1451H400.094C400.094 1510.82 371.903 1558.42 344.597 1604.47C317.051 1650.99 288.618 1698.95 288.618 1759.6Z" fill="#FBF9FF"/>
<path d="M308.875 1759.6C308.875 1820.25 337.308 1868.21 364.815 1914.65C392.039 1960.64 420.231 2008.26 420.231 2068.06C420.231 2127.86 392.039 2175.48 364.734 2221.54C350.196 2246.2 335.073 2271.71 324.401 2298.88L327.2 2299.96C337.792 2273.04 352.854 2247.61 367.473 2223.07C394.959 2176.75 423.392 2128.71 423.392 2068.02C423.392 2007.33 394.959 1959.41 367.473 1912.97C340.188 1866.94 311.956 1819.34 311.956 1759.52C311.956 1699.7 340.147 1652.1 367.473 1606.05C394.959 1559.73 423.392 1511.69 423.392 1451H420.231C420.231 1510.82 392.039 1558.42 364.734 1604.47C337.308 1650.99 308.875 1698.95 308.875 1759.6Z" fill="#FBF9FF"/>
<path d="M329.153 1759.6C329.153 1820.25 357.566 1868.21 385.072 1914.65C412.357 1960.68 440.589 2008.3 440.589 2068.1C440.589 2127.9 412.398 2175.52 385.072 2221.58C370.453 2246.2 355.33 2271.71 344.658 2298.88L347.457 2299.96C358.049 2273.04 373.111 2247.61 387.73 2223.07C415.237 2176.75 443.67 2128.71 443.67 2068.02C443.67 2007.33 415.237 1959.41 387.73 1912.97C360.445 1866.94 332.234 1819.34 332.234 1759.52C332.234 1699.7 360.425 1652.1 387.73 1606.05C415.237 1559.73 443.67 1511.69 443.67 1451H440.649C440.649 1510.82 412.458 1558.42 385.133 1604.47C357.566 1650.99 329.153 1698.95 329.153 1759.6Z" fill="#FBF9FF"/>
<path d="M349.41 1759.6C349.41 1820.25 377.843 1868.21 405.33 1914.65C432.615 1960.68 460.846 2008.3 460.846 2068.1C460.846 2127.9 432.655 2175.52 405.33 2221.58C390.711 2246.2 375.588 2271.71 364.916 2298.88L367.735 2299.96C378.306 2273.04 393.369 2247.61 408.008 2223.07C435.514 2176.75 463.947 2128.71 463.947 2068.02C463.947 2007.33 435.514 1959.41 408.008 1912.97C380.723 1866.94 352.511 1819.34 352.511 1759.52C352.511 1699.7 380.703 1652.1 408.008 1606.05C435.514 1559.73 463.947 1511.69 463.947 1451H460.927C460.927 1510.82 432.736 1558.42 405.41 1604.47C377.843 1650.99 349.41 1698.95 349.41 1759.6Z" fill="#FBF9FF"/>
<path d="M369.668 1759.6C369.668 1820.25 398.101 1868.21 425.587 1914.65C452.892 1960.68 481.104 2008.3 481.104 2068.1C481.104 2127.9 452.913 2175.52 425.587 2221.58C410.968 2246.2 395.846 2271.71 385.173 2298.88L388.012 2299.96C398.584 2273.04 413.646 2247.61 428.286 2223.07C455.772 2176.75 484.205 2128.71 484.205 2068.02C484.205 2007.33 455.772 1959.41 428.265 1912.97C400.98 1866.94 372.769 1819.34 372.769 1759.52C372.769 1699.7 400.96 1652.1 428.265 1606.05C455.772 1559.73 484.205 1511.69 484.205 1451H481.184C481.184 1510.82 452.993 1558.42 425.668 1604.47C398.081 1650.99 369.668 1698.95 369.668 1759.6Z" fill="#FBF9FF"/>
<path d="M389.925 1759.6C389.925 1820.25 418.358 1868.21 445.864 1914.65C473.149 1960.68 501.361 2008.3 501.361 2068.1C501.361 2127.9 473.169 2175.52 445.864 2221.58C431.225 2246.2 416.102 2271.71 405.43 2298.88L408.148 2299.96C418.74 2273.04 433.782 2247.61 448.422 2223.07C475.908 2176.75 504.341 2128.71 504.341 2068.02C504.341 2007.33 475.908 1959.41 448.422 1912.97C421.116 1866.94 392.905 1819.34 392.905 1759.52C392.905 1699.7 421.096 1652.1 448.422 1606.05C475.908 1559.73 504.341 1511.69 504.341 1451H501.32C501.32 1510.82 473.129 1558.42 445.824 1604.47C418.358 1650.99 389.925 1698.95 389.925 1759.6Z" fill="#FBF9FF"/>
<path d="M410.162 1759.6C410.162 1820.25 438.595 1868.21 466.102 1914.65C493.387 1960.68 521.598 2008.3 521.598 2068.1C521.598 2127.9 493.407 2175.52 466.102 2221.58C451.503 2246.2 436.34 2271.71 425.708 2298.88L428.507 2299.96C439.099 2273.04 454.161 2247.61 468.78 2223.07C496.266 2176.75 524.699 2128.71 524.699 2068.02C524.699 2007.33 496.266 1959.41 468.78 1912.97C441.495 1866.94 413.263 1819.34 413.263 1759.52C413.263 1699.7 441.455 1652.1 468.78 1606.05C496.266 1559.73 524.699 1511.69 524.699 1451H521.679C521.679 1510.82 493.488 1558.42 466.182 1604.47C438.615 1650.99 410.162 1698.95 410.162 1759.6Z" fill="#FBF9FF"/>
<path d="M430.44 1759.6C430.44 1820.25 458.873 1868.21 486.379 1914.65C513.664 1960.68 541.876 2008.3 541.876 2068.1C541.876 2127.9 513.684 2175.52 486.379 2221.58C471.76 2246.2 456.637 2271.71 445.965 2298.88L448.764 2299.96C459.356 2273.04 474.418 2247.61 489.037 2223.07C516.524 2176.75 544.957 2128.71 544.957 2068.02C544.957 2007.33 516.524 1959.41 489.037 1912.97C461.752 1866.94 433.521 1819.34 433.521 1759.52C433.521 1699.7 461.712 1652.1 489.037 1606.05C516.524 1559.73 544.957 1511.69 544.957 1451H541.936C541.936 1510.82 513.745 1558.42 486.44 1604.47C458.873 1650.99 430.44 1698.95 430.44 1759.6Z" fill="#FBF9FF"/>
<path d="M450.717 1759.6C450.717 1820.25 479.15 1868.21 506.637 1914.65C533.922 1960.68 562.153 2008.3 562.153 2068.1C562.153 2127.9 533.962 2175.52 506.637 2221.58C492.018 2246.2 476.895 2271.71 466.223 2298.88L469.022 2299.96C479.613 2273.04 494.676 2247.61 509.295 2223.07C536.801 2176.75 565.234 2128.71 565.234 2068.02C565.234 2007.33 536.801 1959.41 509.295 1912.97C482.01 1866.94 453.798 1819.34 453.798 1759.52C453.798 1699.7 481.989 1652.1 509.295 1606.05C536.801 1559.73 565.234 1511.69 565.234 1451H562.214C562.214 1510.82 534.022 1558.42 506.697 1604.47C479.15 1650.99 450.717 1698.95 450.717 1759.6Z" fill="#FBF9FF"/>
<path d="M470.975 1759.6C470.975 1820.25 499.408 1868.21 526.894 1914.65C554.179 1960.68 582.411 2008.3 582.411 2068.1C582.411 2127.9 554.179 2175.48 526.955 2221.54C512.275 2246.2 497.152 2271.71 486.48 2298.88L489.299 2299.96C499.871 2273.04 514.933 2247.61 529.572 2223.07C557.079 2176.75 585.512 2128.71 585.512 2068.02C585.512 2007.33 557.079 1959.41 529.572 1912.97C502.287 1866.94 474.076 1819.34 474.076 1759.52C474.076 1699.7 502.267 1652.1 529.572 1606.05C557.079 1559.73 585.512 1511.69 585.512 1451H582.491C582.491 1510.82 554.3 1558.42 526.975 1604.47C499.408 1650.99 470.975 1698.95 470.975 1759.6Z" fill="#FBF9FF"/>
<path d="M491.232 1759.6C491.232 1820.25 519.665 1868.21 547.151 1914.65C574.457 1960.64 602.668 2008.26 602.668 2068.06C602.668 2127.86 574.457 2175.48 547.091 2221.54C532.532 2246.2 517.41 2271.71 506.818 2298.88L509.637 2299.96C520.209 2273.04 535.271 2247.61 549.91 2223.07C577.296 2176.67 605.688 2128.71 605.688 2068.06C605.688 2007.41 577.256 1959.45 549.749 1913.01C522.464 1866.98 494.253 1819.38 494.253 1759.56C494.253 1699.74 522.444 1652.14 549.749 1606.09C577.256 1559.77 605.688 1511.73 605.688 1451.04H602.668C602.668 1510.86 574.477 1558.46 547.151 1604.51C519.665 1650.99 491.232 1698.95 491.232 1759.6Z" fill="#FBF9FF"/>
<path d="M511.49 1759.6C511.49 1820.25 539.922 1868.21 567.429 1914.65C594.714 1960.64 622.925 2008.26 622.925 2068.06C622.925 2127.86 594.734 2175.48 567.429 2221.54C552.79 2246.2 537.667 2271.71 526.955 2298.88L529.774 2299.96C540.365 2273.04 555.407 2247.61 570.047 2223.07C597.533 2176.75 625.966 2128.71 625.966 2068.02C625.966 2007.33 597.533 1959.41 570.047 1912.97C542.742 1866.94 514.53 1819.34 514.53 1759.52C514.53 1699.7 542.721 1652.1 570.047 1606.05C597.533 1559.73 625.966 1511.69 625.966 1451H622.946C622.946 1510.82 594.754 1558.42 567.449 1604.47C539.922 1650.99 511.49 1698.95 511.49 1759.6Z" fill="#FBF9FF"/>
<path d="M531.747 1759.6C531.747 1820.25 560.18 1868.21 587.686 1914.65C614.971 1960.64 643.183 2008.26 643.183 2068.06C643.183 2127.86 614.971 2175.48 587.686 2221.54C573.067 2246.2 557.945 2271.71 547.272 2298.88L550.071 2299.96C560.663 2273.04 575.725 2247.61 590.344 2223.07C617.831 2176.75 646.264 2128.71 646.264 2068.02C646.264 2007.33 617.831 1959.41 590.344 1912.97C563.059 1866.94 534.828 1819.34 534.828 1759.52C534.828 1699.7 563.019 1652.1 590.344 1606.05C617.831 1559.73 646.264 1511.69 646.264 1451H643.243C643.243 1510.82 615.052 1558.42 587.747 1604.47C560.18 1650.99 531.747 1698.95 531.747 1759.6Z" fill="#FBF9FF"/>
<path d="M552.974 1764.6C552.974 1825.25 581.407 1873.21 608.893 1919.65C636.178 1965.68 664.41 2013.3 664.41 2073.1C664.41 2132.9 636.218 2180.52 608.893 2226.58C594.274 2251.2 579.151 2276.71 568.479 2303.88L571.298 2304.96C581.87 2278.04 596.932 2252.61 611.571 2228.07C639.078 2181.75 667.511 2133.71 667.511 2073.02C667.511 2012.33 639.078 1964.41 611.571 1917.97C584.286 1871.94 556.075 1824.34 556.075 1764.52C556.075 1704.7 584.266 1657.1 611.571 1611.05C639.078 1564.73 667.511 1516.69 667.511 1456H664.49C664.49 1515.82 636.299 1563.42 608.974 1609.47C581.407 1655.99 552.974 1703.95 552.974 1764.6Z" fill="#FBF9FF"/>
<path d="M573.231 1764.6C573.231 1825.25 601.664 1873.21 629.15 1919.65C656.455 1965.68 684.667 2013.3 684.667 2073.1C684.667 2132.9 656.475 2180.52 629.15 2226.58C614.531 2251.2 599.408 2276.71 588.736 2303.88L591.555 2304.96C602.127 2278.04 617.189 2252.61 631.828 2228.07C659.335 2181.75 687.768 2133.71 687.768 2073.02C687.768 2012.33 659.335 1964.41 631.828 1917.97C604.543 1871.94 576.332 1824.34 576.332 1764.52C576.332 1704.7 604.523 1657.1 631.828 1611.05C659.335 1564.73 687.768 1516.69 687.768 1456H684.747C684.747 1515.82 656.556 1563.42 629.231 1609.47C601.744 1655.99 573.231 1703.95 573.231 1764.6Z" fill="#FBF9FF"/>
<path d="M593.488 1764.6C593.488 1825.25 621.921 1873.21 649.408 1919.65C676.713 1965.68 704.924 2013.3 704.924 2073.1C704.924 2132.9 676.733 2180.52 649.428 2226.58C634.789 2251.2 619.666 2276.71 608.994 2303.88L611.813 2304.96C622.405 2278.04 637.447 2252.61 652.086 2228.07C679.572 2181.75 708.005 2133.71 708.005 2073.02C708.005 2012.33 679.572 1964.41 652.086 1917.97C624.781 1871.94 596.569 1824.34 596.569 1764.52C596.569 1704.7 624.761 1657.1 652.086 1611.05C679.572 1564.73 708.005 1516.69 708.005 1456H704.985C704.985 1515.82 676.793 1563.42 649.468 1609.47C621.881 1655.99 593.488 1703.95 593.488 1764.6Z" fill="#FBF9FF"/>
<path d="M613.826 1764.6C613.826 1825.25 642.259 1873.21 669.766 1919.65C697.051 1965.68 725.262 2013.3 725.262 2073.1C725.262 2132.9 697.071 2180.52 669.766 2226.58C655.066 2251.2 640.004 2276.71 629.271 2303.88L632.07 2304.96C642.662 2278.04 657.724 2252.61 672.343 2228.07C699.83 2181.75 728.263 2133.71 728.263 2073.02C728.263 2012.33 699.83 1964.41 672.343 1917.97C645.058 1871.94 616.827 1824.34 616.827 1764.52C616.827 1704.7 645.018 1657.1 672.343 1611.05C699.83 1564.73 728.263 1516.69 728.263 1456H725.242C725.242 1515.82 697.051 1563.42 669.746 1609.47C642.179 1655.99 613.826 1703.95 613.826 1764.6Z" fill="#FBF9FF"/>
<path d="M633.963 1764.6C633.963 1825.25 662.396 1873.21 689.902 1919.65C717.188 1965.68 745.399 2013.3 745.399 2073.1C745.399 2132.9 717.208 2180.52 689.902 2226.58C675.324 2251.2 660.141 2276.71 649.529 2303.88L652.328 2304.96C662.919 2278.04 677.982 2252.61 692.601 2228.07C720.087 2181.75 748.52 2133.71 748.52 2073.02C748.52 2012.33 720.087 1964.41 692.601 1917.97C665.316 1871.94 637.084 1824.34 637.084 1764.52C637.084 1704.7 665.275 1657.1 692.601 1611.05C720.087 1564.73 748.52 1516.69 748.52 1456H745.5C745.5 1515.82 717.308 1563.42 690.003 1609.47C662.436 1655.99 633.963 1703.95 633.963 1764.6Z" fill="#FBF9FF"/>
<path d="M654.281 1764.6C654.281 1825.25 682.714 1873.21 710.2 1919.65C737.485 1965.68 765.717 2013.3 765.717 2073.1C765.717 2132.9 737.525 2180.52 710.2 2226.58C695.581 2251.2 680.458 2276.71 669.786 2303.88L672.585 2304.96C683.177 2278.04 698.239 2252.61 712.858 2228.07C740.365 2181.75 768.798 2133.71 768.798 2073.02C768.798 2012.33 740.365 1964.41 712.858 1917.97C685.573 1871.94 657.362 1824.34 657.362 1764.52C657.362 1704.7 685.553 1657.1 712.858 1611.05C740.365 1564.73 768.798 1516.69 768.798 1456H765.777C765.777 1515.82 737.586 1563.42 710.261 1609.47C682.714 1655.99 654.281 1703.95 654.281 1764.6Z" fill="#FBF9FF"/>
<path d="M674.538 1764.6C674.538 1825.25 702.97 1873.21 730.457 1919.65C757.742 1965.68 785.973 2013.3 785.973 2073.1C785.973 2132.9 757.782 2180.52 730.457 2226.58C715.838 2251.2 700.715 2276.71 690.043 2303.88L692.862 2304.96C703.434 2278.04 718.496 2252.61 733.135 2228.07C760.642 2181.75 789.074 2133.71 789.074 2073.02C789.074 2012.33 760.642 1964.41 733.135 1917.97C705.85 1871.94 677.639 1824.34 677.639 1764.52C677.639 1704.7 705.83 1657.1 733.135 1611.05C760.642 1564.73 789.074 1516.69 789.074 1456H786.054C786.054 1515.82 757.863 1563.42 730.537 1609.47C702.97 1655.99 674.538 1703.95 674.538 1764.6Z" fill="#FBF9FF"/>
<path d="M694.795 1764.6C694.795 1825.25 723.228 1873.21 750.715 1919.65C778.02 1965.68 806.231 2013.3 806.231 2073.1C806.231 2132.9 778.04 2180.52 750.715 2226.58C736.095 2251.2 720.973 2276.71 710.3 2303.88L713.12 2304.96C723.711 2278.04 738.753 2252.61 753.393 2228.07C780.879 2181.75 809.312 2133.71 809.312 2073.02C809.312 2012.33 780.879 1964.41 753.393 1917.97C726.087 1871.94 697.876 1824.34 697.876 1764.52C697.876 1704.7 726.067 1657.1 753.393 1611.05C780.879 1564.73 809.312 1516.69 809.312 1456H806.292C806.292 1515.82 778.1 1563.42 750.775 1609.47C723.228 1655.99 694.795 1703.95 694.795 1764.6Z" fill="#FBF9FF"/>
<path d="M715.053 1764.6C715.053 1825.25 743.485 1873.21 770.992 1919.65C798.277 1965.68 826.488 2013.3 826.488 2073.1C826.488 2132.9 798.277 2180.48 770.891 2226.54C756.353 2251.2 741.23 2276.71 730.618 2303.88L733.437 2304.96C744.029 2278.04 759.091 2252.61 773.71 2228.07C801.197 2181.75 829.63 2133.71 829.63 2073.02C829.63 2012.33 801.197 1964.41 773.71 1917.97C746.405 1871.94 718.194 1824.34 718.194 1764.52C718.194 1704.7 746.385 1657.1 773.71 1611.05C801.197 1564.73 829.63 1516.69 829.63 1456H826.609C826.609 1515.82 798.418 1563.42 771.113 1609.47C743.485 1655.99 715.053 1703.95 715.053 1764.6Z" fill="#FBF9FF"/>
<path d="M4.97434 1153.36C4.97434 1092.71 33.4072 1044.75 60.8936 998.318C88.1787 952.288 116.41 904.667 116.41 844.863C116.41 785.06 88.2189 737.439 60.8936 691.389C46.2744 666.762 31.1519 641.25 20.4795 614.087L23.2986 613C33.8703 639.922 48.9325 665.353 63.5718 689.898C91.0784 736.211 119.511 784.255 119.511 844.944C119.511 905.633 91.0784 953.556 63.5718 999.989C36.2867 1046.02 8.07539 1093.62 8.07539 1153.44C8.07539 1213.27 36.2666 1260.87 63.5718 1306.92C91.0784 1353.23 119.511 1401.27 119.511 1461.96H116.491C116.491 1402.14 88.2995 1354.54 60.9742 1308.49C33.4072 1261.98 4.97434 1214.01 4.97434 1153.36Z" fill="#FBF9FF"/>
<path d="M25.2312 1153.36C25.2312 1092.71 53.664 1044.75 81.1505 998.318C108.456 952.288 136.667 904.667 136.667 844.863C136.667 785.06 108.476 737.439 81.1505 691.389C66.5313 666.762 51.4088 641.25 40.7364 614.087L43.5555 613C54.1272 639.922 69.1894 665.353 83.8287 689.898C111.335 736.211 139.768 784.255 139.768 844.944C139.768 905.633 111.335 953.556 83.8287 999.989C56.5436 1046.02 28.3323 1093.62 28.3323 1153.44C28.3323 1213.27 56.5235 1260.87 83.8287 1306.92C111.335 1353.23 139.768 1401.27 139.768 1461.96H136.748C136.748 1402.14 108.556 1354.54 81.231 1308.49C53.7446 1261.98 25.2312 1214.01 25.2312 1153.36Z" fill="#FBF9FF"/>
<path d="M45.4889 1153.36C45.4889 1092.71 73.9217 1044.75 101.408 998.318C128.713 952.288 156.925 904.667 156.925 844.863C156.925 785.06 128.733 737.439 101.428 691.389C86.789 666.762 71.6665 641.25 60.9941 614.087L63.8132 613C74.405 639.922 89.447 665.353 104.086 689.898C131.573 736.211 160.006 784.255 160.006 844.944C160.006 905.633 131.573 953.556 104.086 999.989C76.7811 1046.02 48.5698 1093.62 48.5698 1153.44C48.5698 1213.27 76.761 1260.87 104.086 1306.92C131.573 1353.23 160.006 1401.27 160.006 1461.96H156.985C156.985 1402.14 128.794 1354.54 101.469 1308.49C73.8815 1261.98 45.4889 1214.01 45.4889 1153.36Z" fill="#FBF9FF"/>
<path d="M65.827 1153.36C65.827 1092.71 94.2598 1044.75 121.766 998.318C149.051 952.288 177.263 904.667 177.263 844.863C177.263 785.06 149.072 737.439 121.766 691.389C107.067 666.762 92.0046 641.25 81.2718 614.087L84.0707 613C94.6626 639.922 109.725 665.353 124.344 689.898C151.83 736.211 180.263 784.255 180.263 844.944C180.263 905.633 151.83 953.556 124.344 999.989C97.0588 1046.02 68.8273 1093.62 68.8273 1153.44C68.8273 1213.27 97.0185 1260.87 124.344 1306.92C151.83 1353.23 180.263 1401.27 180.263 1461.96H177.243C177.243 1402.14 149.051 1354.54 121.746 1308.49C94.1793 1261.98 65.827 1214.01 65.827 1153.36Z" fill="#FBF9FF"/>
<path d="M85.9635 1153.36C85.9635 1092.71 114.396 1044.75 141.903 998.318C169.188 952.288 197.399 904.667 197.399 844.863C197.399 785.06 169.208 737.439 141.903 691.389C127.324 666.762 112.141 641.25 101.529 614.087L104.328 613C114.92 639.922 129.982 665.353 144.601 689.898C172.088 736.211 200.521 784.255 200.521 844.944C200.521 905.633 172.088 953.556 144.601 999.989C117.316 1046.02 89.0847 1093.62 89.0847 1153.44C89.0847 1213.27 117.276 1260.87 144.601 1306.92C172.088 1353.23 200.521 1401.27 200.521 1461.96H197.5C197.5 1402.14 169.309 1354.54 142.004 1308.49C114.437 1261.98 85.9635 1214.01 85.9635 1153.36Z" fill="#FBF9FF"/>
<path d="M106.281 1153.36C106.281 1092.71 134.714 1044.75 162.201 998.318C189.486 952.288 217.717 904.667 217.717 844.863C217.717 785.06 189.526 737.439 162.201 691.389C147.581 666.762 132.459 641.25 121.786 614.087L124.585 613C135.177 639.922 150.239 665.353 164.859 689.898C192.365 736.211 220.798 784.255 220.798 844.944C220.798 905.633 192.365 953.556 164.859 999.989C137.574 1046.02 109.362 1093.62 109.362 1153.44C109.362 1213.27 137.553 1260.87 164.859 1306.92C192.365 1353.23 220.798 1401.27 220.798 1461.96H217.778C217.778 1402.14 189.586 1354.54 162.261 1308.49C134.714 1261.98 106.281 1214.01 106.281 1153.36Z" fill="#FBF9FF"/>
<path d="M126.538 1153.36C126.538 1092.71 154.971 1044.75 182.457 998.318C209.742 952.288 237.974 904.667 237.974 844.863C237.974 785.06 209.783 737.439 182.457 691.389C167.838 666.762 152.716 641.25 142.043 614.087L144.862 613C155.434 639.922 170.496 665.353 185.136 689.898C212.642 736.211 241.075 784.255 241.075 844.944C241.075 905.633 212.642 953.556 185.136 999.989C157.85 1046.02 129.639 1093.62 129.639 1153.44C129.639 1213.27 157.83 1260.87 185.136 1306.92C212.642 1353.23 241.075 1401.27 241.075 1461.96H238.054C238.054 1402.14 209.863 1354.54 182.538 1308.49C154.971 1261.98 126.538 1214.01 126.538 1153.36Z" fill="#FBF9FF"/>
<path d="M146.796 1153.36C146.796 1092.71 175.229 1044.75 202.715 998.318C230.02 952.288 258.232 904.667 258.232 844.863C258.232 785.06 230.04 737.439 202.715 691.389C188.096 666.762 172.973 641.25 162.301 614.087L165.12 613C175.712 639.922 190.754 665.353 205.393 689.898C232.88 736.211 261.312 784.255 261.312 844.944C261.312 905.633 232.88 953.556 205.393 999.989C178.088 1046.02 149.877 1093.62 149.877 1153.44C149.877 1213.27 178.068 1260.87 205.393 1306.92C232.88 1353.23 261.313 1401.27 261.313 1461.96H258.292C258.292 1402.14 230.101 1354.54 202.775 1308.49C175.229 1261.98 146.796 1214.01 146.796 1153.36Z" fill="#FBF9FF"/>
<path d="M167.053 1153.36C167.053 1092.71 195.486 1044.75 222.992 998.318C250.277 952.288 278.489 904.667 278.489 844.863C278.489 785.06 250.277 737.479 222.892 691.429C208.353 666.762 193.231 641.25 182.619 614.087L185.438 613C196.03 639.922 211.092 665.353 225.711 689.898C253.197 736.211 281.63 784.255 281.63 844.944C281.63 905.633 253.197 953.556 225.711 999.989C198.406 1046.02 170.194 1093.62 170.194 1153.44C170.194 1213.27 198.386 1260.87 225.711 1306.92C253.197 1353.23 281.63 1401.27 281.63 1461.96H278.61C278.61 1402.14 250.418 1354.54 223.113 1308.49C195.486 1261.98 167.053 1214.01 167.053 1153.36Z" fill="#FBF9FF"/>
<path d="M187.311 1153.36C187.311 1092.71 215.743 1044.75 243.25 998.318C270.535 952.288 298.746 904.667 298.746 844.863C298.746 785.06 270.555 737.439 243.25 691.389C228.631 666.762 213.508 641.25 202.755 614.087L205.554 613C216.146 639.922 231.208 665.353 245.828 689.898C273.314 736.211 301.747 784.255 301.747 844.944C301.747 905.633 273.314 953.556 245.828 999.989C218.542 1046.02 190.311 1093.62 190.311 1153.44C190.311 1213.27 218.502 1260.87 245.828 1306.92C273.314 1353.23 301.747 1401.27 301.747 1461.96H298.726C298.726 1402.14 270.535 1354.54 243.23 1308.49C215.743 1261.98 187.311 1214.01 187.311 1153.36Z" fill="#FBF9FF"/>
<path d="M207.568 1153.36C207.568 1092.71 236.001 1044.75 263.507 998.318C290.792 952.288 319.004 904.667 319.004 844.863C319.004 785.06 290.812 737.439 263.507 691.389C248.888 666.762 233.765 641.25 223.093 614.087L225.892 613C236.484 639.922 251.546 665.353 266.165 689.898C293.672 736.211 322.084 784.255 322.084 844.944C322.084 905.633 293.652 953.556 266.165 999.989C238.88 1046.02 210.649 1093.62 210.649 1153.44C210.649 1213.27 238.84 1260.87 266.165 1306.92C293.652 1353.23 322.084 1401.27 322.084 1461.96H319.064C319.064 1402.14 290.873 1354.54 263.568 1308.49C236.001 1261.98 207.568 1214.01 207.568 1153.36Z" fill="#FBF9FF"/>
<path d="M227.846 1153.36C227.846 1092.71 256.279 1044.75 283.765 998.318C311.05 952.288 339.282 904.667 339.282 844.863C339.282 785.06 311.091 737.439 283.765 691.389C269.206 666.762 254.023 641.25 243.351 614.087L246.17 613C256.742 639.922 271.804 665.353 286.443 689.898C313.95 736.211 342.383 784.255 342.383 844.944C342.383 905.633 313.95 953.556 286.443 999.989C259.138 1045.94 230.947 1093.54 230.947 1153.36C230.947 1213.19 259.138 1260.79 286.443 1306.84C313.95 1353.15 342.383 1401.19 342.383 1461.88H339.362C339.362 1402.06 311.171 1354.46 283.846 1308.41C256.279 1261.98 227.846 1214.01 227.846 1153.36Z" fill="#FBF9FF"/>
<path d="M248.103 1153.36C248.103 1092.71 276.536 1044.75 304.022 998.318C331.307 952.288 359.539 904.667 359.539 844.863C359.539 785.06 331.347 737.439 304.022 691.389C289.342 666.762 274.28 641.25 263.608 614.087L266.427 613C276.999 639.922 292.061 665.353 306.7 689.898C334.207 736.211 362.64 784.255 362.64 844.944C362.64 905.633 334.207 953.556 306.7 999.989C279.274 1045.94 251.083 1093.54 251.083 1153.36C251.083 1213.19 279.274 1260.79 306.579 1306.84C334.086 1353.15 362.519 1401.19 362.519 1461.88H359.498C359.498 1402.06 331.307 1354.46 303.982 1308.41C276.536 1261.98 248.103 1214.01 248.103 1153.36Z" fill="#FBF9FF"/>
<path d="M268.36 1153.36C268.36 1092.71 296.793 1044.75 324.3 998.318C351.585 952.288 379.796 904.667 379.796 844.863C379.796 785.06 351.605 737.439 324.3 691.389C309.66 666.762 294.538 641.25 283.865 614.087L286.685 613C297.276 639.922 312.318 665.353 326.958 689.898C354.444 736.211 382.877 784.255 382.877 844.944C382.877 905.633 354.444 953.556 326.958 999.989C299.652 1046.02 271.441 1093.62 271.441 1153.44C271.441 1213.27 299.632 1260.87 326.958 1306.92C354.444 1353.23 382.877 1401.27 382.877 1461.96H379.856C379.856 1402.14 351.665 1354.54 324.36 1308.49C296.793 1261.98 268.36 1214.01 268.36 1153.36Z" fill="#FBF9FF"/>
<path d="M288.618 1153.36C288.618 1092.71 317.051 1044.75 344.557 998.318C371.903 952.328 400.094 904.707 400.094 844.904C400.094 785.1 371.903 737.479 344.597 691.429C329.918 666.762 314.815 641.25 304.123 614.087L306.942 613C317.534 639.922 332.596 665.353 347.215 689.898C374.702 736.211 403.135 784.255 403.135 844.944C403.135 905.633 374.702 953.556 347.215 999.989C319.93 1046.02 291.699 1093.62 291.699 1153.44C291.699 1213.27 319.89 1260.87 347.215 1306.92C374.702 1353.23 403.135 1401.27 403.135 1461.96H400.094C400.094 1402.14 371.903 1354.54 344.597 1308.49C317.051 1261.98 288.618 1214.01 288.618 1153.36Z" fill="#FBF9FF"/>
<path d="M308.875 1153.36C308.875 1092.71 337.308 1044.75 364.815 998.318C392.039 952.328 420.231 904.707 420.231 844.904C420.231 785.1 392.039 737.479 364.734 691.429C350.196 666.762 335.073 641.25 324.401 614.087L327.2 613C337.792 639.922 352.854 665.353 367.473 689.898C394.959 736.211 423.392 784.255 423.392 844.944C423.392 905.633 394.959 953.556 367.473 999.989C340.188 1046.02 311.956 1093.62 311.956 1153.44C311.956 1213.27 340.147 1260.87 367.473 1306.92C394.959 1353.23 423.392 1401.27 423.392 1461.96H420.231C420.231 1402.14 392.039 1354.54 364.734 1308.49C337.308 1261.98 308.875 1214.01 308.875 1153.36Z" fill="#FBF9FF"/>
<path d="M329.153 1153.36C329.153 1092.71 357.566 1044.75 385.072 998.318C412.357 952.288 440.589 904.667 440.589 844.863C440.589 785.06 412.398 737.439 385.072 691.389C370.453 666.762 355.33 641.25 344.658 614.087L347.457 613C358.049 639.922 373.111 665.353 387.73 689.898C415.237 736.211 443.67 784.255 443.67 844.944C443.67 905.633 415.237 953.556 387.73 999.989C360.445 1046.02 332.234 1093.62 332.234 1153.44C332.234 1213.27 360.425 1260.87 387.73 1306.92C415.237 1353.23 443.67 1401.27 443.67 1461.96H440.649C440.649 1402.14 412.458 1354.54 385.133 1308.49C357.566 1261.98 329.153 1214.01 329.153 1153.36Z" fill="#FBF9FF"/>
<path d="M349.41 1153.36C349.41 1092.71 377.843 1044.75 405.33 998.318C432.615 952.288 460.846 904.667 460.846 844.863C460.846 785.06 432.655 737.439 405.33 691.389C390.711 666.762 375.588 641.25 364.916 614.087L367.735 613C378.306 639.922 393.369 665.353 408.008 689.898C435.514 736.211 463.947 784.255 463.947 844.944C463.947 905.633 435.514 953.556 408.008 999.989C380.723 1046.02 352.511 1093.62 352.511 1153.44C352.511 1213.27 380.703 1260.87 408.008 1306.92C435.514 1353.23 463.947 1401.27 463.947 1461.96H460.927C460.927 1402.14 432.736 1354.54 405.41 1308.49C377.843 1261.98 349.41 1214.01 349.41 1153.36Z" fill="#FBF9FF"/>
<path d="M369.668 1153.36C369.668 1092.71 398.101 1044.75 425.587 998.318C452.892 952.288 481.104 904.667 481.104 844.863C481.104 785.06 452.913 737.439 425.587 691.389C410.968 666.762 395.846 641.25 385.173 614.087L388.012 613C398.584 639.922 413.646 665.353 428.286 689.898C455.772 736.211 484.205 784.255 484.205 844.944C484.205 905.633 455.772 953.556 428.265 999.989C400.98 1046.02 372.769 1093.62 372.769 1153.44C372.769 1213.27 400.96 1260.87 428.265 1306.92C455.772 1353.23 484.205 1401.27 484.205 1461.96H481.184C481.184 1402.14 452.993 1354.54 425.668 1308.49C398.081 1261.98 369.668 1214.01 369.668 1153.36Z" fill="#FBF9FF"/>
<path d="M389.925 1153.36C389.925 1092.71 418.358 1044.75 445.864 998.318C473.149 952.288 501.361 904.667 501.361 844.863C501.361 785.06 473.169 737.439 445.864 691.389C431.225 666.762 416.102 641.25 405.43 614.087L408.148 613C418.74 639.922 433.782 665.353 448.422 689.898C475.908 736.211 504.341 784.255 504.341 844.944C504.341 905.633 475.908 953.556 448.422 999.989C421.116 1046.02 392.905 1093.62 392.905 1153.44C392.905 1213.27 421.096 1260.87 448.422 1306.92C475.908 1353.23 504.341 1401.27 504.341 1461.96H501.32C501.32 1402.14 473.129 1354.54 445.824 1308.49C418.358 1261.98 389.925 1214.01 389.925 1153.36Z" fill="#FBF9FF"/>
<path d="M410.162 1153.36C410.162 1092.71 438.595 1044.75 466.102 998.318C493.387 952.288 521.598 904.667 521.598 844.863C521.598 785.06 493.407 737.439 466.102 691.389C451.503 666.762 436.34 641.25 425.708 614.087L428.507 613C439.099 639.922 454.161 665.353 468.78 689.898C496.266 736.211 524.699 784.255 524.699 844.944C524.699 905.633 496.266 953.556 468.78 999.989C441.495 1046.02 413.263 1093.62 413.263 1153.44C413.263 1213.27 441.455 1260.87 468.78 1306.92C496.266 1353.23 524.699 1401.27 524.699 1461.96H521.679C521.679 1402.14 493.488 1354.54 466.182 1308.49C438.615 1261.98 410.162 1214.01 410.162 1153.36Z" fill="#FBF9FF"/>
<path d="M430.44 1153.36C430.44 1092.71 458.873 1044.75 486.379 998.318C513.664 952.288 541.876 904.667 541.876 844.863C541.876 785.06 513.684 737.439 486.379 691.389C471.76 666.762 456.637 641.25 445.965 614.087L448.764 613C459.356 639.922 474.418 665.353 489.037 689.898C516.524 736.211 544.957 784.255 544.957 844.944C544.957 905.633 516.524 953.556 489.037 999.989C461.752 1046.02 433.521 1093.62 433.521 1153.44C433.521 1213.27 461.712 1260.87 489.037 1306.92C516.524 1353.23 544.957 1401.27 544.957 1461.96H541.936C541.936 1402.14 513.745 1354.54 486.44 1308.49C458.873 1261.98 430.44 1214.01 430.44 1153.36Z" fill="#FBF9FF"/>
<path d="M450.717 1153.36C450.717 1092.71 479.15 1044.75 506.637 998.318C533.922 952.288 562.153 904.667 562.153 844.863C562.153 785.06 533.962 737.439 506.637 691.389C492.018 666.762 476.895 641.25 466.223 614.087L469.022 613C479.613 639.922 494.676 665.353 509.295 689.898C536.801 736.211 565.234 784.255 565.234 844.944C565.234 905.633 536.801 953.556 509.295 999.989C482.01 1046.02 453.798 1093.62 453.798 1153.44C453.798 1213.27 481.989 1260.87 509.295 1306.92C536.801 1353.23 565.234 1401.27 565.234 1461.96H562.214C562.214 1402.14 534.022 1354.54 506.697 1308.49C479.15 1261.98 450.717 1214.01 450.717 1153.36Z" fill="#FBF9FF"/>
<path d="M470.975 1153.36C470.975 1092.71 499.408 1044.75 526.894 998.318C554.179 952.288 582.411 904.667 582.411 844.863C582.411 785.06 554.179 737.479 526.955 691.429C512.275 666.762 497.152 641.25 486.48 614.087L489.299 613C499.871 639.922 514.933 665.353 529.572 689.898C557.079 736.211 585.512 784.255 585.512 844.944C585.512 905.633 557.079 953.556 529.572 999.989C502.287 1046.02 474.076 1093.62 474.076 1153.44C474.076 1213.27 502.267 1260.87 529.572 1306.92C557.079 1353.23 585.512 1401.27 585.512 1461.96H582.491C582.491 1402.14 554.3 1354.54 526.975 1308.49C499.408 1261.98 470.975 1214.01 470.975 1153.36Z" fill="#FBF9FF"/>
<path d="M491.232 1153.36C491.232 1092.71 519.665 1044.75 547.151 998.318C574.457 952.328 602.668 904.707 602.668 844.904C602.668 785.1 574.457 737.479 547.091 691.429C532.532 666.762 517.41 641.25 506.818 614.087L509.637 613C520.209 639.922 535.271 665.353 549.91 689.898C577.296 736.291 605.688 784.255 605.688 844.904C605.688 905.553 577.256 953.516 549.749 999.949C522.464 1045.98 494.253 1093.58 494.253 1153.4C494.253 1213.23 522.444 1260.83 549.749 1306.88C577.256 1353.19 605.688 1401.23 605.688 1461.92H602.668C602.668 1402.1 574.477 1354.5 547.151 1308.45C519.665 1261.98 491.232 1214.01 491.232 1153.36Z" fill="#FBF9FF"/>
<path d="M511.49 1153.36C511.49 1092.71 539.922 1044.75 567.429 998.318C594.714 952.328 622.925 904.707 622.925 844.904C622.925 785.1 594.734 737.479 567.429 691.429C552.79 666.762 537.667 641.25 526.955 614.087L529.774 613C540.365 639.922 555.407 665.353 570.047 689.898C597.533 736.211 625.966 784.255 625.966 844.944C625.966 905.633 597.533 953.556 570.047 999.989C542.742 1046.02 514.53 1093.62 514.53 1153.44C514.53 1213.27 542.721 1260.87 570.047 1306.92C597.533 1353.23 625.966 1401.27 625.966 1461.96H622.946C622.946 1402.14 594.754 1354.54 567.449 1308.49C539.922 1261.98 511.49 1214.01 511.49 1153.36Z" fill="#FBF9FF"/>
<path d="M531.747 1153.36C531.747 1092.71 560.18 1044.75 587.686 998.318C614.971 952.328 643.183 904.707 643.183 844.904C643.183 785.1 614.971 737.479 587.686 691.429C573.067 666.762 557.945 641.25 547.272 614.087L550.071 613C560.663 639.922 575.725 665.353 590.344 689.898C617.831 736.211 646.264 784.255 646.264 844.944C646.264 905.633 617.831 953.556 590.344 999.989C563.059 1046.02 534.828 1093.62 534.828 1153.44C534.828 1213.27 563.019 1260.87 590.344 1306.92C617.831 1353.23 646.264 1401.27 646.264 1461.96H643.243C643.243 1402.14 615.052 1354.54 587.747 1308.49C560.18 1261.98 531.747 1214.01 531.747 1153.36Z" fill="#FBF9FF"/>
<path d="M552.974 1148.36C552.974 1087.71 581.407 1039.75 608.893 993.318C636.178 947.288 664.41 899.667 664.41 839.863C664.41 780.06 636.218 732.439 608.893 686.389C594.274 661.762 579.151 636.25 568.479 609.087L571.298 608C581.87 634.922 596.932 660.353 611.571 684.898C639.078 731.211 667.511 779.255 667.511 839.944C667.511 900.633 639.078 948.556 611.571 994.989C584.286 1041.02 556.075 1088.62 556.075 1148.44C556.075 1208.27 584.266 1255.87 611.571 1301.92C639.078 1348.23 667.511 1396.27 667.511 1456.96H664.49C664.49 1397.14 636.299 1349.54 608.974 1303.49C581.407 1256.98 552.974 1209.01 552.974 1148.36Z" fill="#FBF9FF"/>
<path d="M573.231 1148.36C573.231 1087.71 601.664 1039.75 629.15 993.318C656.455 947.288 684.667 899.667 684.667 839.863C684.667 780.06 656.475 732.439 629.15 686.389C614.531 661.762 599.408 636.25 588.736 609.087L591.555 608C602.127 634.922 617.189 660.353 631.828 684.898C659.335 731.211 687.768 779.255 687.768 839.944C687.768 900.633 659.335 948.556 631.828 994.989C604.543 1041.02 576.332 1088.62 576.332 1148.44C576.332 1208.27 604.523 1255.87 631.828 1301.92C659.335 1348.23 687.768 1396.27 687.768 1456.96H684.747C684.747 1397.14 656.556 1349.54 629.231 1303.49C601.744 1256.98 573.231 1209.01 573.231 1148.36Z" fill="#FBF9FF"/>
<path d="M593.488 1148.36C593.488 1087.71 621.921 1039.75 649.408 993.318C676.713 947.288 704.924 899.667 704.924 839.863C704.924 780.06 676.733 732.439 649.428 686.389C634.789 661.762 619.666 636.25 608.994 609.087L611.813 608C622.405 634.922 637.447 660.353 652.086 684.898C679.572 731.211 708.005 779.255 708.005 839.944C708.005 900.633 679.572 948.556 652.086 994.989C624.781 1041.02 596.569 1088.62 596.569 1148.44C596.569 1208.27 624.761 1255.87 652.086 1301.92C679.572 1348.23 708.005 1396.27 708.005 1456.96H704.985C704.985 1397.14 676.793 1349.54 649.468 1303.49C621.881 1256.98 593.488 1209.01 593.488 1148.36Z" fill="#FBF9FF"/>
<path d="M613.826 1148.36C613.826 1087.71 642.259 1039.75 669.766 993.318C697.051 947.288 725.262 899.667 725.262 839.863C725.262 780.06 697.071 732.439 669.766 686.389C655.066 661.762 640.004 636.25 629.271 609.087L632.07 608C642.662 634.922 657.724 660.353 672.343 684.898C699.83 731.211 728.263 779.255 728.263 839.944C728.263 900.633 699.83 948.556 672.343 994.989C645.058 1041.02 616.827 1088.62 616.827 1148.44C616.827 1208.27 645.018 1255.87 672.343 1301.92C699.83 1348.23 728.263 1396.27 728.263 1456.96H725.242C725.242 1397.14 697.051 1349.54 669.746 1303.49C642.179 1256.98 613.826 1209.01 613.826 1148.36Z" fill="#FBF9FF"/>
<path d="M633.963 1148.36C633.963 1087.71 662.396 1039.75 689.902 993.318C717.188 947.288 745.399 899.667 745.399 839.863C745.399 780.06 717.208 732.439 689.902 686.389C675.324 661.762 660.141 636.25 649.529 609.087L652.328 608C662.919 634.922 677.982 660.353 692.601 684.898C720.087 731.211 748.52 779.255 748.52 839.944C748.52 900.633 720.087 948.556 692.601 994.989C665.316 1041.02 637.084 1088.62 637.084 1148.44C637.084 1208.27 665.275 1255.87 692.601 1301.92C720.087 1348.23 748.52 1396.27 748.52 1456.96H745.5C745.5 1397.14 717.308 1349.54 690.003 1303.49C662.436 1256.98 633.963 1209.01 633.963 1148.36Z" fill="#FBF9FF"/>
<path d="M654.281 1148.36C654.281 1087.71 682.714 1039.75 710.2 993.318C737.485 947.288 765.717 899.667 765.717 839.863C765.717 780.06 737.525 732.439 710.2 686.389C695.581 661.762 680.458 636.25 669.786 609.087L672.585 608C683.177 634.922 698.239 660.353 712.858 684.898C740.365 731.211 768.798 779.255 768.798 839.944C768.798 900.633 740.365 948.556 712.858 994.989C685.573 1041.02 657.362 1088.62 657.362 1148.44C657.362 1208.27 685.553 1255.87 712.858 1301.92C740.365 1348.23 768.798 1396.27 768.798 1456.96H765.777C765.777 1397.14 737.586 1349.54 710.261 1303.49C682.714 1256.98 654.281 1209.01 654.281 1148.36Z" fill="#FBF9FF"/>
<path d="M674.538 1148.36C674.538 1087.71 702.97 1039.75 730.457 993.318C757.742 947.288 785.973 899.667 785.973 839.863C785.973 780.06 757.782 732.439 730.457 686.389C715.838 661.762 700.715 636.25 690.043 609.087L692.862 608C703.434 634.922 718.496 660.353 733.135 684.898C760.642 731.211 789.074 779.255 789.074 839.944C789.074 900.633 760.642 948.556 733.135 994.989C705.85 1041.02 677.639 1088.62 677.639 1148.44C677.639 1208.27 705.83 1255.87 733.135 1301.92C760.642 1348.23 789.074 1396.27 789.074 1456.96H786.054C786.054 1397.14 757.863 1349.54 730.537 1303.49C702.97 1256.98 674.538 1209.01 674.538 1148.36Z" fill="#FBF9FF"/>
<path d="M694.795 1148.36C694.795 1087.71 723.228 1039.75 750.715 993.318C778.02 947.288 806.231 899.667 806.231 839.863C806.231 780.06 778.04 732.439 750.715 686.389C736.095 661.762 720.973 636.25 710.3 609.087L713.12 608C723.711 634.922 738.753 660.353 753.393 684.898C780.879 731.211 809.312 779.255 809.312 839.944C809.312 900.633 780.879 948.556 753.393 994.989C726.087 1041.02 697.876 1088.62 697.876 1148.44C697.876 1208.27 726.067 1255.87 753.393 1301.92C780.879 1348.23 809.312 1396.27 809.312 1456.96H806.292C806.292 1397.14 778.1 1349.54 750.775 1303.49C723.228 1256.98 694.795 1209.01 694.795 1148.36Z" fill="#FBF9FF"/>
<path d="M715.053 1148.36C715.053 1087.71 743.485 1039.75 770.992 993.318C798.277 947.288 826.488 899.667 826.488 839.863C826.488 780.06 798.277 732.479 770.891 686.429C756.353 661.762 741.23 636.25 730.618 609.087L733.437 608C744.029 634.922 759.091 660.353 773.71 684.898C801.197 731.211 829.63 779.255 829.63 839.944C829.63 900.633 801.197 948.556 773.71 994.989C746.405 1041.02 718.194 1088.62 718.194 1148.44C718.194 1208.27 746.385 1255.87 773.71 1301.92C801.197 1348.23 829.63 1396.27 829.63 1456.96H826.609C826.609 1397.14 798.418 1349.54 771.113 1303.49C743.485 1256.98 715.053 1209.01 715.053 1148.36Z" fill="#FBF9FF"/>
<path d="M4.98166 538.363C4.98166 477.714 33.4145 429.751 60.9009 383.318C88.186 337.288 116.418 289.667 116.418 229.863C116.418 170.06 88.2263 122.439 60.9009 76.3885C46.2818 51.7625 31.1592 26.2505 20.4869 -0.912669L23.306 -2C33.8777 24.9215 48.9398 50.353 63.5791 74.8985C91.0857 121.211 119.519 169.255 119.519 229.944C119.519 290.633 91.0857 338.556 63.5791 384.989C36.2941 431.02 8.08271 478.621 8.08271 538.444C8.08271 598.267 36.2739 645.868 63.5791 691.919C91.0857 738.231 119.519 786.275 119.519 846.964H116.498C116.498 787.141 88.3068 739.54 60.9815 693.489C33.4145 646.976 4.98166 599.012 4.98166 538.363Z" fill="#FBF9FF"/>
<path d="M25.2385 538.363C25.2385 477.714 53.6714 429.751 81.1578 383.318C108.463 337.288 136.674 289.667 136.674 229.863C136.674 170.06 108.483 122.439 81.1578 76.3885C66.5386 51.7625 51.4161 26.2505 40.7437 -0.912669L43.5628 -2C54.1345 24.9215 69.1967 50.353 83.836 74.8985C111.343 121.211 139.775 169.255 139.775 229.944C139.775 290.633 111.343 338.556 83.836 384.989C56.5509 431.02 28.3396 478.621 28.3396 538.444C28.3396 598.267 56.5308 645.868 83.836 691.919C111.343 738.231 139.775 786.275 139.775 846.964H136.755C136.755 787.141 108.564 739.54 81.2384 693.489C53.7519 646.976 25.2385 599.012 25.2385 538.363Z" fill="#FBF9FF"/>
<path d="M45.4962 538.363C45.4962 477.714 73.9291 429.751 101.415 383.318C128.721 337.288 156.932 289.667 156.932 229.863C156.932 170.06 128.741 122.439 101.436 76.3885C86.7963 51.7625 71.6738 26.2505 61.0014 -0.912669L63.8205 -2C74.4123 24.9215 89.4544 50.353 104.094 74.8985C131.58 121.211 160.013 169.255 160.013 229.944C160.013 290.633 131.58 338.556 104.094 384.989C76.7885 431.02 48.5771 478.621 48.5771 538.444C48.5771 598.267 76.7683 645.868 104.094 691.919C131.58 738.231 160.013 786.275 160.013 846.964H156.992C156.992 787.141 128.801 739.54 101.476 693.489C73.8888 646.976 45.4962 599.012 45.4962 538.363Z" fill="#FBF9FF"/>
<path d="M65.8343 538.363C65.8343 477.714 94.2672 429.751 121.774 383.318C149.059 337.288 177.27 289.667 177.27 229.863C177.27 170.06 149.079 122.439 121.774 76.3885C107.074 51.7625 92.0119 26.2505 81.2791 -0.912669L84.078 -2C94.6699 24.9215 109.732 50.353 124.351 74.8985C151.838 121.211 180.271 169.255 180.271 229.944C180.271 290.633 151.838 338.556 124.351 384.989C97.0661 431.02 68.8346 478.621 68.8346 538.444C68.8346 598.267 97.0259 645.868 124.351 691.919C151.838 738.231 180.271 786.275 180.271 846.964H177.25C177.25 787.141 149.059 739.54 121.754 693.489C94.1866 646.976 65.8343 599.012 65.8343 538.363Z" fill="#FBF9FF"/>
<path d="M85.9709 538.363C85.9709 477.714 114.404 429.751 141.91 383.318C169.195 337.288 197.407 289.667 197.407 229.863C197.407 170.06 169.215 122.439 141.91 76.3885C127.331 51.7625 112.148 26.2505 101.536 -0.912669L104.335 -2C114.927 24.9215 129.989 50.353 144.609 74.8985C172.095 121.211 200.528 169.255 200.528 229.944C200.528 290.633 172.095 338.556 144.609 384.989C117.324 431.02 89.092 478.621 89.092 538.444C89.092 598.267 117.283 645.868 144.609 691.919C172.095 738.231 200.528 786.275 200.528 846.964H197.507C197.507 787.141 169.316 739.54 142.011 693.489C114.444 646.976 85.9709 599.012 85.9709 538.363Z" fill="#FBF9FF"/>
<path d="M106.289 538.363C106.289 477.714 134.722 429.751 162.208 383.318C189.493 337.288 217.724 289.667 217.724 229.863C217.724 170.06 189.533 122.439 162.208 76.3885C147.589 51.7625 132.466 26.2505 121.794 -0.912669L124.593 -2C135.185 24.9215 150.247 50.353 164.866 74.8985C192.373 121.211 220.805 169.255 220.805 229.944C220.805 290.633 192.373 338.556 164.866 384.989C137.581 431.02 109.37 478.621 109.37 538.444C109.37 598.267 137.561 645.868 164.866 691.919C192.373 738.231 220.805 786.275 220.805 846.964H217.785C217.785 787.141 189.594 739.54 162.268 693.489C134.722 646.976 106.289 599.012 106.289 538.363Z" fill="#FBF9FF"/>
<path d="M126.545 538.363C126.545 477.714 154.978 429.751 182.465 383.318C209.75 337.288 237.981 289.667 237.981 229.863C237.981 170.06 209.79 122.439 182.465 76.3885C167.846 51.7625 152.723 26.2505 142.051 -0.912669L144.87 -2C155.441 24.9215 170.504 50.353 185.143 74.8985C212.649 121.211 241.082 169.255 241.082 229.944C241.082 290.633 212.649 338.556 185.143 384.989C157.858 431.02 129.646 478.621 129.646 538.444C129.646 598.267 157.838 645.868 185.143 691.919C212.649 738.231 241.082 786.275 241.082 846.964H238.062C238.062 787.141 209.871 739.54 182.545 693.489C154.978 646.976 126.545 599.012 126.545 538.363Z" fill="#FBF9FF"/>
<path d="M146.803 538.363C146.803 477.714 175.236 429.751 202.722 383.318C230.028 337.288 258.239 289.667 258.239 229.863C258.239 170.06 230.048 122.439 202.722 76.3885C188.103 51.7625 172.981 26.2505 162.308 -0.912669L165.127 -2C175.719 24.9215 190.761 50.353 205.401 74.8985C232.887 121.211 261.32 169.255 261.32 229.944C261.32 290.633 232.887 338.556 205.401 384.989C178.095 431.02 149.884 478.621 149.884 538.444C149.884 598.267 178.075 645.868 205.401 691.919C232.887 738.231 261.32 786.275 261.32 846.964H258.299C258.299 787.141 230.108 739.54 202.783 693.489C175.236 646.976 146.803 599.012 146.803 538.363Z" fill="#FBF9FF"/>
<path d="M167.06 538.363C167.06 477.714 195.493 429.751 223 383.318C250.285 337.288 278.496 289.667 278.496 229.863C278.496 170.06 250.285 122.479 222.899 76.4288C208.36 51.7625 193.238 26.2505 182.626 -0.912669L185.445 -2C196.037 24.9215 211.099 50.353 225.718 74.8985C253.205 121.211 281.637 169.255 281.637 229.944C281.637 290.633 253.205 338.556 225.718 384.989C198.413 431.02 170.202 478.621 170.202 538.444C170.202 598.267 198.393 645.868 225.718 691.919C253.205 738.231 281.637 786.275 281.637 846.964H278.617C278.617 787.141 250.426 739.54 223.121 693.489C195.493 646.976 167.06 599.012 167.06 538.363Z" fill="#FBF9FF"/>
<path d="M187.318 538.363C187.318 477.714 215.751 429.751 243.257 383.318C270.542 337.288 298.754 289.667 298.754 229.863C298.754 170.06 270.563 122.439 243.257 76.3885C228.638 51.7625 213.516 26.2505 202.763 -0.912669L205.562 -2C216.154 24.9215 231.216 50.353 245.835 74.8985C273.321 121.211 301.754 169.255 301.754 229.944C301.754 290.633 273.321 338.556 245.835 384.989C218.55 431.02 190.318 478.621 190.318 538.444C190.318 598.267 218.51 645.868 245.835 691.919C273.321 738.231 301.754 786.275 301.754 846.964H298.734C298.734 787.141 270.542 739.54 243.237 693.489C215.751 646.976 187.318 599.012 187.318 538.363Z" fill="#FBF9FF"/>
<path d="M207.575 538.363C207.575 477.714 236.008 429.751 263.514 383.318C290.8 337.288 319.011 289.667 319.011 229.863C319.011 170.06 290.82 122.439 263.514 76.3885C248.895 51.7625 233.773 26.2505 223.1 -0.912669L225.899 -2C236.491 24.9215 251.553 50.353 266.173 74.8985C293.679 121.211 322.092 169.255 322.092 229.944C322.092 290.633 293.659 338.556 266.173 384.989C238.887 431.02 210.656 478.621 210.656 538.444C210.656 598.267 238.847 645.868 266.173 691.919C293.659 738.231 322.092 786.275 322.092 846.964H319.071C319.071 787.141 290.88 739.54 263.575 693.489C236.008 646.976 207.575 599.012 207.575 538.363Z" fill="#FBF9FF"/>
<path d="M227.853 538.363C227.853 477.714 256.286 429.751 283.773 383.318C311.058 337.288 339.289 289.667 339.289 229.863C339.289 170.06 311.098 122.439 283.773 76.3885C269.214 51.7625 254.031 26.2505 243.358 -0.912669L246.178 -2C256.749 24.9215 271.811 50.353 286.451 74.8985C313.957 121.211 342.39 169.255 342.39 229.944C342.39 290.633 313.957 338.556 286.451 384.989C259.145 430.939 230.954 478.54 230.954 538.363C230.954 598.187 259.145 645.788 286.451 691.838C313.957 738.15 342.39 786.194 342.39 846.884H339.37C339.37 787.06 311.178 739.459 283.853 693.409C256.286 646.976 227.853 599.012 227.853 538.363Z" fill="#FBF9FF"/>
<path d="M248.11 538.363C248.11 477.714 276.543 429.751 304.029 383.318C331.314 337.288 359.546 289.667 359.546 229.863C359.546 170.06 331.355 122.439 304.029 76.3885C289.35 51.7625 274.288 26.2505 263.615 -0.912669L266.434 -2C277.006 24.9215 292.068 50.353 306.708 74.8985C334.214 121.211 362.647 169.255 362.647 229.944C362.647 290.633 334.214 338.556 306.708 384.989C279.282 430.939 251.09 478.54 251.09 538.363C251.09 598.187 279.282 645.788 306.587 691.838C334.093 738.15 362.526 786.194 362.526 846.884H359.506C359.506 787.06 331.314 739.459 303.989 693.409C276.543 646.976 248.11 599.012 248.11 538.363Z" fill="#FBF9FF"/>
<path d="M268.368 538.363C268.368 477.714 296.8 429.751 324.307 383.318C351.592 337.288 379.803 289.667 379.803 229.863C379.803 170.06 351.612 122.439 324.307 76.3885C309.668 51.7625 294.545 26.2505 283.873 -0.912669L286.692 -2C297.284 24.9215 312.326 50.353 326.965 74.8985C354.451 121.211 382.884 169.255 382.884 229.944C382.884 290.633 354.451 338.556 326.965 384.989C299.66 431.02 271.448 478.621 271.448 538.444C271.448 598.267 299.64 645.868 326.965 691.919C354.451 738.231 382.884 786.275 382.884 846.964H379.864C379.864 787.141 351.673 739.54 324.367 693.489C296.8 646.976 268.368 599.012 268.368 538.363Z" fill="#FBF9FF"/>
<path d="M288.625 538.363C288.625 477.714 317.058 429.751 344.565 383.318C371.91 337.328 400.101 289.707 400.101 229.904C400.101 170.1 371.91 122.479 344.605 76.4288C329.925 51.7625 314.823 26.2505 304.13 -0.912669L306.949 -2C317.541 24.9215 332.603 50.353 347.223 74.8985C374.709 121.211 403.142 169.255 403.142 229.944C403.142 290.633 374.709 338.556 347.223 384.989C319.938 431.02 291.706 478.621 291.706 538.444C291.706 598.267 319.897 645.868 347.223 691.919C374.709 738.231 403.142 786.275 403.142 846.964H400.101C400.101 787.141 371.91 739.54 344.605 693.489C317.058 646.976 288.625 599.012 288.625 538.363Z" fill="#FBF9FF"/>
<path d="M308.883 538.363C308.883 477.714 337.316 429.751 364.822 383.318C392.047 337.328 420.238 289.707 420.238 229.904C420.238 170.1 392.047 122.479 364.742 76.4288C350.203 51.7625 335.08 26.2505 324.408 -0.912669L327.207 -2C337.799 24.9215 352.861 50.353 367.48 74.8985C394.967 121.211 423.399 169.255 423.399 229.944C423.399 290.633 394.967 338.556 367.48 384.989C340.195 431.02 311.964 478.621 311.964 538.444C311.964 598.267 340.155 645.868 367.48 691.919C394.967 738.231 423.399 786.275 423.399 846.964H420.238C420.238 787.141 392.047 739.54 364.742 693.489C337.316 646.976 308.883 599.012 308.883 538.363Z" fill="#FBF9FF"/>
<path d="M329.16 538.363C329.16 477.714 357.573 429.751 385.08 383.318C412.365 337.288 440.596 289.667 440.596 229.863C440.596 170.06 412.405 122.439 385.08 76.3885C370.46 51.7625 355.338 26.2505 344.665 -0.912669L347.464 -2C358.056 24.9215 373.118 50.353 387.738 74.8985C415.244 121.211 443.677 169.255 443.677 229.944C443.677 290.633 415.244 338.556 387.738 384.989C360.453 431.02 332.241 478.621 332.241 538.444C332.241 598.267 360.432 645.868 387.738 691.919C415.244 738.231 443.677 786.275 443.677 846.964H440.657C440.657 787.141 412.465 739.54 385.14 693.489C357.573 646.976 329.16 599.012 329.16 538.363Z" fill="#FBF9FF"/>
<path d="M349.418 538.363C349.418 477.714 377.851 429.751 405.337 383.318C432.622 337.288 460.854 289.667 460.854 229.863C460.854 170.06 432.662 122.439 405.337 76.3885C390.718 51.7625 375.595 26.2505 364.923 -0.912669L367.742 -2C378.314 24.9215 393.376 50.353 408.015 74.8985C435.522 121.211 463.955 169.255 463.955 229.944C463.955 290.633 435.522 338.556 408.015 384.989C380.73 431.02 352.519 478.621 352.519 538.444C352.519 598.267 380.71 645.868 408.015 691.919C435.522 738.231 463.955 786.275 463.955 846.964H460.934C460.934 787.141 432.743 739.54 405.418 693.489C377.851 646.976 349.418 599.012 349.418 538.363Z" fill="#FBF9FF"/>
<path d="M369.675 538.363C369.675 477.714 398.108 429.751 425.595 383.318C452.9 337.288 481.111 289.667 481.111 229.863C481.111 170.06 452.92 122.439 425.595 76.3885C410.975 51.7625 395.853 26.2505 385.18 -0.912669L388.02 -2C398.591 24.9215 413.654 50.353 428.293 74.8985C455.779 121.211 484.212 169.255 484.212 229.944C484.212 290.633 455.779 338.556 428.273 384.989C400.988 431.02 372.776 478.621 372.776 538.444C372.776 598.267 400.968 645.868 428.273 691.919C455.779 738.231 484.212 786.275 484.212 846.964H481.192C481.192 787.141 453 739.54 425.675 693.489C398.088 646.976 369.675 599.012 369.675 538.363Z" fill="#FBF9FF"/>
<path d="M389.932 538.363C389.932 477.714 418.365 429.751 445.872 383.318C473.157 337.288 501.368 289.667 501.368 229.863C501.368 170.06 473.177 122.439 445.872 76.3885C431.232 51.7625 416.11 26.2505 405.437 -0.912669L408.156 -2C418.748 24.9215 433.79 50.353 448.429 74.8985C475.915 121.211 504.348 169.255 504.348 229.944C504.348 290.633 475.915 338.556 448.429 384.989C421.124 431.02 392.912 478.621 392.912 538.444C392.912 598.267 421.104 645.868 448.429 691.919C475.915 738.231 504.348 786.275 504.348 846.964H501.328C501.328 787.141 473.136 739.54 445.831 693.489C418.365 646.976 389.932 599.012 389.932 538.363Z" fill="#FBF9FF"/>
<path d="M410.17 538.363C410.17 477.714 438.603 429.751 466.109 383.318C493.394 337.288 521.606 289.667 521.606 229.863C521.606 170.06 493.414 122.439 466.109 76.3885C451.51 51.7625 436.347 26.2505 425.715 -0.912669L428.514 -2C439.106 24.9215 454.168 50.353 468.787 74.8985C496.274 121.211 524.707 169.255 524.707 229.944C524.707 290.633 496.274 338.556 468.787 384.989C441.502 431.02 413.271 478.621 413.271 538.444C413.271 598.267 441.462 645.868 468.787 691.919C496.274 738.231 524.707 786.275 524.707 846.964H521.686C521.686 787.141 493.495 739.54 466.19 693.489C438.623 646.976 410.17 599.012 410.17 538.363Z" fill="#FBF9FF"/>
<path d="M430.447 538.363C430.447 477.714 458.88 429.751 486.387 383.318C513.672 337.288 541.883 289.667 541.883 229.863C541.883 170.06 513.692 122.439 486.387 76.3885C471.767 51.7625 456.645 26.2505 445.972 -0.912669L448.771 -2C459.363 24.9215 474.425 50.353 489.045 74.8985C516.531 121.211 544.964 169.255 544.964 229.944C544.964 290.633 516.531 338.556 489.045 384.989C461.76 431.02 433.528 478.621 433.528 538.444C433.528 598.267 461.719 645.868 489.045 691.919C516.531 738.231 544.964 786.275 544.964 846.964H541.943C541.943 787.141 513.752 739.54 486.447 693.489C458.88 646.976 430.447 599.012 430.447 538.363Z" fill="#FBF9FF"/>
<path d="M450.725 538.363C450.725 477.714 479.158 429.751 506.644 383.318C533.929 337.288 562.161 289.667 562.161 229.863C562.161 170.06 533.969 122.439 506.644 76.3885C492.025 51.7625 476.902 26.2505 466.23 -0.912669L469.029 -2C479.621 24.9215 494.683 50.353 509.302 74.8985C536.809 121.211 565.241 169.255 565.241 229.944C565.241 290.633 536.809 338.556 509.302 384.989C482.017 431.02 453.806 478.621 453.806 538.444C453.806 598.267 481.997 645.868 509.302 691.919C536.809 738.231 565.241 786.275 565.241 846.964H562.221C562.221 787.141 534.03 739.54 506.704 693.489C479.158 646.976 450.725 599.012 450.725 538.363Z" fill="#FBF9FF"/>
<path d="M470.982 538.363C470.982 477.714 499.415 429.751 526.901 383.318C554.187 337.288 582.418 289.667 582.418 229.863C582.418 170.06 554.187 122.479 526.962 76.4288C512.282 51.7625 497.16 26.2505 486.487 -0.912669L489.306 -2C499.878 24.9215 514.94 50.353 529.58 74.8985C557.086 121.211 585.519 169.255 585.519 229.944C585.519 290.633 557.086 338.556 529.58 384.989C502.295 431.02 474.083 478.621 474.083 538.444C474.083 598.267 502.274 645.868 529.58 691.919C557.086 738.231 585.519 786.275 585.519 846.964H582.499C582.499 787.141 554.307 739.54 526.982 693.489C499.415 646.976 470.982 599.012 470.982 538.363Z" fill="#FBF9FF"/>
<path d="M491.239 538.363C491.239 477.714 519.672 429.751 547.159 383.318C574.464 337.328 602.675 289.707 602.675 229.904C602.675 170.1 574.464 122.479 547.098 76.4288C532.54 51.7625 517.417 26.2505 506.825 -0.912669L509.644 -2C520.216 24.9215 535.278 50.353 549.917 74.8985C577.303 121.291 605.696 169.255 605.696 229.904C605.696 290.553 577.263 338.516 549.756 384.949C522.471 430.979 494.26 478.58 494.26 538.404C494.26 598.227 522.451 645.828 549.756 691.878C577.263 738.191 605.696 786.235 605.696 846.924H602.675C602.675 787.1 574.484 739.499 547.159 693.449C519.672 646.976 491.239 599.012 491.239 538.363Z" fill="#FBF9FF"/>
<path d="M511.497 538.363C511.497 477.714 539.93 429.751 567.436 383.318C594.721 337.328 622.933 289.707 622.933 229.904C622.933 170.1 594.742 122.479 567.436 76.4288C552.797 51.7625 537.674 26.2505 526.962 -0.912669L529.781 -2C540.373 24.9215 555.415 50.353 570.054 74.8985C597.541 121.211 625.973 169.255 625.973 229.944C625.973 290.633 597.541 338.556 570.054 384.989C542.749 431.02 514.538 478.621 514.538 538.444C514.538 598.267 542.729 645.868 570.054 691.919C597.541 738.231 625.973 786.275 625.973 846.964H622.953C622.953 787.141 594.762 739.54 567.456 693.489C539.93 646.976 511.497 599.012 511.497 538.363Z" fill="#FBF9FF"/>
<path d="M531.754 538.363C531.754 477.714 560.187 429.751 587.694 383.318C614.979 337.328 643.19 289.707 643.19 229.904C643.19 170.1 614.979 122.479 587.694 76.4288C573.075 51.7625 557.952 26.2505 547.28 -0.912669L550.079 -2C560.67 24.9215 575.733 50.353 590.352 74.8985C617.838 121.211 646.271 169.255 646.271 229.944C646.271 290.633 617.838 338.556 590.352 384.989C563.067 431.02 534.835 478.621 534.835 538.444C534.835 598.267 563.026 645.868 590.352 691.919C617.838 738.231 646.271 786.275 646.271 846.964H643.251C643.251 787.141 615.059 739.54 587.754 693.489C560.187 646.976 531.754 599.012 531.754 538.363Z" fill="#FBF9FF"/>
<path d="M552.981 533.363C552.981 472.714 581.414 424.751 608.9 378.318C636.186 332.288 664.417 284.667 664.417 224.863C664.417 165.06 636.226 117.439 608.9 71.3885C594.281 46.7625 579.159 21.2505 568.486 -5.91267L571.305 -7C581.877 19.9215 596.939 45.353 611.579 69.8985C639.085 116.211 667.518 164.255 667.518 224.944C667.518 285.633 639.085 333.556 611.579 379.989C584.294 426.02 556.082 473.621 556.082 533.444C556.082 593.267 584.273 640.868 611.579 686.919C639.085 733.231 667.518 781.275 667.518 841.964H664.498C664.498 782.141 636.306 734.54 608.981 688.489C581.414 641.976 552.981 594.012 552.981 533.363Z" fill="#FBF9FF"/>
<path d="M573.238 533.363C573.238 472.714 601.671 424.751 629.157 378.318C656.462 332.288 684.674 284.667 684.674 224.863C684.674 165.06 656.483 117.439 629.157 71.3885C614.538 46.7625 599.416 21.2505 588.743 -5.91267L591.562 -7C602.134 19.9215 617.196 45.353 631.835 69.8985C659.342 116.211 687.775 164.255 687.775 224.944C687.775 285.633 659.342 333.556 631.835 379.989C604.55 426.02 576.339 473.62 576.339 533.444C576.339 593.267 604.53 640.868 631.835 686.919C659.342 733.231 687.775 781.275 687.775 841.964H684.754C684.754 782.141 656.563 734.54 629.238 688.489C601.751 641.976 573.238 594.012 573.238 533.363Z" fill="#FBF9FF"/>
<path d="M593.496 533.363C593.496 472.714 621.929 424.751 649.415 378.318C676.72 332.288 704.932 284.667 704.932 224.863C704.932 165.06 676.74 117.439 649.435 71.3885C634.796 46.7625 619.673 21.2505 609.001 -5.91267L611.82 -7C622.412 19.9215 637.454 45.353 652.093 69.8985C679.58 116.211 708.012 164.255 708.012 224.944C708.012 285.633 679.58 333.556 652.093 379.989C624.788 426.02 596.577 473.621 596.577 533.444C596.577 593.267 624.768 640.868 652.093 686.919C679.58 733.231 708.012 781.275 708.012 841.964H704.992C704.992 782.141 676.801 734.54 649.475 688.489C621.888 641.976 593.496 594.012 593.496 533.363Z" fill="#FBF9FF"/>
<path d="M613.834 533.363C613.834 472.714 642.267 424.751 669.773 378.318C697.058 332.288 725.27 284.667 725.27 224.863C725.27 165.06 697.078 117.439 669.773 71.3885C655.074 46.7625 640.011 21.2505 629.279 -5.91267L632.078 -7C642.669 19.9215 657.732 45.353 672.351 69.8985C699.837 116.211 728.27 164.255 728.27 224.944C728.27 285.633 699.837 333.556 672.351 379.989C645.066 426.02 616.834 473.621 616.834 533.444C616.834 593.267 645.025 640.868 672.351 686.919C699.837 733.231 728.27 781.275 728.27 841.964H725.25C725.25 782.141 697.058 734.54 669.753 688.489C642.186 641.976 613.834 594.012 613.834 533.363Z" fill="#FBF9FF"/>
<path d="M633.97 533.363C633.97 472.714 662.403 424.751 689.91 378.318C717.195 332.288 745.406 284.667 745.406 224.863C745.406 165.06 717.215 117.439 689.91 71.3885C675.331 46.7625 660.148 21.2505 649.536 -5.91267L652.335 -7C662.927 19.9215 677.989 45.353 692.608 69.8985C720.094 116.211 748.527 164.255 748.527 224.944C748.527 285.633 720.094 333.556 692.608 379.989C665.323 426.02 637.092 473.621 637.092 533.444C637.092 593.267 665.283 640.868 692.608 686.919C720.094 733.231 748.527 781.275 748.527 841.964H745.507C745.507 782.141 717.316 734.54 690.01 688.489C662.443 641.976 633.97 594.012 633.97 533.363Z" fill="#FBF9FF"/>
<path d="M654.288 533.363C654.288 472.714 682.721 424.751 710.207 378.318C737.493 332.288 765.724 284.667 765.724 224.863C765.724 165.06 737.533 117.439 710.207 71.3885C695.588 46.7625 680.466 21.2505 669.793 -5.91267L672.592 -7C683.184 19.9215 698.246 45.353 712.865 69.8985C740.372 116.211 768.805 164.255 768.805 224.944C768.805 285.633 740.372 333.556 712.865 379.989C685.58 426.02 657.369 473.621 657.369 533.444C657.369 593.267 685.56 640.868 712.865 686.919C740.372 733.231 768.805 781.275 768.805 841.964H765.784C765.784 782.141 737.593 734.54 710.268 688.489C682.721 641.976 654.288 594.012 654.288 533.363Z" fill="#FBF9FF"/>
<path d="M674.545 533.363C674.545 472.714 702.978 424.751 730.464 378.318C757.749 332.288 785.981 284.667 785.981 224.863C785.981 165.06 757.79 117.439 730.464 71.3885C715.845 46.7625 700.722 21.2505 690.05 -5.91267L692.869 -7C703.441 19.9215 718.503 45.353 733.142 69.8985C760.649 116.211 789.082 164.255 789.082 224.944C789.082 285.633 760.649 333.556 733.142 379.989C705.857 426.02 677.646 473.621 677.646 533.444C677.646 593.267 705.837 640.868 733.142 686.919C760.649 733.231 789.082 781.275 789.082 841.964H786.061C786.061 782.141 757.87 734.54 730.545 688.489C702.978 641.976 674.545 594.012 674.545 533.363Z" fill="#FBF9FF"/>
<path d="M694.803 533.363C694.803 472.714 723.235 424.751 750.722 378.318C778.027 332.288 806.238 284.667 806.238 224.863C806.238 165.06 778.047 117.439 750.722 71.3885C736.103 46.7625 720.98 21.2505 710.308 -5.91267L713.127 -7C723.719 19.9215 738.761 45.353 753.4 69.8985C780.886 116.211 809.319 164.255 809.319 224.944C809.319 285.633 780.886 333.556 753.4 379.989C726.095 426.02 697.883 473.621 697.883 533.444C697.883 593.267 726.075 640.868 753.4 686.919C780.886 733.231 809.319 781.275 809.319 841.964H806.299C806.299 782.141 778.108 734.54 750.782 688.489C723.235 641.976 694.803 594.012 694.803 533.363Z" fill="#FBF9FF"/>
<path d="M715.06 533.363C715.06 472.714 743.493 424.751 770.999 378.318C798.284 332.288 826.496 284.667 826.496 224.863C826.496 165.06 798.284 117.479 770.899 71.4288C756.36 46.7625 741.237 21.2505 730.625 -5.91267L733.445 -7C744.036 19.9215 759.099 45.353 773.718 69.8985C801.204 116.211 829.637 164.255 829.637 224.944C829.637 285.633 801.204 333.556 773.718 379.989C746.412 426.02 718.201 473.621 718.201 533.444C718.201 593.267 746.392 640.868 773.718 686.919C801.204 733.231 829.637 781.275 829.637 841.964H826.616C826.616 782.141 798.425 734.54 771.12 688.489C743.493 641.976 715.06 594.012 715.06 533.363Z" fill="#FBF9FF"/>
</g>
</svg>
